<svg id="Layer_1" data-name="Layer 1" xmlns="http://www.w3.org/2000/svg" xmlns:xlink="http://www.w3.org/1999/xlink" viewBox="0 0 300 300"><defs><style>.cls-1{fill:none;}.cls-2{fill:#2c2e31;}.cls-3{clip-path:url(#clip-path);}.cls-4{fill:#f89c35;}.cls-5{fill:#fff;}.cls-6{fill:#399560;}</style><clipPath id="clip-path"><polygon class="cls-1" points="-0.28 -0.17 299.72 -0.17 299.72 299.83 -0.28 299.83 -0.28 -0.17 -0.28 -0.17"/></clipPath></defs><title>Artboard 1ldpi</title><g id="g10"><path id="path12" class="cls-2" d="M-.28,299.83h300V150.4H-.28V299.83Z"/><path id="path14" class="cls-2" d="M136.24,95.29H135.1V89.78h1.14Z"/><g id="g16"><g class="cls-3"><g id="g18"><g id="g24"><path id="path26" class="cls-2" d="M139.52,92.22l-.19,0h-.2a1.09,1.09,0,0,0-.52.11.69.69,0,0,0-.3.31v2.68h-1.09v-4.1h1l0,.49a1.28,1.28,0,0,1,.39-.41.92.92,0,0,1,.53-.15h.18l.16,0Z"/></g><path id="path28" class="cls-2" d="M141.2,95.29h-1.1v-4.1h1.1ZM140,90.13a.53.53,0,0,1,.17-.4.58.58,0,0,1,.44-.16.71.71,0,0,1,.26,0,.62.62,0,0,1,.19.12.44.44,0,0,1,.12.18.54.54,0,0,1,.05.22.56.56,0,0,1-.05.23.44.44,0,0,1-.12.18.62.62,0,0,1-.19.12.71.71,0,0,1-.26,0,.69.69,0,0,1-.25,0,.52.52,0,0,1-.19-.12.46.46,0,0,1-.13-.18.79.79,0,0,1,0-.23"/><g id="g30"><path id="path32" class="cls-2" d="M144.33,94.16a.42.42,0,0,0,0-.16.27.27,0,0,0-.13-.13,1.47,1.47,0,0,0-.25-.12,2.4,2.4,0,0,0-.43-.11,4.91,4.91,0,0,1-.58-.17,1.72,1.72,0,0,1-.46-.26,1,1,0,0,1-.3-.35.87.87,0,0,1-.11-.46,1,1,0,0,1,.11-.49,1.14,1.14,0,0,1,.32-.41,1.52,1.52,0,0,1,.52-.28,2.07,2.07,0,0,1,.68-.1,2.28,2.28,0,0,1,.72.1,1.52,1.52,0,0,1,.54.27,1.24,1.24,0,0,1,.34.42,1.18,1.18,0,0,1,.12.53h-1.1a.54.54,0,0,0-.15-.39.65.65,0,0,0-.47-.15.67.67,0,0,0-.43.12.41.41,0,0,0-.15.32.27.27,0,0,0,0,.16.4.4,0,0,0,.13.13,1,1,0,0,0,.23.11l.36.09a5.09,5.09,0,0,1,.62.16,1.74,1.74,0,0,1,.49.25,1.1,1.1,0,0,1,.32.36,1,1,0,0,1,.12.52,1.06,1.06,0,0,1-.12.5,1.18,1.18,0,0,1-.35.39,1.71,1.71,0,0,1-.54.27,2.6,2.6,0,0,1-.71.09,2.16,2.16,0,0,1-.76-.12,1.79,1.79,0,0,1-.56-.32,1.41,1.41,0,0,1-.34-.44,1.29,1.29,0,0,1-.11-.5h1a.51.51,0,0,0,.07.28.46.46,0,0,0,.16.18.66.66,0,0,0,.24.11,1.27,1.27,0,0,0,.28,0,.76.76,0,0,0,.47-.12.37.37,0,0,0,.17-.31"/></g><g id="g34"><path id="path36" class="cls-2" d="M147.16,91.64a1.58,1.58,0,0,1,.48-.38,1.41,1.41,0,0,1,.62-.14,1.87,1.87,0,0,1,.55.08,1,1,0,0,1,.43.28,1.33,1.33,0,0,1,.28.5,2.55,2.55,0,0,1,.09.73v2.58h-1.09V92.7a1,1,0,0,0-.05-.33.53.53,0,0,0-.12-.21.55.55,0,0,0-.21-.12,1.2,1.2,0,0,0-.28,0,.83.83,0,0,0-.43.1.87.87,0,0,0-.27.27v2.91h-1.09V89.47h1.09v2.17Z"/></g><g id="g38"><path id="path40" class="cls-2" d="M156.62,89.78v3.64a2.17,2.17,0,0,1-.16.84,1.63,1.63,0,0,1-.44.61,1.92,1.92,0,0,1-.67.38,2.86,2.86,0,0,1-.85.12,2.91,2.91,0,0,1-.85-.12,1.92,1.92,0,0,1-.67-.38,1.6,1.6,0,0,1-.43-.61,2,2,0,0,1-.16-.84V89.78h1.14v3.64a1,1,0,0,0,.26.79,1.15,1.15,0,0,0,1.43,0,1.07,1.07,0,0,0,.26-.79V89.78Z"/></g><g id="g42"><path id="path44" class="cls-2" d="M158.49,91.19l0,.48a1.45,1.45,0,0,1,.51-.41,1.6,1.6,0,0,1,.67-.14,1.78,1.78,0,0,1,.53.08.92.92,0,0,1,.41.27,1.22,1.22,0,0,1,.26.48,2.63,2.63,0,0,1,.09.74v2.6H159.9V92.68a1.49,1.49,0,0,0,0-.33.58.58,0,0,0-.13-.2.53.53,0,0,0-.21-.11,1.14,1.14,0,0,0-.28,0,.68.68,0,0,0-.41.11.75.75,0,0,0-.28.28v2.89h-1.09v-4.1Z"/></g><path id="path46" class="cls-2" d="M163,95.29h-1.1v-4.1H163Zm-1.16-5.16a.52.52,0,0,1,.16-.4.61.61,0,0,1,.45-.16.66.66,0,0,1,.25,0,.67.67,0,0,1,.2.12.57.57,0,0,1,.12.18.54.54,0,0,1,0,.22.56.56,0,0,1,0,.23.57.57,0,0,1-.12.18.67.67,0,0,1-.2.12.8.8,0,0,1-.5,0,.67.67,0,0,1-.2-.12.57.57,0,0,1-.12-.18.56.56,0,0,1,0-.23"/><g id="g48"><path id="path50" class="cls-2" d="M165.42,94l.76-2.77h1.14l-1.38,4.1h-1.05l-1.38-4.1h1.14l.77,2.77Z"/></g><g id="g52"><path id="path54" class="cls-2" d="M169.52,92a.79.79,0,0,0-.32.06.76.76,0,0,0-.23.17,1.75,1.75,0,0,0-.16.27,1.69,1.69,0,0,0-.08.34h1.52v-.08a1.06,1.06,0,0,0-.05-.31.7.7,0,0,0-.13-.24.56.56,0,0,0-.23-.16.8.8,0,0,0-.32,0m.12,3.36a2.26,2.26,0,0,1-.85-.15,2,2,0,0,1-.64-.43,1.91,1.91,0,0,1-.41-.63,2.2,2.2,0,0,1-.13-.78v-.14a2.63,2.63,0,0,1,.13-.86,2.09,2.09,0,0,1,.38-.67,1.78,1.78,0,0,1,.61-.43,1.83,1.83,0,0,1,.79-.16,2.05,2.05,0,0,1,.78.14,1.7,1.7,0,0,1,.57.41,1.87,1.87,0,0,1,.34.64,2.66,2.66,0,0,1,.12.82v.47h-2.61a1,1,0,0,0,.1.36,1,1,0,0,0,.21.28,1,1,0,0,0,.68.25,1.47,1.47,0,0,0,.56-.11,1.11,1.11,0,0,0,.43-.35l.54.6a1.27,1.27,0,0,1-.25.27,1.47,1.47,0,0,1-.34.24,2.09,2.09,0,0,1-.46.17,2.38,2.38,0,0,1-.55.06"/></g><g id="g56"><path id="path58" class="cls-2" d="M174.25,92.22l-.19,0h-.2a1.09,1.09,0,0,0-.52.11.69.69,0,0,0-.3.31v2.68H172v-4.1h1l0,.49a1.28,1.28,0,0,1,.39-.41.92.92,0,0,1,.53-.15h.18l.16,0,0,1Z"/></g><g id="g60"><path id="path62" class="cls-2" d="M177,94.16a.41.41,0,0,0,0-.16.4.4,0,0,0-.13-.13,1.62,1.62,0,0,0-.26-.12,2.51,2.51,0,0,0-.42-.11,4,4,0,0,1-.58-.17,1.63,1.63,0,0,1-.47-.26,1,1,0,0,1-.3-.35,1,1,0,0,1-.11-.46,1.14,1.14,0,0,1,.11-.49,1.27,1.27,0,0,1,.32-.41,1.62,1.62,0,0,1,.52-.28,2.09,2.09,0,0,1,.69-.1,2.26,2.26,0,0,1,.71.1,1.52,1.52,0,0,1,.54.27,1.24,1.24,0,0,1,.34.42,1.18,1.18,0,0,1,.12.53H177a.54.54,0,0,0-.15-.39.66.66,0,0,0-.48-.15.71.71,0,0,0-.43.12.41.41,0,0,0-.15.32.38.38,0,0,0,0,.16.4.4,0,0,0,.13.13.9.9,0,0,0,.24.11l.35.09a4.65,4.65,0,0,1,.62.16,1.61,1.61,0,0,1,.49.25,1.13,1.13,0,0,1,.33.36,1.14,1.14,0,0,1,.11.52,1.06,1.06,0,0,1-.12.5,1.14,1.14,0,0,1-.34.39,1.77,1.77,0,0,1-.55.27,2.6,2.6,0,0,1-.71.09,2.2,2.2,0,0,1-.76-.12,1.79,1.79,0,0,1-.56-.32,1.41,1.41,0,0,1-.34-.44,1.29,1.29,0,0,1-.11-.5h1a.61.61,0,0,0,.07.28.56.56,0,0,0,.16.18.66.66,0,0,0,.24.11,1.27,1.27,0,0,0,.28,0,.81.81,0,0,0,.48-.12.36.36,0,0,0,.16-.31"/></g><path id="path64" class="cls-2" d="M179.92,95.29h-1.09v-4.1h1.09Zm-1.16-5.16a.53.53,0,0,1,.17-.4.61.61,0,0,1,.45-.16.69.69,0,0,1,.25,0,.62.62,0,0,1,.19.12.46.46,0,0,1,.13.18.65.65,0,0,1,0,.45.46.46,0,0,1-.13.18.62.62,0,0,1-.19.12.69.69,0,0,1-.25,0,.71.71,0,0,1-.26,0,.62.62,0,0,1-.19-.12.59.59,0,0,1-.13-.18.79.79,0,0,1,0-.23"/><g id="g66"><path id="path68" class="cls-2" d="M182.14,90.19v1h.7V92h-.7v2a1.27,1.27,0,0,0,0,.22.41.41,0,0,0,.08.13.31.31,0,0,0,.13.06l.19,0h.18l.14,0v.83l-.3.07a1.94,1.94,0,0,1-.36,0,1.53,1.53,0,0,1-.49-.07.85.85,0,0,1-.37-.21.87.87,0,0,1-.23-.37,1.57,1.57,0,0,1-.09-.56V92h-.6v-.81h.6v-1Z"/></g><path id="path70" class="cls-2" d="M184.6,95.29h-1.09v-4.1h1.09Zm-1.16-5.16a.53.53,0,0,1,.17-.4.6.6,0,0,1,.44-.16.71.71,0,0,1,.26,0,.62.62,0,0,1,.19.12.44.44,0,0,1,.12.18.54.54,0,0,1,0,.22.56.56,0,0,1,0,.23.44.44,0,0,1-.12.18.62.62,0,0,1-.19.12.71.71,0,0,1-.26,0,.69.69,0,0,1-.25,0,.62.62,0,0,1-.19-.12.46.46,0,0,1-.13-.18.79.79,0,0,1,0-.23"/><g id="g72"><path id="path74" class="cls-2" d="M187.27,92a.71.71,0,0,0-.31.06.81.81,0,0,0-.24.17,1.17,1.17,0,0,0-.15.27,1.69,1.69,0,0,0-.09.34H188v-.08a1.55,1.55,0,0,0,0-.31.72.72,0,0,0-.14-.24.6.6,0,0,0-.22-.16.88.88,0,0,0-.33,0m.12,3.36a2.26,2.26,0,0,1-.85-.15,2,2,0,0,1-.64-.43,1.74,1.74,0,0,1-.4-.63,2,2,0,0,1-.14-.78v-.14a2.63,2.63,0,0,1,.13-.86,1.94,1.94,0,0,1,.39-.67,1.65,1.65,0,0,1,.6-.43,1.83,1.83,0,0,1,.79-.16,2.05,2.05,0,0,1,.78.14,1.61,1.61,0,0,1,.57.41,1.71,1.71,0,0,1,.34.64,2.66,2.66,0,0,1,.12.82v.47h-2.61a1,1,0,0,0,.11.36.84.84,0,0,0,.2.28.92.92,0,0,0,.3.18,1,1,0,0,0,.38.07,1.47,1.47,0,0,0,.56-.11,1.11,1.11,0,0,0,.43-.35l.54.6a1.22,1.22,0,0,1-.24.27,1.8,1.8,0,0,1-.35.24,2.09,2.09,0,0,1-.46.17,2.32,2.32,0,0,1-.55.06"/></g><g id="g76"><path id="path78" class="cls-2" d="M191.92,94.16a.41.41,0,0,0,0-.16.4.4,0,0,0-.13-.13,1.62,1.62,0,0,0-.26-.12,2.51,2.51,0,0,0-.42-.11,4.41,4.41,0,0,1-.58-.17,1.58,1.58,0,0,1-.46-.26,1,1,0,0,1-.31-.35,1,1,0,0,1-.11-.46,1.14,1.14,0,0,1,.11-.49,1.27,1.27,0,0,1,.32-.41,1.62,1.62,0,0,1,.52-.28,2.09,2.09,0,0,1,.69-.1,2.26,2.26,0,0,1,.71.1,1.37,1.37,0,0,1,.54.27,1.13,1.13,0,0,1,.34.42,1.18,1.18,0,0,1,.12.53h-1.09a.54.54,0,0,0-.15-.39.82.82,0,0,0-.9,0,.39.39,0,0,0-.16.32.38.38,0,0,0,0,.16.4.4,0,0,0,.13.13.9.9,0,0,0,.24.11l.36.09a4.92,4.92,0,0,1,.61.16,1.61,1.61,0,0,1,.49.25,1.13,1.13,0,0,1,.33.36,1,1,0,0,1,.12.52,1,1,0,0,1-.13.5,1.14,1.14,0,0,1-.34.39,1.66,1.66,0,0,1-.55.27,2.6,2.6,0,0,1-.71.09,2.2,2.2,0,0,1-.76-.12,1.91,1.91,0,0,1-.56-.32,1.24,1.24,0,0,1-.33-.44,1.15,1.15,0,0,1-.12-.5h1a.77.77,0,0,0,.07.28.49.49,0,0,0,.17.18.55.55,0,0,0,.23.11,1.33,1.33,0,0,0,.28,0,.81.81,0,0,0,.48-.12.36.36,0,0,0,.16-.31"/></g><g id="g80"><path id="path82" class="cls-2" d="M196.93,91.14a.72.72,0,0,0,.09.34,2.31,2.31,0,0,0,.24.37l.29-.19.2-.15a.53.53,0,0,0,.12-.14.47.47,0,0,0,.06-.15.88.88,0,0,0,0-.17.59.59,0,0,0,0-.17.44.44,0,0,0-.1-.15.4.4,0,0,0-.15-.1.54.54,0,0,0-.21,0,.52.52,0,0,0-.23,0,.48.48,0,0,0-.16.12.42.42,0,0,0-.1.17.78.78,0,0,0,0,.22m.4,3.35a1.33,1.33,0,0,0,.74-.22L197,93l-.08.06-.18.18-.1.17a1.54,1.54,0,0,0,0,.17.92.92,0,0,0,0,.16.93.93,0,0,0,.05.29.67.67,0,0,0,.16.24.6.6,0,0,0,.24.16,1,1,0,0,0,.31,0m-1.86-.68a1.18,1.18,0,0,1,.08-.43,1.11,1.11,0,0,1,.2-.37,2.33,2.33,0,0,1,.31-.32,4.4,4.4,0,0,1,.41-.31,4,4,0,0,1-.38-.62,1.34,1.34,0,0,1-.15-.61,1.63,1.63,0,0,1,.11-.59,1.33,1.33,0,0,1,.31-.46,1.25,1.25,0,0,1,.47-.29,1.77,1.77,0,0,1,1.2,0,1.25,1.25,0,0,1,.73.69,1.21,1.21,0,0,1,.1.5,1.32,1.32,0,0,1-.21.68,2.09,2.09,0,0,1-.23.29,2.43,2.43,0,0,1-.3.24l-.35.26.95,1.1a2.18,2.18,0,0,0,.16-.45,2.12,2.12,0,0,0,.06-.52h.93a3.59,3.59,0,0,1-.11,1,2.56,2.56,0,0,1-.38.8l.82,1H199l-.28-.32a2.17,2.17,0,0,1-.66.3,2.55,2.55,0,0,1-.74.1,2.29,2.29,0,0,1-.76-.12,1.59,1.59,0,0,1-.57-.32,1.33,1.33,0,0,1-.35-.49,1.45,1.45,0,0,1-.13-.63"/></g><g id="g84"><path id="path86" class="cls-2" d="M136.11,99.09l1.81,4.5,1.8-4.5h.95v5.52h-.73v-2.15l.07-2.32-1.81,4.47h-.56l-1.81-4.46.07,2.31v2.15h-.72V99.09Z"/></g><g id="g88"><path id="path90" class="cls-2" d="M143.45,101a1,1,0,0,0-.39.07,1.14,1.14,0,0,0-.31.23,1.08,1.08,0,0,0-.24.37,1.75,1.75,0,0,0-.12.5h2.05v-.05a2,2,0,0,0-.07-.41,1,1,0,0,0-.17-.36.79.79,0,0,0-.29-.25,1,1,0,0,0-.46-.1m.09,3.67a1.92,1.92,0,0,1-.77-.15,1.65,1.65,0,0,1-.6-.41,1.85,1.85,0,0,1-.38-.62,2.58,2.58,0,0,1-.13-.8v-.16a2.48,2.48,0,0,1,.15-.89,1.93,1.93,0,0,1,.4-.67,2.06,2.06,0,0,1,.57-.41,1.83,1.83,0,0,1,1.43,0,1.6,1.6,0,0,1,.53.43,1.84,1.84,0,0,1,.3.63,3,3,0,0,1,.1.8v.32h-2.78a1.84,1.84,0,0,0,.1.53,1.14,1.14,0,0,0,.24.43,1.08,1.08,0,0,0,.38.28,1,1,0,0,0,.5.11,1.22,1.22,0,0,0,.63-.15,1.71,1.71,0,0,0,.45-.4l.43.33a2.17,2.17,0,0,1-.24.29,1.46,1.46,0,0,1-.33.26,2.14,2.14,0,0,1-.43.18,2.26,2.26,0,0,1-.55.06"/></g><g id="g92"><path id="path94" class="cls-2" d="M146.48,102.6a2.65,2.65,0,0,0,.06.58,1.55,1.55,0,0,0,.2.47,1,1,0,0,0,.34.32.94.94,0,0,0,.49.12,1.14,1.14,0,0,0,.33,0,.83.83,0,0,0,.27-.12,1,1,0,0,0,.21-.19,1.43,1.43,0,0,0,.16-.24v-1.88a2,2,0,0,0-.16-.24.91.91,0,0,0-.21-.18,1.11,1.11,0,0,0-.27-.12,1.15,1.15,0,0,0-.33,0,1,1,0,0,0-.49.12.87.87,0,0,0-.34.32,1.67,1.67,0,0,0-.2.47,2.78,2.78,0,0,0-.06.58v.08Zm-.7-.08a2.82,2.82,0,0,1,.12-.85,1.85,1.85,0,0,1,.32-.66,1.72,1.72,0,0,1,.51-.43,1.47,1.47,0,0,1,.67-.15,1.45,1.45,0,0,1,.65.13,1.33,1.33,0,0,1,.49.36V98.79h.7v5.82h-.64l0-.44a1.41,1.41,0,0,1-.49.38,1.59,1.59,0,0,1-.68.13,1.45,1.45,0,0,1-.66-.15,1.76,1.76,0,0,1-.51-.44,1.85,1.85,0,0,1-.32-.66,2.73,2.73,0,0,1-.12-.83v-.08Z"/></g><path id="path96" class="cls-2" d="M151.09,104.61h-.7v-4.1h.7Zm-.76-5.19a.44.44,0,0,1,.11-.29.38.38,0,0,1,.3-.12.42.42,0,0,1,.32.12.43.43,0,0,1,.1.29.39.39,0,0,1-.1.28.42.42,0,0,1-.32.12.38.38,0,0,1-.3-.12.39.39,0,0,1-.11-.28"/><g id="g98"><path id="path100" class="cls-2" d="M153.86,104.11a1,1,0,0,0,.35-.06.87.87,0,0,0,.3-.17.88.88,0,0,0,.22-.25.85.85,0,0,0,.09-.32h.66a1.39,1.39,0,0,1-.14.53,1.48,1.48,0,0,1-.36.43,1.63,1.63,0,0,1-.51.3,1.57,1.57,0,0,1-.61.11,1.86,1.86,0,0,1-.81-.16,1.59,1.59,0,0,1-.57-.45,1.91,1.91,0,0,1-.34-.65,2.88,2.88,0,0,1-.11-.78v-.16a2.9,2.9,0,0,1,.11-.79,2.12,2.12,0,0,1,.34-.65,1.56,1.56,0,0,1,.57-.44,1.81,1.81,0,0,1,.8-.17,2,2,0,0,1,.66.11,1.53,1.53,0,0,1,.5.32,1.32,1.32,0,0,1,.34.47,1.64,1.64,0,0,1,.13.59h-.66a1.06,1.06,0,0,0-.09-.36.94.94,0,0,0-.2-.29,1,1,0,0,0-.29-.19,1,1,0,0,0-.39-.07,1,1,0,0,0-.54.13.86.86,0,0,0-.34.34,1.41,1.41,0,0,0-.19.47,3.07,3.07,0,0,0-.05.53v.16a3.07,3.07,0,0,0,.05.53,1.33,1.33,0,0,0,.19.47.92.92,0,0,0,.34.34,1,1,0,0,0,.55.13"/></g><g id="g102"><path id="path104" class="cls-2" d="M157.64,104.07a1.36,1.36,0,0,0,.36,0,1.38,1.38,0,0,0,.3-.14,1.55,1.55,0,0,0,.24-.19,1,1,0,0,0,.15-.23v-.84h-.58a2,2,0,0,0-.93.18.63.63,0,0,0-.32.57.66.66,0,0,0,0,.28.54.54,0,0,0,.15.22.7.7,0,0,0,.24.15,1.16,1.16,0,0,0,.34,0m1.16.54s0-.12-.06-.19l0-.25a1.5,1.5,0,0,1-.23.2,1.2,1.2,0,0,1-.27.16,1,1,0,0,1-.31.11,1.47,1.47,0,0,1-.36,0,1.7,1.7,0,0,1-.57-.09,1.46,1.46,0,0,1-.44-.26,1.08,1.08,0,0,1-.37-.86,1.34,1.34,0,0,1,.12-.58,1.15,1.15,0,0,1,.37-.42,1.68,1.68,0,0,1,.59-.26,2.93,2.93,0,0,1,.76-.09h.69v-.32a.78.78,0,0,0-.22-.59.88.88,0,0,0-.64-.21,1,1,0,0,0-.36,0,.82.82,0,0,0-.28.14.6.6,0,0,0-.18.21.55.55,0,0,0-.07.24h-.7a1,1,0,0,1,.11-.43,1.23,1.23,0,0,1,.33-.39,1.52,1.52,0,0,1,.52-.28,2,2,0,0,1,.67-.11,2,2,0,0,1,.61.09,1.34,1.34,0,0,1,.49.25,1.22,1.22,0,0,1,.31.43,1.48,1.48,0,0,1,.12.61v1.9a3.37,3.37,0,0,0,0,.44,1.92,1.92,0,0,0,.11.4v.06Z"/></g><path id="path106" class="cls-2" d="M161.26,104.61h-.71V98.79h.71Z"/><g id="g108"><path id="path110" class="cls-2" d="M167.35,103.21a.9.9,0,0,0-.06-.34.66.66,0,0,0-.21-.27,1.62,1.62,0,0,0-.4-.23,5.4,5.4,0,0,0-.65-.22,5.76,5.76,0,0,1-.74-.27,2.31,2.31,0,0,1-.56-.34,1.28,1.28,0,0,1-.36-.45,1.43,1.43,0,0,1,0-1.17,1.58,1.58,0,0,1,.38-.48,1.74,1.74,0,0,1,.59-.31,2.53,2.53,0,0,1,1.6,0,1.86,1.86,0,0,1,.61.38,1.52,1.52,0,0,1,.38.53,1.5,1.5,0,0,1,.13.62h-.73a1.16,1.16,0,0,0-.08-.42.87.87,0,0,0-.22-.34,1.1,1.1,0,0,0-.38-.23,1.71,1.71,0,0,0-.54-.08,2,2,0,0,0-.51.07,1.06,1.06,0,0,0-.35.19.63.63,0,0,0-.21.28.86.86,0,0,0-.07.36.88.88,0,0,0,.07.32.92.92,0,0,0,.23.26,1.67,1.67,0,0,0,.4.22,4.49,4.49,0,0,0,.59.2,6.76,6.76,0,0,1,.81.29,2.18,2.18,0,0,1,.56.37,1.31,1.31,0,0,1,.33.46,1.48,1.48,0,0,1,.11.57,1.37,1.37,0,0,1-.52,1.08,1.93,1.93,0,0,1-.61.3,2.8,2.8,0,0,1-.79.1,2.92,2.92,0,0,1-.51,0,2.77,2.77,0,0,1-.49-.15,2.22,2.22,0,0,1-.43-.23,1.76,1.76,0,0,1-.58-.74,1.7,1.7,0,0,1-.08-.51h.73a1,1,0,0,0,.11.48,1.1,1.1,0,0,0,.3.34,1.48,1.48,0,0,0,.44.2,2.1,2.1,0,0,0,.51.06,1.4,1.4,0,0,0,.88-.24.74.74,0,0,0,.31-.64"/></g><g id="g112"><path id="path114" class="cls-2" d="M170.55,104.11a1,1,0,0,0,.35-.06.87.87,0,0,0,.3-.17.88.88,0,0,0,.22-.25.85.85,0,0,0,.09-.32h.67a1.24,1.24,0,0,1-.15.53,1.48,1.48,0,0,1-.36.43,1.44,1.44,0,0,1-.51.3,1.57,1.57,0,0,1-.61.11,1.86,1.86,0,0,1-.81-.16,1.59,1.59,0,0,1-.57-.45,1.91,1.91,0,0,1-.34-.65,2.88,2.88,0,0,1-.11-.78v-.16a2.9,2.9,0,0,1,.11-.79,2.12,2.12,0,0,1,.34-.65,1.56,1.56,0,0,1,.57-.44,1.81,1.81,0,0,1,.8-.17,2,2,0,0,1,.66.11,1.53,1.53,0,0,1,.5.32,1.32,1.32,0,0,1,.34.47,1.65,1.65,0,0,1,.14.59h-.67a1.06,1.06,0,0,0-.09-.36.94.94,0,0,0-.2-.29,1,1,0,0,0-.29-.19,1,1,0,0,0-.39-.07,1,1,0,0,0-.54.13.92.92,0,0,0-.34.34,1.41,1.41,0,0,0-.19.47,3.07,3.07,0,0,0-.05.53v.16a3.07,3.07,0,0,0,.05.53,1.33,1.33,0,0,0,.19.47.92.92,0,0,0,.34.34,1,1,0,0,0,.55.13"/></g><g id="g116"><path id="path118" class="cls-2" d="M173.66,101a1.64,1.64,0,0,1,.53-.42,1.55,1.55,0,0,1,.69-.15,1.8,1.8,0,0,1,.54.08,1,1,0,0,1,.41.26,1.26,1.26,0,0,1,.27.47,2.2,2.2,0,0,1,.09.68v2.69h-.7v-2.7a1.16,1.16,0,0,0-.06-.4.58.58,0,0,0-.15-.28.61.61,0,0,0-.26-.15,1,1,0,0,0-.35,0,1,1,0,0,0-.6.18,1.2,1.2,0,0,0-.41.48v2.92H173V98.79h.7V101Z"/></g><g id="g120"><path id="path122" class="cls-2" d="M177.76,102.6a2.15,2.15,0,0,0,.07.58,1.51,1.51,0,0,0,.22.48,1,1,0,0,0,.36.33,1.14,1.14,0,0,0,1,0,1,1,0,0,0,.36-.33,1.51,1.51,0,0,0,.22-.48,2.15,2.15,0,0,0,.07-.58v-.08a2.2,2.2,0,0,0-.07-.58,1.51,1.51,0,0,0-.22-.48,1.06,1.06,0,0,0-.37-.33,1,1,0,0,0-.51-.12,1,1,0,0,0-.5.12,1,1,0,0,0-.36.33,1.51,1.51,0,0,0-.22.48,2.2,2.2,0,0,0-.07.58v.08Zm-.71-.08a2.72,2.72,0,0,1,.13-.83,2.13,2.13,0,0,1,.37-.66,1.72,1.72,0,0,1,.59-.44,1.77,1.77,0,0,1,.77-.16,1.86,1.86,0,0,1,.79.16,1.69,1.69,0,0,1,.58.44,2,2,0,0,1,.38.66,2.73,2.73,0,0,1,.12.83v.08a2.73,2.73,0,0,1-.12.83,2,2,0,0,1-.38.66,1.69,1.69,0,0,1-.58.44,2.1,2.1,0,0,1-1.56,0,1.69,1.69,0,0,1-.58-.44,2,2,0,0,1-.38-.66,2.72,2.72,0,0,1-.13-.83v-.08Z"/></g><g id="g124"><path id="path126" class="cls-2" d="M182.18,102.6a2.63,2.63,0,0,0,.07.58,1.76,1.76,0,0,0,.22.48,1.06,1.06,0,0,0,.37.33,1,1,0,0,0,.51.12,1,1,0,0,0,.5-.12,1.06,1.06,0,0,0,.37-.33,1.76,1.76,0,0,0,.22-.48,2.63,2.63,0,0,0,.07-.58v-.08a2.71,2.71,0,0,0-.07-.58,1.76,1.76,0,0,0-.22-.48,1.1,1.1,0,0,0-1.39-.33,1.13,1.13,0,0,0-.36.33,1.76,1.76,0,0,0-.22.48,2.71,2.71,0,0,0-.07.58v.08Zm-.7-.08a2.45,2.45,0,0,1,.13-.83A2.13,2.13,0,0,1,182,101a1.76,1.76,0,0,1,1.36-.6,1.78,1.78,0,0,1,.78.16,1.72,1.72,0,0,1,.59.44,1.94,1.94,0,0,1,.37.66,2.45,2.45,0,0,1,.13.83v.08a2.45,2.45,0,0,1-.13.83,1.94,1.94,0,0,1-.37.66,1.72,1.72,0,0,1-.59.44,2.08,2.08,0,0,1-1.55,0,1.72,1.72,0,0,1-.59-.44,2.13,2.13,0,0,1-.37-.66,2.45,2.45,0,0,1-.13-.83Z"/></g><path id="path128" class="cls-2" d="M186.85,104.61h-.7V98.79h.7Z"/><g id="g130"><path id="path132" class="cls-2" d="M190.36,103.52a.66.66,0,0,0,0-.21.49.49,0,0,0-.14-.19,1,1,0,0,0-.28-.17,3,3,0,0,0-.49-.14,4.23,4.23,0,0,1-.62-.17,1.81,1.81,0,0,1-.46-.24,1,1,0,0,1-.3-.32,1,1,0,0,1,0-.91,1.11,1.11,0,0,1,.31-.38,1.43,1.43,0,0,1,.47-.26,1.81,1.81,0,0,1,.63-.1,2,2,0,0,1,.66.1,1.57,1.57,0,0,1,.49.28,1.2,1.2,0,0,1,.31.4,1.24,1.24,0,0,1,.1.5h-.7a.57.57,0,0,0-.06-.25.72.72,0,0,0-.17-.23,1,1,0,0,0-.26-.16,1.06,1.06,0,0,0-.37-.06,1.09,1.09,0,0,0-.38,0,.84.84,0,0,0-.25.13.66.66,0,0,0-.14.2.54.54,0,0,0-.05.22.59.59,0,0,0,0,.2.39.39,0,0,0,.15.17,1.31,1.31,0,0,0,.29.14l.47.12a5.09,5.09,0,0,1,.65.2,1.54,1.54,0,0,1,.46.26.86.86,0,0,1,.27.33,1,1,0,0,1,.09.44,1.14,1.14,0,0,1-.11.49,1.2,1.2,0,0,1-.32.39,1.79,1.79,0,0,1-.5.24,2.22,2.22,0,0,1-.65.09,2.27,2.27,0,0,1-.72-.11,1.93,1.93,0,0,1-.53-.3,1.46,1.46,0,0,1-.32-.43,1.25,1.25,0,0,1-.11-.5h.7a.81.81,0,0,0,.11.37.84.84,0,0,0,.23.23.85.85,0,0,0,.31.13,1.24,1.24,0,0,0,.33,0,1.13,1.13,0,0,0,.38,0,.85.85,0,0,0,.27-.12.44.44,0,0,0,.17-.19.46.46,0,0,0,.06-.23"/></g><g id="g134"><path id="path136" class="cls-2" d="M198.06,102.86a2.39,2.39,0,0,1-.19.72,1.72,1.72,0,0,1-.4.58,1.8,1.8,0,0,1-.63.38,2.34,2.34,0,0,1-.87.14,2.18,2.18,0,0,1-.89-.18,1.9,1.9,0,0,1-.68-.52,2.45,2.45,0,0,1-.43-.8,3.46,3.46,0,0,1-.15-1.05v-.55a3.53,3.53,0,0,1,.15-1.06,2.29,2.29,0,0,1,.44-.8,2,2,0,0,1,.7-.52,2.42,2.42,0,0,1,1.75,0,1.71,1.71,0,0,1,.61.38,1.67,1.67,0,0,1,.4.58,2.3,2.3,0,0,1,.19.75h-.73a2.64,2.64,0,0,0-.13-.52A1.28,1.28,0,0,0,197,100a1,1,0,0,0-.38-.25,1.45,1.45,0,0,0-.54-.09,1.48,1.48,0,0,0-.65.14,1.39,1.39,0,0,0-.47.4,1.86,1.86,0,0,0-.28.62,3.32,3.32,0,0,0-.09.8v.56a3.69,3.69,0,0,0,.08.76,2.07,2.07,0,0,0,.26.62,1.35,1.35,0,0,0,.44.42,1.22,1.22,0,0,0,.64.16,1.7,1.7,0,0,0,.59-.09.86.86,0,0,0,.39-.24,1,1,0,0,0,.25-.38,2.64,2.64,0,0,0,.13-.52Z"/></g><g id="g138"><path id="path140" class="cls-2" d="M199.47,102.6a2.15,2.15,0,0,0,.07.58,1.49,1.49,0,0,0,.21.48,1.06,1.06,0,0,0,.37.33,1,1,0,0,0,.51.12,1.07,1.07,0,0,0,.51-.12,1.13,1.13,0,0,0,.36-.33,1.51,1.51,0,0,0,.22-.48,2.15,2.15,0,0,0,.07-.58v-.08a2.2,2.2,0,0,0-.07-.58,1.51,1.51,0,0,0-.22-.48,1.06,1.06,0,0,0-.37-.33,1,1,0,0,0-.51-.12,1,1,0,0,0-.5.12,1.06,1.06,0,0,0-.37.33,1.49,1.49,0,0,0-.21.48,2.2,2.2,0,0,0-.08.58v.08Zm-.71-.08a2.45,2.45,0,0,1,.13-.83,2.13,2.13,0,0,1,.37-.66,1.72,1.72,0,0,1,.59-.44,2,2,0,0,1,1.55,0,1.72,1.72,0,0,1,.59.44,1.94,1.94,0,0,1,.37.66,2.45,2.45,0,0,1,.13.83v.08a2.45,2.45,0,0,1-.13.83,1.94,1.94,0,0,1-.37.66,1.79,1.79,0,0,1-.58.44,2.1,2.1,0,0,1-1.56,0,1.82,1.82,0,0,1-.59-.44,2.13,2.13,0,0,1-.37-.66,2.45,2.45,0,0,1-.13-.83Z"/></g><g id="g142"><path id="path144" class="cls-2" d="M204,100.51l0,.51a1.55,1.55,0,0,1,1.23-.59,1.85,1.85,0,0,1,.54.08,1,1,0,0,1,.41.26,1.25,1.25,0,0,1,.26.47,1.91,1.91,0,0,1,.1.68v2.69h-.7v-2.7a1.16,1.16,0,0,0-.06-.4.59.59,0,0,0-.16-.28.53.53,0,0,0-.25-.15,1,1,0,0,0-.36,0,1.06,1.06,0,0,0-.6.18,1.26,1.26,0,0,0-.4.48v2.92h-.7v-4.1Z"/></g><g id="g146"><path id="path148" class="cls-2" d="M210,103.52a.66.66,0,0,0,0-.21.49.49,0,0,0-.14-.19,1,1,0,0,0-.28-.17,3,3,0,0,0-.49-.14,4.23,4.23,0,0,1-.62-.17,1.81,1.81,0,0,1-.46-.24.88.88,0,0,1-.29-.32.94.94,0,0,1-.11-.45,1.07,1.07,0,0,1,.11-.46,1.11,1.11,0,0,1,.31-.38,1.43,1.43,0,0,1,.47-.26,1.81,1.81,0,0,1,.63-.1,2,2,0,0,1,.66.1,1.57,1.57,0,0,1,.49.28,1.2,1.2,0,0,1,.31.4,1.24,1.24,0,0,1,.1.5H210a.57.57,0,0,0-.06-.25.87.87,0,0,0-.16-.23,1.2,1.2,0,0,0-.27-.16,1.06,1.06,0,0,0-.37-.06,1,1,0,0,0-.37,0,.79.79,0,0,0-.26.13.66.66,0,0,0-.14.2.54.54,0,0,0-.05.22.59.59,0,0,0,0,.2.39.39,0,0,0,.15.17,1.31,1.31,0,0,0,.29.14l.47.12a5.09,5.09,0,0,1,.65.2,1.54,1.54,0,0,1,.46.26.86.86,0,0,1,.27.33,1,1,0,0,1,.09.44,1.14,1.14,0,0,1-.11.49,1.08,1.08,0,0,1-.32.39,1.79,1.79,0,0,1-.5.24,2.22,2.22,0,0,1-.65.09,2.27,2.27,0,0,1-.72-.11,1.93,1.93,0,0,1-.53-.3,1.46,1.46,0,0,1-.32-.43,1.25,1.25,0,0,1-.11-.5h.7a.81.81,0,0,0,.11.37.84.84,0,0,0,.23.23.85.85,0,0,0,.31.13,1.24,1.24,0,0,0,.33,0,1.09,1.09,0,0,0,.38,0,.85.85,0,0,0,.27-.12.44.44,0,0,0,.17-.19.46.46,0,0,0,.06-.23"/></g><g id="g150"><path id="path152" class="cls-2" d="M212.17,102.6a2.14,2.14,0,0,0,.08.58,1.49,1.49,0,0,0,.21.48,1.06,1.06,0,0,0,.37.33,1,1,0,0,0,.51.12,1,1,0,0,0,.5-.12,1.06,1.06,0,0,0,.37-.33,1.76,1.76,0,0,0,.22-.48,2.15,2.15,0,0,0,.07-.58v-.08a2.2,2.2,0,0,0-.07-.58,1.76,1.76,0,0,0-.22-.48,1,1,0,0,0-.88-.45,1,1,0,0,0-.5.12,1.06,1.06,0,0,0-.37.33,1.49,1.49,0,0,0-.21.48,2.2,2.2,0,0,0-.08.58v.08Zm-.7-.08a2.45,2.45,0,0,1,.13-.83A2.13,2.13,0,0,1,212,101a1.76,1.76,0,0,1,1.36-.6,1.78,1.78,0,0,1,.78.16,1.72,1.72,0,0,1,.59.44,1.94,1.94,0,0,1,.37.66,2.45,2.45,0,0,1,.13.83v.08a2.45,2.45,0,0,1-.13.83,1.94,1.94,0,0,1-.37.66,1.72,1.72,0,0,1-.59.44,2.08,2.08,0,0,1-1.55,0,1.72,1.72,0,0,1-.59-.44,2.13,2.13,0,0,1-.37-.66,2.45,2.45,0,0,1-.13-.83v-.08Z"/></g><g id="g154"><path id="path156" class="cls-2" d="M218.06,101.14l-.17,0h-.17a1,1,0,0,0-.6.16,1,1,0,0,0-.34.43v2.91h-.7v-4.1h.68V101a1.27,1.27,0,0,1,.4-.4,1.06,1.06,0,0,1,.58-.15l.18,0,.13,0Z"/></g><g id="g158"><path id="path160" class="cls-2" d="M219.85,99.51v1h.76v.54h-.76v2.54a.93.93,0,0,0,0,.26.56.56,0,0,0,.1.15.41.41,0,0,0,.15.07h.35l.15,0v.57l-.22,0-.32,0a1.36,1.36,0,0,1-.36-.05.67.67,0,0,1-.3-.19.82.82,0,0,1-.21-.34,1.53,1.53,0,0,1-.07-.51v-2.54h-.75v-.54h.75v-1Z"/></g><path id="path162" class="cls-2" d="M222.19,104.61h-.7v-4.1h.7Zm-.76-5.19a.44.44,0,0,1,.11-.29.39.39,0,0,1,.31-.12.4.4,0,0,1,.31.12.43.43,0,0,1,.1.29.39.39,0,0,1-.1.28.4.4,0,0,1-.31.12.39.39,0,0,1-.31-.12.39.39,0,0,1-.11-.28"/><g id="g164"><path id="path166" class="cls-2" d="M225.84,104.2a1.35,1.35,0,0,1-.48.36,2.09,2.09,0,0,1-1.27,0,1.17,1.17,0,0,1-.42-.27,1.12,1.12,0,0,1-.27-.48,2,2,0,0,1-.1-.69v-2.65h.7v2.65a1.47,1.47,0,0,0,.06.46.83.83,0,0,0,.17.28.73.73,0,0,0,.25.15,1.26,1.26,0,0,0,.28,0,1.24,1.24,0,0,0,.68-.17,1,1,0,0,0,.39-.43v-3h.7v4.1h-.67l0-.41Z"/></g><g id="g168"><path id="path170" class="cls-2" d="M228.25,100.51l0,.45a1.39,1.39,0,0,1,.51-.39,1.73,1.73,0,0,1,.71-.14,1.45,1.45,0,0,1,.7.16,1,1,0,0,1,.47.5,1.45,1.45,0,0,1,.53-.48,1.59,1.59,0,0,1,.77-.18,1.78,1.78,0,0,1,.59.09,1,1,0,0,1,.43.26,1.13,1.13,0,0,1,.26.47,1.83,1.83,0,0,1,.1.66v2.7h-.71v-2.7a1.31,1.31,0,0,0-.06-.43.73.73,0,0,0-.17-.27.57.57,0,0,0-.28-.14,1.37,1.37,0,0,0-.36,0,1.12,1.12,0,0,0-.38.06,1,1,0,0,0-.29.19,1,1,0,0,0-.28.61v2.72h-.7v-2.7a1.16,1.16,0,0,0-.06-.4.85.85,0,0,0-.18-.28.69.69,0,0,0-.28-.15,1,1,0,0,0-.36,0,.94.94,0,0,0-.94.58v3h-.7v-4.1Z"/></g><path id="path172" class="cls-2" d="M140.67,81.93H135.1V54.68h5.57Z"/><g id="g174"><path id="path176" class="cls-2" d="M169.78,70.65a13,13,0,0,1-.89,4.92,10.78,10.78,0,0,1-2.43,3.71,10.44,10.44,0,0,1-3.66,2.34,12.85,12.85,0,0,1-4.58.8,13,13,0,0,1-4.6-.8,10.33,10.33,0,0,1-6.09-6.05,13.23,13.23,0,0,1-.87-4.92v-16h5.57V71.07a7.13,7.13,0,0,0,.46,2.68A5.35,5.35,0,0,0,154,75.69a5.17,5.17,0,0,0,1.9,1.18,7.4,7.4,0,0,0,4.74,0,5.17,5.17,0,0,0,1.9-1.18,5.35,5.35,0,0,0,1.26-1.94,7.13,7.13,0,0,0,.46-2.68V54.68h5.57v16Z"/></g><g id="g178"><path id="path180" class="cls-2" d="M202.52,81.93H197V67.35L190.05,76h-1.81l-6.86-8.63V81.93h-5.57V54.18h1.86L189.14,69l11.57-14.78h1.81Z"/></g><g id="g182"><path id="path184" class="cls-2" d="M221.68,54.18A13.89,13.89,0,0,1,228.8,56a13.38,13.38,0,0,1,4.93,5l-4.25,3a10.42,10.42,0,0,0-3.28-3.38,8.36,8.36,0,0,0-4.52-1.2,9,9,0,0,0-3.49.66,8.34,8.34,0,0,0-2.77,1.86,8.61,8.61,0,0,0-1.83,2.85,10.29,10.29,0,0,0,0,7.25,8.28,8.28,0,0,0,4.6,4.64,9,9,0,0,0,3.49.66,8.36,8.36,0,0,0,4.52-1.2,10.22,10.22,0,0,0,3.28-3.38l4.25,3a13.48,13.48,0,0,1-4.93,5,13.89,13.89,0,0,1-7.12,1.81,15.09,15.09,0,0,1-5.7-1.07,13.94,13.94,0,0,1-7.66-7.45,14.42,14.42,0,0,1,0-11.19A14,14,0,0,1,216,55.25a15.09,15.09,0,0,1,5.7-1.07"/></g><g id="g186"><path id="path188" class="cls-4" d="M80.93,58.64a2.63,2.63,0,0,1,1,.2s0-.06,0-.09a6.81,6.81,0,0,1,2.43-4,6.17,6.17,0,0,1,5.15-.91v-.14a2.9,2.9,0,0,1,.61-1.78c-2.15-.44-4.89-.47-7,1.28a8.92,8.92,0,0,0-3.21,5.73,2.07,2.07,0,0,1,.61-.19,2.22,2.22,0,0,1,.45,0"/></g><g id="g190"><path id="path192" class="cls-4" d="M109.36,58.69a2,2,0,0,1,.6.19,8.88,8.88,0,0,0-3.21-5.73,8.06,8.06,0,0,0-6.62-1.35,2.87,2.87,0,0,1,.67,1.85v.06a5.93,5.93,0,0,1,4.69,1,6.86,6.86,0,0,1,2.43,4l0,.09a2.63,2.63,0,0,1,1-.2,2.3,2.3,0,0,1,.45,0"/></g><g id="g194"><path id="path196" class="cls-5" d="M98.39,85.25s0,0,0,0"/></g><g id="g198"><path id="path200" class="cls-4" d="M94.57,53.65a2.18,2.18,0,1,1-2.18-2.18,2.17,2.17,0,0,1,2.18,2.18"/></g><g id="g202"><path id="path204" class="cls-4" d="M100.09,53.65a2.19,2.19,0,1,1-2.18-2.18,2.18,2.18,0,0,1,2.18,2.18"/></g><g id="g206"><path id="path208" class="cls-6" d="M125.73,83.87c-.31-2.32-1.88-5.38-7.57-6.78a19.16,19.16,0,0,0-14,1.67,20.49,20.49,0,0,0-3,2c-.75.56-1.61,1.24-2.55,2,.2,1,.43,2,.7,3l.22-.2c.71-.65,1.39-1.22,2-1.72.45-.36.87-.68,1.25-1a24,24,0,0,1,2.37-1.61h0l.4-.21a16.34,16.34,0,0,1,12-1.38c3.38.84,5.25,2.36,5.54,4.53.4,3-2.21,6.53-4.18,7.63A5.06,5.06,0,0,0,117,93.72a5.13,5.13,0,0,0-.79,2.56c-.08,2.26-2,6.18-4.89,7.19-2,.7-4.1-.17-6.29-2.58-.09-.1-.18-.19-.26-.29-.27-.32-.53-.63-.78-.95A17.89,17.89,0,0,1,102.26,97,43.73,43.73,0,0,1,98,87c-.44-1.48-.76-2.85-1-4.05a42.09,42.09,0,0,1-.77-6.28c.72-.24,1.54-.55,2.42-.93a23.35,23.35,0,0,0,2.29-1.15,20.46,20.46,0,0,0,5.86-4.85,18.06,18.06,0,0,0,3.82-8.33,1.69,1.69,0,0,0-3.33-.61,15.28,15.28,0,0,1-8,10.85A23,23,0,0,1,95,73.56a23.25,23.25,0,0,1-4.3-1.87,15.28,15.28,0,0,1-8-10.85,1.69,1.69,0,0,0-3.33.61,18.06,18.06,0,0,0,3.82,8.33A20.46,20.46,0,0,0,89,74.63a22.29,22.29,0,0,0,2.29,1.15c.81.36,1.57.64,2.25.87a45,45,0,0,0,.81,6.77,47.41,47.41,0,0,0,5.65,15,20.58,20.58,0,0,0,2.7,4l.08.09c3.81,4.34,7.22,4.33,9.41,3.56a9.85,9.85,0,0,0,4.83-4.19,11.48,11.48,0,0,0,1.85-5.44,2.64,2.64,0,0,1,.39-1.26,2.5,2.5,0,0,1,.94-.91,11.75,11.75,0,0,0,4-4.12,9.93,9.93,0,0,0,1.53-6.22"/></g><g id="g210"><path id="path212" class="cls-6" d="M92.15,89.66a39.6,39.6,0,0,0-4,6.45c-.15.29-.29.59-.43.89h0a18.06,18.06,0,0,1-2.45,3.6c-2.28,2.63-4.49,3.6-6.55,2.87-2.87-1-4.81-4.93-4.89-7.19A5.13,5.13,0,0,0,73,93.72a5,5,0,0,0-1.92-1.86c-2-1.1-4.58-4.62-4.18-7.63.29-2.17,2.16-3.69,5.54-4.53a16.41,16.41,0,0,1,11.13,1,4,4,0,0,1,1.58-2.22,19.12,19.12,0,0,0-13.35-1.35c-5.69,1.4-7.25,4.46-7.56,6.78a9.85,9.85,0,0,0,1.52,6.22,11.84,11.84,0,0,0,4,4.12,2.5,2.5,0,0,1,.94.91,2.54,2.54,0,0,1,.39,1.26A11.59,11.59,0,0,0,73,101.82,9.85,9.85,0,0,0,77.79,106c2.21.78,5.65.78,9.49-3.65a20.41,20.41,0,0,0,2.85-4.23h0s.05-.11.08-.16.13-.29.2-.43a36.52,36.52,0,0,1,4.27-6.74c-.38-1.07-.7-2.09-1-3.06q-.78.92-1.56,1.92"/></g><g id="g214"><path id="path216" class="cls-4" d="M86.5,82.39a1.13,1.13,0,1,1,.89.44,1.07,1.07,0,0,1-.43-.09,1.13,1.13,0,0,1-.46-.35m.89-3.57a2.87,2.87,0,0,0-2.82,2.34,3.07,3.07,0,0,0,0,.53,2.87,2.87,0,0,0,2.87,2.87,2.69,2.69,0,0,0,1.21-.27,2.84,2.84,0,0,0,1.64-2.24,2.17,2.17,0,0,0,0-.36,2.87,2.87,0,0,0-2.87-2.87"/></g><path id="path218" class="cls-5" d="M136.24,243.58H135.1v-5.51h1.14Z"/><g id="g220"><path id="path222" class="cls-5" d="M139.52,240.51l-.19,0h-.2a1.09,1.09,0,0,0-.52.11.65.65,0,0,0-.3.31v2.68h-1.09v-4.1h1l0,.49a1.28,1.28,0,0,1,.39-.41.92.92,0,0,1,.53-.15h.18a.62.62,0,0,1,.16,0l0,1Z"/></g><path id="path224" class="cls-5" d="M141.2,243.58h-1.1v-4.1h1.1ZM140,238.42a.53.53,0,0,1,.17-.4.58.58,0,0,1,.44-.16.71.71,0,0,1,.26,0,.62.62,0,0,1,.19.12.44.44,0,0,1,.12.18.54.54,0,0,1,.05.22.56.56,0,0,1-.05.23.44.44,0,0,1-.12.18.62.62,0,0,1-.19.12.71.71,0,0,1-.26,0,.69.69,0,0,1-.25,0,.52.52,0,0,1-.19-.12.46.46,0,0,1-.13-.18.79.79,0,0,1,0-.23"/><g id="g226"><path id="path228" class="cls-5" d="M144.33,242.45a.42.42,0,0,0,0-.16.27.27,0,0,0-.13-.13.73.73,0,0,0-.25-.12,2.4,2.4,0,0,0-.43-.11l-.58-.17a2,2,0,0,1-.46-.26,1.1,1.1,0,0,1-.3-.35.88.88,0,0,1-.11-.47,1,1,0,0,1,.11-.48,1.14,1.14,0,0,1,.32-.41,1.52,1.52,0,0,1,.52-.28,2.07,2.07,0,0,1,.68-.1,2.28,2.28,0,0,1,.72.1,1.52,1.52,0,0,1,.54.27,1.24,1.24,0,0,1,.34.42,1.18,1.18,0,0,1,.12.53h-1.1a.53.53,0,0,0-.15-.39.65.65,0,0,0-.47-.15.67.67,0,0,0-.43.12.41.41,0,0,0-.15.32.27.27,0,0,0,0,.16.4.4,0,0,0,.13.13,1,1,0,0,0,.23.11l.36.09a5.09,5.09,0,0,1,.62.16,1.72,1.72,0,0,1,.49.24,1,1,0,0,1,.32.37,1,1,0,0,1,.12.51,1.1,1.1,0,0,1-.12.51,1.18,1.18,0,0,1-.35.39,1.7,1.7,0,0,1-.54.26,2.26,2.26,0,0,1-.71.1,2.16,2.16,0,0,1-.76-.12,1.79,1.79,0,0,1-.56-.32,1.41,1.41,0,0,1-.34-.44,1.29,1.29,0,0,1-.11-.5h1a.45.45,0,0,0,.07.27.49.49,0,0,0,.16.19.66.66,0,0,0,.24.11,1.27,1.27,0,0,0,.28,0,.76.76,0,0,0,.47-.12.37.37,0,0,0,.17-.31"/></g><g id="g230"><path id="path232" class="cls-5" d="M147.16,239.93a1.58,1.58,0,0,1,.48-.38,1.29,1.29,0,0,1,.62-.14,1.87,1.87,0,0,1,.55.08,1,1,0,0,1,.43.28,1.37,1.37,0,0,1,.28.49,2.68,2.68,0,0,1,.09.74v2.58h-1.09V241a1,1,0,0,0-.05-.33.53.53,0,0,0-.12-.21.45.45,0,0,0-.21-.12,1.2,1.2,0,0,0-.28,0,.83.83,0,0,0-.43.1.87.87,0,0,0-.27.27v2.91h-1.09v-5.82h1.09v2.17Z"/></g><g id="g234"><path id="path236" class="cls-5" d="M156.62,238.07v3.64a2.17,2.17,0,0,1-.16.84,1.71,1.71,0,0,1-.44.61,1.75,1.75,0,0,1-.67.37,2.57,2.57,0,0,1-.85.13,2.61,2.61,0,0,1-.85-.13,1.75,1.75,0,0,1-.67-.37,1.69,1.69,0,0,1-.43-.61,2,2,0,0,1-.16-.84v-3.64h1.14v3.64a1,1,0,0,0,.26.79,1.15,1.15,0,0,0,1.43,0,1.07,1.07,0,0,0,.26-.79v-3.64Z"/></g><g id="g238"><path id="path240" class="cls-5" d="M158.49,239.48l0,.48a1.34,1.34,0,0,1,.51-.41,1.46,1.46,0,0,1,.67-.14,1.51,1.51,0,0,1,.53.08.92.92,0,0,1,.41.27,1.22,1.22,0,0,1,.26.48,2.63,2.63,0,0,1,.09.74v2.6H159.9V241a1.49,1.49,0,0,0,0-.33.58.58,0,0,0-.13-.2.53.53,0,0,0-.21-.11,1.14,1.14,0,0,0-.28,0,.76.76,0,0,0-.41.1.78.78,0,0,0-.28.29v2.89h-1.09v-4.1Z"/></g><path id="path242" class="cls-5" d="M163,243.58h-1.1v-4.1H163Zm-1.16-5.16a.52.52,0,0,1,.16-.4.61.61,0,0,1,.45-.16.66.66,0,0,1,.25,0,.67.67,0,0,1,.2.12.57.57,0,0,1,.12.18.54.54,0,0,1,0,.22.56.56,0,0,1,0,.23.57.57,0,0,1-.12.18.67.67,0,0,1-.2.12.8.8,0,0,1-.5,0,.67.67,0,0,1-.2-.12.57.57,0,0,1-.12-.18.56.56,0,0,1,0-.23"/><g id="g244"><path id="path246" class="cls-5" d="M165.42,242.25l.76-2.77h1.14l-1.38,4.1h-1.05l-1.38-4.1h1.14l.77,2.77Z"/></g><g id="g248"><path id="path250" class="cls-5" d="M169.52,240.29a.66.66,0,0,0-.32.07.76.76,0,0,0-.23.17,1.38,1.38,0,0,0-.16.27,1.69,1.69,0,0,0-.08.34h1.52v-.08a1.06,1.06,0,0,0-.05-.31.7.7,0,0,0-.13-.24.56.56,0,0,0-.23-.16.79.79,0,0,0-.32-.06m.12,3.37a2.08,2.08,0,0,1-.85-.16,1.78,1.78,0,0,1-.64-.42,1.91,1.91,0,0,1-.41-.63,2.2,2.2,0,0,1-.13-.78v-.14a2.59,2.59,0,0,1,.13-.86,2.09,2.09,0,0,1,.38-.67,2,2,0,0,1,.61-.44,2,2,0,0,1,.79-.15,2.05,2.05,0,0,1,.78.14,1.7,1.7,0,0,1,.57.41,1.87,1.87,0,0,1,.34.64,2.62,2.62,0,0,1,.12.82v.47h-2.61a1.07,1.07,0,0,0,.1.36,1.21,1.21,0,0,0,.21.28.92.92,0,0,0,.3.18,1.12,1.12,0,0,0,.38.07,1.31,1.31,0,0,0,.56-.12,1.09,1.09,0,0,0,.43-.34l.54.6a2.05,2.05,0,0,1-.25.27,1.47,1.47,0,0,1-.34.24,2.75,2.75,0,0,1-.46.17,2.38,2.38,0,0,1-.55.06"/></g><g id="g252"><path id="path254" class="cls-5" d="M174.25,240.51l-.19,0h-.2a1.09,1.09,0,0,0-.52.11.65.65,0,0,0-.3.31v2.68H172v-4.1h1l0,.49a1.28,1.28,0,0,1,.39-.41.92.92,0,0,1,.53-.15h.18l.16,0,0,1Z"/></g><g id="g256"><path id="path258" class="cls-5" d="M177,242.45a.41.41,0,0,0,0-.16.4.4,0,0,0-.13-.13.79.79,0,0,0-.26-.12,2.51,2.51,0,0,0-.42-.11,5.83,5.83,0,0,1-.58-.17,1.91,1.91,0,0,1-.47-.26,1.1,1.1,0,0,1-.3-.35,1,1,0,0,1-.11-.47,1.13,1.13,0,0,1,.11-.48,1.27,1.27,0,0,1,.32-.41,1.62,1.62,0,0,1,.52-.28,2.09,2.09,0,0,1,.69-.1,2.26,2.26,0,0,1,.71.1,1.52,1.52,0,0,1,.54.27,1.24,1.24,0,0,1,.34.42,1.18,1.18,0,0,1,.12.53H177a.53.53,0,0,0-.15-.39.66.66,0,0,0-.48-.15.71.71,0,0,0-.43.12.41.41,0,0,0-.15.32.38.38,0,0,0,0,.16.4.4,0,0,0,.13.13.9.9,0,0,0,.24.11l.35.09a4.65,4.65,0,0,1,.62.16,1.6,1.6,0,0,1,.49.24,1.06,1.06,0,0,1,.33.37,1.13,1.13,0,0,1,.11.51,1.1,1.1,0,0,1-.12.51,1.14,1.14,0,0,1-.34.39,1.75,1.75,0,0,1-.55.26,2.26,2.26,0,0,1-.71.1,2.2,2.2,0,0,1-.76-.12,1.79,1.79,0,0,1-.56-.32,1.41,1.41,0,0,1-.34-.44,1.29,1.29,0,0,1-.11-.5h1a.54.54,0,0,0,.07.27.6.6,0,0,0,.16.19.66.66,0,0,0,.24.11,1.27,1.27,0,0,0,.28,0,.81.81,0,0,0,.48-.12.36.36,0,0,0,.16-.31"/></g><path id="path260" class="cls-5" d="M179.92,243.58h-1.09v-4.1h1.09Zm-1.16-5.16a.53.53,0,0,1,.17-.4.61.61,0,0,1,.45-.16.69.69,0,0,1,.25,0,.62.62,0,0,1,.19.12.46.46,0,0,1,.13.18.65.65,0,0,1,0,.45.46.46,0,0,1-.13.18.62.62,0,0,1-.19.12.69.69,0,0,1-.25,0,.71.71,0,0,1-.26,0,.62.62,0,0,1-.19-.12.59.59,0,0,1-.13-.18.79.79,0,0,1,0-.23"/><g id="g262"><path id="path264" class="cls-5" d="M182.14,238.48v1h.7v.81h-.7v2a1.06,1.06,0,0,0,0,.21.47.47,0,0,0,.08.14.31.31,0,0,0,.13.06l.19,0h.18l.14,0v.83l-.3.07a1.94,1.94,0,0,1-.36,0,1.53,1.53,0,0,1-.49-.07.85.85,0,0,1-.37-.21.87.87,0,0,1-.23-.37,1.57,1.57,0,0,1-.09-.56v-2.16h-.6v-.81h.6v-1Z"/></g><path id="path266" class="cls-5" d="M184.6,243.58h-1.09v-4.1h1.09Zm-1.16-5.16a.53.53,0,0,1,.17-.4.6.6,0,0,1,.44-.16.71.71,0,0,1,.26,0,.62.62,0,0,1,.19.12.44.44,0,0,1,.12.18.54.54,0,0,1,0,.22.56.56,0,0,1,0,.23.44.44,0,0,1-.12.18.62.62,0,0,1-.19.12.71.71,0,0,1-.26,0,.69.69,0,0,1-.25,0,.62.62,0,0,1-.19-.12.46.46,0,0,1-.13-.18.79.79,0,0,1,0-.23"/><g id="g268"><path id="path270" class="cls-5" d="M187.27,240.29a.59.59,0,0,0-.31.07.81.81,0,0,0-.24.17,1,1,0,0,0-.15.27,1.69,1.69,0,0,0-.09.34H188v-.08a1.55,1.55,0,0,0,0-.31.72.72,0,0,0-.14-.24.6.6,0,0,0-.22-.16.88.88,0,0,0-.33-.06m.12,3.37a2.08,2.08,0,0,1-.85-.16,1.78,1.78,0,0,1-.64-.42,1.74,1.74,0,0,1-.4-.63,2,2,0,0,1-.14-.78v-.14a2.59,2.59,0,0,1,.13-.86,1.94,1.94,0,0,1,.39-.67,1.8,1.8,0,0,1,.6-.44,2,2,0,0,1,.79-.15,2.05,2.05,0,0,1,.78.14,1.61,1.61,0,0,1,.57.41,1.71,1.71,0,0,1,.34.64,2.62,2.62,0,0,1,.12.82v.47h-2.61a1.08,1.08,0,0,0,.11.36,1,1,0,0,0,.2.28.92.92,0,0,0,.3.18,1.17,1.17,0,0,0,.38.07,1.31,1.31,0,0,0,.56-.12,1.09,1.09,0,0,0,.43-.34l.54.6a1.94,1.94,0,0,1-.24.27,1.8,1.8,0,0,1-.35.24,2.75,2.75,0,0,1-.46.17,2.32,2.32,0,0,1-.55.06"/></g><g id="g272"><path id="path274" class="cls-5" d="M191.92,242.45a.41.41,0,0,0,0-.16.4.4,0,0,0-.13-.13.79.79,0,0,0-.26-.12,2.51,2.51,0,0,0-.42-.11c-.21-.05-.4-.11-.58-.17a1.84,1.84,0,0,1-.46-.26,1.14,1.14,0,0,1-.31-.35,1,1,0,0,1-.11-.47,1.13,1.13,0,0,1,.11-.48,1.27,1.27,0,0,1,.32-.41,1.62,1.62,0,0,1,.52-.28,2.09,2.09,0,0,1,.69-.1,2.26,2.26,0,0,1,.71.1,1.37,1.37,0,0,1,.54.27,1.13,1.13,0,0,1,.34.42,1.18,1.18,0,0,1,.12.53h-1.09a.53.53,0,0,0-.15-.39.82.82,0,0,0-.9,0,.39.39,0,0,0-.16.32.38.38,0,0,0,0,.16.4.4,0,0,0,.13.13.9.9,0,0,0,.24.11l.36.09a4.92,4.92,0,0,1,.61.16,1.6,1.6,0,0,1,.49.24,1.06,1.06,0,0,1,.33.37,1,1,0,0,1,.12.51,1,1,0,0,1-.13.51,1.14,1.14,0,0,1-.34.39,1.65,1.65,0,0,1-.55.26,2.26,2.26,0,0,1-.71.1,2.2,2.2,0,0,1-.76-.12,1.91,1.91,0,0,1-.56-.32,1.24,1.24,0,0,1-.33-.44,1.15,1.15,0,0,1-.12-.5h1a.67.67,0,0,0,.07.27.52.52,0,0,0,.17.19.55.55,0,0,0,.23.11,1.33,1.33,0,0,0,.28,0,.81.81,0,0,0,.48-.12.36.36,0,0,0,.16-.31"/></g><g id="g276"><path id="path278" class="cls-5" d="M196.93,239.43a.75.75,0,0,0,.09.34,2.31,2.31,0,0,0,.24.37l.29-.19.2-.15.12-.14a.47.47,0,0,0,.06-.15.88.88,0,0,0,0-.17.53.53,0,0,0,0-.17.44.44,0,0,0-.1-.15.58.58,0,0,0-.15-.11.78.78,0,0,0-.21,0,.52.52,0,0,0-.23,0,.48.48,0,0,0-.16.12.42.42,0,0,0-.1.17.78.78,0,0,0,0,.22m.4,3.35a1.33,1.33,0,0,0,.74-.22L197,241.3l-.08.06a1.53,1.53,0,0,0-.18.18l-.1.17a1.54,1.54,0,0,0,0,.17.86.86,0,0,0,0,.16.93.93,0,0,0,.05.29.78.78,0,0,0,.16.24.49.49,0,0,0,.24.15.75.75,0,0,0,.31.06m-1.86-.68a1.23,1.23,0,0,1,.08-.44,1.07,1.07,0,0,1,.2-.36,2.38,2.38,0,0,1,.31-.33l.41-.3a4,4,0,0,1-.38-.62,1.34,1.34,0,0,1-.15-.61,1.59,1.59,0,0,1,.11-.59,1.33,1.33,0,0,1,.31-.46,1.27,1.27,0,0,1,.47-.3,1.75,1.75,0,0,1,.62-.1,1.54,1.54,0,0,1,.58.1,1.28,1.28,0,0,1,.45.28,1.3,1.3,0,0,1,.28.41,1.19,1.19,0,0,1,.1.49,1.15,1.15,0,0,1-.06.37,1,1,0,0,1-.15.32,1.56,1.56,0,0,1-.23.28,1.81,1.81,0,0,1-.3.25l-.35.25.95,1.11a2.18,2.18,0,0,0,.16-.45,2.12,2.12,0,0,0,.06-.52h.93a3.59,3.59,0,0,1-.11,1,2.41,2.41,0,0,1-.38.79l.82,1H199l-.28-.32a2.8,2.8,0,0,1-.66.3,2.55,2.55,0,0,1-.74.1,2.29,2.29,0,0,1-.76-.12,1.59,1.59,0,0,1-.57-.32,1.42,1.42,0,0,1-.35-.49,1.51,1.51,0,0,1-.13-.63"/></g><g id="g280"><path id="path282" class="cls-5" d="M136.11,247.38l1.81,4.5,1.8-4.5h.95v5.51h-.73v-2.14l.07-2.32-1.81,4.46h-.56l-1.81-4.45.07,2.31v2.14h-.72v-5.51Z"/></g><g id="g284"><path id="path286" class="cls-5" d="M143.45,249.3a1,1,0,0,0-.39.07,1,1,0,0,0-.31.23,1.08,1.08,0,0,0-.24.37,1.75,1.75,0,0,0-.12.5h2.05v-.05a2,2,0,0,0-.07-.41,1,1,0,0,0-.17-.36.92.92,0,0,0-.29-.26,1.08,1.08,0,0,0-.46-.09m.09,3.67a1.92,1.92,0,0,1-.77-.15,1.78,1.78,0,0,1-.6-.41,1.8,1.8,0,0,1-.38-.63,2.47,2.47,0,0,1-.13-.79v-.16a2.48,2.48,0,0,1,.15-.89,1.93,1.93,0,0,1,.4-.67,1.88,1.88,0,0,1,.57-.41,1.83,1.83,0,0,1,1.43,0,1.6,1.6,0,0,1,.53.43,1.75,1.75,0,0,1,.3.63,2.92,2.92,0,0,1,.1.8v.32h-2.78a1.84,1.84,0,0,0,.1.53,1.1,1.1,0,0,0,.24.42,1,1,0,0,0,.38.29,1.15,1.15,0,0,0,.5.11,1.22,1.22,0,0,0,.63-.15,1.71,1.71,0,0,0,.45-.4l.43.33a2.17,2.17,0,0,1-.24.29,1.46,1.46,0,0,1-.33.26,1.68,1.68,0,0,1-.43.17,1.84,1.84,0,0,1-.55.07"/></g><g id="g288"><path id="path290" class="cls-5" d="M146.48,250.89a2.65,2.65,0,0,0,.06.58,1.55,1.55,0,0,0,.2.47,1,1,0,0,0,.34.32.94.94,0,0,0,.49.12,1.14,1.14,0,0,0,.33,0,1.11,1.11,0,0,0,.27-.12,1,1,0,0,0,.21-.19,1.43,1.43,0,0,0,.16-.24v-1.89a1.88,1.88,0,0,0-.16-.23.91.91,0,0,0-.21-.18,1.11,1.11,0,0,0-.27-.12,1.14,1.14,0,0,0-.33-.05,1,1,0,0,0-.49.12,1,1,0,0,0-.34.33,1.55,1.55,0,0,0-.2.47,2.72,2.72,0,0,0-.06.58v.08Zm-.7-.08a2.82,2.82,0,0,1,.12-.85,1.85,1.85,0,0,1,.32-.66,1.58,1.58,0,0,1,.51-.43,1.47,1.47,0,0,1,.67-.15,1.45,1.45,0,0,1,.65.13,1.33,1.33,0,0,1,.49.36v-2.14h.7v5.82h-.64l0-.43a1.41,1.41,0,0,1-.49.38,1.59,1.59,0,0,1-.68.13,1.45,1.45,0,0,1-.66-.15,1.76,1.76,0,0,1-.51-.44,1.85,1.85,0,0,1-.32-.66,2.73,2.73,0,0,1-.12-.83v-.08Z"/></g><path id="path292" class="cls-5" d="M151.09,252.9h-.7v-4.1h.7Zm-.76-5.19a.42.42,0,0,1,.11-.29.38.38,0,0,1,.3-.12.42.42,0,0,1,.32.12.41.41,0,0,1,.1.29.39.39,0,0,1-.1.28.42.42,0,0,1-.32.12.38.38,0,0,1-.3-.12.39.39,0,0,1-.11-.28"/><g id="g294"><path id="path296" class="cls-5" d="M153.86,252.4a1,1,0,0,0,.35-.06.87.87,0,0,0,.3-.17.88.88,0,0,0,.22-.25.85.85,0,0,0,.09-.32h.66a1.34,1.34,0,0,1-.14.52,1.51,1.51,0,0,1-.36.44,2.14,2.14,0,0,1-.51.3,1.78,1.78,0,0,1-.61.11,1.86,1.86,0,0,1-.81-.16,1.59,1.59,0,0,1-.57-.45,2,2,0,0,1-.34-.65,2.9,2.9,0,0,1-.11-.79v-.15a2.9,2.9,0,0,1,.11-.79,2,2,0,0,1,.34-.65,1.59,1.59,0,0,1,.57-.45,1.81,1.81,0,0,1,.8-.16,2,2,0,0,1,.66.11,1.53,1.53,0,0,1,.5.32,1.32,1.32,0,0,1,.34.47,1.63,1.63,0,0,1,.13.58h-.66a1.06,1.06,0,0,0-.09-.35.84.84,0,0,0-.2-.29,1,1,0,0,0-.29-.19,1,1,0,0,0-.39-.07,1.08,1.08,0,0,0-.54.12,1,1,0,0,0-.34.34,1.46,1.46,0,0,0-.19.48,3.07,3.07,0,0,0-.05.53v.15a3.1,3.1,0,0,0,.05.54,1.41,1.41,0,0,0,.19.47,1,1,0,0,0,.34.34,1,1,0,0,0,.55.13"/></g><g id="g298"><path id="path300" class="cls-5" d="M157.64,252.36a1.36,1.36,0,0,0,.36-.05,1.38,1.38,0,0,0,.3-.14,1.16,1.16,0,0,0,.24-.2.78.78,0,0,0,.15-.22v-.84h-.58a2,2,0,0,0-.93.18.63.63,0,0,0-.32.57.66.66,0,0,0,0,.28.54.54,0,0,0,.15.22.7.7,0,0,0,.24.15,1.16,1.16,0,0,0,.34.05m1.16.53a1.45,1.45,0,0,1-.06-.19q0-.1,0-.24a1.5,1.5,0,0,1-.23.2,1.75,1.75,0,0,1-.27.16,1.42,1.42,0,0,1-.31.11,1.47,1.47,0,0,1-.36,0,1.7,1.7,0,0,1-.57-.09,1.46,1.46,0,0,1-.44-.26,1.21,1.21,0,0,1-.28-.39,1.19,1.19,0,0,1-.09-.47,1.31,1.31,0,0,1,.12-.58,1.27,1.27,0,0,1,.37-.43,1.67,1.67,0,0,1,.59-.25,2.93,2.93,0,0,1,.76-.09h.69v-.32a.78.78,0,0,0-.22-.59.88.88,0,0,0-.64-.22,1,1,0,0,0-.36.06.82.82,0,0,0-.28.14.6.6,0,0,0-.18.21.51.51,0,0,0-.07.24h-.7a1,1,0,0,1,.11-.43,1.23,1.23,0,0,1,.33-.39,1.52,1.52,0,0,1,.52-.28,2,2,0,0,1,.67-.11,2.31,2.31,0,0,1,.61.08,1.53,1.53,0,0,1,.49.26,1.22,1.22,0,0,1,.31.43,1.43,1.43,0,0,1,.12.6V252a3.37,3.37,0,0,0,0,.44,1.82,1.82,0,0,0,.11.39v.06Z"/></g><path id="path302" class="cls-5" d="M161.26,252.9h-.71v-5.83h.71v5.82Z"/><g id="g304"><path id="path306" class="cls-5" d="M167.35,251.5a.9.9,0,0,0-.06-.34.66.66,0,0,0-.21-.27,1.62,1.62,0,0,0-.4-.23,5.4,5.4,0,0,0-.65-.22,5.76,5.76,0,0,1-.74-.27,2.33,2.33,0,0,1-.56-.35,1.25,1.25,0,0,1-.36-.44,1.43,1.43,0,0,1,0-1.17,1.58,1.58,0,0,1,.38-.48,1.74,1.74,0,0,1,.59-.31,2.53,2.53,0,0,1,1.6,0,2,2,0,0,1,.61.37,1.66,1.66,0,0,1,.38.54,1.5,1.5,0,0,1,.13.62h-.73a1.16,1.16,0,0,0-.08-.42.91.91,0,0,0-.22-.35,1.09,1.09,0,0,0-.38-.22,1.71,1.71,0,0,0-.54-.08,1.61,1.61,0,0,0-.51.07.91.91,0,0,0-.35.19.63.63,0,0,0-.21.28.86.86,0,0,0-.07.36.78.78,0,0,0,.07.31.83.83,0,0,0,.23.27,2.11,2.11,0,0,0,.4.22,4.49,4.49,0,0,0,.59.2,6.76,6.76,0,0,1,.81.29,2.18,2.18,0,0,1,.56.37,1.31,1.31,0,0,1,.33.46,1.48,1.48,0,0,1,.11.57,1.34,1.34,0,0,1-.14.61,1.43,1.43,0,0,1-.38.47,1.93,1.93,0,0,1-.61.3,2.8,2.8,0,0,1-.79.1,2.21,2.21,0,0,1-.51-.05,2.75,2.75,0,0,1-.49-.14,2.22,2.22,0,0,1-.43-.23,1.78,1.78,0,0,1-.34-.33,1.44,1.44,0,0,1-.24-.42,1.59,1.59,0,0,1-.08-.5h.73a1,1,0,0,0,.11.48,1.1,1.1,0,0,0,.3.34,1.25,1.25,0,0,0,.44.19,1.7,1.7,0,0,0,.51.07,1.4,1.4,0,0,0,.88-.24.76.76,0,0,0,.31-.64"/></g><g id="g308"><path id="path310" class="cls-5" d="M170.55,252.4a1,1,0,0,0,.35-.06.87.87,0,0,0,.3-.17.88.88,0,0,0,.22-.25.85.85,0,0,0,.09-.32h.67a1.2,1.2,0,0,1-.15.52,1.51,1.51,0,0,1-.36.44,1.81,1.81,0,0,1-.51.3,1.78,1.78,0,0,1-.61.11,1.86,1.86,0,0,1-.81-.16,1.59,1.59,0,0,1-.57-.45,2,2,0,0,1-.34-.65,2.9,2.9,0,0,1-.11-.79v-.15a2.9,2.9,0,0,1,.11-.79,2,2,0,0,1,.34-.65,1.59,1.59,0,0,1,.57-.45,1.81,1.81,0,0,1,.8-.16,2,2,0,0,1,.66.11,1.53,1.53,0,0,1,.5.32,1.32,1.32,0,0,1,.34.47,1.65,1.65,0,0,1,.14.58h-.67a1.06,1.06,0,0,0-.09-.35.84.84,0,0,0-.2-.29,1,1,0,0,0-.29-.19,1,1,0,0,0-.39-.07,1.13,1.13,0,0,0-.54.12,1.1,1.1,0,0,0-.34.34,1.46,1.46,0,0,0-.19.48,3.07,3.07,0,0,0-.05.53v.15a3.1,3.1,0,0,0,.05.54,1.41,1.41,0,0,0,.19.47,1,1,0,0,0,.34.34,1,1,0,0,0,.55.13"/></g><g id="g312"><path id="path314" class="cls-5" d="M173.66,249.29a1.64,1.64,0,0,1,.53-.42,1.55,1.55,0,0,1,.69-.15,1.8,1.8,0,0,1,.54.08,1,1,0,0,1,.41.26,1.3,1.3,0,0,1,.27.46,2.31,2.31,0,0,1,.09.69v2.68h-.7V250.2a1.27,1.27,0,0,0-.06-.41.59.59,0,0,0-.15-.27.76.76,0,0,0-.26-.16,1.23,1.23,0,0,0-.35-.05,1,1,0,0,0-.6.19,1.24,1.24,0,0,0-.41.47v2.92H173v-5.82h.7v2.22Z"/></g><g id="g316"><path id="path318" class="cls-5" d="M177.76,250.89a2.15,2.15,0,0,0,.07.58,1.51,1.51,0,0,0,.22.48,1,1,0,0,0,.36.33,1.14,1.14,0,0,0,1,0,1,1,0,0,0,.36-.33,1.51,1.51,0,0,0,.22-.48,2.15,2.15,0,0,0,.07-.58v-.08a2.2,2.2,0,0,0-.07-.58,1.51,1.51,0,0,0-.22-.48,1.06,1.06,0,0,0-.37-.33,1,1,0,0,0-.51-.12,1,1,0,0,0-.5.12,1,1,0,0,0-.36.33,1.51,1.51,0,0,0-.22.48,2.2,2.2,0,0,0-.07.58v.08Zm-.71-.08a2.72,2.72,0,0,1,.13-.83,2.13,2.13,0,0,1,.37-.66,1.61,1.61,0,0,1,.59-.44,1.77,1.77,0,0,1,.77-.16,1.86,1.86,0,0,1,.79.16,1.57,1.57,0,0,1,.58.44,2,2,0,0,1,.38.66,2.73,2.73,0,0,1,.12.83v.08a2.78,2.78,0,0,1-.12.83,2,2,0,0,1-.38.66,1.66,1.66,0,0,1-.58.43,2,2,0,0,1-1.56,0,1.66,1.66,0,0,1-.58-.43,2,2,0,0,1-.38-.66,2.77,2.77,0,0,1-.13-.83v-.08Z"/></g><g id="g320"><path id="path322" class="cls-5" d="M182.18,250.89a2.63,2.63,0,0,0,.07.58,1.76,1.76,0,0,0,.22.48,1.06,1.06,0,0,0,.37.33,1,1,0,0,0,.51.12,1,1,0,0,0,.5-.12,1.06,1.06,0,0,0,.37-.33,1.76,1.76,0,0,0,.22-.48,2.63,2.63,0,0,0,.07-.58v-.08a2.71,2.71,0,0,0-.07-.58,1.76,1.76,0,0,0-.22-.48,1.1,1.1,0,0,0-1.39-.33,1.13,1.13,0,0,0-.36.33,1.76,1.76,0,0,0-.22.48,2.71,2.71,0,0,0-.07.58v.08Zm-.7-.08a2.45,2.45,0,0,1,.13-.83,2.13,2.13,0,0,1,.37-.66,1.61,1.61,0,0,1,.59-.44,1.74,1.74,0,0,1,.77-.16,1.78,1.78,0,0,1,.78.16,1.61,1.61,0,0,1,.59.44,1.94,1.94,0,0,1,.37.66,2.45,2.45,0,0,1,.13.83v.08a2.49,2.49,0,0,1-.13.83,1.94,1.94,0,0,1-.37.66,1.7,1.7,0,0,1-.59.43,2,2,0,0,1-1.55,0,1.7,1.7,0,0,1-.59-.43,2.13,2.13,0,0,1-.37-.66,2.49,2.49,0,0,1-.13-.83Z"/></g><path id="path324" class="cls-5" d="M186.85,252.9h-.7v-5.83h.7v5.82Z"/><g id="g326"><path id="path328" class="cls-5" d="M190.36,251.81a.78.78,0,0,0,0-.22.58.58,0,0,0-.14-.19,1,1,0,0,0-.28-.16,3,3,0,0,0-.49-.14,6,6,0,0,1-.62-.17,2.2,2.2,0,0,1-.46-.24.94.94,0,0,1-.3-.33,1,1,0,0,1-.1-.44,1.07,1.07,0,0,1,.11-.46,1,1,0,0,1,.31-.38,1.43,1.43,0,0,1,.47-.26,1.81,1.81,0,0,1,.63-.1,2,2,0,0,1,.66.1,1.77,1.77,0,0,1,.49.27,1.35,1.35,0,0,1,.31.41,1.21,1.21,0,0,1,.1.5h-.7a.57.57,0,0,0-.06-.25.63.63,0,0,0-.17-.23.76.76,0,0,0-.26-.16,1.06,1.06,0,0,0-.37-.06,1.09,1.09,0,0,0-.38,0,.84.84,0,0,0-.25.13.56.56,0,0,0-.14.2.54.54,0,0,0-.05.22.65.65,0,0,0,0,.2.39.39,0,0,0,.15.17,1,1,0,0,0,.29.13,2.78,2.78,0,0,0,.47.13,3.87,3.87,0,0,1,.65.2,1.79,1.79,0,0,1,.46.25,1,1,0,0,1,.27.34,1,1,0,0,1,.09.44,1.14,1.14,0,0,1-.11.49,1.07,1.07,0,0,1-.32.38,1.56,1.56,0,0,1-.5.25,2.22,2.22,0,0,1-.65.09,2.27,2.27,0,0,1-.72-.11,1.93,1.93,0,0,1-.53-.3,1.46,1.46,0,0,1-.32-.43,1.25,1.25,0,0,1-.11-.5h.7a.81.81,0,0,0,.11.37.84.84,0,0,0,.23.23.85.85,0,0,0,.31.13,1.24,1.24,0,0,0,.33,0,1.46,1.46,0,0,0,.38-.05.85.85,0,0,0,.27-.12.44.44,0,0,0,.17-.19.46.46,0,0,0,.06-.23"/></g><g id="g330"><path id="path332" class="cls-5" d="M198.06,251.14a2.45,2.45,0,0,1-.19.73,1.82,1.82,0,0,1-.4.58,1.8,1.8,0,0,1-.63.38,2.56,2.56,0,0,1-.87.14,2.18,2.18,0,0,1-.89-.18,1.9,1.9,0,0,1-.68-.52,2.45,2.45,0,0,1-.43-.8,3.51,3.51,0,0,1-.15-1.05v-.56a3.51,3.51,0,0,1,.15-1.05,2.29,2.29,0,0,1,.44-.8,2,2,0,0,1,.7-.52,2.15,2.15,0,0,1,.93-.19,2.31,2.31,0,0,1,.82.14,1.71,1.71,0,0,1,.61.38,1.67,1.67,0,0,1,.4.58,2.3,2.3,0,0,1,.19.75h-.73a2.64,2.64,0,0,0-.13-.52,1.28,1.28,0,0,0-.24-.39,1,1,0,0,0-.38-.25,1.45,1.45,0,0,0-.54-.09,1.48,1.48,0,0,0-.65.14,1.39,1.39,0,0,0-.47.4,1.86,1.86,0,0,0-.28.62,3.32,3.32,0,0,0-.09.8v.56a3.69,3.69,0,0,0,.08.76,2.18,2.18,0,0,0,.26.62,1.35,1.35,0,0,0,.44.42,1.32,1.32,0,0,0,.64.16,1.7,1.7,0,0,0,.59-.09.86.86,0,0,0,.39-.24,1,1,0,0,0,.25-.38,2.57,2.57,0,0,0,.13-.53Z"/></g><g id="g334"><path id="path336" class="cls-5" d="M199.47,250.89a2.15,2.15,0,0,0,.07.58,1.49,1.49,0,0,0,.21.48,1.06,1.06,0,0,0,.37.33,1,1,0,0,0,.51.12,1.07,1.07,0,0,0,.51-.12,1.13,1.13,0,0,0,.36-.33,1.51,1.51,0,0,0,.22-.48,2.15,2.15,0,0,0,.07-.58v-.08a2.2,2.2,0,0,0-.07-.58,1.51,1.51,0,0,0-.22-.48,1.06,1.06,0,0,0-.37-.33,1,1,0,0,0-.51-.12,1,1,0,0,0-.5.12,1.06,1.06,0,0,0-.37.33,1.49,1.49,0,0,0-.21.48,2.2,2.2,0,0,0-.08.58v.08Zm-.71-.08a2.45,2.45,0,0,1,.13-.83,2.13,2.13,0,0,1,.37-.66,1.61,1.61,0,0,1,.59-.44,2,2,0,0,1,1.55,0,1.61,1.61,0,0,1,.59.44,1.94,1.94,0,0,1,.37.66,2.45,2.45,0,0,1,.13.83v.08a2.49,2.49,0,0,1-.13.83,1.94,1.94,0,0,1-.37.66,1.76,1.76,0,0,1-.58.43,1.86,1.86,0,0,1-2.15-.43,2.13,2.13,0,0,1-.37-.66,2.49,2.49,0,0,1-.13-.83Z"/></g><g id="g338"><path id="path340" class="cls-5" d="M204,248.8l0,.51a1.55,1.55,0,0,1,1.23-.59,1.85,1.85,0,0,1,.54.08,1,1,0,0,1,.41.26,1.29,1.29,0,0,1,.26.46,2,2,0,0,1,.1.69v2.68h-.7V250.2a1.27,1.27,0,0,0-.06-.41.61.61,0,0,0-.16-.27.63.63,0,0,0-.25-.16,1.3,1.3,0,0,0-.36-.05,1,1,0,0,0-.6.19,1.31,1.31,0,0,0-.4.47v2.92h-.7V248.8Z"/></g><g id="g342"><path id="path344" class="cls-5" d="M210,251.81a.78.78,0,0,0,0-.22.58.58,0,0,0-.14-.19,1,1,0,0,0-.28-.16,3,3,0,0,0-.49-.14,6,6,0,0,1-.62-.17,2.2,2.2,0,0,1-.46-.24.83.83,0,0,1-.29-.33.87.87,0,0,1-.11-.44,1.07,1.07,0,0,1,.11-.46,1,1,0,0,1,.31-.38,1.43,1.43,0,0,1,.47-.26,1.81,1.81,0,0,1,.63-.1,2,2,0,0,1,.66.1,1.77,1.77,0,0,1,.49.27,1.35,1.35,0,0,1,.31.41,1.21,1.21,0,0,1,.1.5H210a.57.57,0,0,0-.06-.25.73.73,0,0,0-.16-.23.92.92,0,0,0-.27-.16,1.06,1.06,0,0,0-.37-.06,1,1,0,0,0-.37,0,.79.79,0,0,0-.26.13.56.56,0,0,0-.14.2.54.54,0,0,0-.05.22.65.65,0,0,0,0,.2.39.39,0,0,0,.15.17,1,1,0,0,0,.29.13,2.78,2.78,0,0,0,.47.13,3.87,3.87,0,0,1,.65.2,1.79,1.79,0,0,1,.46.25,1,1,0,0,1,.27.34,1,1,0,0,1,.09.44,1.14,1.14,0,0,1-.11.49,1,1,0,0,1-.32.38,1.56,1.56,0,0,1-.5.25,2.22,2.22,0,0,1-.65.09,2.27,2.27,0,0,1-.72-.11,1.93,1.93,0,0,1-.53-.3,1.46,1.46,0,0,1-.32-.43,1.25,1.25,0,0,1-.11-.5h.7a.81.81,0,0,0,.11.37.84.84,0,0,0,.23.23.85.85,0,0,0,.31.13,1.24,1.24,0,0,0,.33,0,1.4,1.4,0,0,0,.38-.05.85.85,0,0,0,.27-.12A.44.44,0,0,0,210,252a.46.46,0,0,0,.06-.23"/></g><g id="g346"><path id="path348" class="cls-5" d="M212.17,250.89a2.14,2.14,0,0,0,.08.58,1.49,1.49,0,0,0,.21.48,1.06,1.06,0,0,0,.37.33,1,1,0,0,0,.51.12,1,1,0,0,0,.5-.12,1.06,1.06,0,0,0,.37-.33,1.76,1.76,0,0,0,.22-.48,2.15,2.15,0,0,0,.07-.58v-.08a2.2,2.2,0,0,0-.07-.58,1.76,1.76,0,0,0-.22-.48,1,1,0,0,0-.88-.45,1,1,0,0,0-.5.12,1.06,1.06,0,0,0-.37.33,1.49,1.49,0,0,0-.21.48,2.2,2.2,0,0,0-.08.58v.08Zm-.7-.08a2.45,2.45,0,0,1,.13-.83,2.13,2.13,0,0,1,.37-.66,1.61,1.61,0,0,1,.59-.44,1.74,1.74,0,0,1,.77-.16,1.78,1.78,0,0,1,.78.16,1.61,1.61,0,0,1,.59.44,1.94,1.94,0,0,1,.37.66,2.45,2.45,0,0,1,.13.83v.08a2.49,2.49,0,0,1-.13.83,1.94,1.94,0,0,1-.37.66,1.7,1.7,0,0,1-.59.43,2,2,0,0,1-1.55,0,1.7,1.7,0,0,1-.59-.43,2.13,2.13,0,0,1-.37-.66,2.49,2.49,0,0,1-.13-.83v-.08Z"/></g><g id="g350"><path id="path352" class="cls-5" d="M218.06,249.42l-.17,0h-.17a.94.94,0,0,0-.94.58v2.91h-.7V248.8h.68v.47a1.27,1.27,0,0,1,.4-.4,1.06,1.06,0,0,1,.58-.15l.18,0,.13,0v.65Z"/></g><g id="g354"><path id="path356" class="cls-5" d="M219.85,247.8v1h.76v.54h-.76v2.54a.93.93,0,0,0,0,.26.39.39,0,0,0,.1.14.3.3,0,0,0,.15.07.47.47,0,0,0,.17,0,.55.55,0,0,0,.18,0l.15,0v.56a.9.9,0,0,1-.22.05,1.39,1.39,0,0,1-.32,0,1.36,1.36,0,0,1-.36-.05.67.67,0,0,1-.3-.19.82.82,0,0,1-.21-.34,1.53,1.53,0,0,1-.07-.51v-2.54h-.75v-.54h.75v-1Z"/></g><path id="path358" class="cls-5" d="M222.19,252.9h-.7v-4.1h.7Zm-.76-5.19a.42.42,0,0,1,.11-.29.39.39,0,0,1,.31-.12.4.4,0,0,1,.31.12.41.41,0,0,1,.1.29.39.39,0,0,1-.1.28.4.4,0,0,1-.31.12.39.39,0,0,1-.31-.12.39.39,0,0,1-.11-.28"/><g id="g360"><path id="path362" class="cls-5" d="M225.84,252.49a1.22,1.22,0,0,1-.48.35,1.75,1.75,0,0,1-.72.13,1.92,1.92,0,0,1-.55-.08,1.17,1.17,0,0,1-.42-.27,1.18,1.18,0,0,1-.27-.48,2,2,0,0,1-.1-.7V248.8h.7v2.65a1.47,1.47,0,0,0,.06.46.83.83,0,0,0,.17.28.73.73,0,0,0,.25.15,1.26,1.26,0,0,0,.28,0,1.24,1.24,0,0,0,.68-.17,1,1,0,0,0,.39-.43v-3h.7v4.09h-.67l0-.4Z"/></g><g id="g364"><path id="path366" class="cls-5" d="M228.25,248.8l0,.45a1.39,1.39,0,0,1,.51-.39,1.73,1.73,0,0,1,.71-.14,1.45,1.45,0,0,1,.7.16,1,1,0,0,1,.47.5,1.45,1.45,0,0,1,.53-.48,1.59,1.59,0,0,1,.77-.18,2.1,2.1,0,0,1,.59.08,1.12,1.12,0,0,1,.43.27,1.15,1.15,0,0,1,.26.46,1.93,1.93,0,0,1,.1.67v2.69h-.71V250.2a1.31,1.31,0,0,0-.06-.43.66.66,0,0,0-.17-.27.69.69,0,0,0-.28-.15,2,2,0,0,0-.36,0,1.12,1.12,0,0,0-.38.07,1,1,0,0,0-.29.19.77.77,0,0,0-.19.27,1,1,0,0,0-.09.33v2.72h-.7V250.2a1.27,1.27,0,0,0-.06-.41.91.91,0,0,0-.18-.27.85.85,0,0,0-.28-.16,1.25,1.25,0,0,0-.36-.05,1,1,0,0,0-.94.59v3h-.7V248.8Z"/></g><path id="path368" class="cls-5" d="M140.67,230.21H135.1V203h5.57Z"/><g id="g370"><path id="path372" class="cls-5" d="M169.78,218.94a13,13,0,0,1-.89,4.92,10.87,10.87,0,0,1-2.43,3.71,10.28,10.28,0,0,1-3.66,2.33,12.63,12.63,0,0,1-4.58.81,12.78,12.78,0,0,1-4.6-.81,10.27,10.27,0,0,1-3.68-2.33,10.54,10.54,0,0,1-2.41-3.71,13.23,13.23,0,0,1-.87-4.92V203h5.57v16.4a7.17,7.17,0,0,0,.46,2.68A5.35,5.35,0,0,0,154,224a5.17,5.17,0,0,0,1.9,1.18,7.4,7.4,0,0,0,4.74,0,5.17,5.17,0,0,0,1.9-1.18,5.35,5.35,0,0,0,1.26-1.94,7.17,7.17,0,0,0,.46-2.68V203h5.57v16Z"/></g><g id="g374"><path id="path376" class="cls-5" d="M202.52,230.21H197V215.64l-6.9,8.63h-1.81l-6.86-8.63v14.57h-5.57V202.47h1.86l11.47,14.78,11.57-14.78h1.81Z"/></g><g id="g378"><path id="path380" class="cls-5" d="M221.68,202.47a13.79,13.79,0,0,1,7.12,1.82,13.38,13.38,0,0,1,4.93,5l-4.25,3a10.32,10.32,0,0,0-3.28-3.38,8.36,8.36,0,0,0-4.52-1.2,9,9,0,0,0-3.49.66,8.34,8.34,0,0,0-2.77,1.86,8.61,8.61,0,0,0-1.83,2.85,9.69,9.69,0,0,0-.66,3.63,9.51,9.51,0,0,0,.66,3.61,8.34,8.34,0,0,0,1.83,2.81,8.44,8.44,0,0,0,2.77,1.84,9,9,0,0,0,3.49.66,8.36,8.36,0,0,0,4.52-1.2,10.32,10.32,0,0,0,3.28-3.38l4.25,3a13.38,13.38,0,0,1-4.93,4.95,13.89,13.89,0,0,1-7.12,1.82,15.09,15.09,0,0,1-5.7-1.07,14,14,0,0,1-7.66-7.46,14.39,14.39,0,0,1,0-11.18,14,14,0,0,1,7.66-7.46,15.09,15.09,0,0,1,5.7-1.07"/></g><g id="g382"><path id="path384" class="cls-4" d="M80.93,206.93a2.63,2.63,0,0,1,1,.2s0-.06,0-.09A6.83,6.83,0,0,1,84.35,203a6.2,6.2,0,0,1,5.15-.9v-.14a2.9,2.9,0,0,1,.61-1.78c-2.15-.44-4.89-.47-7,1.28a8.92,8.92,0,0,0-3.21,5.72,2.9,2.9,0,0,1,.61-.19,3.27,3.27,0,0,1,.45,0"/></g><g id="g386"><path id="path388" class="cls-4" d="M109.36,207a2.35,2.35,0,0,1,.6.2,8.88,8.88,0,0,0-3.21-5.73,8.06,8.06,0,0,0-6.62-1.35,2.85,2.85,0,0,1,.67,1.85V202a5.93,5.93,0,0,1,4.69,1,6.88,6.88,0,0,1,2.43,4.06l0,.09a2.63,2.63,0,0,1,1-.2,3.42,3.42,0,0,1,.45,0"/></g><g id="g390"><path id="path392" class="cls-5" d="M98.39,233.54s0,0,0,0"/></g><g id="g394"><path id="path396" class="cls-4" d="M94.57,201.94a2.18,2.18,0,1,1-2.18-2.18,2.17,2.17,0,0,1,2.18,2.18"/></g><g id="g398"><path id="path400" class="cls-4" d="M100.09,201.94a2.19,2.19,0,1,1-2.18-2.18,2.18,2.18,0,0,1,2.18,2.18"/></g><g id="g402"><path id="path404" class="cls-6" d="M125.73,232.16c-.31-2.32-1.88-5.38-7.57-6.78a19.16,19.16,0,0,0-14,1.67,20.49,20.49,0,0,0-3,2c-.75.56-1.61,1.24-2.55,2.05.2,1,.43,2,.7,3l.22-.2c.71-.65,1.39-1.22,2-1.73.45-.35.87-.68,1.25-1a28.33,28.33,0,0,1,2.37-1.62h0l.4-.22a16.39,16.39,0,0,1,12-1.37c3.38.83,5.25,2.36,5.54,4.53.4,3-2.21,6.53-4.18,7.63A5.06,5.06,0,0,0,117,242a5.13,5.13,0,0,0-.79,2.56c-.08,2.25-2,6.17-4.89,7.19-2,.7-4.1-.17-6.29-2.58l-.26-.3c-.27-.31-.53-.63-.78-.95a16.93,16.93,0,0,1-1.69-2.68A43.48,43.48,0,0,1,98,235.33c-.44-1.48-.76-2.85-1-4.05a42,42,0,0,1-.77-6.29c.72-.23,1.54-.54,2.42-.92a23.35,23.35,0,0,0,2.29-1.15,20.46,20.46,0,0,0,5.86-4.85,18.06,18.06,0,0,0,3.82-8.33,1.69,1.69,0,0,0-3.33-.61,15.28,15.28,0,0,1-8,10.85A22.26,22.26,0,0,1,95,221.84a22.47,22.47,0,0,1-4.3-1.86,15.28,15.28,0,0,1-8-10.85,1.69,1.69,0,0,0-3.33.61,18.06,18.06,0,0,0,3.82,8.33A20.46,20.46,0,0,0,89,222.92a22.29,22.29,0,0,0,2.29,1.15c.81.35,1.57.64,2.25.87a45.18,45.18,0,0,0,.81,6.77,47.41,47.41,0,0,0,5.65,15,21.21,21.21,0,0,0,2.7,4l.08.09c3.81,4.33,7.22,4.33,9.41,3.55a9.77,9.77,0,0,0,4.83-4.18,11.51,11.51,0,0,0,1.85-5.45,2.6,2.6,0,0,1,.39-1.25,2.5,2.5,0,0,1,.94-.91,11.7,11.7,0,0,0,4-4.13,9.88,9.88,0,0,0,1.53-6.21"/></g><g id="g406"><path id="path408" class="cls-6" d="M92.15,238a39.18,39.18,0,0,0-4,6.45c-.15.29-.29.59-.43.89h0a18,18,0,0,1-2.45,3.59c-2.28,2.64-4.49,3.61-6.55,2.88-2.87-1-4.81-4.94-4.89-7.19A5.13,5.13,0,0,0,73,242a5,5,0,0,0-1.92-1.86c-2-1.1-4.58-4.62-4.18-7.63.29-2.17,2.16-3.7,5.54-4.53a16.41,16.41,0,0,1,11.13,1,3.94,3.94,0,0,1,1.58-2.22,19.12,19.12,0,0,0-13.35-1.35c-5.69,1.4-7.25,4.46-7.56,6.78a9.81,9.81,0,0,0,1.52,6.21,11.79,11.79,0,0,0,4,4.13,2.65,2.65,0,0,1,1.33,2.16A11.62,11.62,0,0,0,73,250.11a9.77,9.77,0,0,0,4.83,4.18c2.21.78,5.65.78,9.49-3.64a20.68,20.68,0,0,0,2.85-4.23h0l.08-.16c.06-.15.13-.29.2-.43a37,37,0,0,1,4.27-6.75c-.38-1.06-.7-2.08-1-3.05-.52.6-1,1.25-1.56,1.92"/></g><g id="g410"><path id="path412" class="cls-4" d="M86.5,230.68a1.16,1.16,0,0,1-.24-.7,1.14,1.14,0,1,1,1.13,1.14A1.07,1.07,0,0,1,87,231a1.13,1.13,0,0,1-.46-.35m.89-3.57a2.87,2.87,0,0,0-2.82,2.34,3.07,3.07,0,0,0,0,.53,2.87,2.87,0,0,0,2.87,2.87,2.88,2.88,0,0,0,2.85-2.51,2.17,2.17,0,0,0,0-.36,2.86,2.86,0,0,0-2.87-2.87"/></g></g></g></g></g></svg>