<?xml version="1.0" encoding="UTF-8"?> <svg xmlns="http://www.w3.org/2000/svg" width="2300.2" height="767.2"><metadata id="metadata8">image/svg+xml</metadata><defs><clipPath id="clipPath22"><path d="m-642.696655,3513.358175l3011.398,0l0,-3011.398l-3011.398,0l0,3011.398z" id="path20"></path></clipPath></defs><g><title>background</title><rect fill="none" id="canvas_background" height="769.2" width="2302.2" y="-1" x="-1"></rect></g><g><title>Layer 1</title><g id="g10" transform="matrix(1.3333333,0,0,-1.3333333,0,4015.2) "><path fill="#2c2e31" fill-rule="nonzero" d="m-642.696655,501.960175l3011.397,0l0,1500l-3011.397,0l0,-1500z" id="path12"></path><path fill="#2c2e31" fill-rule="nonzero" d="m727.694345,2555.101175l-11.411,0l0,55.379l11.411,0l0,-55.379z" id="path14"></path><g id="g16"><g id="g18" clip-path="url(#clipPath22)"><g id="g24"><path fill="#2c2e31" fill-rule="nonzero" d="m760.670654,2585.947479c-0.558,0.076 -1.211,0.146 -1.958,0.209c-0.749,0.063 -1.414,0.095 -1.998,0.095c-2.155,0 -3.898,-0.361 -5.23,-1.084c-1.331,-0.722 -2.314,-1.769 -2.947,-3.138l0,-26.928l-10.992,0l0,41.153l10.384,0l0.304,-4.906c1.039,1.774 2.32,3.163 3.841,4.164c1.522,1.002 3.296,1.503 5.325,1.503c0.583,0 1.198,-0.051 1.845,-0.152c0.646,-0.102 1.173,-0.216 1.578,-0.343l-0.152,-10.573z" id="path26"></path></g><path fill="#2c2e31" fill-rule="nonzero" d="m777.558345,2555.101175l-11.03,0l0,41.153l11.03,0l0,-41.153zm-11.677,51.803c0,1.649 0.552,3.005 1.655,4.07c1.103,1.065 2.605,1.597 4.507,1.597c0.938,0 1.787,-0.139 2.548,-0.418c0.761,-0.279 1.408,-0.672 1.94,-1.179c0.532,-0.507 0.944,-1.109 1.236,-1.806c0.291,-0.698 0.437,-1.453 0.437,-2.264c0,-0.836 -0.146,-1.604 -0.437,-2.3c-0.292,-0.699 -0.704,-1.301 -1.236,-1.808c-0.532,-0.507 -1.179,-0.9 -1.94,-1.178c-0.761,-0.28 -1.61,-0.419 -2.548,-0.419c-0.939,0 -1.788,0.139 -2.548,0.419c-0.761,0.278 -1.408,0.671 -1.94,1.178c-0.533,0.507 -0.945,1.109 -1.236,1.808c-0.292,0.696 -0.438,1.464 -0.438,2.3" id="path28"></path><g id="g30"><path fill="#2c2e31" fill-rule="nonzero" d="m808.89917,2566.473358c0,0.583 -0.114,1.115 -0.342,1.598c-0.229,0.481 -0.66,0.931 -1.294,1.35c-0.634,0.418 -1.496,0.818 -2.586,1.198c-1.09,0.38 -2.498,0.748 -4.222,1.103c-2.105,0.457 -4.05,1.026 -5.838,1.711c-1.788,0.685 -3.335,1.535 -4.641,2.549c-1.306,1.014 -2.327,2.193 -3.061,3.537c-0.736,1.344 -1.103,2.903 -1.103,4.678c0,1.724 0.373,3.36 1.122,4.907c0.748,1.546 1.825,2.91 3.233,4.089c1.407,1.179 3.131,2.111 5.172,2.795c2.041,0.685 4.343,1.027 6.904,1.027c2.662,0 5.059,-0.33 7.189,-0.989c2.13,-0.659 3.936,-1.578 5.42,-2.758c1.483,-1.178 2.624,-2.58 3.422,-4.202c0.799,-1.623 1.199,-3.399 1.199,-5.325l-10.992,0c0,1.572 -0.508,2.872 -1.522,3.898c-1.015,1.027 -2.599,1.541 -4.754,1.541c-1.851,0 -3.284,-0.418 -4.298,-1.255c-1.015,-0.837 -1.522,-1.902 -1.522,-3.195c0,-0.609 0.133,-1.148 0.4,-1.616c0.266,-0.47 0.697,-0.901 1.293,-1.294c0.595,-0.393 1.382,-0.755 2.358,-1.084c0.976,-0.33 2.174,-0.634 3.594,-0.912c2.231,-0.432 4.298,-0.964 6.201,-1.598c1.901,-0.634 3.543,-1.452 4.925,-2.453c1.381,-1.003 2.466,-2.22 3.251,-3.652c0.786,-1.433 1.18,-3.163 1.18,-5.191c0,-1.827 -0.406,-3.506 -1.217,-5.04c-0.812,-1.535 -1.972,-2.859 -3.48,-3.975c-1.509,-1.116 -3.328,-1.991 -5.458,-2.624c-2.13,-0.633 -4.514,-0.951 -7.152,-0.951c-2.89,0 -5.438,0.406 -7.644,1.217c-2.206,0.812 -4.064,1.876 -5.572,3.195c-1.509,1.318 -2.644,2.801 -3.404,4.45c-0.761,1.648 -1.141,3.309 -1.141,4.982l10.422,0c0.05,-1.064 0.285,-1.983 0.703,-2.757c0.418,-0.774 0.969,-1.401 1.654,-1.883c0.685,-0.482 1.477,-0.836 2.377,-1.065c0.9,-0.228 1.846,-0.342 2.834,-0.342c2.105,0 3.695,0.399 4.773,1.198c1.077,0.799 1.617,1.845 1.617,3.138" id="path32"></path></g><g id="g34"><path fill="#2c2e31" fill-rule="nonzero" d="m837.387451,2591.766815c1.369,1.647 2.973,2.935 4.812,3.86c1.837,0.926 3.898,1.389 6.18,1.389c2.029,0 3.88,-0.286 5.553,-0.856c1.674,-0.57 3.106,-1.497 4.298,-2.777c1.192,-1.281 2.111,-2.935 2.757,-4.963c0.647,-2.029 0.97,-4.488 0.97,-7.379l0,-25.94l-10.991,0l0,26.016c0,1.318 -0.146,2.421 -0.437,3.309c-0.293,0.887 -0.718,1.603 -1.275,2.149c-0.558,0.545 -1.249,0.932 -2.073,1.16c-0.825,0.228 -1.756,0.343 -2.795,0.343c-1.725,0 -3.158,-0.337 -4.299,-1.008c-1.141,-0.673 -2.041,-1.579 -2.7,-2.72l0,-29.249l-10.992,0l0,58.422l10.992,0l0,-21.756z" id="path36"></path></g><g id="g38"><path fill="#2c2e31" fill-rule="nonzero" d="m932.284424,2610.480194l0,-36.552c0,-3.195 -0.532,-6.016 -1.597,-8.463c-1.065,-2.447 -2.536,-4.494 -4.412,-6.143c-1.877,-1.648 -4.115,-2.89 -6.714,-3.727c-2.599,-0.836 -5.432,-1.255 -8.5,-1.255c-3.094,0 -5.941,0.419 -8.539,1.255c-2.6,0.837 -4.837,2.079 -6.714,3.727c-1.876,1.649 -3.34,3.696 -4.393,6.143c-1.052,2.447 -1.578,5.268 -1.578,8.463l0,36.552l11.41,0l0,-36.552c0,-3.626 0.869,-6.27 2.606,-7.93c1.737,-1.662 4.139,-2.492 7.208,-2.492c3.094,0 5.496,0.83 7.207,2.492c1.712,1.66 2.567,4.304 2.567,7.93l0,36.552l11.449,0z" id="path40"></path></g><g id="g42"><path fill="#2c2e31" fill-rule="nonzero" d="m951.035889,2596.254608l0.343,-4.754c1.419,1.775 3.131,3.137 5.134,4.089c2.003,0.951 4.234,1.426 6.694,1.426c1.952,0 3.727,-0.273 5.325,-0.818c1.598,-0.546 2.966,-1.439 4.108,-2.682c1.141,-1.242 2.022,-2.865 2.644,-4.867c0.621,-2.004 0.932,-4.464 0.932,-7.38l0,-26.167l-10.993,0l0,26.244c0,1.318 -0.146,2.408 -0.437,3.27c-0.292,0.862 -0.717,1.547 -1.274,2.055c-0.559,0.506 -1.243,0.867 -2.054,1.083c-0.813,0.215 -1.75,0.324 -2.815,0.324c-1.623,0 -3.011,-0.356 -4.165,-1.065c-1.154,-0.711 -2.086,-1.674 -2.795,-2.891l0,-29.02l-10.993,0l0,41.153l10.346,0z" id="path44"></path></g><path fill="#2c2e31" fill-rule="nonzero" d="m996.145345,2555.101175l-11.03,0l0,41.153l11.03,0l0,-41.153zm-11.677,51.803c0,1.649 0.552,3.005 1.655,4.07c1.103,1.065 2.605,1.597 4.507,1.597c0.938,0 1.788,-0.139 2.548,-0.418c0.761,-0.279 1.408,-0.672 1.94,-1.179c0.533,-0.507 0.945,-1.109 1.236,-1.806c0.291,-0.698 0.438,-1.453 0.438,-2.264c0,-0.836 -0.147,-1.604 -0.438,-2.3c-0.291,-0.699 -0.703,-1.301 -1.236,-1.808c-0.532,-0.507 -1.179,-0.9 -1.94,-1.178c-0.76,-0.28 -1.61,-0.419 -2.548,-0.419c-0.939,0 -1.788,0.139 -2.548,0.419c-0.761,0.278 -1.408,0.671 -1.94,1.178c-0.533,0.507 -0.945,1.109 -1.236,1.808c-0.292,0.696 -0.438,1.464 -0.438,2.3" id="path46"></path><g id="g48"><path fill="#2c2e31" fill-rule="nonzero" d="m1020.601807,2568.527557l7.645,27.727l11.487,0l-13.883,-41.153l-10.498,0l-13.883,41.153l11.487,0l7.645,-27.727z" id="path50"></path></g><g id="g52"><path fill="#2c2e31" fill-rule="nonzero" d="m1061.756104,2588.115448c-1.193,0 -2.238,-0.209 -3.138,-0.628c-0.901,-0.418 -1.674,-1.002 -2.32,-1.749c-0.647,-0.748 -1.173,-1.643 -1.579,-2.682c-0.405,-1.04 -0.697,-2.193 -0.875,-3.461l15.291,0l0,0.875c-0.026,1.089 -0.185,2.104 -0.476,3.042c-0.292,0.938 -0.736,1.75 -1.331,2.435c-0.596,0.684 -1.357,1.217 -2.282,1.597c-0.926,0.381 -2.022,0.571 -3.29,0.571m1.255,-33.775c-3.194,0 -6.054,0.52 -8.577,1.559c-2.524,1.039 -4.666,2.459 -6.428,4.26c-1.763,1.8 -3.106,3.912 -4.032,6.333c-0.925,2.421 -1.387,5.014 -1.387,7.778l0,1.484c0,3.119 0.449,5.977 1.35,8.576c0.899,2.599 2.18,4.837 3.841,6.713c1.66,1.877 3.677,3.341 6.047,4.394c2.371,1.052 5.027,1.578 7.969,1.578c2.967,0 5.578,-0.488 7.835,-1.464c2.256,-0.977 4.151,-2.346 5.686,-4.108c1.534,-1.763 2.688,-3.886 3.462,-6.371c0.773,-2.485 1.16,-5.249 1.16,-8.291l0,-4.679l-26.206,0c0.176,-1.344 0.538,-2.561 1.084,-3.652c0.545,-1.089 1.241,-2.022 2.091,-2.795c0.85,-0.773 1.845,-1.375 2.986,-1.807c1.141,-0.431 2.421,-0.646 3.842,-0.646c2.002,0 3.854,0.373 5.553,1.122c1.698,0.748 3.157,1.908 4.374,3.48l5.401,-6.047c-0.66,-0.939 -1.484,-1.851 -2.473,-2.739c-0.988,-0.888 -2.155,-1.68 -3.499,-2.377c-1.344,-0.698 -2.859,-1.255 -4.545,-1.674c-1.686,-0.418 -3.532,-0.627 -5.534,-0.627" id="path54"></path></g><g id="g56"><path fill="#2c2e31" fill-rule="nonzero" d="m1109.299561,2585.947479c-0.558,0.076 -1.211,0.146 -1.959,0.209c-0.748,0.063 -1.414,0.095 -1.997,0.095c-2.155,0 -3.898,-0.361 -5.229,-1.084c-1.331,-0.722 -2.315,-1.769 -2.948,-3.138l0,-26.928l-10.992,0l0,41.153l10.383,0l0.304,-4.906c1.04,1.774 2.321,3.163 3.842,4.164c1.521,1.002 3.297,1.503 5.325,1.503c0.583,0 1.198,-0.051 1.845,-0.152c0.646,-0.102 1.172,-0.216 1.578,-0.343l-0.152,-10.573z" id="path58"></path></g><g id="g60"><path fill="#2c2e31" fill-rule="nonzero" d="m1136.874756,2566.473358c0,0.583 -0.114,1.115 -0.342,1.598c-0.228,0.481 -0.659,0.931 -1.294,1.35c-0.634,0.418 -1.496,0.818 -2.585,1.198c-1.091,0.38 -2.498,0.748 -4.222,1.103c-2.106,0.457 -4.051,1.026 -5.839,1.711c-1.788,0.685 -3.334,1.535 -4.64,2.549c-1.307,1.014 -2.327,2.193 -3.062,3.537c-0.736,1.344 -1.103,2.903 -1.103,4.678c0,1.724 0.374,3.36 1.122,4.907c0.748,1.546 1.825,2.91 3.233,4.089c1.407,1.179 3.131,2.111 5.173,2.795c2.04,0.685 4.342,1.027 6.903,1.027c2.662,0 5.059,-0.33 7.189,-0.989c2.13,-0.659 3.936,-1.578 5.42,-2.758c1.483,-1.178 2.624,-2.58 3.423,-4.202c0.798,-1.623 1.198,-3.399 1.198,-5.325l-10.992,0c0,1.572 -0.508,2.872 -1.522,3.898c-1.014,1.027 -2.599,1.541 -4.754,1.541c-1.851,0 -3.284,-0.418 -4.298,-1.255c-1.014,-0.837 -1.521,-1.902 -1.521,-3.195c0,-0.609 0.133,-1.148 0.399,-1.616c0.266,-0.47 0.697,-0.901 1.293,-1.294c0.596,-0.393 1.382,-0.755 2.358,-1.084c0.976,-0.33 2.174,-0.634 3.595,-0.912c2.231,-0.432 4.298,-0.964 6.2,-1.598c1.901,-0.634 3.543,-1.452 4.925,-2.453c1.382,-1.003 2.466,-2.22 3.252,-3.652c0.786,-1.433 1.179,-3.163 1.179,-5.191c0,-1.827 -0.406,-3.506 -1.217,-5.04c-0.812,-1.535 -1.972,-2.859 -3.48,-3.975c-1.509,-1.116 -3.328,-1.991 -5.458,-2.624c-2.13,-0.633 -4.514,-0.951 -7.151,-0.951c-2.89,0 -5.439,0.406 -7.645,1.217c-2.206,0.812 -4.064,1.876 -5.572,3.195c-1.509,1.318 -2.644,2.801 -3.404,4.45c-0.761,1.648 -1.141,3.309 -1.141,4.982l10.422,0c0.05,-1.064 0.285,-1.983 0.703,-2.757c0.418,-0.774 0.969,-1.401 1.654,-1.883c0.685,-0.482 1.477,-0.836 2.378,-1.065c0.9,-0.228 1.845,-0.342 2.833,-0.342c2.105,0 3.696,0.399 4.774,1.198c1.077,0.799 1.616,1.845 1.616,3.138" id="path62"></path></g><path fill="#2c2e31" fill-rule="nonzero" d="m1166.237345,2555.101175l-11.03,0l0,41.153l11.03,0l0,-41.153zm-11.676,51.803c0,1.649 0.552,3.005 1.655,4.07c1.103,1.065 2.605,1.597 4.507,1.597c0.938,0 1.787,-0.139 2.548,-0.418c0.761,-0.279 1.408,-0.672 1.94,-1.179c0.532,-0.507 0.944,-1.109 1.236,-1.806c0.291,-0.698 0.437,-1.453 0.437,-2.264c0,-0.836 -0.146,-1.604 -0.437,-2.3c-0.292,-0.699 -0.704,-1.301 -1.236,-1.808c-0.532,-0.507 -1.179,-0.9 -1.94,-1.178c-0.761,-0.28 -1.61,-0.419 -2.548,-0.419c-0.939,0 -1.788,0.139 -2.549,0.419c-0.761,0.278 -1.407,0.671 -1.94,1.178c-0.532,0.507 -0.944,1.109 -1.236,1.808c-0.292,0.696 -0.437,1.464 -0.437,2.3" id="path64"></path><g id="g66"><path fill="#2c2e31" fill-rule="nonzero" d="m1188.450439,2606.372284l0,-10.118l7.036,0l0,-8.063l-7.036,0l0,-20.539c0,-0.862 0.088,-1.572 0.266,-2.13c0.177,-0.558 0.443,-0.995 0.799,-1.312c0.355,-0.317 0.792,-0.533 1.312,-0.647c0.519,-0.114 1.135,-0.171 1.845,-0.171c0.658,0 1.26,0.025 1.806,0.077c0.545,0.05 1.021,0.113 1.427,0.19l0,-8.33c-0.913,-0.279 -1.909,-0.514 -2.986,-0.704c-1.078,-0.19 -2.301,-0.285 -3.671,-0.285c-1.8,0 -3.423,0.222 -4.868,0.666c-1.445,0.443 -2.681,1.147 -3.708,2.111c-1.028,0.963 -1.82,2.218 -2.378,3.765c-0.558,1.546 -0.836,3.41 -0.836,5.591l0,21.718l-6.009,0l0,8.063l6.009,0l0,10.118l10.992,0z" id="path68"></path></g><path fill="#2c2e31" fill-rule="nonzero" d="m1213.211345,2555.101175l-11.03,0l0,41.153l11.03,0l0,-41.153zm-11.677,51.803c0,1.649 0.552,3.005 1.654,4.07c1.103,1.065 2.606,1.597 4.508,1.597c0.938,0 1.787,-0.139 2.548,-0.418c0.76,-0.279 1.407,-0.672 1.94,-1.179c0.532,-0.507 0.944,-1.109 1.236,-1.806c0.291,-0.698 0.437,-1.453 0.437,-2.264c0,-0.836 -0.146,-1.604 -0.437,-2.3c-0.292,-0.699 -0.704,-1.301 -1.236,-1.808c-0.533,-0.507 -1.18,-0.9 -1.94,-1.178c-0.761,-0.28 -1.61,-0.419 -2.548,-0.419c-0.938,0 -1.787,0.139 -2.549,0.419c-0.76,0.278 -1.407,0.671 -1.94,1.178c-0.532,0.507 -0.944,1.109 -1.235,1.808c-0.292,0.696 -0.438,1.464 -0.438,2.3" id="path70"></path><g id="g72"><path fill="#2c2e31" fill-rule="nonzero" d="m1239.949951,2588.115448c-1.192,0 -2.239,-0.209 -3.138,-0.628c-0.901,-0.418 -1.674,-1.002 -2.32,-1.749c-0.647,-0.748 -1.173,-1.643 -1.579,-2.682c-0.405,-1.04 -0.697,-2.193 -0.874,-3.461l15.29,0l0,0.875c-0.025,1.089 -0.185,2.104 -0.476,3.042c-0.292,0.938 -0.736,1.75 -1.331,2.435c-0.596,0.684 -1.357,1.217 -2.282,1.597c-0.926,0.381 -2.022,0.571 -3.29,0.571m1.255,-33.775c-3.195,0 -6.054,0.52 -8.577,1.559c-2.523,1.039 -4.666,2.459 -6.428,4.26c-1.763,1.8 -3.106,3.912 -4.031,6.333c-0.926,2.421 -1.389,5.014 -1.389,7.778l0,1.484c0,3.119 0.45,5.977 1.35,8.576c0.9,2.599 2.181,4.837 3.842,6.713c1.661,1.877 3.676,3.341 6.047,4.394c2.371,1.052 5.027,1.578 7.969,1.578c2.966,0 5.578,-0.488 7.835,-1.464c2.256,-0.977 4.152,-2.346 5.687,-4.108c1.533,-1.763 2.687,-3.886 3.46,-6.371c0.773,-2.485 1.16,-5.249 1.16,-8.291l0,-4.679l-26.205,0c0.176,-1.344 0.538,-2.561 1.084,-3.652c0.545,-1.089 1.242,-2.022 2.091,-2.795c0.85,-0.773 1.845,-1.375 2.986,-1.807c1.141,-0.431 2.421,-0.646 3.842,-0.646c2.002,0 3.854,0.373 5.553,1.122c1.698,0.748 3.157,1.908 4.373,3.48l5.402,-6.047c-0.66,-0.939 -1.484,-1.851 -2.473,-2.739c-0.989,-0.888 -2.155,-1.68 -3.499,-2.377c-1.344,-0.698 -2.859,-1.255 -4.545,-1.674c-1.686,-0.418 -3.531,-0.627 -5.534,-0.627" id="path74"></path></g><g id="g76"><path fill="#2c2e31" fill-rule="nonzero" d="m1286.656982,2566.473358c0,0.583 -0.114,1.115 -0.343,1.598c-0.228,0.481 -0.659,0.931 -1.293,1.35c-0.634,0.418 -1.496,0.818 -2.586,1.198c-1.09,0.38 -2.497,0.748 -4.222,1.103c-2.105,0.457 -4.05,1.026 -5.839,1.711c-1.787,0.685 -3.334,1.535 -4.64,2.549c-1.306,1.014 -2.326,2.193 -3.061,3.537c-0.736,1.344 -1.103,2.903 -1.103,4.678c0,1.724 0.374,3.36 1.122,4.907c0.748,1.546 1.825,2.91 3.233,4.089c1.407,1.179 3.131,2.111 5.172,2.795c2.041,0.685 4.343,1.027 6.904,1.027c2.662,0 5.059,-0.33 7.188,-0.989c2.13,-0.659 3.937,-1.578 5.42,-2.758c1.484,-1.178 2.625,-2.58 3.423,-4.202c0.799,-1.623 1.199,-3.399 1.199,-5.325l-10.992,0c0,1.572 -0.508,2.872 -1.522,3.898c-1.015,1.027 -2.599,1.541 -4.754,1.541c-1.851,0 -3.285,-0.418 -4.299,-1.255c-1.013,-0.837 -1.521,-1.902 -1.521,-3.195c0,-0.609 0.134,-1.148 0.4,-1.616c0.266,-0.47 0.697,-0.901 1.293,-1.294c0.595,-0.393 1.382,-0.755 2.358,-1.084c0.976,-0.33 2.174,-0.634 3.594,-0.912c2.232,-0.432 4.298,-0.964 6.201,-1.598c1.901,-0.634 3.542,-1.452 4.924,-2.453c1.383,-1.003 2.466,-2.22 3.253,-3.652c0.785,-1.433 1.179,-3.163 1.179,-5.191c0,-1.827 -0.406,-3.506 -1.217,-5.04c-0.813,-1.535 -1.972,-2.859 -3.481,-3.975c-1.509,-1.116 -3.328,-1.991 -5.458,-2.624c-2.129,-0.633 -4.513,-0.951 -7.15,-0.951c-2.89,0 -5.439,0.406 -7.645,1.217c-2.206,0.812 -4.064,1.876 -5.572,3.195c-1.509,1.318 -2.644,2.801 -3.405,4.45c-0.76,1.648 -1.14,3.309 -1.14,4.982l10.421,0c0.05,-1.064 0.285,-1.983 0.704,-2.757c0.418,-0.774 0.969,-1.401 1.654,-1.883c0.684,-0.482 1.477,-0.836 2.377,-1.065c0.9,-0.228 1.846,-0.342 2.834,-0.342c2.105,0 3.696,0.399 4.773,1.198c1.077,0.799 1.617,1.845 1.617,3.138" id="path78"></path></g><g id="g80"><path fill="#2c2e31" fill-rule="nonzero" d="m1336.901123,2596.825409c0,-1.141 0.304,-2.295 0.913,-3.461c0.608,-1.167 1.42,-2.41 2.434,-3.728l2.929,1.94c0.785,0.507 1.439,1.001 1.958,1.484c0.52,0.481 0.926,0.969 1.218,1.464c0.291,0.494 0.494,0.995 0.608,1.502c0.114,0.507 0.171,1.052 0.171,1.636c0,0.582 -0.114,1.153 -0.342,1.711c-0.228,0.558 -0.552,1.059 -0.97,1.502c-0.419,0.444 -0.945,0.805 -1.578,1.085c-0.634,0.278 -1.344,0.418 -2.13,0.418c-0.862,0 -1.617,-0.146 -2.264,-0.437c-0.646,-0.292 -1.192,-0.691 -1.635,-1.199c-0.444,-0.507 -0.774,-1.097 -0.989,-1.768c-0.216,-0.672 -0.323,-1.388 -0.323,-2.149m4.031,-33.661c2.637,0 5.136,0.735 7.493,2.206l-10.916,12.628l-0.798,-0.571c-0.711,-0.608 -1.288,-1.211 -1.731,-1.807c-0.444,-0.596 -0.786,-1.179 -1.027,-1.75c-0.241,-0.569 -0.406,-1.128 -0.494,-1.673c-0.09,-0.545 -0.134,-1.072 -0.134,-1.579c0,-1.064 0.178,-2.053 0.533,-2.966c0.355,-0.913 0.869,-1.705 1.54,-2.377c0.672,-0.672 1.478,-1.193 2.416,-1.559c0.938,-0.369 1.978,-0.552 3.118,-0.552m-18.636,6.846c0,1.598 0.247,3.049 0.741,4.355c0.495,1.306 1.18,2.53 2.054,3.67c0.874,1.142 1.927,2.226 3.157,3.253c1.229,1.027 2.592,2.059 4.089,3.099c-1.649,2.207 -2.942,4.279 -3.88,6.219c-0.938,1.94 -1.407,3.962 -1.407,6.067c0,2.18 0.361,4.165 1.084,5.952c0.723,1.788 1.737,3.322 3.043,4.602c1.306,1.281 2.891,2.269 4.754,2.967c1.864,0.697 3.937,1.047 6.219,1.047c2.155,0 4.107,-0.343 5.857,-1.028c1.749,-0.684 3.239,-1.616 4.47,-2.795c1.229,-1.179 2.174,-2.549 2.833,-4.108c0.659,-1.56 0.989,-3.214 0.989,-4.964c0,-1.292 -0.184,-2.51 -0.552,-3.651c-0.367,-1.141 -0.881,-2.219 -1.54,-3.233c-0.66,-1.014 -1.439,-1.965 -2.339,-2.853c-0.901,-0.888 -1.896,-1.711 -2.986,-2.472l-3.538,-2.548l9.548,-11.106c0.709,1.394 1.26,2.903 1.654,4.526c0.393,1.622 0.589,3.359 0.589,5.21l9.357,0c0,-3.398 -0.386,-6.567 -1.16,-9.508c-0.774,-2.942 -2.048,-5.604 -3.823,-7.988l8.292,-9.622l-12.476,0l-2.852,3.27c-2.079,-1.369 -4.273,-2.383 -6.58,-3.043c-2.307,-0.658 -4.805,-0.988 -7.492,-0.988c-2.791,0 -5.307,0.386 -7.551,1.16c-2.244,0.773 -4.146,1.85 -5.705,3.233c-1.559,1.382 -2.758,3.036 -3.594,4.964c-0.837,1.926 -1.255,4.031 -1.255,6.313" id="path82"></path></g><g id="g84"><path fill="#2c2e31" fill-rule="nonzero" d="m726.477295,2517.005096l18.105,-45.186l18.104,45.186l9.471,0l0,-55.379l-7.303,0l0,21.566l0.685,23.277l-18.181,-44.843l-5.591,0l-18.143,44.729l0.723,-23.163l0,-21.566l-7.303,0l0,55.379l9.433,0z" id="path86"></path></g><g id="g88"><path fill="#2c2e31" fill-rule="nonzero" d="m800.151123,2497.759491c-1.42,0 -2.726,-0.26 -3.917,-0.78c-1.192,-0.52 -2.257,-1.274 -3.196,-2.263c-0.938,-0.989 -1.718,-2.219 -2.339,-3.689c-0.622,-1.472 -1.046,-3.157 -1.274,-5.059l20.615,0l0,0.533c-0.076,1.369 -0.299,2.725 -0.665,4.069c-0.369,1.344 -0.939,2.548 -1.712,3.613c-0.774,1.065 -1.768,1.927 -2.986,2.587c-1.216,0.659 -2.726,0.989 -4.526,0.989m0.875,-36.894c-2.866,0 -5.458,0.494 -7.778,1.483c-2.321,0.989 -4.305,2.365 -5.953,4.127c-1.648,1.762 -2.916,3.861 -3.803,6.295c-0.888,2.434 -1.332,5.096 -1.332,7.987l0,1.598c0,3.347 0.501,6.338 1.503,8.976c1.001,2.636 2.339,4.856 4.012,6.656c1.674,1.8 3.588,3.176 5.744,4.127c2.155,0.951 4.399,1.426 6.732,1.426c2.941,0 5.477,-0.513 7.607,-1.54c2.13,-1.027 3.886,-2.441 5.268,-4.241c1.382,-1.801 2.402,-3.931 3.062,-6.39c0.659,-2.46 0.989,-5.135 0.989,-8.026l0,-3.157l-27.88,0c0.051,-1.901 0.361,-3.676 0.932,-5.324c0.57,-1.649 1.381,-3.081 2.434,-4.298c1.052,-1.218 2.32,-2.181 3.803,-2.891c1.484,-0.71 3.163,-1.065 5.04,-1.065c2.485,0 4.59,0.507 6.314,1.521c1.724,1.014 3.233,2.359 4.526,4.032l4.298,-3.347c-0.66,-1.014 -1.458,-1.997 -2.396,-2.948c-0.938,-0.95 -2.035,-1.8 -3.29,-2.548c-1.255,-0.748 -2.695,-1.344 -4.317,-1.788c-1.623,-0.443 -3.461,-0.665 -5.515,-0.665" id="path90"></path></g><g id="g92"><path fill="#2c2e31" fill-rule="nonzero" d="m830.54126,2481.746796c0,-2.054 0.209,-3.988 0.627,-5.801c0.419,-1.813 1.071,-3.391 1.959,-4.735c0.887,-1.344 2.016,-2.409 3.385,-3.194c1.37,-0.787 3.005,-1.18 4.907,-1.18c1.242,0 2.358,0.146 3.347,0.437c0.988,0.291 1.883,0.704 2.681,1.237c0.799,0.532 1.509,1.166 2.13,1.901c0.621,0.735 1.16,1.547 1.617,2.435l0,18.903c-0.457,0.837 -0.989,1.61 -1.598,2.32c-0.609,0.71 -1.312,1.325 -2.11,1.845c-0.799,0.52 -1.693,0.925 -2.682,1.217c-0.989,0.291 -2.092,0.437 -3.309,0.437c-1.927,0 -3.582,-0.399 -4.963,-1.197c-1.383,-0.799 -2.518,-1.884 -3.405,-3.253c-0.888,-1.369 -1.54,-2.96 -1.959,-4.773c-0.418,-1.813 -0.627,-3.747 -0.627,-5.8l0,-0.799zm-7.037,0.799c0,3.143 0.387,6.002 1.161,8.576c0.773,2.574 1.869,4.78 3.29,6.619c1.419,1.838 3.124,3.264 5.115,4.278c1.991,1.014 4.216,1.521 6.675,1.521c2.511,0 4.703,-0.424 6.58,-1.273c1.877,-0.851 3.499,-2.074 4.869,-3.671l0,21.452l7.036,0l0,-58.422l-6.466,0l-0.342,4.413c-1.369,-1.674 -3.018,-2.955 -4.944,-3.842c-1.928,-0.887 -4.197,-1.331 -6.809,-1.331c-2.409,0 -4.608,0.52 -6.599,1.559c-1.991,1.039 -3.696,2.491 -5.115,4.355c-1.421,1.863 -2.517,4.07 -3.29,6.618c-0.774,2.548 -1.161,5.331 -1.161,8.349l0,0.799z" id="path94"></path></g><path fill="#2c2e31" fill-rule="nonzero" d="m876.791345,2461.626175l-7.037,0l0,41.153l7.037,0l0,-41.153zm-7.607,52.07c0,1.14 0.349,2.104 1.046,2.89c0.698,0.786 1.731,1.18 3.1,1.18c1.37,0 2.409,-0.394 3.119,-1.18c0.709,-0.786 1.065,-1.75 1.065,-2.89c0,-1.142 -0.356,-2.092 -1.065,-2.853c-0.71,-0.76 -1.749,-1.141 -3.119,-1.141c-1.369,0 -2.402,0.381 -3.1,1.141c-0.697,0.761 -1.046,1.711 -1.046,2.853" id="path96"></path><g id="g98"><path fill="#2c2e31" fill-rule="nonzero" d="m904.557373,2466.608612c1.242,0 2.434,0.203 3.576,0.608c1.14,0.406 2.148,0.964 3.023,1.674c0.875,0.71 1.585,1.553 2.13,2.529c0.545,0.976 0.869,2.035 0.97,3.176l6.656,0c-0.102,-1.825 -0.603,-3.569 -1.502,-5.229c-0.901,-1.661 -2.086,-3.119 -3.557,-4.375c-1.471,-1.255 -3.175,-2.257 -5.115,-3.004c-1.94,-0.748 -4.001,-1.122 -6.181,-1.122c-3.094,0 -5.788,0.551 -8.083,1.654c-2.294,1.103 -4.203,2.592 -5.724,4.469c-1.522,1.877 -2.656,4.057 -3.404,6.542c-0.748,2.485 -1.122,5.11 -1.122,7.873l0,1.598c0,2.763 0.374,5.388 1.122,7.873c0.748,2.485 1.882,4.666 3.404,6.542c1.521,1.877 3.423,3.367 5.705,4.469c2.283,1.103 4.97,1.655 8.064,1.655c2.409,0 4.596,-0.38 6.561,-1.141c1.965,-0.761 3.664,-1.807 5.097,-3.138c1.432,-1.331 2.554,-2.91 3.365,-4.736c0.812,-1.825 1.268,-3.791 1.37,-5.895l-6.656,0c-0.101,1.268 -0.399,2.454 -0.893,3.557c-0.495,1.103 -1.161,2.066 -1.997,2.89c-0.838,0.824 -1.833,1.477 -2.986,1.959c-1.155,0.481 -2.441,0.723 -3.861,0.723c-2.181,0 -3.988,-0.432 -5.42,-1.294c-1.433,-0.862 -2.586,-1.997 -3.461,-3.404c-0.875,-1.407 -1.491,-2.992 -1.845,-4.754c-0.355,-1.762 -0.532,-3.531 -0.532,-5.306l0,-1.598c0,-1.825 0.177,-3.619 0.532,-5.381c0.354,-1.763 0.963,-3.342 1.826,-4.736c0.862,-1.394 2.015,-2.523 3.461,-3.385c1.445,-0.862 3.271,-1.293 5.477,-1.293" id="path100"></path></g><g id="g102"><path fill="#2c2e31" fill-rule="nonzero" d="m942.554443,2466.988983c1.268,0 2.459,0.177 3.575,0.532c1.115,0.355 2.131,0.818 3.043,1.389c0.913,0.57 1.705,1.223 2.378,1.958c0.671,0.736 1.197,1.496 1.577,2.283l0,8.443l-5.857,0c-4.032,0 -7.138,-0.627 -9.319,-1.882c-2.18,-1.255 -3.27,-3.151 -3.27,-5.686c0,-0.989 0.164,-1.915 0.494,-2.777c0.329,-0.862 0.83,-1.604 1.503,-2.225c0.671,-0.622 1.495,-1.116 2.472,-1.484c0.975,-0.367 2.111,-0.551 3.404,-0.551m11.677,-5.363c-0.254,0.507 -0.457,1.147 -0.609,1.921c-0.152,0.773 -0.279,1.578 -0.38,2.415c-0.66,-0.684 -1.401,-1.337 -2.226,-1.959c-0.824,-0.621 -1.724,-1.166 -2.7,-1.635c-0.976,-0.47 -2.035,-0.837 -3.176,-1.103c-1.141,-0.267 -2.346,-0.4 -3.613,-0.4c-2.105,0 -4.013,0.318 -5.724,0.951c-1.712,0.633 -3.171,1.496 -4.375,2.587c-1.204,1.089 -2.136,2.377 -2.795,3.86c-0.66,1.483 -0.989,3.075 -0.989,4.774c0,2.205 0.431,4.152 1.293,5.838c0.862,1.686 2.098,3.1 3.708,4.241c1.611,1.141 3.557,2.002 5.839,2.586c2.282,0.583 4.831,0.875 7.645,0.875l6.998,0l0,3.233c0,2.459 -0.735,4.418 -2.206,5.876c-1.471,1.458 -3.638,2.187 -6.504,2.187c-1.319,0 -2.523,-0.177 -3.613,-0.532c-1.09,-0.355 -2.022,-0.831 -2.796,-1.426c-0.773,-0.596 -1.375,-1.288 -1.806,-2.073c-0.431,-0.787 -0.647,-1.611 -0.647,-2.472l-7.074,0c0,1.47 0.386,2.928 1.16,4.373c0.773,1.446 1.87,2.745 3.29,3.899c1.42,1.154 3.138,2.092 5.154,2.815c2.016,0.722 4.265,1.083 6.751,1.083c2.23,0 4.291,-0.285 6.18,-0.855c1.889,-0.571 3.506,-1.433 4.85,-2.587c1.344,-1.154 2.396,-2.592 3.157,-4.316c0.76,-1.725 1.141,-3.741 1.141,-6.048l0,-19.131c0,-1.396 0.12,-2.86 0.361,-4.394c0.241,-1.534 0.602,-2.859 1.084,-3.974l0,-0.609l-7.378,0z" id="path104"></path></g><path fill="#2c2e31" fill-rule="nonzero" d="m978.839345,2461.626175l-7.037,0l0,58.422l7.037,0l0,-58.422z" id="path106"></path><g id="g108"><path fill="#2c2e31" fill-rule="nonzero" d="m1039.999756,2475.622772c0,1.293 -0.197,2.434 -0.589,3.423c-0.394,0.989 -1.091,1.895 -2.093,2.72c-1.002,0.824 -2.351,1.597 -4.05,2.32c-1.699,0.723 -3.854,1.465 -6.466,2.225c-2.739,0.786 -5.218,1.679 -7.436,2.682c-2.219,1.001 -4.108,2.154 -5.667,3.461c-1.559,1.305 -2.758,2.795 -3.595,4.469c-0.836,1.673 -1.254,3.587 -1.254,5.743c0,2.155 0.449,4.152 1.35,5.99c0.9,1.839 2.174,3.436 3.822,4.793c1.648,1.356 3.625,2.415 5.934,3.176c2.307,0.761 4.881,1.141 7.721,1.141c3.118,0 5.896,-0.47 8.33,-1.408c2.434,-0.938 4.481,-2.181 6.142,-3.727c1.661,-1.547 2.923,-3.334 3.785,-5.362c0.861,-2.03 1.293,-4.122 1.293,-6.276l-7.341,0c0,1.546 -0.247,2.979 -0.742,4.297c-0.494,1.319 -1.249,2.459 -2.263,3.423c-1.014,0.964 -2.282,1.712 -3.803,2.244c-1.522,0.534 -3.323,0.799 -5.401,0.799c-1.953,0 -3.652,-0.228 -5.097,-0.684c-1.445,-0.456 -2.638,-1.084 -3.575,-1.883c-0.939,-0.798 -1.636,-1.744 -2.092,-2.834c-0.456,-1.09 -0.684,-2.282 -0.684,-3.575c0,-1.167 0.247,-2.232 0.741,-3.195c0.494,-0.964 1.261,-1.851 2.301,-2.662c1.04,-0.812 2.377,-1.56 4.013,-2.244c1.635,-0.685 3.594,-1.345 5.876,-1.978c3.144,-0.888 5.858,-1.87 8.14,-2.948c2.282,-1.078 4.164,-2.301 5.648,-3.67c1.483,-1.37 2.586,-2.904 3.309,-4.603c0.722,-1.699 1.084,-3.626 1.084,-5.781c0,-2.257 -0.457,-4.298 -1.37,-6.123c-0.912,-1.826 -2.212,-3.385 -3.898,-4.679c-1.686,-1.293 -3.715,-2.289 -6.086,-2.985c-2.37,-0.698 -5.014,-1.046 -7.93,-1.046c-1.699,0 -3.398,0.158 -5.097,0.475c-1.698,0.317 -3.327,0.792 -4.887,1.426c-1.559,0.634 -3.005,1.42 -4.336,2.358c-1.331,0.938 -2.491,2.029 -3.48,3.271c-0.989,1.243 -1.763,2.637 -2.32,4.185c-0.558,1.546 -0.837,3.245 -0.837,5.096l7.34,0c0,-1.902 0.374,-3.531 1.123,-4.887c0.747,-1.357 1.75,-2.479 3.004,-3.367c1.256,-0.887 2.702,-1.54 4.336,-1.958c1.636,-0.419 3.353,-0.628 5.154,-0.628c3.854,0 6.809,0.786 8.863,2.358c2.053,1.572 3.08,3.715 3.08,6.428" id="path110"></path></g><g id="g112"><path fill="#2c2e31" fill-rule="nonzero" d="m1072.10083,2466.608612c1.243,0 2.435,0.203 3.576,0.608c1.141,0.406 2.149,0.964 3.024,1.674c0.874,0.71 1.584,1.553 2.13,2.529c0.545,0.976 0.868,2.035 0.969,3.176l6.656,0c-0.102,-1.825 -0.603,-3.569 -1.502,-5.229c-0.9,-1.661 -2.086,-3.119 -3.556,-4.375c-1.471,-1.255 -3.176,-2.257 -5.116,-3.004c-1.94,-0.748 -4,-1.122 -6.181,-1.122c-3.093,0 -5.787,0.551 -8.082,1.654c-2.295,1.103 -4.203,2.592 -5.724,4.469c-1.522,1.877 -2.657,4.057 -3.404,6.542c-0.748,2.485 -1.123,5.11 -1.123,7.873l0,1.598c0,2.763 0.375,5.388 1.123,7.873c0.747,2.485 1.882,4.666 3.404,6.542c1.521,1.877 3.423,3.367 5.705,4.469c2.283,1.103 4.969,1.655 8.064,1.655c2.408,0 4.595,-0.38 6.56,-1.141c1.965,-0.761 3.665,-1.807 5.097,-3.138c1.432,-1.331 2.554,-2.91 3.366,-4.736c0.812,-1.825 1.267,-3.791 1.369,-5.895l-6.656,0c-0.101,1.268 -0.399,2.454 -0.893,3.557c-0.494,1.103 -1.16,2.066 -1.997,2.89c-0.837,0.824 -1.832,1.477 -2.986,1.959c-1.154,0.481 -2.441,0.723 -3.86,0.723c-2.182,0 -3.988,-0.432 -5.42,-1.294c-1.434,-0.862 -2.587,-1.997 -3.461,-3.404c-0.875,-1.407 -1.491,-2.992 -1.846,-4.754c-0.355,-1.762 -0.532,-3.531 -0.532,-5.306l0,-1.598c0,-1.825 0.177,-3.619 0.532,-5.381c0.355,-1.763 0.964,-3.342 1.826,-4.736c0.862,-1.394 2.016,-2.523 3.461,-3.385c1.446,-0.862 3.271,-1.293 5.477,-1.293" id="path114"></path></g><g id="g116"><path fill="#2c2e31" fill-rule="nonzero" d="m1103.404053,2497.797577c1.471,1.8 3.233,3.207 5.287,4.221c2.054,1.014 4.349,1.522 6.884,1.522c2.003,0 3.816,-0.273 5.44,-0.817c1.622,-0.547 3.004,-1.421 4.145,-2.625c1.141,-1.205 2.022,-2.752 2.643,-4.64c0.622,-1.89 0.933,-4.179 0.933,-6.866l0,-26.966l-7.037,0l0,27.043c0,1.597 -0.178,2.96 -0.533,4.088c-0.354,1.128 -0.881,2.048 -1.578,2.758c-0.698,0.709 -1.559,1.23 -2.586,1.559c-1.027,0.329 -2.213,0.494 -3.556,0.494c-2.283,0 -4.286,-0.608 -6.01,-1.825c-1.724,-1.217 -3.069,-2.815 -4.032,-4.793l0,-29.324l-7.036,0l0,58.421l7.036,0l0,-22.25z" id="path118"></path></g><g id="g120"><path fill="#2c2e31" fill-rule="nonzero" d="m1144.482178,2481.746796c0,-2.054 0.24,-3.994 0.723,-5.82c0.481,-1.825 1.21,-3.43 2.187,-4.811c0.975,-1.382 2.193,-2.479 3.651,-3.29c1.458,-0.812 3.163,-1.217 5.116,-1.217c1.927,0 3.625,0.405 5.096,1.217c1.471,0.811 2.688,1.908 3.652,3.29c0.963,1.381 1.692,2.986 2.186,4.811c0.495,1.826 0.743,3.766 0.743,5.82l0,0.836c0,2.029 -0.248,3.962 -0.743,5.801c-0.494,1.838 -1.23,3.448 -2.206,4.83c-0.976,1.382 -2.2,2.485 -3.67,3.309c-1.47,0.824 -3.182,1.237 -5.134,1.237c-1.928,0 -3.614,-0.413 -5.059,-1.237c-1.445,-0.824 -2.657,-1.927 -3.632,-3.309c-0.977,-1.382 -1.706,-2.992 -2.187,-4.83c-0.483,-1.839 -0.723,-3.772 -0.723,-5.801l0,-0.836zm-7.075,0.836c0,2.992 0.438,5.763 1.313,8.311c0.875,2.549 2.116,4.761 3.727,6.637c1.61,1.877 3.568,3.347 5.876,4.412c2.307,1.065 4.894,1.597 7.76,1.597c2.916,0 5.534,-0.532 7.854,-1.597c2.32,-1.065 4.291,-2.535 5.915,-4.412c1.622,-1.876 2.864,-4.088 3.727,-6.637c0.861,-2.548 1.293,-5.319 1.293,-8.311l0,-0.836c0,-2.992 -0.432,-5.763 -1.293,-8.311c-0.863,-2.548 -2.105,-4.754 -3.727,-6.618c-1.624,-1.863 -3.589,-3.322 -5.896,-4.374c-2.308,-1.052 -4.907,-1.578 -7.797,-1.578c-2.891,0 -5.49,0.526 -7.797,1.578c-2.308,1.052 -4.274,2.511 -5.896,4.374c-1.623,1.864 -2.871,4.07 -3.746,6.618c-0.875,2.548 -1.313,5.319 -1.313,8.311l0,0.836z" id="path122"></path></g><g id="g124"><path fill="#2c2e31" fill-rule="nonzero" d="m1188.906982,2481.746796c0,-2.054 0.241,-3.994 0.723,-5.82c0.481,-1.825 1.21,-3.43 2.186,-4.811c0.977,-1.382 2.194,-2.479 3.652,-3.29c1.457,-0.812 3.163,-1.217 5.115,-1.217c1.927,0 3.626,0.405 5.097,1.217c1.471,0.811 2.688,1.908 3.652,3.29c0.963,1.381 1.693,2.986 2.187,4.811c0.494,1.826 0.742,3.766 0.742,5.82l0,0.836c0,2.029 -0.248,3.962 -0.742,5.801c-0.494,1.838 -1.231,3.448 -2.206,4.83c-0.976,1.382 -2.2,2.485 -3.671,3.309c-1.471,0.824 -3.182,1.237 -5.134,1.237c-1.928,0 -3.614,-0.413 -5.059,-1.237c-1.446,-0.824 -2.656,-1.927 -3.633,-3.309c-0.976,-1.382 -1.705,-2.992 -2.186,-4.83c-0.482,-1.839 -0.723,-3.772 -0.723,-5.801l0,-0.836zm-7.075,0.836c0,2.992 0.438,5.763 1.313,8.311c0.874,2.549 2.116,4.761 3.727,6.637c1.61,1.877 3.569,3.347 5.876,4.412c2.307,1.065 4.893,1.597 7.76,1.597c2.915,0 5.534,-0.532 7.854,-1.597c2.32,-1.065 4.292,-2.535 5.914,-4.412c1.623,-1.876 2.865,-4.088 3.727,-6.637c0.862,-2.548 1.294,-5.319 1.294,-8.311l0,-0.836c0,-2.992 -0.432,-5.763 -1.294,-8.311c-0.862,-2.548 -2.104,-4.754 -3.727,-6.618c-1.622,-1.863 -3.588,-3.322 -5.895,-4.374c-2.308,-1.052 -4.907,-1.578 -7.798,-1.578c-2.89,0 -5.489,0.526 -7.797,1.578c-2.307,1.052 -4.273,2.511 -5.895,4.374c-1.623,1.864 -2.872,4.07 -3.746,6.618c-0.875,2.548 -1.313,5.319 -1.313,8.311l0,0.836z" id="path126"></path></g><path fill="#2c2e31" fill-rule="nonzero" d="m1235.766345,2461.626175l-7.036,0l0,58.422l7.036,0l0,-58.422z" id="path128"></path><g id="g130"><path fill="#2c2e31" fill-rule="nonzero" d="m1270.986572,2472.541718c0,0.761 -0.114,1.477 -0.342,2.149c-0.229,0.672 -0.679,1.306 -1.35,1.902c-0.673,0.596 -1.631,1.147 -2.872,1.655c-1.243,0.507 -2.878,0.975 -4.907,1.407c-2.282,0.481 -4.336,1.052 -6.161,1.711c-1.826,0.659 -3.38,1.451 -4.66,2.378c-1.281,0.925 -2.263,2.021 -2.947,3.29c-0.685,1.267 -1.028,2.751 -1.028,4.449c0,1.623 0.362,3.163 1.085,4.622c0.722,1.458 1.743,2.738 3.061,3.841c1.318,1.104 2.915,1.978 4.793,2.625c1.876,0.647 3.968,0.97 6.276,0.97c2.459,0 4.658,-0.336 6.598,-1.008c1.94,-0.672 3.588,-1.592 4.945,-2.758c1.356,-1.166 2.39,-2.529 3.1,-4.088c0.709,-1.56 1.065,-3.228 1.065,-5.002l-7.074,0c0,0.837 -0.191,1.68 -0.571,2.529c-0.381,0.849 -0.938,1.61 -1.673,2.283c-0.736,0.671 -1.636,1.216 -2.701,1.635c-1.065,0.419 -2.295,0.628 -3.689,0.628c-1.471,0 -2.72,-0.172 -3.747,-0.514c-1.027,-0.343 -1.87,-0.799 -2.529,-1.369c-0.66,-0.571 -1.141,-1.217 -1.445,-1.94c-0.305,-0.723 -0.457,-1.464 -0.457,-2.225c0,-0.761 0.127,-1.445 0.38,-2.054c0.253,-0.609 0.735,-1.16 1.446,-1.655c0.709,-0.494 1.679,-0.95 2.909,-1.369c1.23,-0.418 2.821,-0.843 4.774,-1.274c2.51,-0.583 4.691,-1.242 6.542,-1.978c1.85,-0.735 3.385,-1.591 4.602,-2.567c1.218,-0.977 2.124,-2.099 2.719,-3.366c0.596,-1.268 0.894,-2.739 0.894,-4.412c0,-1.801 -0.374,-3.449 -1.122,-4.945c-0.748,-1.496 -1.819,-2.776 -3.213,-3.841c-1.396,-1.065 -3.069,-1.896 -5.022,-2.492c-1.952,-0.595 -4.12,-0.893 -6.503,-0.893c-2.739,0 -5.154,0.38 -7.246,1.14c-2.092,0.761 -3.848,1.769 -5.268,3.025c-1.42,1.255 -2.498,2.687 -3.233,4.298c-0.736,1.609 -1.103,3.264 -1.103,4.963l7.037,0c0.076,-1.445 0.424,-2.657 1.046,-3.633c0.621,-0.975 1.401,-1.768 2.339,-2.377c0.938,-0.608 1.964,-1.039 3.081,-1.293c1.115,-0.254 2.231,-0.38 3.347,-0.38c1.445,0 2.712,0.152 3.803,0.456c1.09,0.305 2.009,0.723 2.757,1.256c0.748,0.532 1.313,1.159 1.693,1.882c0.38,0.723 0.571,1.503 0.571,2.339" id="path132"></path></g><g id="g134"><path fill="#2c2e31" fill-rule="nonzero" d="m1348.311279,2479.198456c-0.304,-2.612 -0.945,-5.04 -1.92,-7.284c-0.977,-2.244 -2.327,-4.184 -4.052,-5.819c-1.724,-1.636 -3.828,-2.917 -6.313,-3.842c-2.486,-0.925 -5.389,-1.388 -8.71,-1.388c-3.271,0 -6.238,0.608 -8.901,1.826c-2.662,1.217 -4.938,2.947 -6.827,5.191c-1.889,2.244 -3.347,4.939 -4.374,8.083c-1.027,3.144 -1.54,6.656 -1.54,10.536l0,5.552c0,3.88 0.519,7.398 1.56,10.556c1.039,3.156 2.522,5.857 4.45,8.101c1.926,2.244 4.265,3.98 7.017,5.211c2.751,1.229 5.839,1.844 9.261,1.844c3.119,0 5.883,-0.456 8.292,-1.369c2.409,-0.913 4.456,-2.187 6.142,-3.823c1.687,-1.635 3.025,-3.588 4.014,-5.857c0.988,-2.269 1.622,-4.773 1.901,-7.512l-7.34,0c-0.28,1.927 -0.711,3.664 -1.294,5.211c-0.584,1.547 -1.387,2.866 -2.415,3.955c-1.027,1.09 -2.301,1.927 -3.823,2.511c-1.521,0.583 -3.347,0.875 -5.477,0.875c-2.459,0 -4.621,-0.475 -6.484,-1.427c-1.864,-0.95 -3.423,-2.282 -4.679,-3.993c-1.255,-1.712 -2.2,-3.779 -2.834,-6.2c-0.633,-2.422 -0.95,-5.091 -0.95,-8.006l0,-5.629c0,-2.714 0.285,-5.262 0.856,-7.645c0.57,-2.384 1.439,-4.47 2.605,-6.258c1.166,-1.787 2.649,-3.194 4.45,-4.221c1.8,-1.027 3.93,-1.54 6.39,-1.54c2.332,0 4.298,0.278 5.895,0.836c1.598,0.557 2.923,1.362 3.975,2.416c1.052,1.051 1.87,2.344 2.454,3.879c0.582,1.534 1.026,3.277 1.331,5.23l7.34,0z" id="path136"></path></g><g id="g138"><path fill="#2c2e31" fill-rule="nonzero" d="m1362.384521,2481.746796c0,-2.054 0.241,-3.994 0.723,-5.82c0.481,-1.825 1.211,-3.43 2.187,-4.811c0.976,-1.382 2.193,-2.479 3.651,-3.29c1.458,-0.812 3.163,-1.217 5.116,-1.217c1.927,0 3.626,0.405 5.096,1.217c1.471,0.811 2.688,1.908 3.652,3.29c0.963,1.381 1.693,2.986 2.187,4.811c0.494,1.826 0.742,3.766 0.742,5.82l0,0.836c0,2.029 -0.248,3.962 -0.742,5.801c-0.494,1.838 -1.23,3.448 -2.206,4.83c-0.976,1.382 -2.2,2.485 -3.671,3.309c-1.471,0.824 -3.182,1.237 -5.134,1.237c-1.928,0 -3.613,-0.413 -5.059,-1.237c-1.445,-0.824 -2.656,-1.927 -3.632,-3.309c-0.976,-1.382 -1.706,-2.992 -2.187,-4.83c-0.482,-1.839 -0.723,-3.772 -0.723,-5.801l0,-0.836zm-7.075,0.836c0,2.992 0.438,5.763 1.313,8.311c0.874,2.549 2.116,4.761 3.727,6.637c1.611,1.877 3.569,3.347 5.876,4.412c2.308,1.065 4.894,1.597 7.76,1.597c2.915,0 5.534,-0.532 7.854,-1.597c2.32,-1.065 4.292,-2.535 5.914,-4.412c1.623,-1.876 2.865,-4.088 3.728,-6.637c0.862,-2.548 1.293,-5.319 1.293,-8.311l0,-0.836c0,-2.992 -0.431,-5.763 -1.293,-8.311c-0.863,-2.548 -2.105,-4.754 -3.728,-6.618c-1.622,-1.863 -3.588,-3.322 -5.895,-4.374c-2.307,-1.052 -4.906,-1.578 -7.797,-1.578c-2.89,0 -5.49,0.526 -7.798,1.578c-2.307,1.052 -4.273,2.511 -5.895,4.374c-1.623,1.864 -2.872,4.07 -3.746,6.618c-0.875,2.548 -1.313,5.319 -1.313,8.311l0,0.836z" id="path140"></path></g><g id="g142"><path fill="#2c2e31" fill-rule="nonzero" d="m1408.255005,2502.77951l0.228,-5.172c1.47,1.85 3.245,3.302 5.325,4.355c2.079,1.052 4.412,1.578 6.998,1.578c2.003,0 3.817,-0.273 5.439,-0.817c1.622,-0.547 3.005,-1.421 4.146,-2.625c1.141,-1.205 2.022,-2.752 2.644,-4.64c0.62,-1.89 0.931,-4.179 0.931,-6.866l0,-26.966l-7.036,0l0,27.043c0,1.597 -0.177,2.96 -0.532,4.088c-0.356,1.128 -0.882,2.048 -1.579,2.758c-0.697,0.709 -1.56,1.23 -2.587,1.559c-1.026,0.329 -2.212,0.495 -3.556,0.495c-2.282,0 -4.285,-0.609 -6.009,-1.826c-1.725,-1.217 -3.069,-2.815 -4.032,-4.793l0,-29.324l-7.036,0l0,41.153l6.656,0z" id="path144"></path></g><g id="g146"><path fill="#2c2e31" fill-rule="nonzero" d="m1468.540161,2472.541718c0,0.761 -0.114,1.477 -0.342,2.149c-0.229,0.672 -0.679,1.306 -1.35,1.902c-0.673,0.596 -1.63,1.147 -2.872,1.655c-1.243,0.507 -2.878,0.975 -4.907,1.407c-2.281,0.481 -4.336,1.052 -6.161,1.711c-1.826,0.659 -3.379,1.451 -4.66,2.378c-1.281,0.925 -2.263,2.021 -2.948,3.29c-0.684,1.267 -1.027,2.751 -1.027,4.449c0,1.623 0.362,3.163 1.084,4.622c0.724,1.458 1.744,2.738 3.062,3.841c1.318,1.104 2.916,1.978 4.793,2.625c1.876,0.647 3.968,0.97 6.276,0.97c2.459,0 4.659,-0.336 6.599,-1.008c1.939,-0.672 3.587,-1.592 4.944,-2.758c1.356,-1.166 2.39,-2.529 3.1,-4.088c0.71,-1.56 1.065,-3.228 1.065,-5.002l-7.074,0c0,0.837 -0.19,1.68 -0.571,2.529c-0.381,0.849 -0.939,1.61 -1.674,2.283c-0.735,0.671 -1.635,1.216 -2.7,1.635c-1.065,0.419 -2.296,0.628 -3.689,0.628c-1.471,0 -2.72,-0.172 -3.747,-0.514c-1.027,-0.343 -1.87,-0.799 -2.529,-1.369c-0.66,-0.571 -1.142,-1.217 -1.446,-1.94c-0.304,-0.723 -0.455,-1.464 -0.455,-2.225c0,-0.761 0.125,-1.445 0.379,-2.054c0.254,-0.609 0.735,-1.16 1.446,-1.655c0.71,-0.494 1.679,-0.95 2.909,-1.369c1.23,-0.418 2.821,-0.843 4.774,-1.274c2.51,-0.583 4.69,-1.242 6.541,-1.978c1.851,-0.735 3.386,-1.591 4.603,-2.567c1.217,-0.977 2.123,-2.099 2.72,-3.366c0.595,-1.268 0.893,-2.739 0.893,-4.412c0,-1.801 -0.374,-3.449 -1.121,-4.945c-0.748,-1.496 -1.821,-2.776 -3.215,-3.841c-1.395,-1.065 -3.068,-1.896 -5.02,-2.492c-1.953,-0.595 -4.121,-0.893 -6.504,-0.893c-2.739,0 -5.154,0.38 -7.246,1.14c-2.092,0.761 -3.847,1.769 -5.268,3.025c-1.42,1.255 -2.497,2.687 -3.233,4.298c-0.735,1.609 -1.103,3.264 -1.103,4.963l7.037,0c0.076,-1.445 0.424,-2.657 1.046,-3.633c0.621,-0.975 1.401,-1.768 2.339,-2.377c0.938,-0.608 1.965,-1.039 3.081,-1.293c1.115,-0.254 2.231,-0.38 3.347,-0.38c1.445,0 2.713,0.152 3.803,0.456c1.09,0.305 2.01,0.723 2.758,1.256c0.747,0.532 1.312,1.159 1.692,1.882c0.381,0.723 0.571,1.503 0.571,2.339" id="path148"></path></g><g id="g150"><path fill="#2c2e31" fill-rule="nonzero" d="m1489.953735,2481.746796c0,-2.054 0.241,-3.994 0.723,-5.82c0.481,-1.825 1.211,-3.43 2.187,-4.811c0.976,-1.382 2.193,-2.479 3.651,-3.29c1.458,-0.812 3.163,-1.217 5.116,-1.217c1.927,0 3.626,0.405 5.096,1.217c1.471,0.811 2.688,1.908 3.652,3.29c0.964,1.381 1.693,2.986 2.187,4.811c0.494,1.826 0.742,3.766 0.742,5.82l0,0.836c0,2.029 -0.248,3.962 -0.742,5.801c-0.494,1.838 -1.23,3.448 -2.206,4.83c-0.976,1.382 -2.2,2.485 -3.671,3.309c-1.471,0.824 -3.182,1.237 -5.134,1.237c-1.928,0 -3.613,-0.413 -5.059,-1.237c-1.445,-0.824 -2.656,-1.927 -3.632,-3.309c-0.976,-1.382 -1.706,-2.992 -2.187,-4.83c-0.482,-1.839 -0.723,-3.772 -0.723,-5.801l0,-0.836zm-7.075,0.836c0,2.992 0.438,5.763 1.313,8.311c0.874,2.549 2.117,4.761 3.727,6.637c1.611,1.877 3.569,3.347 5.877,4.412c2.307,1.065 4.893,1.597 7.759,1.597c2.915,0 5.534,-0.532 7.854,-1.597c2.32,-1.065 4.292,-2.535 5.915,-4.412c1.622,-1.876 2.864,-4.088 3.727,-6.637c0.862,-2.548 1.293,-5.319 1.293,-8.311l0,-0.836c0,-2.992 -0.431,-5.763 -1.293,-8.311c-0.863,-2.548 -2.105,-4.754 -3.727,-6.618c-1.623,-1.863 -3.589,-3.322 -5.896,-4.374c-2.307,-1.052 -4.906,-1.578 -7.797,-1.578c-2.89,0 -5.49,0.526 -7.798,1.578c-2.307,1.052 -4.273,2.511 -5.895,4.374c-1.623,1.864 -2.872,4.07 -3.746,6.618c-0.875,2.548 -1.313,5.319 -1.313,8.311l0,0.836z" id="path152"></path></g><g id="g154"><path fill="#2c2e31" fill-rule="nonzero" d="m1549.060181,2496.466034c-0.608,0.101 -1.173,0.171 -1.693,0.209c-0.519,0.038 -1.109,0.058 -1.768,0.058c-2.435,0 -4.418,-0.533 -5.953,-1.599c-1.534,-1.064 -2.681,-2.497 -3.442,-4.297l0,-29.211l-7.036,0l0,41.153l6.846,0l0.114,-4.753c1.065,1.698 2.396,3.042 3.994,4.031c1.597,0.989 3.537,1.483 5.819,1.483c0.507,0 1.09,-0.056 1.75,-0.171c0.659,-0.114 1.115,-0.235 1.369,-0.361l0,-6.542z" id="path156"></path></g><g id="g158"><path fill="#2c2e31" fill-rule="nonzero" d="m1566.974731,2512.745331l0,-9.966l7.684,0l0,-5.438l-7.684,0l0,-25.522c0,-1.065 0.127,-1.921 0.381,-2.567c0.252,-0.647 0.589,-1.148 1.007,-1.503c0.419,-0.355 0.9,-0.589 1.446,-0.703c0.544,-0.114 1.109,-0.172 1.692,-0.172c0.583,0 1.199,0.058 1.845,0.172c0.647,0.114 1.147,0.209 1.503,0.285l0,-5.705c-0.559,-0.152 -1.281,-0.317 -2.169,-0.494c-0.887,-0.178 -1.965,-0.267 -3.233,-0.267c-1.292,0 -2.516,0.184 -3.67,0.551c-1.154,0.368 -2.162,0.983 -3.024,1.845c-0.862,0.862 -1.547,1.997 -2.053,3.404c-0.508,1.407 -0.761,3.138 -0.761,5.192l0,25.484l-7.493,0l0,5.438l7.493,0l0,9.966l7.036,0z" id="path160"></path></g><path fill="#2c2e31" fill-rule="nonzero" d="m1590.518345,2461.626175l-7.037,0l0,41.153l7.037,0l0,-41.153zm-7.607,52.07c0,1.14 0.348,2.104 1.046,2.89c0.698,0.786 1.731,1.18 3.1,1.18c1.37,0 2.409,-0.394 3.119,-1.18c0.709,-0.786 1.065,-1.75 1.065,-2.89c0,-1.142 -0.356,-2.092 -1.065,-2.853c-0.71,-0.76 -1.749,-1.141 -3.119,-1.141c-1.369,0 -2.402,0.381 -3.1,1.141c-0.698,0.761 -1.046,1.711 -1.046,2.853" id="path162"></path><g id="g164"><path fill="#2c2e31" fill-rule="nonzero" d="m1627.184204,2465.695526c-1.293,-1.521 -2.929,-2.707 -4.907,-3.556c-1.977,-0.849 -4.361,-1.274 -7.15,-1.274c-2.029,0 -3.867,0.285 -5.515,0.856c-1.649,0.57 -3.068,1.47 -4.26,2.701c-1.192,1.229 -2.111,2.814 -2.757,4.753c-0.647,1.94 -0.971,4.279 -0.971,7.018l0,26.586l7.037,0l0,-26.662c0,-1.852 0.215,-3.38 0.647,-4.584c0.431,-1.204 1.001,-2.155 1.711,-2.852c0.71,-0.698 1.522,-1.179 2.435,-1.445c0.913,-0.267 1.85,-0.399 2.814,-0.399c2.865,0 5.166,0.544 6.903,1.635c1.737,1.09 3.011,2.548 3.823,4.374l0,29.933l7.036,0l0,-41.153l-6.694,0l-0.152,4.069z" id="path166"></path></g><g id="g168"><path fill="#2c2e31" fill-rule="nonzero" d="m1651.336548,2502.77951l0.19,-4.563c1.42,1.672 3.138,2.979 5.154,3.917c2.016,0.938 4.367,1.407 7.055,1.407c2.663,0 5.015,-0.526 7.056,-1.578c2.041,-1.053 3.607,-2.733 4.697,-5.04c1.369,1.978 3.151,3.575 5.344,4.792c2.193,1.217 4.786,1.826 7.778,1.826c2.206,0 4.159,-0.285 5.857,-0.856c1.7,-0.57 3.139,-1.464 4.318,-2.681c1.179,-1.217 2.072,-2.764 2.681,-4.641c0.609,-1.876 0.913,-4.107 0.913,-6.693l0,-27.043l-7.037,0l0,27.08c0,1.724 -0.209,3.157 -0.627,4.298c-0.418,1.142 -1.007,2.054 -1.769,2.739c-0.76,0.684 -1.686,1.16 -2.777,1.426c-1.09,0.267 -2.294,0.4 -3.613,0.4c-1.445,0 -2.725,-0.228 -3.841,-0.685c-1.116,-0.457 -2.073,-1.071 -2.872,-1.845c-0.799,-0.774 -1.432,-1.687 -1.901,-2.739c-0.47,-1.052 -0.768,-2.174 -0.895,-3.365l0,-27.309l-7.074,0l0,27.043c0,1.597 -0.209,2.96 -0.627,4.088c-0.419,1.128 -1.009,2.048 -1.769,2.758c-0.761,0.709 -1.68,1.23 -2.758,1.559c-1.078,0.329 -2.288,0.495 -3.631,0.495c-2.511,0 -4.527,-0.546 -6.049,-1.636c-1.521,-1.091 -2.662,-2.51 -3.423,-4.259l0,-30.048l-7.036,0l0,41.153l6.656,0z" id="path170"></path></g><path fill="#2c2e31" fill-rule="nonzero" d="m772.234345,2689.293175l-55.95,0l0,273.534l55.95,0l0,-273.534z" id="path172"></path><g id="g174"><path fill="#2c2e31" fill-rule="nonzero" d="m1064.415283,2802.436249c0,-18.235 -2.972,-34.678 -8.91,-49.319c-5.945,-14.648 -14.092,-27.081 -24.453,-37.3c-10.36,-10.225 -22.587,-18.028 -36.678,-23.416c-14.091,-5.388 -29.426,-8.082 -46.003,-8.082c-16.578,0 -31.983,2.694 -46.21,8.082c-14.234,5.388 -26.525,13.191 -36.886,23.416c-10.362,10.219 -18.443,22.652 -24.246,37.3c-5.802,14.641 -8.703,31.084 -8.703,49.319l0,160.39l55.95,0l0,-164.535c0,-10.225 1.515,-19.207 4.559,-26.938c3.037,-7.739 7.253,-14.234 12.641,-19.48c5.387,-5.251 11.74,-9.188 19.064,-11.811c7.318,-2.629 15.264,-3.937 23.831,-3.937c8.561,0 16.507,1.308 23.831,3.937c7.317,2.623 13.675,6.56 19.064,11.811c5.388,5.246 9.597,11.741 12.64,19.48c3.037,7.731 4.559,16.713 4.559,26.938l0,164.535l55.95,0l0,-160.39z" id="path176"></path></g><g id="g178"><path fill="#2c2e31" fill-rule="nonzero" d="m1393.068604,2689.292694l-55.949,0l0,146.299l-69.213,-86.619l-18.235,0l-68.798,86.619l0,-146.299l-55.951,0l0,278.507l18.65,0l115.216,-148.371l116.045,148.371l18.235,0l0,-278.507z" id="path180"></path></g><g id="g182"><path fill="#2c2e31" fill-rule="nonzero" d="m1585.366821,2967.79953c26.796,0 50.626,-6.081 71.492,-18.236c20.858,-12.161 37.364,-28.739 49.526,-49.733l-42.688,-29.84c-9.118,14.642 -20.101,25.968 -32.948,33.985c-12.848,8.01 -27.976,12.018 -45.382,12.018c-12.712,0 -24.387,-2.214 -35.021,-6.631c-10.639,-4.422 -19.893,-10.64 -27.768,-18.65c-7.874,-8.017 -14.025,-17.549 -18.442,-28.597c-4.423,-11.053 -6.632,-23.208 -6.632,-36.471c0,-13.262 2.209,-25.352 6.632,-36.263c4.417,-10.918 10.568,-20.309 18.442,-28.182c7.875,-7.875 17.129,-14.027 27.768,-18.443c10.634,-4.423 22.309,-6.631 35.021,-6.631c17.406,0 32.534,4.002 45.382,12.018c12.847,8.011 23.83,19.337 32.948,33.985l42.688,-29.84c-12.162,-21.001 -28.668,-37.579 -49.526,-49.734c-20.866,-12.161 -44.696,-18.235 -71.492,-18.235c-20.451,0 -39.515,3.594 -57.193,10.775c-17.685,7.182 -33.02,17.128 -46.003,29.841c-12.991,12.705 -23.281,27.696 -30.877,44.967c-7.603,17.264 -11.398,35.985 -11.398,56.157c0,20.165 3.795,38.886 11.398,56.157c7.596,17.264 17.886,32.256 30.877,44.967c12.983,12.706 28.318,22.652 46.003,29.84c17.678,7.182 36.742,10.776 57.193,10.776" id="path184"></path></g><g id="g186"><path fill="#f89c35" fill-rule="nonzero" d="m172.514832,2922.991425c3.447,0 6.744,-0.722 9.761,-2.001c0.057,0.304 0.114,0.609 0.177,0.918c3.299,16.479 11.499,30.182 24.369,40.729c14.848,12.167 34.963,12.252 51.746,9.112c-0.021,0.451 -0.034,0.903 -0.034,1.359c0,6.734 2.298,12.927 6.146,17.853c-21.536,4.404 -49.058,4.737 -70.531,-12.859c-22.115,-18.122 -29.812,-40.615 -32.223,-57.44c1.902,0.879 3.926,1.527 6.041,1.914c1.501,0.275 3.031,0.415 4.548,0.415" id="path188"></path></g><g id="g190"><path fill="#f89c35" fill-rule="nonzero" d="m457.937256,2922.576874c2.115,-0.388 4.14,-1.035 6.042,-1.914c-2.41,16.825 -10.107,39.317 -32.223,57.44c-20.164,16.523 -45.66,17.236 -66.526,13.615c4.212,-5.04 6.751,-11.527 6.751,-18.61c0,-0.199 -0.011,-0.395 -0.015,-0.593c15.75,2.259 33.612,1.189 47.117,-9.878c12.871,-10.546 21.07,-24.25 24.371,-40.729c0.061,-0.308 0.119,-0.613 0.176,-0.918c3.017,1.279 6.313,2.002 9.761,2.002c1.516,0 3.046,-0.14 4.546,-0.415" id="path192"></path></g><g id="g194"><path fill="#ffffff" fill-rule="nonzero" d="m347.823425,2655.943085c0.219,-0.067 0.212,0.22 0,0" id="path196"></path></g><g id="g198"><path fill="#f89c35" fill-rule="nonzero" d="m309.479736,2973.108124c0,-12.1 -9.809,-21.909 -21.909,-21.909c-12.1,0 -21.909,9.809 -21.909,21.909c0,12.1 9.809,21.909 21.909,21.909c12.1,0 21.909,-9.809 21.909,-21.909" id="path200"></path></g><g id="g202"><path fill="#f89c35" fill-rule="nonzero" d="m364.853271,2973.108124c0,-12.1 -9.809,-21.909 -21.909,-21.909c-12.1,0 -21.909,9.809 -21.909,21.909c0,12.1 9.809,21.909 21.909,21.909c12.1,0 21.909,-9.809 21.909,-21.909" id="path204"></path></g><g id="g206"><path fill="#399560" fill-rule="nonzero" d="m622.186768,2669.732147c-3.109,23.292 -18.802,54.018 -75.91,68.135c-61.975,15.32 -110.517,-0.676 -140.325,-16.791c-12.286,-6.643 -22.442,-13.821 -30.374,-20.223c-7.469,-5.574 -16.152,-12.44 -25.562,-20.568c1.984,-9.95 4.351,-19.964 7.059,-29.886c0.735,0.676 1.467,1.349 2.188,2.003c7.147,6.492 13.973,12.264 20.264,17.321c4.475,3.598 8.674,6.829 12.516,9.69c14.27,10.62 23.613,16.121 23.765,16.211l-0.013,0.022c1.294,0.733 2.611,1.463 3.963,2.183c37.012,19.708 77.398,24.356 120.038,13.816c33.997,-8.405 52.71,-23.708 55.617,-45.487c4.038,-30.248 -22.129,-65.543 -41.918,-76.552c-9.138,-5.084 -15.223,-11.914 -19.29,-18.712c-4.204,-6.715 -7.518,-15.24 -7.889,-25.691c-0.801,-22.63 -20.328,-61.99 -49.103,-72.154c-19.925,-7.039 -41.168,1.675 -63.18,25.885c-0.875,0.962 -1.751,1.941 -2.628,2.952c-2.723,3.138 -5.314,6.32 -7.776,9.545c-6.61,8.659 -12.275,17.631 -16.997,26.892c-20.613,34.921 -34.092,69.596 -42.884,99.623c-4.357,14.88 -7.569,28.62 -9.93,40.679c-5.273,26.921 -7.107,49.104 -7.717,63.075c7.284,2.386 15.519,5.428 24.292,9.281c7.374,3.237 15.122,7.043 22.997,11.504c23.452,13.288 43.252,29.677 58.847,48.712c19.674,24.01 32.574,52.147 38.343,83.628c1.692,9.233 -4.42,18.089 -13.653,19.781c-9.234,1.694 -18.089,-4.421 -19.781,-13.653c-8.586,-46.852 -35.675,-83.489 -80.512,-108.894c-15.982,-9.055 -31.358,-14.992 -43.231,-18.752c-11.872,3.76 -27.249,9.697 -43.23,18.752c-44.838,25.405 -71.926,62.042 -80.513,108.894c-1.692,9.232 -10.546,15.347 -19.78,13.653c-9.233,-1.692 -15.346,-10.548 -13.653,-19.781c5.769,-31.481 18.669,-59.618 38.342,-83.628c15.596,-19.035 35.395,-35.424 58.847,-48.712c7.875,-4.461 15.624,-8.267 22.998,-11.504c8.101,-3.558 15.747,-6.428 22.606,-8.724c0.568,-14.817 2.436,-38.643 8.119,-67.944c7.558,-38.968 23.443,-94.412 56.674,-150.462c6.873,-13.136 15.753,-26.486 27.188,-39.666c0.261,-0.301 0.52,-0.591 0.78,-0.887c38.236,-43.54 72.423,-43.492 94.43,-35.718c18.421,6.508 35.66,21.428 48.541,42.011c11.058,17.618 17.97,38.062 18.56,54.655c0.178,5.051 1.826,9.23 3.913,12.558c2.014,3.372 4.986,6.74 9.403,9.198c14.508,8.072 29.569,23.528 40.228,41.391c12.471,20.834 17.915,42.973 15.331,62.339" id="path208"></path></g><g id="g210"><path fill="#399560" fill-rule="nonzero" d="m285.164856,2611.617401c-14.437,-18.889 -28.494,-40.512 -40.488,-64.698c-1.459,-2.944 -2.898,-5.914 -4.293,-8.933l0.046,-0.021c-6.453,-12.582 -14.656,-24.623 -24.595,-36.079c-22.95,-26.454 -45.091,-36.156 -65.808,-28.837c-28.775,10.164 -48.302,49.524 -49.104,72.154c-0.371,10.451 -3.684,18.976 -7.888,25.69c-4.067,6.799 -10.152,13.628 -19.29,18.713c-19.788,11.009 -45.956,46.303 -41.918,76.552c2.907,21.778 21.62,37.082 55.617,45.486c39.467,9.756 77.001,6.49 111.718,-9.676c2.478,9.209 8.189,17.089 15.845,22.35c-30.131,14.884 -76.241,27.837 -134.044,13.549c-57.108,-14.117 -72.801,-44.844 -75.91,-68.135c-2.585,-19.366 2.86,-41.505 15.331,-62.34c10.659,-17.862 25.72,-33.318 40.228,-41.391c4.417,-2.457 7.389,-5.825 9.404,-9.197c2.087,-3.329 3.734,-7.507 3.912,-12.559c0.59,-16.592 7.502,-37.036 18.56,-54.654c12.881,-20.583 30.12,-35.503 48.541,-42.012c22.157,-7.826 56.659,-7.829 95.21,36.605c12.254,14.125 21.573,28.444 28.631,42.485l0.034,-0.015c0.248,0.536 0.505,1.063 0.755,1.597c0.677,1.446 1.359,2.886 2.052,4.313c12.472,25.652 27.518,48.301 42.825,67.696c-3.76,10.68 -6.972,20.955 -9.714,30.677c-5.215,-6.085 -10.459,-12.52 -15.657,-19.32" id="path212"></path></g><g id="g214"><path fill="#f89c35" fill-rule="nonzero" d="m228.415222,2684.65744c-1.503,1.933 -2.408,4.354 -2.408,6.992c0,6.299 5.106,11.405 11.405,11.405c6.298,0 11.405,-5.106 11.405,-11.405c0,-6.299 -5.107,-11.405 -11.405,-11.405c-1.525,0 -2.978,0.305 -4.308,0.848c-1.861,0.761 -3.471,2.001 -4.689,3.565m8.997,35.804c-3.927,0 -7.67,-0.788 -11.081,-2.212c-8.836,-3.685 -15.438,-11.644 -17.235,-21.294c-0.321,-1.721 -0.496,-3.492 -0.496,-5.306c0,-15.912 12.899,-28.812 28.812,-28.812c4.344,0 8.461,0.967 12.154,2.689c8.79,4.096 15.164,12.495 16.422,22.491c0.15,1.191 0.236,2.401 0.236,3.632c0,15.912 -12.9,28.812 -28.812,28.812" id="path216"></path></g><path fill="#ffffff" fill-rule="nonzero" d="m727.694345,1066.584175l-11.411,0l0,55.379l11.411,0l0,-55.379z" id="path218"></path><g id="g220"><path fill="#ffffff" fill-rule="nonzero" d="m760.670654,1097.430878c-0.558,0.075 -1.211,0.146 -1.958,0.209c-0.749,0.062 -1.414,0.095 -1.998,0.095c-2.155,0 -3.898,-0.362 -5.23,-1.084c-1.331,-0.722 -2.314,-1.769 -2.947,-3.138l0,-26.929l-10.992,0l0,41.154l10.384,0l0.304,-4.907c1.039,1.775 2.32,3.163 3.841,4.165c1.522,1.001 3.296,1.502 5.325,1.502c0.583,0 1.198,-0.05 1.845,-0.151c0.646,-0.103 1.173,-0.216 1.578,-0.343l-0.152,-10.573z" id="path222"></path></g><path fill="#ffffff" fill-rule="nonzero" d="m777.558345,1066.584175l-11.03,0l0,41.153l11.03,0l0,-41.153zm-11.677,51.804c0,1.648 0.552,3.005 1.655,4.069c1.103,1.065 2.605,1.598 4.507,1.598c0.938,0 1.787,-0.14 2.548,-0.418c0.761,-0.28 1.408,-0.672 1.94,-1.18c0.532,-0.507 0.944,-1.109 1.236,-1.806c0.291,-0.698 0.437,-1.452 0.437,-2.263c0,-0.837 -0.146,-1.604 -0.437,-2.301c-0.292,-0.698 -0.704,-1.3 -1.236,-1.808c-0.532,-0.507 -1.179,-0.899 -1.94,-1.178c-0.761,-0.28 -1.61,-0.418 -2.548,-0.418c-0.939,0 -1.788,0.138 -2.548,0.418c-0.761,0.279 -1.408,0.671 -1.94,1.178c-0.533,0.508 -0.945,1.11 -1.236,1.808c-0.292,0.697 -0.438,1.464 -0.438,2.301" id="path224"></path><g id="g226"><path fill="#ffffff" fill-rule="nonzero" d="m808.89917,1077.956268c0,0.584 -0.114,1.116 -0.342,1.598c-0.229,0.481 -0.66,0.931 -1.294,1.35c-0.634,0.418 -1.496,0.818 -2.586,1.198c-1.09,0.38 -2.498,0.749 -4.222,1.103c-2.105,0.457 -4.05,1.027 -5.838,1.712c-1.788,0.685 -3.335,1.534 -4.641,2.549c-1.306,1.013 -2.327,2.192 -3.061,3.537c-0.736,1.343 -1.103,2.902 -1.103,4.678c0,1.723 0.373,3.359 1.122,4.907c0.748,1.546 1.825,2.909 3.233,4.088c1.407,1.179 3.131,2.111 5.172,2.796c2.041,0.684 4.343,1.026 6.904,1.026c2.662,0 5.059,-0.329 7.189,-0.988c2.13,-0.66 3.936,-1.579 5.42,-2.758c1.483,-1.179 2.624,-2.58 3.422,-4.203c0.799,-1.623 1.199,-3.399 1.199,-5.325l-10.992,0c0,1.572 -0.508,2.872 -1.522,3.899c-1.015,1.026 -2.599,1.54 -4.754,1.54c-1.851,0 -3.284,-0.418 -4.298,-1.255c-1.015,-0.837 -1.522,-1.902 -1.522,-3.195c0,-0.609 0.133,-1.147 0.4,-1.616c0.266,-0.47 0.697,-0.901 1.293,-1.293c0.595,-0.394 1.382,-0.755 2.358,-1.084c0.976,-0.33 2.174,-0.635 3.594,-0.913c2.231,-0.432 4.298,-0.964 6.201,-1.598c1.901,-0.634 3.543,-1.451 4.925,-2.453c1.381,-1.002 2.466,-2.219 3.251,-3.652c0.786,-1.432 1.18,-3.163 1.18,-5.191c0,-1.826 -0.406,-3.506 -1.217,-5.04c-0.812,-1.534 -1.972,-2.859 -3.48,-3.975c-1.509,-1.116 -3.328,-1.991 -5.458,-2.624c-2.13,-0.633 -4.514,-0.951 -7.152,-0.951c-2.89,0 -5.438,0.406 -7.644,1.218c-2.206,0.811 -4.064,1.876 -5.572,3.194c-1.509,1.319 -2.644,2.802 -3.404,4.45c-0.761,1.648 -1.141,3.31 -1.141,4.983l10.422,0c0.05,-1.065 0.285,-1.984 0.703,-2.758c0.418,-0.773 0.969,-1.4 1.654,-1.883c0.685,-0.481 1.477,-0.836 2.377,-1.064c0.9,-0.229 1.846,-0.343 2.834,-0.343c2.105,0 3.695,0.399 4.773,1.198c1.077,0.799 1.617,1.845 1.617,3.138" id="path228"></path></g><g id="g230"><path fill="#ffffff" fill-rule="nonzero" d="m837.387451,1103.250153c1.369,1.647 2.973,2.935 4.812,3.86c1.837,0.926 3.898,1.388 6.18,1.388c2.029,0 3.88,-0.285 5.553,-0.855c1.674,-0.571 3.106,-1.497 4.298,-2.777c1.192,-1.281 2.111,-2.935 2.757,-4.964c0.647,-2.028 0.97,-4.487 0.97,-7.378l0,-25.94l-10.991,0l0,26.016c0,1.318 -0.146,2.421 -0.437,3.309c-0.293,0.887 -0.718,1.604 -1.275,2.15c-0.558,0.545 -1.249,0.931 -2.073,1.159c-0.825,0.228 -1.756,0.343 -2.795,0.343c-1.725,0 -3.158,-0.337 -4.299,-1.008c-1.141,-0.673 -2.041,-1.579 -2.7,-2.72l0,-29.249l-10.992,0l0,58.422l10.992,0l0,-21.756z" id="path232"></path></g><g id="g234"><path fill="#ffffff" fill-rule="nonzero" d="m932.284424,1121.963104l0,-36.552c0,-3.195 -0.532,-6.015 -1.597,-8.463c-1.065,-2.447 -2.536,-4.494 -4.412,-6.142c-1.877,-1.649 -4.115,-2.891 -6.714,-3.728c-2.599,-0.836 -5.432,-1.255 -8.5,-1.255c-3.094,0 -5.941,0.419 -8.539,1.255c-2.6,0.837 -4.837,2.079 -6.714,3.728c-1.876,1.648 -3.34,3.695 -4.393,6.142c-1.052,2.448 -1.578,5.268 -1.578,8.463l0,36.552l11.41,0l0,-36.552c0,-3.626 0.869,-6.269 2.606,-7.929c1.737,-1.663 4.139,-2.492 7.208,-2.492c3.094,0 5.496,0.829 7.207,2.492c1.712,1.66 2.567,4.303 2.567,7.929l0,36.552l11.449,0z" id="path236"></path></g><g id="g238"><path fill="#ffffff" fill-rule="nonzero" d="m951.035889,1107.737457l0.343,-4.754c1.419,1.775 3.131,3.138 5.134,4.089c2.003,0.951 4.234,1.426 6.694,1.426c1.952,0 3.727,-0.273 5.325,-0.818c1.598,-0.546 2.966,-1.439 4.108,-2.681c1.141,-1.242 2.022,-2.866 2.644,-4.868c0.621,-2.004 0.932,-4.463 0.932,-7.379l0,-26.168l-10.993,0l0,26.244c0,1.318 -0.146,2.408 -0.437,3.27c-0.292,0.863 -0.717,1.547 -1.274,2.055c-0.559,0.507 -1.243,0.868 -2.054,1.084c-0.813,0.215 -1.75,0.323 -2.815,0.323c-1.623,0 -3.011,-0.355 -4.165,-1.065c-1.154,-0.71 -2.086,-1.673 -2.795,-2.891l0,-29.02l-10.993,0l0,41.153l10.346,0z" id="path240"></path></g><path fill="#ffffff" fill-rule="nonzero" d="m996.145345,1066.584175l-11.03,0l0,41.153l11.03,0l0,-41.153zm-11.677,51.804c0,1.648 0.552,3.005 1.655,4.069c1.103,1.065 2.605,1.598 4.507,1.598c0.938,0 1.788,-0.14 2.548,-0.418c0.761,-0.28 1.408,-0.672 1.94,-1.18c0.533,-0.507 0.945,-1.109 1.236,-1.806c0.291,-0.698 0.438,-1.452 0.438,-2.263c0,-0.837 -0.147,-1.604 -0.438,-2.301c-0.291,-0.698 -0.703,-1.3 -1.236,-1.808c-0.532,-0.507 -1.179,-0.899 -1.94,-1.178c-0.76,-0.28 -1.61,-0.418 -2.548,-0.418c-0.939,0 -1.788,0.138 -2.548,0.418c-0.761,0.279 -1.408,0.671 -1.94,1.178c-0.533,0.508 -0.945,1.11 -1.236,1.808c-0.292,0.697 -0.438,1.464 -0.438,2.301" id="path242"></path><g id="g244"><path fill="#ffffff" fill-rule="nonzero" d="m1020.601807,1080.010956l7.645,27.727l11.487,0l-13.883,-41.154l-10.498,0l-13.883,41.154l11.487,0l7.645,-27.727z" id="path246"></path></g><g id="g248"><path fill="#ffffff" fill-rule="nonzero" d="m1061.756104,1099.598846c-1.193,0 -2.238,-0.21 -3.138,-0.628c-0.901,-0.418 -1.674,-1.002 -2.32,-1.75c-0.647,-0.748 -1.173,-1.642 -1.579,-2.681c-0.405,-1.041 -0.697,-2.194 -0.875,-3.462l15.291,0l0,0.875c-0.026,1.09 -0.185,2.105 -0.476,3.043c-0.292,0.938 -0.736,1.749 -1.331,2.435c-0.596,0.685 -1.357,1.217 -2.282,1.597c-0.926,0.381 -2.022,0.571 -3.29,0.571m1.255,-33.775c-3.194,0 -6.054,0.52 -8.577,1.559c-2.524,1.039 -4.666,2.459 -6.428,4.26c-1.763,1.8 -3.106,3.911 -4.032,6.333c-0.925,2.421 -1.387,5.014 -1.387,7.778l0,1.484c0,3.119 0.449,5.977 1.35,8.577c0.899,2.597 2.18,4.836 3.841,6.713c1.66,1.876 3.677,3.34 6.047,4.392c2.371,1.052 5.027,1.578 7.969,1.578c2.967,0 5.578,-0.488 7.835,-1.463c2.256,-0.977 4.151,-2.346 5.686,-4.109c1.534,-1.762 2.688,-3.886 3.462,-6.37c0.773,-2.485 1.16,-5.249 1.16,-8.292l0,-4.678l-26.206,0c0.176,-1.344 0.538,-2.561 1.084,-3.651c0.545,-1.091 1.241,-2.023 2.091,-2.796c0.85,-0.773 1.845,-1.376 2.986,-1.807c1.141,-0.431 2.421,-0.646 3.842,-0.646c2.002,0 3.854,0.373 5.553,1.122c1.698,0.747 3.157,1.907 4.374,3.48l5.401,-6.047c-0.66,-0.939 -1.484,-1.852 -2.473,-2.74c-0.988,-0.886 -2.155,-1.679 -3.499,-2.377c-1.344,-0.697 -2.859,-1.254 -4.545,-1.673c-1.686,-0.418 -3.532,-0.627 -5.534,-0.627" id="path250"></path></g><g id="g252"><path fill="#ffffff" fill-rule="nonzero" d="m1109.299561,1097.430878c-0.558,0.075 -1.211,0.146 -1.959,0.209c-0.748,0.062 -1.414,0.095 -1.997,0.095c-2.155,0 -3.898,-0.362 -5.229,-1.084c-1.331,-0.722 -2.315,-1.769 -2.948,-3.138l0,-26.929l-10.992,0l0,41.154l10.383,0l0.304,-4.907c1.04,1.775 2.321,3.163 3.842,4.165c1.521,1.001 3.297,1.502 5.325,1.502c0.583,0 1.198,-0.05 1.845,-0.151c0.646,-0.103 1.172,-0.216 1.578,-0.343l-0.152,-10.573z" id="path254"></path></g><g id="g256"><path fill="#ffffff" fill-rule="nonzero" d="m1136.874756,1077.956268c0,0.584 -0.114,1.116 -0.342,1.598c-0.228,0.481 -0.659,0.931 -1.294,1.35c-0.634,0.418 -1.496,0.818 -2.585,1.198c-1.091,0.38 -2.498,0.749 -4.222,1.103c-2.106,0.457 -4.051,1.027 -5.839,1.712c-1.788,0.685 -3.334,1.534 -4.64,2.549c-1.307,1.013 -2.327,2.192 -3.062,3.537c-0.736,1.343 -1.103,2.902 -1.103,4.678c0,1.723 0.374,3.359 1.122,4.907c0.748,1.546 1.825,2.909 3.233,4.088c1.407,1.179 3.131,2.111 5.173,2.796c2.04,0.684 4.342,1.026 6.903,1.026c2.662,0 5.059,-0.329 7.189,-0.988c2.13,-0.66 3.936,-1.579 5.42,-2.758c1.483,-1.179 2.624,-2.58 3.423,-4.203c0.798,-1.623 1.198,-3.399 1.198,-5.325l-10.992,0c0,1.572 -0.508,2.872 -1.522,3.899c-1.014,1.026 -2.599,1.54 -4.754,1.54c-1.851,0 -3.284,-0.418 -4.298,-1.255c-1.014,-0.837 -1.521,-1.902 -1.521,-3.195c0,-0.609 0.133,-1.147 0.399,-1.616c0.266,-0.47 0.697,-0.901 1.293,-1.293c0.596,-0.394 1.382,-0.755 2.358,-1.084c0.976,-0.33 2.174,-0.635 3.595,-0.913c2.231,-0.432 4.298,-0.964 6.2,-1.598c1.901,-0.634 3.543,-1.451 4.925,-2.453c1.382,-1.002 2.466,-2.219 3.252,-3.652c0.786,-1.432 1.179,-3.163 1.179,-5.191c0,-1.826 -0.406,-3.506 -1.217,-5.04c-0.812,-1.534 -1.972,-2.859 -3.48,-3.975c-1.509,-1.116 -3.328,-1.991 -5.458,-2.624c-2.13,-0.633 -4.514,-0.951 -7.151,-0.951c-2.89,0 -5.439,0.406 -7.645,1.218c-2.206,0.811 -4.064,1.876 -5.572,3.194c-1.509,1.319 -2.644,2.802 -3.404,4.45c-0.761,1.648 -1.141,3.31 -1.141,4.983l10.422,0c0.05,-1.065 0.285,-1.984 0.703,-2.758c0.418,-0.773 0.969,-1.4 1.654,-1.883c0.685,-0.481 1.477,-0.836 2.378,-1.064c0.9,-0.229 1.845,-0.343 2.833,-0.343c2.105,0 3.696,0.399 4.774,1.198c1.077,0.799 1.616,1.845 1.616,3.138" id="path258"></path></g><path fill="#ffffff" fill-rule="nonzero" d="m1166.237345,1066.584175l-11.03,0l0,41.153l11.03,0l0,-41.153zm-11.676,51.804c0,1.648 0.552,3.005 1.655,4.069c1.103,1.065 2.605,1.598 4.507,1.598c0.938,0 1.787,-0.14 2.548,-0.418c0.761,-0.28 1.408,-0.672 1.94,-1.18c0.532,-0.507 0.944,-1.109 1.236,-1.806c0.291,-0.698 0.437,-1.452 0.437,-2.263c0,-0.837 -0.146,-1.604 -0.437,-2.301c-0.292,-0.698 -0.704,-1.3 -1.236,-1.808c-0.532,-0.507 -1.179,-0.899 -1.94,-1.178c-0.761,-0.28 -1.61,-0.418 -2.548,-0.418c-0.939,0 -1.788,0.138 -2.549,0.418c-0.761,0.279 -1.407,0.671 -1.94,1.178c-0.532,0.508 -0.944,1.11 -1.236,1.808c-0.292,0.697 -0.437,1.464 -0.437,2.301" id="path260"></path><g id="g262"><path fill="#ffffff" fill-rule="nonzero" d="m1188.450439,1117.855682l0,-10.118l7.036,0l0,-8.063l-7.036,0l0,-20.539c0,-0.862 0.088,-1.572 0.266,-2.13c0.177,-0.558 0.443,-0.995 0.799,-1.312c0.355,-0.317 0.792,-0.533 1.312,-0.647c0.519,-0.114 1.135,-0.17 1.845,-0.17c0.658,0 1.26,0.024 1.806,0.076c0.545,0.05 1.021,0.113 1.427,0.189l0,-8.329c-0.913,-0.279 -1.909,-0.514 -2.986,-0.704c-1.078,-0.191 -2.301,-0.285 -3.671,-0.285c-1.8,0 -3.423,0.221 -4.868,0.666c-1.445,0.443 -2.681,1.146 -3.708,2.11c-1.028,0.964 -1.82,2.219 -2.378,3.766c-0.558,1.547 -0.836,3.41 -0.836,5.591l0,21.718l-6.009,0l0,8.063l6.009,0l0,10.118l10.992,0z" id="path264"></path></g><path fill="#ffffff" fill-rule="nonzero" d="m1213.211345,1066.584175l-11.03,0l0,41.153l11.03,0l0,-41.153zm-11.677,51.804c0,1.648 0.552,3.005 1.654,4.069c1.103,1.065 2.606,1.598 4.508,1.598c0.938,0 1.787,-0.14 2.548,-0.418c0.76,-0.28 1.407,-0.672 1.94,-1.18c0.532,-0.507 0.944,-1.109 1.236,-1.806c0.291,-0.698 0.437,-1.452 0.437,-2.263c0,-0.837 -0.146,-1.604 -0.437,-2.301c-0.292,-0.698 -0.704,-1.3 -1.236,-1.808c-0.533,-0.507 -1.18,-0.899 -1.94,-1.178c-0.761,-0.28 -1.61,-0.418 -2.548,-0.418c-0.938,0 -1.787,0.138 -2.549,0.418c-0.76,0.279 -1.407,0.671 -1.94,1.178c-0.532,0.508 -0.944,1.11 -1.235,1.808c-0.292,0.697 -0.438,1.464 -0.438,2.301" id="path266"></path><g id="g268"><path fill="#ffffff" fill-rule="nonzero" d="m1239.949951,1099.598846c-1.192,0 -2.239,-0.21 -3.138,-0.628c-0.901,-0.418 -1.674,-1.002 -2.32,-1.75c-0.647,-0.748 -1.173,-1.642 -1.579,-2.681c-0.405,-1.041 -0.697,-2.194 -0.874,-3.462l15.29,0l0,0.875c-0.025,1.09 -0.185,2.105 -0.476,3.043c-0.292,0.938 -0.736,1.749 -1.331,2.435c-0.596,0.685 -1.357,1.217 -2.282,1.597c-0.926,0.381 -2.022,0.571 -3.29,0.571m1.255,-33.775c-3.195,0 -6.054,0.52 -8.577,1.559c-2.523,1.039 -4.666,2.459 -6.428,4.26c-1.763,1.8 -3.106,3.911 -4.031,6.333c-0.926,2.421 -1.389,5.014 -1.389,7.778l0,1.484c0,3.119 0.45,5.977 1.35,8.577c0.9,2.597 2.181,4.836 3.842,6.713c1.661,1.876 3.676,3.34 6.047,4.392c2.371,1.052 5.027,1.578 7.969,1.578c2.966,0 5.578,-0.488 7.835,-1.463c2.256,-0.977 4.152,-2.346 5.687,-4.109c1.533,-1.762 2.687,-3.886 3.46,-6.37c0.773,-2.485 1.16,-5.249 1.16,-8.292l0,-4.678l-26.205,0c0.176,-1.344 0.538,-2.561 1.084,-3.651c0.545,-1.091 1.242,-2.023 2.091,-2.796c0.85,-0.773 1.845,-1.376 2.986,-1.807c1.141,-0.431 2.421,-0.646 3.842,-0.646c2.002,0 3.854,0.373 5.553,1.122c1.698,0.747 3.157,1.907 4.373,3.48l5.402,-6.047c-0.66,-0.939 -1.484,-1.852 -2.473,-2.74c-0.989,-0.886 -2.155,-1.679 -3.499,-2.377c-1.344,-0.697 -2.859,-1.254 -4.545,-1.673c-1.686,-0.418 -3.531,-0.627 -5.534,-0.627" id="path270"></path></g><g id="g272"><path fill="#ffffff" fill-rule="nonzero" d="m1286.656982,1077.956268c0,0.584 -0.114,1.116 -0.343,1.598c-0.228,0.481 -0.659,0.931 -1.293,1.35c-0.634,0.418 -1.496,0.818 -2.586,1.198c-1.09,0.38 -2.497,0.749 -4.222,1.103c-2.105,0.457 -4.05,1.027 -5.839,1.712c-1.787,0.685 -3.334,1.534 -4.64,2.549c-1.306,1.013 -2.326,2.192 -3.061,3.537c-0.736,1.343 -1.103,2.902 -1.103,4.678c0,1.723 0.374,3.359 1.122,4.907c0.748,1.546 1.825,2.909 3.233,4.088c1.407,1.179 3.131,2.111 5.172,2.796c2.041,0.684 4.343,1.026 6.904,1.026c2.662,0 5.059,-0.329 7.188,-0.988c2.13,-0.66 3.937,-1.579 5.42,-2.758c1.484,-1.179 2.625,-2.58 3.423,-4.203c0.799,-1.623 1.199,-3.399 1.199,-5.325l-10.992,0c0,1.572 -0.508,2.872 -1.522,3.899c-1.015,1.026 -2.599,1.54 -4.754,1.54c-1.851,0 -3.285,-0.418 -4.299,-1.255c-1.013,-0.837 -1.521,-1.902 -1.521,-3.195c0,-0.609 0.134,-1.147 0.4,-1.616c0.266,-0.47 0.697,-0.901 1.293,-1.293c0.595,-0.394 1.382,-0.755 2.358,-1.084c0.976,-0.33 2.174,-0.635 3.594,-0.913c2.232,-0.432 4.298,-0.964 6.201,-1.598c1.901,-0.634 3.542,-1.451 4.924,-2.453c1.383,-1.002 2.466,-2.219 3.253,-3.652c0.785,-1.432 1.179,-3.163 1.179,-5.191c0,-1.826 -0.406,-3.506 -1.217,-5.04c-0.813,-1.534 -1.972,-2.859 -3.481,-3.975c-1.509,-1.116 -3.328,-1.991 -5.458,-2.624c-2.129,-0.633 -4.513,-0.951 -7.15,-0.951c-2.89,0 -5.439,0.406 -7.645,1.218c-2.206,0.811 -4.064,1.876 -5.572,3.194c-1.509,1.319 -2.644,2.802 -3.405,4.45c-0.76,1.648 -1.14,3.31 -1.14,4.983l10.421,0c0.05,-1.065 0.285,-1.984 0.704,-2.758c0.418,-0.773 0.969,-1.4 1.654,-1.883c0.684,-0.481 1.477,-0.836 2.377,-1.064c0.9,-0.229 1.846,-0.343 2.834,-0.343c2.105,0 3.696,0.399 4.773,1.198c1.077,0.799 1.617,1.845 1.617,3.138" id="path274"></path></g><g id="g276"><path fill="#ffffff" fill-rule="nonzero" d="m1336.901123,1108.308746c0,-1.141 0.304,-2.296 0.913,-3.462c0.608,-1.166 1.42,-2.409 2.434,-3.726l2.929,1.939c0.785,0.507 1.439,1.001 1.958,1.483c0.52,0.482 0.926,0.97 1.218,1.465c0.291,0.494 0.494,0.994 0.608,1.502c0.114,0.507 0.171,1.052 0.171,1.636c0,0.583 -0.114,1.153 -0.342,1.711c-0.228,0.557 -0.552,1.058 -0.97,1.503c-0.419,0.442 -0.945,0.804 -1.578,1.084c-0.634,0.278 -1.344,0.418 -2.13,0.418c-0.862,0 -1.617,-0.147 -2.264,-0.438c-0.646,-0.291 -1.192,-0.69 -1.635,-1.197c-0.444,-0.508 -0.774,-1.098 -0.989,-1.77c-0.216,-0.671 -0.323,-1.387 -0.323,-2.148m4.031,-33.661c2.637,0 5.136,0.735 7.493,2.206l-10.916,12.628l-0.798,-0.571c-0.711,-0.609 -1.288,-1.211 -1.731,-1.806c-0.444,-0.597 -0.786,-1.18 -1.027,-1.75c-0.241,-0.57 -0.406,-1.129 -0.494,-1.674c-0.09,-0.546 -0.134,-1.071 -0.134,-1.579c0,-1.064 0.178,-2.053 0.533,-2.966c0.355,-0.913 0.869,-1.706 1.54,-2.377c0.672,-0.673 1.478,-1.192 2.416,-1.559c0.938,-0.369 1.978,-0.552 3.118,-0.552m-18.636,6.846c0,1.597 0.247,3.048 0.741,4.355c0.495,1.306 1.18,2.529 2.054,3.671c0.874,1.141 1.927,2.225 3.157,3.252c1.229,1.026 2.592,2.059 4.089,3.099c-1.649,2.207 -2.942,4.279 -3.88,6.219c-0.938,1.94 -1.407,3.962 -1.407,6.067c0,2.18 0.361,4.165 1.084,5.953c0.723,1.787 1.737,3.321 3.043,4.601c1.306,1.281 2.891,2.27 4.754,2.967c1.864,0.697 3.937,1.046 6.219,1.046c2.155,0 4.107,-0.343 5.857,-1.027c1.749,-0.685 3.239,-1.617 4.47,-2.795c1.229,-1.18 2.174,-2.549 2.833,-4.109c0.659,-1.558 0.989,-3.213 0.989,-4.963c0,-1.292 -0.184,-2.51 -0.552,-3.651c-0.367,-1.141 -0.881,-2.22 -1.54,-3.233c-0.66,-1.015 -1.439,-1.965 -2.339,-2.853c-0.901,-0.888 -1.896,-1.712 -2.986,-2.472l-3.538,-2.548l9.548,-11.107c0.709,1.395 1.26,2.904 1.654,4.527c0.393,1.622 0.589,3.359 0.589,5.211l9.357,0c0,-3.399 -0.386,-6.568 -1.16,-9.509c-0.774,-2.943 -2.048,-5.605 -3.823,-7.988l8.292,-9.623l-12.476,0l-2.852,3.271c-2.079,-1.369 -4.273,-2.384 -6.58,-3.042c-2.307,-0.659 -4.805,-0.989 -7.492,-0.989c-2.791,0 -5.307,0.386 -7.551,1.16c-2.244,0.773 -4.146,1.85 -5.705,3.232c-1.559,1.383 -2.758,3.037 -3.594,4.964c-0.837,1.927 -1.255,4.032 -1.255,6.314" id="path278"></path></g><g id="g280"><path fill="#ffffff" fill-rule="nonzero" d="m726.477295,1028.488495l18.105,-45.186l18.104,45.186l9.471,0l0,-55.379l-7.303,0l0,21.566l0.685,23.277l-18.181,-44.843l-5.591,0l-18.143,44.729l0.723,-23.163l0,-21.566l-7.303,0l0,55.379l9.433,0z" id="path282"></path></g><g id="g284"><path fill="#ffffff" fill-rule="nonzero" d="m800.151123,1009.242462c-1.42,0 -2.726,-0.26 -3.917,-0.779c-1.192,-0.521 -2.257,-1.275 -3.196,-2.263c-0.938,-0.989 -1.718,-2.22 -2.339,-3.69c-0.622,-1.471 -1.046,-3.157 -1.274,-5.059l20.615,0l0,0.533c-0.076,1.369 -0.299,2.726 -0.665,4.07c-0.369,1.343 -0.939,2.547 -1.712,3.613c-0.774,1.065 -1.768,1.927 -2.986,2.587c-1.216,0.658 -2.726,0.988 -4.526,0.988m0.875,-36.894c-2.866,0 -5.458,0.495 -7.778,1.483c-2.321,0.989 -4.305,2.365 -5.953,4.128c-1.648,1.762 -2.916,3.86 -3.803,6.295c-0.888,2.433 -1.332,5.095 -1.332,7.986l0,1.599c0,3.346 0.501,6.338 1.503,8.975c1.001,2.637 2.339,4.856 4.012,6.657c1.674,1.799 3.588,3.175 5.744,4.126c2.155,0.952 4.399,1.426 6.732,1.426c2.941,0 5.477,-0.512 7.607,-1.54c2.13,-1.027 3.886,-2.44 5.268,-4.241c1.382,-1.801 2.402,-3.931 3.062,-6.39c0.659,-2.46 0.989,-5.134 0.989,-8.025l0,-3.157l-27.88,0c0.051,-1.902 0.361,-3.677 0.932,-5.325c0.57,-1.649 1.381,-3.081 2.434,-4.298c1.052,-1.217 2.32,-2.181 3.803,-2.891c1.484,-0.71 3.163,-1.064 5.04,-1.064c2.485,0 4.59,0.506 6.314,1.521c1.724,1.014 3.233,2.358 4.526,4.031l4.298,-3.346c-0.66,-1.015 -1.458,-1.997 -2.396,-2.949c-0.938,-0.95 -2.035,-1.799 -3.29,-2.547c-1.255,-0.748 -2.695,-1.345 -4.317,-1.788c-1.623,-0.444 -3.461,-0.666 -5.515,-0.666" id="path286"></path></g><g id="g288"><path fill="#ffffff" fill-rule="nonzero" d="m830.54126,993.229767c0,-2.054 0.209,-3.987 0.627,-5.8c0.419,-1.813 1.071,-3.391 1.959,-4.735c0.887,-1.345 2.016,-2.41 3.385,-3.195c1.37,-0.787 3.005,-1.179 4.907,-1.179c1.242,0 2.358,0.145 3.347,0.436c0.988,0.291 1.883,0.704 2.681,1.237c0.799,0.532 1.509,1.166 2.13,1.901c0.621,0.736 1.16,1.547 1.617,2.435l0,18.903c-0.457,0.837 -0.989,1.61 -1.598,2.32c-0.609,0.71 -1.312,1.325 -2.11,1.845c-0.799,0.52 -1.693,0.926 -2.682,1.218c-0.989,0.291 -2.092,0.436 -3.309,0.436c-1.927,0 -3.582,-0.399 -4.963,-1.197c-1.383,-0.799 -2.518,-1.883 -3.405,-3.253c-0.888,-1.369 -1.54,-2.96 -1.959,-4.773c-0.418,-1.813 -0.627,-3.746 -0.627,-5.8l0,-0.799zm-7.037,0.799c0,3.143 0.387,6.003 1.161,8.577c0.773,2.573 1.869,4.779 3.29,6.618c1.419,1.838 3.124,3.264 5.115,4.278c1.991,1.014 4.216,1.522 6.675,1.522c2.511,0 4.703,-0.425 6.58,-1.273c1.877,-0.851 3.499,-2.074 4.869,-3.671l0,21.452l7.036,0l0,-58.422l-6.466,0l-0.342,4.412c-1.369,-1.674 -3.018,-2.954 -4.944,-3.842c-1.928,-0.887 -4.197,-1.331 -6.809,-1.331c-2.409,0 -4.608,0.521 -6.599,1.56c-1.991,1.039 -3.696,2.491 -5.115,4.354c-1.421,1.863 -2.517,4.071 -3.29,6.618c-0.774,2.549 -1.161,5.331 -1.161,8.349l0,0.799z" id="path290"></path></g><path fill="#ffffff" fill-rule="nonzero" d="m876.791345,973.109175l-7.037,0l0,41.153l7.037,0l0,-41.153zm-7.607,52.07c0,1.141 0.349,2.104 1.046,2.89c0.698,0.787 1.731,1.18 3.1,1.18c1.37,0 2.409,-0.393 3.119,-1.18c0.709,-0.786 1.065,-1.749 1.065,-2.89c0,-1.141 -0.356,-2.092 -1.065,-2.853c-0.71,-0.761 -1.749,-1.14 -3.119,-1.14c-1.369,0 -2.402,0.379 -3.1,1.14c-0.697,0.761 -1.046,1.712 -1.046,2.853" id="path292"></path><g id="g294"><path fill="#ffffff" fill-rule="nonzero" d="m904.557373,978.092072c1.242,0 2.434,0.202 3.576,0.608c1.14,0.406 2.148,0.963 3.023,1.674c0.875,0.709 1.585,1.553 2.13,2.53c0.545,0.975 0.869,2.034 0.97,3.175l6.656,0c-0.102,-1.825 -0.603,-3.569 -1.502,-5.229c-0.901,-1.661 -2.086,-3.119 -3.557,-4.375c-1.471,-1.255 -3.175,-2.257 -5.115,-3.004c-1.94,-0.748 -4.001,-1.122 -6.181,-1.122c-3.094,0 -5.788,0.552 -8.083,1.654c-2.294,1.103 -4.203,2.593 -5.724,4.469c-1.522,1.877 -2.656,4.057 -3.404,6.543c-0.748,2.484 -1.122,5.108 -1.122,7.872l0,1.599c0,2.762 0.374,5.386 1.122,7.872c0.748,2.485 1.882,4.666 3.404,6.542c1.521,1.877 3.423,3.367 5.705,4.469c2.283,1.103 4.97,1.655 8.064,1.655c2.409,0 4.596,-0.38 6.561,-1.141c1.965,-0.761 3.664,-1.807 5.097,-3.138c1.432,-1.332 2.554,-2.91 3.365,-4.736c0.812,-1.825 1.268,-3.79 1.37,-5.895l-6.656,0c-0.101,1.268 -0.399,2.454 -0.893,3.557c-0.495,1.103 -1.161,2.066 -1.997,2.89c-0.838,0.824 -1.833,1.476 -2.986,1.959c-1.155,0.481 -2.441,0.722 -3.861,0.722c-2.181,0 -3.988,-0.431 -5.42,-1.293c-1.433,-0.862 -2.586,-1.997 -3.461,-3.404c-0.875,-1.407 -1.491,-2.992 -1.845,-4.754c-0.355,-1.762 -0.532,-3.531 -0.532,-5.305l0,-1.599c0,-1.825 0.177,-3.619 0.532,-5.381c0.354,-1.764 0.963,-3.342 1.826,-4.736c0.862,-1.395 2.015,-2.523 3.461,-3.385c1.445,-0.862 3.271,-1.293 5.477,-1.293" id="path296"></path></g><g id="g298"><path fill="#ffffff" fill-rule="nonzero" d="m942.554443,978.471863c1.268,0 2.459,0.178 3.575,0.532c1.115,0.356 2.131,0.819 3.043,1.389c0.913,0.571 1.705,1.224 2.378,1.959c0.671,0.735 1.197,1.496 1.577,2.282l0,8.444l-5.857,0c-4.032,0 -7.138,-0.627 -9.319,-1.882c-2.18,-1.256 -3.27,-3.152 -3.27,-5.687c0,-0.989 0.164,-1.915 0.494,-2.776c0.329,-0.863 0.83,-1.605 1.503,-2.226c0.671,-0.621 1.495,-1.116 2.472,-1.483c0.975,-0.368 2.111,-0.552 3.404,-0.552m11.677,-5.362c-0.254,0.507 -0.457,1.146 -0.609,1.921c-0.152,0.773 -0.279,1.578 -0.38,2.415c-0.66,-0.685 -1.401,-1.338 -2.226,-1.959c-0.824,-0.622 -1.724,-1.167 -2.7,-1.636c-0.976,-0.47 -2.035,-0.836 -3.176,-1.103c-1.141,-0.266 -2.346,-0.399 -3.613,-0.399c-2.105,0 -4.013,0.317 -5.724,0.95c-1.712,0.634 -3.171,1.496 -4.375,2.587c-1.204,1.09 -2.136,2.377 -2.795,3.86c-0.66,1.484 -0.989,3.075 -0.989,4.774c0,2.206 0.431,4.152 1.293,5.838c0.862,1.686 2.098,3.1 3.708,4.242c1.611,1.141 3.557,2.002 5.839,2.586c2.282,0.583 4.831,0.874 7.645,0.874l6.998,0l0,3.233c0,2.459 -0.735,4.418 -2.206,5.876c-1.471,1.459 -3.638,2.188 -6.504,2.188c-1.319,0 -2.523,-0.178 -3.613,-0.532c-1.09,-0.356 -2.022,-0.832 -2.796,-1.427c-0.773,-0.596 -1.375,-1.287 -1.806,-2.072c-0.431,-0.788 -0.647,-1.611 -0.647,-2.473l-7.074,0c0,1.471 0.386,2.929 1.16,4.374c0.773,1.445 1.87,2.744 3.29,3.898c1.42,1.155 3.138,2.092 5.154,2.815c2.016,0.723 4.265,1.084 6.751,1.084c2.23,0 4.291,-0.285 6.18,-0.856c1.889,-0.57 3.506,-1.432 4.85,-2.587c1.344,-1.153 2.396,-2.591 3.157,-4.316c0.76,-1.725 1.141,-3.741 1.141,-6.048l0,-19.131c0,-1.395 0.12,-2.859 0.361,-4.393c0.241,-1.534 0.602,-2.86 1.084,-3.975l0,-0.608l-7.378,0z" id="path300"></path></g><path fill="#ffffff" fill-rule="nonzero" d="m978.839345,973.109175l-7.037,0l0,58.422l7.037,0l0,-58.422z" id="path302"></path><g id="g304"><path fill="#ffffff" fill-rule="nonzero" d="m1039.999756,987.105682c0,1.294 -0.197,2.435 -0.589,3.424c-0.394,0.988 -1.091,1.894 -2.093,2.719c-1.002,0.824 -2.351,1.598 -4.05,2.32c-1.699,0.723 -3.854,1.465 -6.466,2.225c-2.739,0.786 -5.218,1.68 -7.436,2.682c-2.219,1.001 -4.108,2.154 -5.667,3.461c-1.559,1.306 -2.758,2.796 -3.595,4.469c-0.836,1.674 -1.254,3.588 -1.254,5.744c0,2.154 0.449,4.151 1.35,5.989c0.9,1.839 2.174,3.437 3.822,4.793c1.648,1.357 3.625,2.415 5.934,3.176c2.307,0.761 4.881,1.142 7.721,1.142c3.118,0 5.896,-0.47 8.33,-1.409c2.434,-0.937 4.481,-2.18 6.142,-3.726c1.661,-1.548 2.923,-3.335 3.785,-5.364c0.861,-2.028 1.293,-4.121 1.293,-6.275l-7.341,0c0,1.546 -0.247,2.98 -0.742,4.298c-0.494,1.318 -1.249,2.459 -2.263,3.423c-1.014,0.963 -2.282,1.712 -3.803,2.244c-1.522,0.533 -3.323,0.799 -5.401,0.799c-1.953,0 -3.652,-0.229 -5.097,-0.685c-1.445,-0.456 -2.638,-1.084 -3.575,-1.883c-0.939,-0.798 -1.636,-1.744 -2.092,-2.834c-0.456,-1.09 -0.684,-2.281 -0.684,-3.575c0,-1.167 0.247,-2.231 0.741,-3.194c0.494,-0.965 1.261,-1.852 2.301,-2.663c1.04,-0.812 2.377,-1.559 4.013,-2.244c1.635,-0.685 3.594,-1.344 5.876,-1.978c3.144,-0.888 5.858,-1.87 8.14,-2.947c2.282,-1.078 4.164,-2.302 5.648,-3.671c1.483,-1.369 2.586,-2.903 3.309,-4.602c0.722,-1.7 1.084,-3.627 1.084,-5.782c0,-2.257 -0.457,-4.298 -1.37,-6.123c-0.912,-1.826 -2.212,-3.385 -3.898,-4.679c-1.686,-1.293 -3.715,-2.289 -6.086,-2.985c-2.37,-0.697 -5.014,-1.046 -7.93,-1.046c-1.699,0 -3.398,0.158 -5.097,0.475c-1.698,0.317 -3.327,0.793 -4.887,1.427c-1.559,0.633 -3.005,1.419 -4.336,2.358c-1.331,0.937 -2.491,2.028 -3.48,3.27c-0.989,1.244 -1.763,2.638 -2.32,4.185c-0.558,1.546 -0.837,3.245 -0.837,5.097l7.34,0c0,-1.903 0.374,-3.532 1.123,-4.888c0.747,-1.357 1.75,-2.479 3.004,-3.366c1.256,-0.888 2.702,-1.54 4.336,-1.959c1.636,-0.418 3.353,-0.627 5.154,-0.627c3.854,0 6.809,0.785 8.863,2.357c2.053,1.573 3.08,3.715 3.08,6.428" id="path306"></path></g><g id="g308"><path fill="#ffffff" fill-rule="nonzero" d="m1072.10083,978.092072c1.243,0 2.435,0.202 3.576,0.608c1.141,0.406 2.149,0.963 3.024,1.674c0.874,0.709 1.584,1.553 2.13,2.53c0.545,0.975 0.868,2.034 0.969,3.175l6.656,0c-0.102,-1.825 -0.603,-3.569 -1.502,-5.229c-0.9,-1.661 -2.086,-3.119 -3.556,-4.375c-1.471,-1.255 -3.176,-2.257 -5.116,-3.004c-1.94,-0.748 -4,-1.122 -6.181,-1.122c-3.093,0 -5.787,0.552 -8.082,1.654c-2.295,1.103 -4.203,2.593 -5.724,4.469c-1.522,1.877 -2.657,4.057 -3.404,6.543c-0.748,2.484 -1.123,5.108 -1.123,7.872l0,1.599c0,2.762 0.375,5.386 1.123,7.872c0.747,2.485 1.882,4.666 3.404,6.542c1.521,1.877 3.423,3.367 5.705,4.469c2.283,1.103 4.969,1.655 8.064,1.655c2.408,0 4.595,-0.38 6.56,-1.141c1.965,-0.761 3.665,-1.807 5.097,-3.138c1.432,-1.332 2.554,-2.91 3.366,-4.736c0.812,-1.825 1.267,-3.79 1.369,-5.895l-6.656,0c-0.101,1.268 -0.399,2.454 -0.893,3.557c-0.494,1.103 -1.16,2.066 -1.997,2.89c-0.837,0.824 -1.832,1.476 -2.986,1.959c-1.154,0.481 -2.441,0.722 -3.86,0.722c-2.182,0 -3.988,-0.431 -5.42,-1.293c-1.434,-0.862 -2.587,-1.997 -3.461,-3.404c-0.875,-1.407 -1.491,-2.992 -1.846,-4.754c-0.355,-1.762 -0.532,-3.531 -0.532,-5.305l0,-1.599c0,-1.825 0.177,-3.619 0.532,-5.381c0.355,-1.764 0.964,-3.342 1.826,-4.736c0.862,-1.395 2.016,-2.523 3.461,-3.385c1.446,-0.862 3.271,-1.293 5.477,-1.293" id="path310"></path></g><g id="g312"><path fill="#ffffff" fill-rule="nonzero" d="m1103.404053,1009.280487c1.471,1.8 3.233,3.207 5.287,4.222c2.054,1.013 4.349,1.521 6.884,1.521c2.003,0 3.816,-0.272 5.44,-0.817c1.622,-0.546 3.004,-1.42 4.145,-2.625c1.141,-1.204 2.022,-2.751 2.643,-4.64c0.622,-1.89 0.933,-4.179 0.933,-6.866l0,-26.966l-7.037,0l0,27.043c0,1.597 -0.178,2.96 -0.533,4.088c-0.354,1.129 -0.881,2.048 -1.578,2.758c-0.698,0.71 -1.559,1.23 -2.586,1.559c-1.027,0.329 -2.213,0.494 -3.556,0.494c-2.283,0 -4.286,-0.608 -6.01,-1.825c-1.724,-1.217 -3.069,-2.814 -4.032,-4.792l0,-29.325l-7.036,0l0,58.422l7.036,0l0,-22.251z" id="path314"></path></g><g id="g316"><path fill="#ffffff" fill-rule="nonzero" d="m1144.482178,993.229767c0,-2.054 0.24,-3.994 0.723,-5.819c0.481,-1.826 1.21,-3.43 2.187,-4.812c0.975,-1.382 2.193,-2.478 3.651,-3.29c1.458,-0.811 3.163,-1.217 5.116,-1.217c1.927,0 3.625,0.406 5.096,1.217c1.471,0.812 2.688,1.908 3.652,3.29c0.963,1.382 1.692,2.986 2.186,4.812c0.495,1.825 0.743,3.765 0.743,5.819l0,0.837c0,2.028 -0.248,3.962 -0.743,5.801c-0.494,1.838 -1.23,3.447 -2.206,4.83c-0.976,1.382 -2.2,2.484 -3.67,3.308c-1.47,0.825 -3.182,1.237 -5.134,1.237c-1.928,0 -3.614,-0.412 -5.059,-1.237c-1.445,-0.824 -2.657,-1.926 -3.632,-3.308c-0.977,-1.383 -1.706,-2.992 -2.187,-4.83c-0.483,-1.839 -0.723,-3.773 -0.723,-5.801l0,-0.837zm-7.075,0.837c0,2.992 0.438,5.762 1.313,8.31c0.875,2.549 2.116,4.761 3.727,6.637c1.61,1.877 3.568,3.348 5.876,4.412c2.307,1.066 4.894,1.598 7.76,1.598c2.916,0 5.534,-0.532 7.854,-1.598c2.32,-1.064 4.291,-2.535 5.915,-4.412c1.622,-1.876 2.864,-4.088 3.727,-6.637c0.861,-2.548 1.293,-5.318 1.293,-8.31l0,-0.837c0,-2.992 -0.432,-5.763 -1.293,-8.311c-0.863,-2.547 -2.105,-4.754 -3.727,-6.618c-1.624,-1.863 -3.589,-3.322 -5.896,-4.374c-2.308,-1.051 -4.907,-1.578 -7.797,-1.578c-2.891,0 -5.49,0.527 -7.797,1.578c-2.308,1.052 -4.274,2.511 -5.896,4.374c-1.623,1.864 -2.871,4.071 -3.746,6.618c-0.875,2.548 -1.313,5.319 -1.313,8.311l0,0.837z" id="path318"></path></g><g id="g320"><path fill="#ffffff" fill-rule="nonzero" d="m1188.906982,993.229767c0,-2.054 0.241,-3.994 0.723,-5.819c0.481,-1.826 1.21,-3.43 2.186,-4.812c0.977,-1.382 2.194,-2.478 3.652,-3.29c1.457,-0.811 3.163,-1.217 5.115,-1.217c1.927,0 3.626,0.406 5.097,1.217c1.471,0.812 2.688,1.908 3.652,3.29c0.963,1.382 1.693,2.986 2.187,4.812c0.494,1.825 0.742,3.765 0.742,5.819l0,0.837c0,2.028 -0.248,3.962 -0.742,5.801c-0.494,1.838 -1.231,3.447 -2.206,4.83c-0.976,1.382 -2.2,2.484 -3.671,3.308c-1.471,0.825 -3.182,1.237 -5.134,1.237c-1.928,0 -3.614,-0.412 -5.059,-1.237c-1.446,-0.824 -2.656,-1.926 -3.633,-3.308c-0.976,-1.383 -1.705,-2.992 -2.186,-4.83c-0.482,-1.839 -0.723,-3.773 -0.723,-5.801l0,-0.837zm-7.075,0.837c0,2.992 0.438,5.762 1.313,8.31c0.874,2.549 2.116,4.761 3.727,6.637c1.61,1.877 3.569,3.348 5.876,4.412c2.307,1.066 4.893,1.598 7.76,1.598c2.915,0 5.534,-0.532 7.854,-1.598c2.32,-1.064 4.292,-2.535 5.914,-4.412c1.623,-1.876 2.865,-4.088 3.727,-6.637c0.862,-2.548 1.294,-5.318 1.294,-8.31l0,-0.837c0,-2.992 -0.432,-5.763 -1.294,-8.311c-0.862,-2.547 -2.104,-4.754 -3.727,-6.618c-1.622,-1.863 -3.588,-3.322 -5.895,-4.374c-2.308,-1.051 -4.907,-1.578 -7.798,-1.578c-2.89,0 -5.489,0.527 -7.797,1.578c-2.307,1.052 -4.273,2.511 -5.895,4.374c-1.623,1.864 -2.872,4.071 -3.746,6.618c-0.875,2.548 -1.313,5.319 -1.313,8.311l0,0.837z" id="path322"></path></g><path fill="#ffffff" fill-rule="nonzero" d="m1235.766345,973.109175l-7.036,0l0,58.422l7.036,0l0,-58.422z" id="path324"></path><g id="g326"><path fill="#ffffff" fill-rule="nonzero" d="m1270.986572,984.025665c0,0.761 -0.114,1.477 -0.342,2.148c-0.229,0.672 -0.679,1.306 -1.35,1.903c-0.673,0.595 -1.631,1.146 -2.872,1.654c-1.243,0.507 -2.878,0.976 -4.907,1.407c-2.282,0.482 -4.336,1.052 -6.161,1.712c-1.826,0.659 -3.38,1.451 -4.66,2.377c-1.281,0.925 -2.263,2.022 -2.947,3.29c-0.685,1.268 -1.028,2.751 -1.028,4.45c0,1.622 0.362,3.163 1.085,4.621c0.722,1.459 1.743,2.739 3.061,3.841c1.318,1.104 2.915,1.979 4.793,2.625c1.876,0.647 3.968,0.97 6.276,0.97c2.459,0 4.658,-0.336 6.598,-1.008c1.94,-0.672 3.588,-1.591 4.945,-2.757c1.356,-1.167 2.39,-2.529 3.1,-4.089c0.709,-1.559 1.065,-3.227 1.065,-5.001l-7.074,0c0,0.836 -0.191,1.679 -0.571,2.529c-0.381,0.849 -0.938,1.609 -1.673,2.282c-0.736,0.672 -1.636,1.217 -2.701,1.636c-1.065,0.418 -2.295,0.627 -3.689,0.627c-1.471,0 -2.72,-0.171 -3.747,-0.513c-1.027,-0.343 -1.87,-0.8 -2.529,-1.37c-0.66,-0.57 -1.141,-1.217 -1.445,-1.939c-0.305,-0.723 -0.457,-1.465 -0.457,-2.225c0,-0.761 0.127,-1.446 0.38,-2.055c0.253,-0.608 0.735,-1.16 1.446,-1.654c0.709,-0.494 1.679,-0.951 2.909,-1.369c1.23,-0.419 2.821,-0.843 4.774,-1.275c2.51,-0.583 4.691,-1.242 6.542,-1.977c1.85,-0.736 3.385,-1.592 4.602,-2.568c1.218,-0.976 2.124,-2.098 2.719,-3.366c0.596,-1.268 0.894,-2.738 0.894,-4.412c0,-1.801 -0.374,-3.448 -1.122,-4.944c-0.748,-1.496 -1.819,-2.777 -3.213,-3.842c-1.396,-1.064 -3.069,-1.896 -5.022,-2.491c-1.952,-0.596 -4.12,-0.894 -6.503,-0.894c-2.739,0 -5.154,0.38 -7.246,1.141c-2.092,0.761 -3.848,1.768 -5.268,3.024c-1.42,1.255 -2.498,2.687 -3.233,4.298c-0.736,1.61 -1.103,3.264 -1.103,4.964l7.037,0c0.076,-1.446 0.424,-2.657 1.046,-3.633c0.621,-0.976 1.401,-1.768 2.339,-2.378c0.938,-0.608 1.964,-1.039 3.081,-1.293c1.115,-0.253 2.231,-0.38 3.347,-0.38c1.445,0 2.712,0.152 3.803,0.456c1.09,0.305 2.009,0.723 2.757,1.256c0.748,0.533 1.313,1.16 1.693,1.882c0.38,0.723 0.571,1.503 0.571,2.34" id="path328"></path></g><g id="g330"><path fill="#ffffff" fill-rule="nonzero" d="m1348.311279,990.681885c-0.304,-2.612 -0.945,-5.04 -1.92,-7.284c-0.977,-2.244 -2.327,-4.184 -4.052,-5.82c-1.724,-1.635 -3.828,-2.916 -6.313,-3.841c-2.486,-0.925 -5.389,-1.388 -8.71,-1.388c-3.271,0 -6.238,0.608 -8.901,1.825c-2.662,1.218 -4.938,2.948 -6.827,5.193c-1.889,2.244 -3.347,4.937 -4.374,8.082c-1.027,3.144 -1.54,6.656 -1.54,10.536l0,5.552c0,3.88 0.519,7.398 1.56,10.555c1.039,3.157 2.522,5.858 4.45,8.102c1.926,2.244 4.265,3.98 7.017,5.211c2.751,1.229 5.839,1.844 9.261,1.844c3.119,0 5.883,-0.456 8.292,-1.369c2.409,-0.913 4.456,-2.187 6.142,-3.823c1.687,-1.636 3.025,-3.588 4.014,-5.856c0.988,-2.27 1.622,-4.775 1.901,-7.513l-7.34,0c-0.28,1.927 -0.711,3.664 -1.294,5.211c-0.584,1.547 -1.387,2.865 -2.415,3.956c-1.027,1.089 -2.301,1.927 -3.823,2.51c-1.521,0.583 -3.347,0.875 -5.477,0.875c-2.459,0 -4.621,-0.476 -6.484,-1.427c-1.864,-0.95 -3.423,-2.282 -4.679,-3.993c-1.255,-1.712 -2.2,-3.779 -2.834,-6.2c-0.633,-2.422 -0.95,-5.091 -0.95,-8.006l0,-5.629c0,-2.714 0.285,-5.262 0.856,-7.646c0.57,-2.384 1.439,-4.469 2.605,-6.257c1.166,-1.788 2.649,-3.195 4.45,-4.221c1.8,-1.027 3.93,-1.54 6.39,-1.54c2.332,0 4.298,0.278 5.895,0.836c1.598,0.557 2.923,1.363 3.975,2.416c1.052,1.051 1.87,2.344 2.454,3.879c0.582,1.534 1.026,3.277 1.331,5.23l7.34,0z" id="path332"></path></g><g id="g334"><path fill="#ffffff" fill-rule="nonzero" d="m1362.384521,993.229767c0,-2.054 0.241,-3.994 0.723,-5.819c0.481,-1.826 1.211,-3.43 2.187,-4.812c0.976,-1.382 2.193,-2.478 3.651,-3.29c1.458,-0.811 3.163,-1.217 5.116,-1.217c1.927,0 3.626,0.406 5.096,1.217c1.471,0.812 2.688,1.908 3.652,3.29c0.963,1.382 1.693,2.986 2.187,4.812c0.494,1.825 0.742,3.765 0.742,5.819l0,0.837c0,2.028 -0.248,3.962 -0.742,5.801c-0.494,1.838 -1.23,3.447 -2.206,4.83c-0.976,1.382 -2.2,2.484 -3.671,3.308c-1.471,0.825 -3.182,1.237 -5.134,1.237c-1.928,0 -3.613,-0.412 -5.059,-1.237c-1.445,-0.824 -2.656,-1.926 -3.632,-3.308c-0.976,-1.383 -1.706,-2.992 -2.187,-4.83c-0.482,-1.839 -0.723,-3.773 -0.723,-5.801l0,-0.837zm-7.075,0.837c0,2.992 0.438,5.762 1.313,8.31c0.874,2.549 2.116,4.761 3.727,6.637c1.611,1.877 3.569,3.348 5.876,4.412c2.308,1.066 4.894,1.598 7.76,1.598c2.915,0 5.534,-0.532 7.854,-1.598c2.32,-1.064 4.292,-2.535 5.914,-4.412c1.623,-1.876 2.865,-4.088 3.728,-6.637c0.862,-2.548 1.293,-5.318 1.293,-8.31l0,-0.837c0,-2.992 -0.431,-5.763 -1.293,-8.311c-0.863,-2.547 -2.105,-4.754 -3.728,-6.618c-1.622,-1.863 -3.588,-3.322 -5.895,-4.374c-2.307,-1.051 -4.906,-1.578 -7.797,-1.578c-2.89,0 -5.49,0.527 -7.798,1.578c-2.307,1.052 -4.273,2.511 -5.895,4.374c-1.623,1.864 -2.872,4.071 -3.746,6.618c-0.875,2.548 -1.313,5.319 -1.313,8.311l0,0.837z" id="path336"></path></g><g id="g338"><path fill="#ffffff" fill-rule="nonzero" d="m1408.255005,1014.262848l0.228,-5.172c1.47,1.85 3.245,3.302 5.325,4.355c2.079,1.051 4.412,1.578 6.998,1.578c2.003,0 3.817,-0.273 5.439,-0.818c1.622,-0.546 3.005,-1.42 4.146,-2.625c1.141,-1.204 2.022,-2.751 2.644,-4.639c0.62,-1.89 0.931,-4.179 0.931,-6.866l0,-26.966l-7.036,0l0,27.043c0,1.596 -0.177,2.96 -0.532,4.088c-0.356,1.128 -0.882,2.047 -1.579,2.757c-0.697,0.71 -1.56,1.231 -2.587,1.56c-1.026,0.329 -2.212,0.494 -3.556,0.494c-2.282,0 -4.285,-0.608 -6.009,-1.825c-1.725,-1.218 -3.069,-2.815 -4.032,-4.792l0,-29.325l-7.036,0l0,41.153l6.656,0z" id="path340"></path></g><g id="g342"><path fill="#ffffff" fill-rule="nonzero" d="m1468.540161,984.025665c0,0.761 -0.114,1.477 -0.342,2.148c-0.229,0.672 -0.679,1.306 -1.35,1.903c-0.673,0.595 -1.63,1.146 -2.872,1.654c-1.243,0.507 -2.878,0.976 -4.907,1.407c-2.281,0.482 -4.336,1.052 -6.161,1.712c-1.826,0.659 -3.379,1.451 -4.66,2.377c-1.281,0.925 -2.263,2.022 -2.948,3.29c-0.684,1.268 -1.027,2.751 -1.027,4.45c0,1.622 0.362,3.163 1.084,4.621c0.724,1.459 1.744,2.739 3.062,3.841c1.318,1.104 2.916,1.979 4.793,2.625c1.876,0.647 3.968,0.97 6.276,0.97c2.459,0 4.659,-0.336 6.599,-1.008c1.939,-0.672 3.587,-1.591 4.944,-2.757c1.356,-1.167 2.39,-2.529 3.1,-4.089c0.71,-1.559 1.065,-3.227 1.065,-5.001l-7.074,0c0,0.836 -0.19,1.679 -0.571,2.529c-0.381,0.849 -0.939,1.609 -1.674,2.282c-0.735,0.672 -1.635,1.217 -2.7,1.636c-1.065,0.418 -2.296,0.627 -3.689,0.627c-1.471,0 -2.72,-0.171 -3.747,-0.513c-1.027,-0.343 -1.87,-0.8 -2.529,-1.37c-0.66,-0.57 -1.142,-1.217 -1.446,-1.939c-0.304,-0.723 -0.455,-1.465 -0.455,-2.225c0,-0.761 0.125,-1.446 0.379,-2.055c0.254,-0.608 0.735,-1.16 1.446,-1.654c0.71,-0.494 1.679,-0.951 2.909,-1.369c1.23,-0.419 2.821,-0.843 4.774,-1.275c2.51,-0.583 4.69,-1.242 6.541,-1.977c1.851,-0.736 3.386,-1.592 4.603,-2.568c1.217,-0.976 2.123,-2.098 2.72,-3.366c0.595,-1.268 0.893,-2.738 0.893,-4.412c0,-1.801 -0.374,-3.448 -1.121,-4.944c-0.748,-1.496 -1.821,-2.777 -3.215,-3.842c-1.395,-1.064 -3.068,-1.896 -5.02,-2.491c-1.953,-0.596 -4.121,-0.894 -6.504,-0.894c-2.739,0 -5.154,0.38 -7.246,1.141c-2.092,0.761 -3.847,1.768 -5.268,3.024c-1.42,1.255 -2.497,2.687 -3.233,4.298c-0.735,1.61 -1.103,3.264 -1.103,4.964l7.037,0c0.076,-1.446 0.424,-2.657 1.046,-3.633c0.621,-0.976 1.401,-1.768 2.339,-2.378c0.938,-0.608 1.965,-1.039 3.081,-1.293c1.115,-0.253 2.231,-0.38 3.347,-0.38c1.445,0 2.713,0.152 3.803,0.456c1.09,0.305 2.01,0.723 2.758,1.256c0.747,0.533 1.312,1.16 1.692,1.882c0.381,0.723 0.571,1.503 0.571,2.34" id="path344"></path></g><g id="g346"><path fill="#ffffff" fill-rule="nonzero" d="m1489.953735,993.229767c0,-2.054 0.241,-3.994 0.723,-5.819c0.481,-1.826 1.211,-3.43 2.187,-4.812c0.976,-1.382 2.193,-2.478 3.651,-3.29c1.458,-0.811 3.163,-1.217 5.116,-1.217c1.927,0 3.626,0.406 5.096,1.217c1.471,0.812 2.688,1.908 3.652,3.29c0.964,1.382 1.693,2.986 2.187,4.812c0.494,1.825 0.742,3.765 0.742,5.819l0,0.837c0,2.028 -0.248,3.962 -0.742,5.801c-0.494,1.838 -1.23,3.447 -2.206,4.83c-0.976,1.382 -2.2,2.484 -3.671,3.308c-1.471,0.825 -3.182,1.237 -5.134,1.237c-1.928,0 -3.613,-0.412 -5.059,-1.237c-1.445,-0.824 -2.656,-1.926 -3.632,-3.308c-0.976,-1.383 -1.706,-2.992 -2.187,-4.83c-0.482,-1.839 -0.723,-3.773 -0.723,-5.801l0,-0.837zm-7.075,0.837c0,2.992 0.438,5.762 1.313,8.31c0.874,2.549 2.117,4.761 3.727,6.637c1.611,1.877 3.569,3.348 5.877,4.412c2.307,1.066 4.893,1.598 7.759,1.598c2.915,0 5.534,-0.532 7.854,-1.598c2.32,-1.064 4.292,-2.535 5.915,-4.412c1.622,-1.876 2.864,-4.088 3.727,-6.637c0.862,-2.548 1.293,-5.318 1.293,-8.31l0,-0.837c0,-2.992 -0.431,-5.763 -1.293,-8.311c-0.863,-2.547 -2.105,-4.754 -3.727,-6.618c-1.623,-1.863 -3.589,-3.322 -5.896,-4.374c-2.307,-1.051 -4.906,-1.578 -7.797,-1.578c-2.89,0 -5.49,0.527 -7.798,1.578c-2.307,1.052 -4.273,2.511 -5.895,4.374c-1.623,1.864 -2.872,4.071 -3.746,6.618c-0.875,2.548 -1.313,5.319 -1.313,8.311l0,0.837z" id="path348"></path></g><g id="g350"><path fill="#ffffff" fill-rule="nonzero" d="m1549.060181,1007.949463c-0.608,0.101 -1.173,0.171 -1.693,0.209c-0.519,0.038 -1.109,0.058 -1.768,0.058c-2.435,0 -4.418,-0.534 -5.953,-1.598c-1.534,-1.065 -2.681,-2.498 -3.442,-4.298l0,-29.211l-7.036,0l0,41.153l6.846,0l0.114,-4.753c1.065,1.698 2.396,3.043 3.994,4.031c1.597,0.989 3.537,1.483 5.819,1.483c0.507,0 1.09,-0.056 1.75,-0.171c0.659,-0.114 1.115,-0.235 1.369,-0.361l0,-6.542z" id="path352"></path></g><g id="g354"><path fill="#ffffff" fill-rule="nonzero" d="m1566.974731,1024.22879l0,-9.966l7.684,0l0,-5.438l-7.684,0l0,-25.522c0,-1.065 0.127,-1.921 0.381,-2.567c0.252,-0.647 0.589,-1.148 1.007,-1.503c0.419,-0.355 0.9,-0.589 1.446,-0.703c0.544,-0.114 1.109,-0.172 1.692,-0.172c0.583,0 1.199,0.058 1.845,0.172c0.647,0.114 1.147,0.209 1.503,0.285l0,-5.705c-0.559,-0.152 -1.281,-0.317 -2.169,-0.494c-0.887,-0.178 -1.965,-0.267 -3.233,-0.267c-1.292,0 -2.516,0.184 -3.67,0.552c-1.154,0.367 -2.162,0.981 -3.024,1.844c-0.862,0.862 -1.547,1.997 -2.053,3.404c-0.508,1.407 -0.761,3.138 -0.761,5.192l0,25.484l-7.493,0l0,5.438l7.493,0l0,9.966l7.036,0z" id="path356"></path></g><path fill="#ffffff" fill-rule="nonzero" d="m1590.518345,973.109175l-7.037,0l0,41.153l7.037,0l0,-41.153zm-7.607,52.07c0,1.141 0.348,2.104 1.046,2.89c0.698,0.787 1.731,1.18 3.1,1.18c1.37,0 2.409,-0.393 3.119,-1.18c0.709,-0.786 1.065,-1.749 1.065,-2.89c0,-1.141 -0.356,-2.092 -1.065,-2.853c-0.71,-0.761 -1.749,-1.14 -3.119,-1.14c-1.369,0 -2.402,0.379 -3.1,1.14c-0.698,0.761 -1.046,1.712 -1.046,2.853" id="path358"></path><g id="g360"><path fill="#ffffff" fill-rule="nonzero" d="m1627.184204,977.178986c-1.293,-1.521 -2.929,-2.707 -4.907,-3.556c-1.977,-0.849 -4.361,-1.274 -7.15,-1.274c-2.029,0 -3.867,0.285 -5.515,0.855c-1.649,0.572 -3.068,1.471 -4.26,2.702c-1.192,1.228 -2.111,2.814 -2.757,4.753c-0.647,1.94 -0.971,4.279 -0.971,7.018l0,26.586l7.037,0l0,-26.662c0,-1.852 0.215,-3.38 0.647,-4.583c0.431,-1.205 1.001,-2.155 1.711,-2.854c0.71,-0.697 1.522,-1.178 2.435,-1.444c0.913,-0.267 1.85,-0.399 2.814,-0.399c2.865,0 5.166,0.545 6.903,1.635c1.737,1.089 3.011,2.548 3.823,4.373l0,29.934l7.036,0l0,-41.153l-6.694,0l-0.152,4.069z" id="path362"></path></g><g id="g364"><path fill="#ffffff" fill-rule="nonzero" d="m1651.336548,1014.262848l0.19,-4.563c1.42,1.672 3.138,2.978 5.154,3.917c2.016,0.938 4.367,1.407 7.055,1.407c2.663,0 5.015,-0.527 7.056,-1.578c2.041,-1.053 3.607,-2.733 4.697,-5.04c1.369,1.978 3.151,3.575 5.344,4.793c2.193,1.216 4.786,1.825 7.778,1.825c2.206,0 4.159,-0.285 5.857,-0.856c1.7,-0.57 3.139,-1.465 4.318,-2.681c1.179,-1.217 2.072,-2.764 2.681,-4.64c0.609,-1.877 0.913,-4.108 0.913,-6.694l0,-27.043l-7.037,0l0,27.08c0,1.724 -0.209,3.157 -0.627,4.298c-0.418,1.141 -1.007,2.054 -1.769,2.739c-0.76,0.684 -1.686,1.16 -2.777,1.426c-1.09,0.266 -2.294,0.399 -3.613,0.399c-1.445,0 -2.725,-0.227 -3.841,-0.684c-1.116,-0.457 -2.073,-1.072 -2.872,-1.845c-0.799,-0.774 -1.432,-1.687 -1.901,-2.738c-0.47,-1.053 -0.768,-2.175 -0.895,-3.367l0,-27.308l-7.074,0l0,27.043c0,1.596 -0.209,2.96 -0.627,4.088c-0.419,1.128 -1.009,2.047 -1.769,2.757c-0.761,0.71 -1.68,1.231 -2.758,1.56c-1.078,0.329 -2.288,0.494 -3.631,0.494c-2.511,0 -4.527,-0.545 -6.049,-1.635c-1.521,-1.09 -2.662,-2.51 -3.423,-4.259l0,-30.048l-7.036,0l0,41.153l6.656,0z" id="path366"></path></g><path fill="#ffffff" fill-rule="nonzero" d="m772.234345,1200.775175l-55.95,0l0,273.534l55.95,0l0,-273.534z" id="path368"></path><g id="g370"><path fill="#ffffff" fill-rule="nonzero" d="m1064.415283,1313.919159c0,-18.235 -2.972,-34.678 -8.91,-49.319c-5.945,-14.648 -14.092,-27.08 -24.453,-37.299c-10.36,-10.226 -22.587,-18.028 -36.678,-23.416c-14.091,-5.388 -29.426,-8.082 -46.003,-8.082c-16.578,0 -31.983,2.694 -46.21,8.082c-14.234,5.388 -26.525,13.19 -36.886,23.416c-10.362,10.219 -18.443,22.651 -24.246,37.299c-5.802,14.641 -8.703,31.084 -8.703,49.319l0,160.391l55.95,0l0,-164.536c0,-10.224 1.515,-19.206 4.559,-26.938c3.037,-7.739 7.253,-14.233 12.641,-19.48c5.387,-5.25 11.74,-9.188 19.064,-11.811c7.318,-2.629 15.264,-3.937 23.831,-3.937c8.561,0 16.507,1.308 23.831,3.937c7.317,2.623 13.675,6.561 19.064,11.811c5.388,5.247 9.597,11.741 12.64,19.48c3.037,7.732 4.559,16.714 4.559,26.938l0,164.536l55.95,0l0,-160.391z" id="path372"></path></g><g id="g374"><path fill="#ffffff" fill-rule="nonzero" d="m1393.068604,1200.775604l-55.949,0l0,146.3l-69.213,-86.619l-18.235,0l-68.798,86.619l0,-146.3l-55.951,0l0,278.507l18.65,0l115.216,-148.37l116.045,148.37l18.235,0l0,-278.507z" id="path376"></path></g><g id="g378"><path fill="#ffffff" fill-rule="nonzero" d="m1585.366821,1479.282501c26.796,0 50.626,-6.08 71.492,-18.235c20.858,-12.161 37.364,-28.74 49.526,-49.734l-42.688,-29.84c-9.118,14.642 -20.101,25.968 -32.948,33.985c-12.848,8.011 -27.976,12.018 -45.382,12.018c-12.712,0 -24.387,-2.214 -35.021,-6.631c-10.639,-4.422 -19.893,-10.639 -27.768,-18.649c-7.874,-8.017 -14.025,-17.55 -18.442,-28.598c-4.423,-11.053 -6.632,-23.208 -6.632,-36.47c0,-13.263 2.209,-25.353 6.632,-36.264c4.417,-10.918 10.568,-20.309 18.442,-28.182c7.875,-7.875 17.129,-14.027 27.768,-18.443c10.634,-4.423 22.309,-6.631 35.021,-6.631c17.406,0 32.534,4.002 45.382,12.019c12.847,8.01 23.83,19.336 32.948,33.984l42.688,-29.84c-12.162,-21.001 -28.668,-37.578 -49.526,-49.733c-20.866,-12.161 -44.696,-18.235 -71.492,-18.235c-20.451,0 -39.515,3.593 -57.193,10.775c-17.685,7.182 -33.02,17.128 -46.003,29.84c-12.991,12.705 -23.281,27.696 -30.877,44.968c-7.603,17.263 -11.398,35.985 -11.398,56.157c0,20.164 3.795,38.885 11.398,56.157c7.596,17.264 17.886,32.255 30.877,44.967c12.983,12.705 28.318,22.651 46.003,29.84c17.678,7.181 36.742,10.775 57.193,10.775" id="path380"></path></g><g id="g382"><path fill="#f89c35" fill-rule="nonzero" d="m172.514832,1434.474762c3.447,0 6.744,-0.723 9.761,-2.001c0.057,0.305 0.114,0.609 0.177,0.917c3.299,16.48 11.499,30.183 24.369,40.73c14.848,12.167 34.963,12.251 51.746,9.112c-0.021,0.451 -0.034,0.903 -0.034,1.358c0,6.735 2.298,12.928 6.146,17.854c-21.536,4.404 -49.058,4.737 -70.531,-12.859c-22.115,-18.123 -29.812,-40.615 -32.223,-57.439c1.902,0.878 3.926,1.525 6.041,1.913c1.501,0.275 3.031,0.415 4.548,0.415" id="path384"></path></g><g id="g386"><path fill="#f89c35" fill-rule="nonzero" d="m457.937256,1434.059784c2.115,-0.388 4.14,-1.035 6.042,-1.914c-2.41,16.825 -10.107,39.317 -32.223,57.44c-20.164,16.524 -45.66,17.236 -66.526,13.615c4.212,-5.039 6.751,-11.527 6.751,-18.61c0,-0.199 -0.011,-0.395 -0.015,-0.593c15.75,2.259 33.612,1.19 47.117,-9.877c12.871,-10.547 21.07,-24.25 24.371,-40.73c0.061,-0.308 0.119,-0.612 0.176,-0.917c3.017,1.278 6.313,2.001 9.761,2.001c1.516,0 3.046,-0.14 4.546,-0.415" id="path388"></path></g><g id="g390"><path fill="#ffffff" fill-rule="nonzero" d="m347.823425,1167.426971c0.219,-0.067 0.212,0.22 0,0" id="path392"></path></g><g id="g394"><path fill="#f89c35" fill-rule="nonzero" d="m309.479736,1484.591095c0,-12.1 -9.809,-21.909 -21.909,-21.909c-12.1,0 -21.909,9.809 -21.909,21.909c0,12.101 9.809,21.909 21.909,21.909c12.1,0 21.909,-9.808 21.909,-21.909" id="path396"></path></g><g id="g398"><path fill="#f89c35" fill-rule="nonzero" d="m364.853271,1484.591095c0,-12.1 -9.809,-21.909 -21.909,-21.909c-12.1,0 -21.909,9.809 -21.909,21.909c0,12.101 9.809,21.909 21.909,21.909c12.1,0 21.909,-9.808 21.909,-21.909" id="path400"></path></g><g id="g402"><path fill="#399560" fill-rule="nonzero" d="m622.186768,1181.215057c-3.109,23.292 -18.802,54.019 -75.91,68.136c-61.975,15.319 -110.517,-0.676 -140.325,-16.792c-12.286,-6.643 -22.442,-13.821 -30.374,-20.223c-7.469,-5.573 -16.152,-12.439 -25.562,-20.567c1.984,-9.95 4.351,-19.964 7.059,-29.887c0.735,0.677 1.467,1.349 2.188,2.004c7.147,6.491 13.973,12.263 20.264,17.32c4.475,3.599 8.674,6.829 12.516,9.69c14.27,10.621 23.613,16.122 23.765,16.211l-0.013,0.022c1.294,0.733 2.611,1.463 3.963,2.184c37.012,19.707 77.398,24.355 120.038,13.815c33.997,-8.404 52.71,-23.708 55.617,-45.486c4.038,-30.249 -22.129,-65.544 -41.918,-76.553c-9.138,-5.084 -15.223,-11.913 -19.29,-18.712c-4.204,-6.715 -7.518,-15.24 -7.889,-25.69c-0.801,-22.631 -20.328,-61.991 -49.103,-72.155c-19.925,-7.039 -41.168,1.675 -63.18,25.885c-0.875,0.962 -1.751,1.941 -2.628,2.952c-2.723,3.138 -5.314,6.321 -7.776,9.545c-6.61,8.66 -12.275,17.631 -16.997,26.892c-20.613,34.921 -34.092,69.596 -42.884,99.624c-4.357,14.88 -7.569,28.619 -9.93,40.679c-5.273,26.92 -7.107,49.103 -7.717,63.075c7.284,2.385 15.519,5.427 24.292,9.28c7.374,3.237 15.122,7.043 22.997,11.505c23.452,13.288 43.252,29.677 58.847,48.711c19.674,24.011 32.574,52.147 38.343,83.629c1.692,9.232 -4.42,18.089 -13.653,19.78c-9.234,1.694 -18.089,-4.42 -19.781,-13.653c-8.586,-46.852 -35.675,-83.489 -80.512,-108.894c-15.982,-9.055 -31.358,-14.991 -43.231,-18.752c-11.872,3.761 -27.249,9.697 -43.23,18.752c-44.838,25.405 -71.926,62.042 -80.513,108.894c-1.692,9.233 -10.546,15.347 -19.78,13.653c-9.233,-1.691 -15.346,-10.548 -13.653,-19.78c5.769,-31.482 18.669,-59.618 38.342,-83.629c15.596,-19.034 35.395,-35.423 58.847,-48.711c7.875,-4.462 15.624,-8.268 22.998,-11.505c8.101,-3.558 15.747,-6.427 22.606,-8.724c0.568,-14.816 2.436,-38.642 8.119,-67.944c7.558,-38.968 23.443,-94.411 56.674,-150.462c6.873,-13.136 15.753,-26.485 27.188,-39.666c0.261,-0.301 0.52,-0.591 0.78,-0.887c38.236,-43.54 72.423,-43.492 94.43,-35.717c18.421,6.507 35.66,21.427 48.541,42.011c11.058,17.618 17.97,38.062 18.56,54.654c0.178,5.051 1.826,9.23 3.913,12.558c2.014,3.372 4.986,6.74 9.403,9.198c14.508,8.073 29.569,23.529 40.228,41.391c12.471,20.835 17.915,42.974 15.331,62.339" id="path404"></path></g><g id="g406"><path fill="#399560" fill-rule="nonzero" d="m285.164856,1123.1008c-14.437,-18.889 -28.494,-40.512 -40.488,-64.698c-1.459,-2.945 -2.898,-5.914 -4.293,-8.934l0.046,-0.02c-6.453,-12.582 -14.656,-24.623 -24.595,-36.079c-22.95,-26.455 -45.091,-36.156 -65.808,-28.837c-28.775,10.164 -48.302,49.523 -49.104,72.154c-0.371,10.45 -3.684,18.976 -7.888,25.69c-4.067,6.799 -10.152,13.628 -19.29,18.712c-19.788,11.009 -45.956,46.304 -41.918,76.553c2.907,21.778 21.62,37.082 55.617,45.486c39.467,9.756 77.001,6.49 111.718,-9.676c2.478,9.209 8.189,17.089 15.845,22.35c-30.131,14.884 -76.241,27.837 -134.044,13.549c-57.108,-14.117 -72.801,-44.844 -75.91,-68.136c-2.585,-19.365 2.86,-41.504 15.331,-62.339c10.659,-17.862 25.72,-33.318 40.228,-41.391c4.417,-2.457 7.389,-5.825 9.404,-9.197c2.087,-3.329 3.734,-7.507 3.912,-12.559c0.59,-16.592 7.502,-37.036 18.56,-54.653c12.881,-20.584 30.12,-35.504 48.541,-42.012c22.157,-7.827 56.659,-7.83 95.21,36.604c12.254,14.125 21.573,28.444 28.631,42.485l0.034,-0.016c0.248,0.537 0.505,1.064 0.755,1.598c0.677,1.445 1.359,2.886 2.052,4.312c12.472,25.653 27.518,48.301 42.825,67.697c-3.76,10.68 -6.972,20.955 -9.714,30.677c-5.215,-6.085 -10.459,-12.519 -15.657,-19.32" id="path408"></path></g><g id="g410"><path fill="#f89c35" fill-rule="nonzero" d="m228.415222,1196.1409c-1.503,1.933 -2.408,4.354 -2.408,6.992c0,6.299 5.106,11.404 11.405,11.404c6.298,0 11.405,-5.105 11.405,-11.404c0,-6.299 -5.107,-11.405 -11.405,-11.405c-1.525,0 -2.978,0.305 -4.308,0.848c-1.861,0.76 -3.471,2.001 -4.689,3.565m8.997,35.804c-3.927,0 -7.67,-0.788 -11.081,-2.211c-8.836,-3.686 -15.438,-11.645 -17.235,-21.295c-0.321,-1.721 -0.496,-3.492 -0.496,-5.306c0,-15.913 12.899,-28.812 28.812,-28.812c4.344,0 8.461,0.967 12.154,2.689c8.79,4.096 15.164,12.494 16.422,22.491c0.15,1.191 0.236,2.401 0.236,3.632c0,15.912 -12.9,28.812 -28.812,28.812" id="path412"></path></g></g></g></g></g></svg> 