<svg id="Layer_1" data-name="Layer 1" xmlns="http://www.w3.org/2000/svg" xmlns:xlink="http://www.w3.org/1999/xlink" viewBox="0 0 1322.42 1322.42"><defs><style>.cls-1{fill-rule:evenodd;fill:url(#linear-gradient);}</style><linearGradient id="linear-gradient" x1="1539.05" y1="-904.93" x2="1780.38" y2="-533.32" gradientTransform="translate(-1175.55 476.26) rotate(27.82)" gradientUnits="userSpaceOnUse"><stop offset="0" stop-color="#15cff5"/><stop offset="1" stop-color="#3957b4"/></linearGradient></defs><title>Artboard 1ldpi</title><path class="cls-1" d="M161,677.92c-.83,1.41-1.81,1.71-3,.64C158.78,676.83,160,678.32,161,677.92Zm-.9-4.32c.92-.81,2.18,1,3-.65C162,672.81,160.78,671.25,160.06,673.6Zm11.2,2.76c-.67-.83-1.17-.41-1.76-.64-.54.9-.13,1.45-.73,2.37C169.94,678.67,169.79,677.33,171.26,676.36ZM166.19,671c0,.65,0,1.29-.55,1.06-.33,1.36,2,1.89,2.43.4C167.87,670.89,167.23,672.21,166.19,671Zm22.75,4.09c-1.07-1.59-1.56,2-2.59.84C186.12,677.49,188.48,677.29,188.94,675.06Zm4.05.35c.37-1.33-1.91-1.59-2.3.34l1.47,1.2C192.13,676.33,192.35,675.08,193,675.41Zm-3.78-103.68c-1.42,1.36-3,1.63-4.24,4.35C186.07,576.21,187.52,574.53,189.21,571.73Zm19.82,11c-1.34.88-2.95-1.5-4.2.43C206.37,584.74,207.74,584.25,209,582.73Zm53.77-53.64c-1.34.79-4,1-4.15,2.82C260.1,532.56,261.46,531.22,262.8,529.09ZM1061,521.16a13.07,13.07,0,0,0-6.72-.44A7.74,7.74,0,0,0,1061,521.16Zm19.91,24.62c.7-.51-.1-1.71.73-2.16-1.92-1-5.93,2.1-6.72-1.15C1072.77,547,1079.75,543.43,1080.94,545.78Zm-5.77-5.2c1.47,2.15,4.85.52,7.63.09C1081.43,538.33,1077.83,540.36,1075.17,540.58Zm11.37-3.65c-.44-1.56-2.78.66-3.38-.58C1081.9,538.43,1085.42,537.14,1086.54,536.93Zm-3.42,2.39c1.41,1.31,2.45,3.35,5.65,1.15C1086.13,541.58,1085.8,538.13,1083.12,539.32Zm1.76,7.31c.77,1.85,2.95.91,5.37-.46-.79-2.7,2.2-3.52,2.92-2.12,0,1.93-1.76,1.76-2.92,2.12-.2,2.29,2-.14,1.94,1.91,2.37-3.36,8.37-5.54,11-6.31,1.37-2.89-5.2.42-6.23,2.06,1-2.46-2-1.5,0-3.5C1093.41,541.84,1090,544.06,1084.88,546.63Zm15.48,1.29c1,0,2.55-1.12,3.2-.48.46-.62.33-1.52,1.34-1.87-.38-.66-1-1-1.35-1.63-1.38.7-2,3.49-3,1.57C1099.86,546,1100.32,547.07,1100.36,547.92Zm5,.35c-1.61.41-1.76,1.5-2.95,2.11C1103.39,550.6,1106,550.49,1105.33,548.27Zm2.26.61c1.07-1.4.77-1.63,2.44-1.8-.33-1.71-2.41-.11-3.35-.67C1105.14,548.07,1107.94,547.19,1107.59,548.88Zm-934.53,134c1.85.42,3.5-.64,5.16-1.81-1.28-.41-.57-1.5-1.58-2C176.47,682.71,174.37,681.05,173.06,682.89Zm30-105.37a1,1,0,0,0-.5,0A.4.4,0,0,0,203.08,577.52ZM180.5,578c2.32.07,2.08-1.34,3-2.27.29-.9-.61-.16-1.16-.87C182.52,576.32,181.25,575.94,180.5,578Zm71.31-47.14c.56.4,1.11.81.78,1.46.61.27,1.15-1,1.71-1.73-1-.37-1.9,0-2.86-.06C251.13,531.17,251.63,531.13,251.81,530.85ZM72.47,759.28c1.36.85,2.38.4,3.13-1.09C74.6,758.73,73.13,757.49,72.47,759.28ZM77.31,753c-1.13,0-2.61-1.27-3.14,1.12C75.07,753.21,76.62,754.79,77.31,753Zm7.19,1.66c-.49,1,0,1.44-.54,2.43,1.31.37,1-.91,2.48-2.09C85.66,754.32,85.15,754.81,84.5,754.68ZM124.33,776c-1.33-1.06-2.4-.61-3.19,1.34.52.35,1,.7,1.57,1C123.08,776.62,123.89,777.34,124.33,776ZM80.5,750.59c0,.63.08,1.26-.49,1.11-.22,1.39,2.35,1.52,2.65,0C82.29,750.24,81.74,751.63,80.5,750.59Zm46.24,23.51-1,2.11c1.21-.56,1.51.82,2.34,1.61A3.78,3.78,0,0,0,126.74,774.1Zm-24.27-21.7c-.11,1.6,2.35,1,2.68-1.18C103.88,749.78,103.65,753.43,102.47,752.4Zm45.33,16.21c-1,.25-1.89,1.13-3.1-.14.35,2.2-.37,1.51-1.6,3.11a2.34,2.34,0,0,0-.89-1.37c-.73,1.27-1.57,1.63-2.58,1a6.52,6.52,0,0,0-1.17,3.43c.51,0,1.3-1,1,0,.78.68,1.09-1.74,1.68-2.36.73,1.31,1.91,1.54,3.32,1.73C144,770.81,146.22,770.27,147.8,768.61Zm-38.31-17.52c.29-1.35-2.16-1.34-2.43.59l1.65,1C108.64,752.09,108.78,750.83,109.49,751.09ZM109,738.93c1.11,0,2-.83,2.86-2.49C110.75,736.6,108.68,736.92,109,738.93Zm60.17,33.16c-.84.43-1.74.41-2.49,1.7C167.78,774.71,169.37,773.77,169.18,772.09ZM119.4,735.42c1.18-.24,2.66,1.32,3.44-1.35C121.61,734,120.37,733.92,119.4,735.42Zm39.2,12.86c1.54.23,1.13-1.55,2.78-3a1.74,1.74,0,0,1-1.43-.36C159.77,747.73,157.81,746.14,158.6,748.28ZM127,723.1c-.76,2.21,2.13,1.77,3.25,2.12C130.45,723.75,128,724.7,127,723.1Zm15.77.41c1.13-.59,2.37-.29,3.35-2.08-1.46-.11-2.84.46-4.36-.08C140.64,722.59,143.82,722.27,142.74,723.51Zm43.45,32.56c-.18,2.66,2-.18,2.73,0C189.15,753.9,186.9,756.15,186.19,756.07Zm1.6-9.32c-.92-1.33-1.49,1.38-2.46-.51a3.17,3.17,0,0,0,.29,3.27C186.36,747.17,188,748.79,187.79,746.75Zm24.77,17.51c-1.24.09-2.5-.32-3.68.64C210.16,765.53,211.42,765.94,212.56,764.26ZM132,701.65c-.4.71-.8,1.43-1.21,2.14.92,1.2,1.5,0,2.37.82C134.3,703.06,133.26,702.33,132,701.65Zm9.73,8.69c1.16,1.36,2,.56,3,.58C145,709.52,142.24,708.19,141.75,710.34Zm-2.89-10.79c-1.49,1.4,1.09,1.29-.4,2.69.3.33.51,0,.72-.26,3.11,1,5.69-2.12,8.73-1.49,1.41-1.89.24-2.89.94-4.54-1.75-.64-1.1,1.83-2.35,2.08-1.47-.58-.68-1.88-2-1.4.23,2.23-1.89,2.39-2.85,4C140.59,699.43,139.82,700.2,138.86,699.55Zm66.9,44c.56-2.35-1.26.72-1.77-.75-1.3,1.35-.38,2.07-.82,3.18a8.45,8.45,0,0,0,2.81.88c.83-1.59-.93-1.88-1.82-1.59C203.42,744.93,205.34,743.36,205.76,743.51ZM107.59,676c1.4.38,2.94,1.74,3.88-.7C110.15,675.39,108.69,674.57,107.59,676Zm1.86-3.3c-1.23-1.84-1.72.91-2.69.65C106.42,675,109,674,109.45,672.72Zm3.76-1.5c-.69-.13-1.24.58-1.94.35a2.75,2.75,0,0,0,1.25,2.9C113.37,673.14,112.8,672.38,113.21,671.22Zm98.78,73c.74-3-2.68-1.6-3.84-1C208.22,745.84,210.88,743.28,212,744.27ZM94.12,654.39c1.26,0,2.81-1.93,4.6-5C97.17,651,95.43,651.5,94.12,654.39Zm127,87.75c-.07-1.36-1.89-2.63-2.8-.93C218.39,742.48,220.24,744.32,221.13,742.14Zm-81.29-67.93c-.83,2.6-2.07,1.94-3.06,3.25C138.19,678.59,142.17,675.73,139.84,674.21ZM165,694.67c.48,2.11,3.75,1.06,5-1.6-.78-.32-.49-1-.15-1.64C167.94,690,166.74,695.37,165,694.67Zm-48-36c1.81,1.35,3.32.65,4.68-1C120.17,658.71,118.26,656.58,116.94,658.68Zm111.42,83.61c2.06-2.46,4.31-.45,6.39-3-3.18,1.1-5-3.26-7.11,2.33C228.16,741.61,228.67,741.61,228.36,742.29Zm7.07-3.16c-.73,1.72,1.08.22,1.44,1.31-.77-2.37,1.18-.49,2.3-2.69-.88-2-1.52,2.18-2.41.19C236.33,738.69,235.9,739.43,235.43,739.13Zm4.14-.22c2.22.09,2.84,3.22,4.52.92-2.18-.84.46-2.92-1.54-3.8C242.63,739,240.57,737.1,239.57,738.91Zm-84.89-87.19c-1.29,1.78-1.9,1.62-2.33,3.76C154.14,655.34,156.45,653.23,154.68,651.72Zm96.51,84.19c1.43,1.55,2.75-.4,4.15-.19.73.79-.06,2-.94,3.16,2.45.52,2.16-3.6,5.42-3.87-.75-1.6-.78-.79-2.14-2-1.46,2,.55.37,1.1,1.82C256.27,735.66,253.65,733.65,251.19,735.91Zm-61.34-69.26c.56-1.15.1-2,.16-3-.63-.25-1.16,1.05-1.72,1.78C189.62,665.17,188.76,665.87,189.85,666.65Zm9-47.19c1.24-1.2-2.11-1.07-.88-2.26-.65-.25-1.2,1-1.8,1.78C197.08,619.82,197.92,619.11,198.82,619.46Zm-19.34-19.9c-1.46.87-4.35,1.21-4.49,3.07C176.59,603.18,178.05,601.76,179.48,599.56Zm32.13,3.69c-.9-.39-1.68,1.76-2.64.3-.51,3.12-2.74,1.35-4.34,3.72,1.68.91,3.22-1.13,4.94.74.62-1.15-.34-1.86-.51-2.8C210.05,604.15,211.74,605.21,211.61,603.25Zm14.31-19c-1.24.71-2.51.3-3.7,1.82C223.52,587,224.74,586.29,225.92,584.24ZM67.67,755.68c-1.59-1.6-2.21.37-3.13,1.22-3.18-2.26-6,1.47-7.63.57-1,2.41,2.56,1.88,3.14,1.38-.83,2.47-3,.27-3.83,2.9-.77-.61.53-2.31-1.12-2.45-.35,1-1,.93-1.36,2,2.81-1.24.94,7.3,2.26,1,3-1.23,5.73-3.48,9.18-3.12.83-2.35,1.45-2,2.45-.86.14-.65-.72-.78-.41-1.52,1-1.46.8,1.23,2.19,1-.21-2,.53-2.14,1.47-5.95C69.45,751.78,68.67,754.17,67.67,755.68ZM92.45,757c.15,3.56-2.25,2.17-3.46,4.15,2,.14,3.68-1,5.32-2.43C92.92,758.46,93.57,757.31,92.45,757Zm1110.29-51.64c-4.09,4.61-11.57,4.53-18.09,3.3,1-1.84,1.89-.48,2.78-1.76-.94-2.53-4.12.06-5.64-2.54-5.32,5.94-11.77-3.32-16.39-2-1-2.63-3.25-4-5.67-4.75a19.72,19.72,0,0,0-6.47-.75c.61.86,4.36.43,2.44,2.85-3.22-.52-4.62-3-8-1.78-1.73-2.15-6.06-4.48-8-2.11-1.55-1,.84-.75.33-2.48-2-.51-5.69,1.84-6.26-.82,1.28-.85,2.27,2.11,2.83.21-1.38-1.19-3.6-3.89-4.51-.22a12.48,12.48,0,0,0-5.44-3.68,63,63,0,0,0-6.48-1.93c-2.6,2.9-8,3.88-10.81,3.15a29.58,29.58,0,0,0-1.42,4.88,4.84,4.84,0,0,1,2.21.15,3.17,3.17,0,0,0,.42-.2,2.88,2.88,0,0,1,1.82-3.11,15.41,15.41,0,0,0,3.17,2.18,3.18,3.18,0,0,0,.49-1c.12,1.25,1.27.81,1.68,1.57a6.2,6.2,0,0,0,1.14,0c.25,1-.45,1.49-.27,2.48,1.8-1.86,1.54.18,3.34-.13.07-.49-.12-1.13.4-1.34a2.73,2.73,0,0,0,.8,2c-1.37.43-4.15.49-5.54,1.71a17.06,17.06,0,0,0,8.13.57c-.34,1.77.83,1.22.69,2.68a8.33,8.33,0,0,1-2.88.79,1,1,0,0,0-.22,1.26c1.29,1.42,4.05.51,4.66,3h0a5.31,5.31,0,0,1,.36,1.2c3.68.31,9.35.42,9.21,4.48a1.18,1.18,0,0,1,2.11,0c-1.38.24-2.26.89-2.09,2.37.9.3,1.36,1.21,1.06,3.17,1.32-.32,1.66.63,2.11-1.2-.62.09-1.49.54-1.58-.12,1.86-2.17,3.29.16,5.83-1.09-2.6,5.19,1.45,7.38,2.54,10.8-1.82,1.5-.85,4-.68,5.86-3.94,4.76-10.82,5.44-16.76,5,1-1.84,1.75-.64,2.61-1.94-.77-2.29-3.78.48-5.09-1.81-2.54,3.06-5.14,2.46-7.63,1.3-1.21-.48-2.39-1.07-3.53-1.49,0,1.11-.35,3,.61,2.63,2.21-2.5,2.34,2.61,5.34.86-.21,2.12,1.29,1.06,2.18,2.69-1.51.68-1.63-.73-3.14,0-.11,1.39-.93,2.72.1,3.42-5.37,2.13-10.36,2.57-16,3.35-1.68.24-4.52.75-7.24,1s-5.43.27-6.75-.7a18.68,18.68,0,0,1-10.52,1.29,3.14,3.14,0,0,0,3.08,1.81c-.33,3.53,1.91,2.86,2,5.61a33.76,33.76,0,0,1-11.23-1.4c-3.5-.8-7-1.57-11.56-.42-1.16-2.4-4.19-1.5-7.32-.3-.56-2.93-4.32-3.2-7.2.26,2.1-.37,5.33-2.78,6.2-.8-3.56.79-7.82,3.07-9.57.54-.43,2.14-2.79,2.11-3.71,1.7,1.37-1.22,4-1.73,4.54-3.3-2.45-.15-5,4-7.85,4.27-.2-.92.4-1.47.25-2.37-1.19,0-4.33,1.08-2.55-1.16-.45.28-.58-.09-1,.05-.61,1.36-2.35,2.22-3,3.58.16.53.58.49,1,.47,1.1-.49.88-1.59,2.21-2-.52,2.51,2-1.06,2,.41-2,2.17-1.55.53-3.67,1.78-.75,1.47-.2,3,.75,2.84-1.36,1-3.08,1.89-3,3.57,2.64-2.13,8.55-7,7.87-2.82,1-.15,2.11-.47,2.86-.1a6.89,6.89,0,0,1,.79-2.13c.24,1.14.63,2,1.55,1.84a34.62,34.62,0,0,1,13.66-.17c1.06.19,2.11.36,3.09.64s1.94.58,2.87.88l5.24,1.76c-3.8,2.18-4.51,1.93-7,3.11a16.75,16.75,0,0,0,5.19,1.61c.29.8-.53,3.44.5,3,2.07-2.63,1.93,2.32,4.72.25-.26,2,1.15.8,1.88,2.26-1.36.79-1.45-.48-2.83.35-.15,1.32-.93,2.66,0,3.19-5,2.76-9.34,3.59-14.37,4.92-3,.81-10,3.06-12.26,1.64-5.4,3.35-10.88,2.48-14.91,1.72-4.56,2.47-8.18,1.92-12.19,1.71a3.19,3.19,0,0,0,.78-1.62c-1.74,1.06-4-.58-4.8,2.22l-.24-3.11a26.28,26.28,0,0,0-7.79,2.29,32.89,32.89,0,0,0-8.33,5.63c-1.32-1.15-3-.93-4.75,2a10.31,10.31,0,0,0-2.15-3.39,8.25,8.25,0,0,0-3-1.86,9.29,9.29,0,0,0-6.92.36c.19.9,1.42-.76,1.46.5-1.35,2-1.92,1.45-3.15,3.64-.78-.1-1.15-1.23-2.68.48-.17-1.85-.72-2.77-1.74-2.51-.19,1.52-1.44,2.67-2.61,3.83-3.68-5.31-9.29-6.13-16.31-2.65-.2-3.45-3.39,1.24-4.61.57-1.27,4.86-5.92,1.47-6.1,7.15-2.23-3.67-6.38-3.24-10.49-2.2s-8.32,2.86-10.58,1.59c-2.39,2.56-6.69,3.94-8.85,3-5.4,3.77-9.43,3.32-13.45,2.75a24.86,24.86,0,0,1-5.11,2.54,26.08,26.08,0,0,0-4.82,2.34c-.48-.61.55-3.07-.69-2.36-1.12,3.81-4.53,3.46-6.33,3.82.56-.65,1.47-1.23,1.4-2-3.89,3.52-9.25,4.42-11.87,2,1-.53,6.33-4.54,5-.09,1.73-.62,3.94-2.94,5.78-3.91-.18-1-.74-.61-.95-1.5,1.38-1.55,3.09.71,3.89-2-1.9.6-4.59-.41-6.47,3.35-2.79-5.28-10.47,3.24-14.32-.47-1.48,1.85-2.56.27-2.67,2.7,0-1.92-1-.53-1.37-1.1.42-.52,1.1-1,1-1.62-2.57,2.34-3.91.07-6.44,2.16.29.43,2.35.2.63,1.85-1.17-2.81-2,.38-2.72-.37,1.65-1.39-.49-.83-.4-2.71-2.47,1.35-3.73.71-5.79,2.74,1.13.8-.65,3.7.1,1.78l-.8-2.32c-3.72,1.31-7.23,2-11.13,3.82,1.09-1.28,2.55-.11,2.31-2.36-1.67-.21-3.83.94-5.07,2,.45-.53.87-1.07.44-1.7-1.34,1.91-1.77.26-2.81,1,0,.45.32.93-.05,1.32-1.12-2-2,1.44-2.8,1a2.33,2.33,0,0,0,.26-2.17c-3.6-.22-6.67-1.13-10,1.4-.62-1-1.12-3-2.62.13-.42-.78,0-1.45-.31-2.24-1.33,1.9-4.55,2.37-5.81.2l-1.54,1.58c-9.44-4.85-21.58.33-31.66-2.3-2.63,1.58-4.67.83-6.83.55-.52.52-1,1.06-1.55,1.58-1.34-1.67-4.15-.92-5.31.28.38-2.7-1.24.12-2.47.59-5.7-2.76-13,1.24-19-.32l-1.16,1.19c-47,.86-93.63,7.37-139.59,6.38a1.45,1.45,0,0,1-2.23,1.12c.56-.87,1.23-.37,1.11-1.21-1.51-1.59-1.38,1.32-2.61,1.52l-.74-1.8c-6.59,1.39-11,1-17.51,2.28.35-.54.58-1.71,0-1.3l-1.49,1.64c-11.44-1.26-23.74,1.48-35.15.43-5.49,1.14-10.92,2-15.8.06-2.29,2.08-3.56-1-5.91,1.42-2.67-2.69-6.67,1.41-9.32-1.28-7.79,3.16-14.29-.6-22,2.3l-.81-1.74c-6,2.45-12.2-1.42-17.39,1.65-1.44-2.94-4.66,1.37-5.27-1.78l-1.41,1.7c-1.36-2.17-3.45-.52-5.77-.49-4.29,0-10.69-2.41-12.62.28a93.07,93.07,0,0,0-14.76-.24,68.85,68.85,0,0,1-14.66-.53c-.35.43-.24.85-.48,1.29-5.48-1.11-10.95-2.62-17-.23l-1.31-2.54c-2.62,1.93-4.6,1-6.15.15-.44.58.08,1.13-.23,1.71-1.34.4-2.22-2.7-3.67-1.56-5.49,2-10.59,1.12-15.66-.13a.69.69,0,0,0-.44-.1l.44.1c.37.28-.19,1.12-.43,2-6.18-2.43-12.86-1.22-19.37-.89-.7-.8.09-1.7-.83-2.49-1.53,2.8-2.49.72-4,3.24-1.41-3.08-3.48-.35-5-2.64-2.81,2.64-7.44.42-11,1.15.07-3.94-5.46,1-7.37-1.63-1.05.92-.17,1.7-.81,2.6-.79-.43-1.61-2.68-3.36.21a6.83,6.83,0,0,0-4.32-1.58,25.07,25.07,0,0,0-4.5.61c-1.16-1.16,1.53-2.69.06-3.81-3.32,2.69-5.75,4.08-9.29,4.28.14-1.84,1.26-.83,2.15-2.32-1-.89.4-2-.59-2.9-1.64,1.93-3.85,3.36-4.9,1.74.52-.25,2.38.1,2.08-1.47-1.77.09-3.52-.2-5.45,1.8-.73-.77,0-1.7-.93-2.44-1.56,1.08-2.51-.2-3.58,2.88-2.13-2.68-4.68.15-7,.24-.92,1.08,1.7,1.82.06,3-1.61-.72.27-3.9-1.44-3.23,0,1.29-1.07,4.33-2.13,2.32.42-.75,1.24-1.53,1-2.21a18,18,0,0,0-5.72-.39,26.47,26.47,0,0,0-4,.8,1.71,1.71,0,0,0-.05-.59c-2.23-.5-7-1.55-7.64,1.42-.41-.9-.92-.14-1.38-.24.46-.76,1.09-1.54.4-2.16-.88,2.32-1.47-.34-2.35,2,.53.33,1.1.28,1.64.62-1.93,2.61-1.66-3.41-3.6-.8-.74-1.84-1.69.16-2.47-.94.34-1.58,1.82-.73,1.22-1.84a8.61,8.61,0,0,0-7.41,1.8,6.44,6.44,0,0,0,.39-2.15c-.7.82-1.31-.14-2,.68-.37.75-.08,1.41-.38,2.15a2.83,2.83,0,0,0-3.06-.86c.42.32,0,2.66-.64,1.76.93-3.8-2.11-.13-3-1.71-.27-.94,1.46-2.15,1-3.07-1.34,2.64-2.48.93-3.74,1.75,1.13,1.81-1.77,2.43-2.34,2a3,3,0,0,0,1-3.91c-.58.46-1.25,2.81-1.77,1.92,1.15-4.38-4.37-2.51-6.12-2.34a1.24,1.24,0,0,1-.06,1.69c-1.14-2-.67.17-1.71.28L227,819.72c1.4-1.35.39-2.31.68-3.47,1.92.7,2.07,1.32,4-.67,1.35,2.88,1.4.31,3.3,2.82-.51-1.37,1.09-2.89,2.07-2.43-.41.75-1.21,1.58-.94,2.24.61-.88.53,2.28,1.67.61.46-1.6-.05-3.08,1-4.75.93,1.41-1.59,3.28.1,4.6,1.64-3.1,2.92,2.22,4.59-1.44-.51-1.19-1.62-2.31-.69-3.69.88,2,1.13,1.72,1,4.08,3-3.79,5.74-1.74,8.58-2a1.29,1.29,0,0,1,.34-1.31c-.52-.76-1.16.77-1.66-.61,1.71-2.15,1.82,2.15,3,1.7.18-1.42.33-2.6,1.54-2.31-1.88,2.11.42,1.25,1,3.25,2-2.24,7.92,0,9.3-4.58,1.17.69.14,1.66.41,2.47,2-.5,3.91.69,6-1.2-.78.94-1.1,1.83-.73,2.62.79-.47,1.51-.09,2.39-2-.33-.66-1.06-1.27-.72-2,.7.77,1.56-.89,2.21.54q-1.64,1.9-.22,3.4c2.53-3.67,5.15,2.59,6.94-2.41.74.06,1,.47,1,1.58.56-2.08,2.23-.37,1.82-1.86-.34-.4-1.13-.1-.76-1.19,1.7,0,3.25,1.84,4.93,2.06-.33-.53.32-1.17.13-1.71-.41-.85-.92-.37-1.33-1.14,4-2.71,7.33,2.42,11.44-2,1.32,1.41-.84.58-.14,1.69,2.24,1.28,4.72-.3,7,.59,2.75-4.19,5.84,3.23,7.76-2,.42,3.12,3.06-1.19,4.3,2.15,1.46-2.61,2.55-1.19,3.81-1.53-.26,3.22,4.15,2.12,5.75-1.23,1.13.77.07,1.69.31,2.52,1-1.37,1.52,1.62,2.51.26-.19-1.12.8-3.34,1.62-2.23-.34.87-2,1.83-1.39,2.63,1.08,1.37,2.67-2.26,3.9-2.37-.4,1.64.09,1.67.87,2.48,1.66-2.44,3-1.62,4.65-4.13-.72-.08-.94-.51-.39-1.66.26.21.48.78.8.37.32-.88-.86-1.64-.29-2.53,2.4,2,2.5-1.49,4.92,1.37-.75,1.08-3.18-.49-1.65,2.23-.87,1.77-2.71-.65-2.68,1.45.9.35,2-.93,2.64,1.52,1.2-2.39,1.88-.09,3-1.9-.4-1.44-1.13.07-1.61-.75,1.05-.91.15-1.7.28-2.55,1-1.57,1.88-1.67,2.6-.6-.46.73-1.3,1.5-1.08,2.19.44-.58.71.31,1.13-.08,1.19-1.06,0-2,1.18-3,2.55,2,6.73-1.69,8,3.7.46-.43,2.19,0,1.89-1.78-.26-1.29-2.28.7-1.49-1.65,1.43,1.2,6.32-1.55,4.69,3.22.33.37.73.16,1.13-.05,1.2-1,0-2,1.2-3,4.53.06,10.31,1.56,14.16-.56,4.77,2.35,10.05.61,15,1.11-.09-.42-.43-.83-.1-1.26,2.94,3.72,9.69.52,14.1,1.83.44-.71.21-1.43.59-2.14,3,1.46,6.35.25,9.34,1.58a1.3,1.3,0,0,1,.26-1.71c1.25,2.49,3.51,3.36,4.73.37,3.08,3.27,7.37-1.56,10.46,1.57.1-2.08,2.9-1.27,1.55.83-.22-1.77-2.39,0-2.17,1.32,1.44.68.66,1.72,1.15,3.41,2.66-1.14,2.56-4.8,2.63-6,2.49.86,5.32-.31,8-.81.48.72.08,1.43.5,2.15,7.48-4.31,14.94.53,21.27-2.35,1.12,1.4,1.5.93,2.16,2.17.44-.58.23-1.15.86-1.71,10.78,1.16,20.92-1.07,31.3.37,1.08-2.18,3.7-1,4.9,1,2.28-3.07,3.44-.22,5.23-.69,1.19-2,8.79-1.23,12.29-2.13a2.25,2.25,0,0,0-.12,2.15c3.34-3.45,5.31,1,7.24-2.22a3.68,3.68,0,0,1,.43,2.18c.73,0,1.6-1,1.82-2.07,1.27,1.46,1.75-1.43,1.35,1.8,2.23-1.19,3.9.39,6.33-1.84-.42.55-.8,1.11-.34,1.71,1.78-1.31,2.88.74,4.85-1.49-.74.36.32,2.76.77,1.77,1.43-.79-.35-1.74,1.08-2.54,1.82,2.27,4.11,2.17,6.75.34.76,2.29,3.17-.57,5.79-.57,1.57,0,4.3,2.73,5.44-.08,6,3.6,12.14-1.73,18,1.2-.16-.58-.61-1.19-.2-1.74,1,.2.21.6.76,1.78,3.95-3.31,10.38,0,15.92-2.41a1.16,1.16,0,0,0,0,1.3c3.73-2.32,6.68-.87,9.75-.1,4.49-2.14,9.62-3.32,11.81,1,1-1.08.23-2.3,1.33-3.38.62,2.33,2.48-.82,3.38.27-.58.89-1.24.38-1.13,1.22,1.21-.47,1.54-.23,2.44-2,6.64,2.78,15-2.34,21.6,1,.65-1,1.57-1.91,1-3-48.65.62-97.09,2.14-145,2.87s-95.4.59-142.77-1.71c-3.68-.08-8.76.9-10.94-.61-2.2,2.07-4,.71-6.21,2.54-.52-.36-.85-2.63-1.52-1.59-.39,2.58-3.36.2-4.23-.14-2.11-.85-5.29,2.69-5.7.38.88-.28,1.81-1,2.61-.6-1.51-4.63-6.9,3.48-9-1.09-3.65,4.29-8.92-2-10.76,2.92-.47-1.14-1.13,0-1.56-1.53-.76,2.15-3.94,2.3-3.6-.91-2.69.45-5.59,3.46-8.08,1.63-.24-1,1.55-2.12,1.11-3.06-.51.62-2.17,1.55-1.36,2.66-3.27,1.88-6.12-1.53-9.47,1.36.28-1.9-1.77-1.62-2,.62-.6-.65-.07-1.4-.13-2.1-1.49.92-3.3-1.21-4.13,2.09a21.56,21.56,0,0,0-3.38-.51c-.71-2.18-2.82-2-5.16-1.71s-4.92.76-6.61-1.13c-4,4.43-7.26-2.61-11.28,2.73-.55-2.12-1.36.53-2-1,2.35-2.46,5.14-1.24,8.16-2.75a15.91,15.91,0,0,0,.46-3c-.83-.43-1.7-.22-2.67,1.62-1.42-1.08,2-2.79-.07-3.78-.06,2.1-3.18.72-2.5,3.7-1.42-1.58-2.65,1.32-3.41-.4.67,2.24-.54,2.12-.81,4.32-1.71-2.11-3.05-.48-4.34,1-1-.71.08-1.69-.44-2.46-1.87,1-5.22,1.27-6-.47,1.41.68,2.93-1.24,4.36-1-.87-1.15.2-2.55-1.26-3.62-.07,1.8-1,1.12-1.86,2.77.67-3.35-6-4.48-7.42-1.55-1.26-.68.79-1.79-.47-2.46-.31.46-.59.24-.89.54-.4,2-1.13,3.06.1,4.61-.84-.57-1.72-.17-2.58-.07.35,1.72,2.21.69,1.63,2.29-1-2-2.17,1.47-3.13-.78.66-2.16,1.74-1.8,1.86-3.67-1-1.12-2.14,1-3.17.11.76-1.25-.63-2.13.13-3.38.82-.35,2.95-1.83,2.15-3.3-.76-.41-1.65,2.72-2.39,2.07,1.16-2.06-2-1.73-.46-3.27a1.87,1.87,0,0,0-1.57,3.2c.74-2.75.47.63,1.11,1.49.3-.28.61-.92.88-.56-.63.8-.36,1.45-.94,2.26-1.35.22-.32-2.09-1.63-3.1-.5.52-1,.37-1.49,1.52.22,1.14,1.84-.17,1.1,1.49-2-.71-4.08,1.32-6.06-.25,2.42-1.4,3.31-3,5.93-4.35-.27-.37-.08-.83-.25-1.21-2.44.81-4.92,3-7.35,3.31-.64-.59-.14-1.37-.23-2.06-.3.48-.58.27-.89.58-.39.62.22,1.08,0,1.68-1.06.48-3.09,1.43-3.18-.73-1.87,1.14-5.35,6.05-6.17,3.13.6-.27,2.34-2.38,5-4.62-2-.19-4.15,3.29-6.14,1.44,1.26,1.19-.64,2.9-.09,4.22-.47-.55-1,.9-1.45-.18a4.09,4.09,0,0,0,1-4.78c-1.51,2.82-2.06,1.34-2.91-.36-3.62,3.91-5.54,1.27-8.8,3.15.27-3,3.4-1.4,3.57-4.79-2.14-.83-4.33,3.3-6.44-.6-1.78,2-3.53,1.6-5.29,1.89-.71,1.13-.37,2-1.48,3.25-.39-.35-.78-1.11-1.17-.61.85.92.55,2-.3,2.16-1.46-1.74.58-2.59,1.48-4.07-1.88.41.78-1.57-.58-2.41-.55,2.15-2,3.21-2.06.85,1.64-1.21,2-2.92,3.54-2.4-.29-.36-.11-.82-.29-1.2-.85-1-2.36,1.85-2.35-.37,2.08-1.48,4.12.23,6.19-1.68.24-.89-1.07-1.46-.56-2.4.77,1.37,1.57-.68,2.34,1.21-.31.6-.9,1.29-.61,1.79,1.15-.12,3.88-1.91,3.28-3.5.67,1.47,1.37.28,2,1.75-1,2.23-2-.89-3,1.34,1.88,1.13,2.32.2,3.78,3.14a2.41,2.41,0,0,1,1.19-1c-.07-1.51-.39-.43-1.16-1.48a2.28,2.28,0,0,0,.33-2.15c1-1.78,2-.61,3-2.18-.43-2-2.84.47-1.45-1.86,1.58,0,4.72-.54,5.29.8-.67-.75-1.38.39-2.09,1.6,2.07,2,5.3-1.26,6.45.6a1.36,1.36,0,0,0-.25-2c1-2.08,2-1.89,3-2.18,2.07,2.9,5.19.68,8.54-1-.38,1.06-2.11.86-1.54,2.36,1.13,1.59,2.4-1.94,3.56-1.44,0,.84-1.05,1.86-.08,2.53l1.23-1.88c1.87,2.49,4-3.37,6-3.52,1.42,2.71,4.93.23,4.78-2.47-.44,0-2.39,2.59-1.77.28,1.17.68-.51-1.52.37-2.16,1,.78,1.91,1.29,2.85,2.12-1.37,2.55-1.19,2.12-2.77,3.33,2.63,1.28,5.88.37,7.1-1.81-.49,1,1.44,1.9,2,1.85.43-3.22,2.58.26,3.83-.93,0-.75,1.43-3.77,2.21-3.24-.19,1.29-.67,2.61.11,3.77,1.88-2.77,2,2.1,4.15-1.39-1.2.14-.41-1-.19-2.08,1.51.25,4.35-.83,2.53,1.77,1.83-1.76,4.94-3.62,7.42-2.24l1.28-1.86c1.56.78-1.3,2.14-.48,3,2.48-.86,3.62-3.11,6.29-2.93-.58-1.53-1.39.52-2-1,1.44.35,4.6-2.37,5-.23-.4-.49-2.29.31-1.81,1.08,1.36-.16,2.65.82,4.16-1.4-.75-.26-1.9.37-1.06-1.54,1,.49,2.3-.88,1.64,1.47.66-2.9,1.53-1.24,2.79-2.4-.72-.78-1.5-.77-2.17-2.31-.67,1.27-1.19.29-1.89,1.93-1.79-5.31-6.68,2.31-9.52-1.68-1.88,2.14-3.43-1.39-5.36,1.55-3.09-.49-6.21-.83-9.4.4.16-1-.51-1.89-.14-2.92-.8.24-1.52-1-2.37.32-1.18-1.25-.67-2.72-1-4.08-.85,1.24-1.92,2.5-1.94,3.62a3.21,3.21,0,0,1-2.76-2l-.22.12c-.54,1.19-.69,1.83-1.73,1.65a3.19,3.19,0,0,1,.3-1c-.36.16-.73.3-1.1.43a.79.79,0,0,1-.07.22.65.65,0,0,0-.12-.15l-1,.31c-.2.17-.4.27-.59.15l-.66.18a1.29,1.29,0,0,1,.91-1.47,5.51,5.51,0,0,1,.94-1.48,1,1,0,0,1,.28.47,1.13,1.13,0,0,0,.15-.21c-.83-.4-.55-1.08-.54-1.69-.67.88-1.29.63-2,1.29a3.93,3.93,0,0,1-1,3.92c-1-1.32.85-1.15-.18-2.92-1.89,2-2.74-.46-5,.39a13.22,13.22,0,0,0,1.59-2.17,7.44,7.44,0,0,0-1.93.85,1.56,1.56,0,0,1,.06,1,9,9,0,0,0-1.15-.11,8.21,8.21,0,0,0-.66.66c-1-.57-.19-1.63-1.46-2.12-1.72,1.39-3.05.38-3.9,3.57-2.93-2.07-5.61,1.19-8.37,1.86-.93,1.24,2.28,1.32.5,2.8-2-.31-.23-3.79-2.18-2.74.22,1.22-.64,4.39-2.19,2.72.39-.81,1.25-1.75.86-2.34a31.67,31.67,0,0,0-11.55,2.59,1.43,1.43,0,0,0-.14-.52c-2.72,0-8.54.09-8.84,3.07-.63-.77-1.12.07-1.69.08.44-.82,1.08-1.72.17-2.15-.71,2.42-1.81,0-2.5,2.44.69.19,1.35,0,2,.22-1.89,2.94-2.49-2.89-4.37.07-1.15-1.57-2,.56-3-.29.15-1.59,2-1.14,1.16-2.06a12.58,12.58,0,0,0-8.43,3.53,5.45,5.45,0,0,0,.13-2.14c-.7.95-1.56.18-2.26,1.13-.32.8.13,1.36-.11,2.14a3.75,3.75,0,0,0-3.71,0c.54.2.46,2.52-.47,1.85.48-3.86-2.47.42-3.78-.83-.47-.82,1.35-2.42.65-3.17-1.14,2.86-2.74,1.54-4.08,2.65,1.61,1.42-1.66,2.77-2.4,2.5,1.12-1,1.85-2.71.53-4-.6.58-1,3-1.75,2.27.32-2.2-1.07-2.55-2.78-2.26a41.6,41.6,0,0,0-4.74,1.57c.43.4.81.83.21,1.61-1.66-1.61-.75.33-1.93.71l-1.9-1.44c1.41-1.63.08-2.28.21-3.45,2.36.17,2.64.72,4.55-1.66,2.05,2.38,1.67-.08,4.3,1.83-.82-1.18.82-3,2-2.8-.35.83-1.16,1.8-.74,2.36.58-1,1,2,2.06.15.27-1.64-.56-2.9.45-4.78,1.32,1.09-1.32,3.53.86,4.34,1.41-3.38,3.76,1.32,5.12-2.59-.78-1-2.25-1.76-1.39-3.32,1.36,1.71,1.59,1.33,1.77,3.61,2.89-4.41,6.44-3.14,9.75-4-.23-.35-.19-.78.2-1.33-.73-.59-1.25,1-2.05-.17,1.69-2.47,2.48,1.6,3.83.88,0-1.4,0-2.56,1.45-2.58-1.89,2.47.68,1.09,1.62,2.86,1-1.31,3.35-1.82,5.55-2.54s4.29-1.68,4.77-4c1.5.39.42,1.55.86,2.26,2.31-.93,4.74-.22,6.94-2.5-.78,1.08-1,2-.48,2.67.86-.63,1.78-.43,2.54-2.45-.49-.55-1.44-1-1.15-1.75.95.57,1.74-1.19,2.73,0-1.12,1.44-1,2.54.23,3.29,2.5-4,6.51,1.27,7.93-3.92.89-.12,1.26.21,1.43,1.27.38-2.12,2.6-.9,1.91-2.22-.47-.3-1.36.18-1.08-1,2-.45,4.14,1,6.19.81-.47-.43.22-1.19-.09-1.67-.61-.72-1.15-.14-1.76-.78a7.16,7.16,0,0,1,3.73-1.5l1.05-1.6a4.15,4.15,0,0,1,1,1.48c.52,0,1,0,1.54,0-.6-.18-1.07-.17-.45-.53,1.28,1.07.83-1.84,2.11-.78a9,9,0,0,0,0,1.16,8.38,8.38,0,0,0,1.29-.32c-.17-.46-.52-.89.27-1.52.4.54.82.54,1.23.77a8.6,8.6,0,0,0,1.78-1.6c1.79,1.05-.93.74.07,1.65h0c.83-.53,1.67-.87,1.76-2.47,1.13-.18.32.95,1.41,1.86,1,0,.85-2.66,2.15-1.59a4.18,4.18,0,0,0-.41,1.68,10.19,10.19,0,0,1,3.49-.45,2.87,2.87,0,0,1,.7-.75c2.8-3.07,7.11,2.22,8.59-2.87,1,2.89,3.58-1.74,5.58,1.13,1.4-2.84,2.94-1.74,4.42-2.37.07,1.34,1.05,1.72,2.26,1.45a2.25,2.25,0,0,1,1.1-.42c-.07,0-.11.07-.17.1a7.31,7.31,0,0,0,3.65-3.66c1.51.47.34,1.6.76,2.33,1-1.53,2.12,1.2,3.12-.34-.4-1,.5-3.36,1.68-2.5-.29.91-2.15,2.2-1.32,2.84,1.53,1,2.95-2.78,4.44-3.18-.2,1.38.18,1.56.94,1.92a1.72,1.72,0,0,1,.45-.58c.09.21.17.36.26.54,1.61-2.36,3.29-2.07,4.9-4.73-.9.09-1.24-.27-.74-1.5.35.15.72.64,1.06.17.25-.91-1.32-1.36-.75-2.34,3.28,1.34,2.86-2,6.31.17-.77,1.21-4,.27-1.7,2.51-.8,1.88-3.46,0-3.11,2,1.17.14,2.31-1.33,3.52.85,1.12-2.55,2.33-.52,3.45-2.51-.72-1.28-1.39.33-2.1-.34,1.16-1.11-.08-1.65-.06-2.5,1-1.72,2.07-2,3.13-1.16-.44.8-1.38,1.73-1,2.33.45-.65.93.13,1.39-.33,1.31-1.29-.33-1.88,1-3.17,3.47,1.36,8.09-3.15,10.58,1.68.52-.5,2.75-.54,2.08-2.16-.54-1.15-2.73,1.24-2.13-1.19,2,.78,7.62-3.08,6.38,1.85.48.28.94,0,1.41-.33,1.33-1.29-.32-1.88,1-3.17,5.65-1.09,13.18-1.17,17.59-4.13,4.19.66,8.35-.41,12.48-1.42a1.08,1.08,0,0,1-.17-.25c-.33-.54.37-1.16.18-1.71-3.3-1.42-5.81,1.9-8.89,2.75a17.12,17.12,0,0,0,1-4.31c-1.15.56-2.14-.45-3.43,1.52.74,1,3.13-1.65,2,1.13-1.4.75-2.53-.61-3.93-2.26-2,2.21.89,1.46.26,3.36-3.37-1.72-7.13,1.07-10,2.09.74-1.53,1.2-.13,1.88-1-1.05-.89.43-2-.62-2.9-4,5-7.2.57-10.9,1.95a2.49,2.49,0,0,0,.27-.31l-2.18.35a2.42,2.42,0,0,1-1.44.73,1.49,1.49,0,0,0,.18-.51c-4.55.94-10.54,2.81-13.39,1.92-2.4,2.47-4.88,1.59-7.29,3.84-.71-.22-1.45-2.31-2.13-1.17-.09,2.55-4.12,1-5.23.84-2.72-.32-6.09,3.79-6.94,1.68,1-.47,2.06-1.38,3.11-1.17-2.54-4.07-8,4.9-11.14,1-3.82,5-11.15.25-12.7,5.27-.73-1-1.38.2-2.12-1.14-.6,2.22-4.45,3.06-4.5-.09-3.19,1-6.28,4.52-9.57,3.31-.43-.87,1.58-2.37.91-3.17-.53.71-2.41,1.95-1.26,2.84-3.69,2.52-7.6-.07-11.23,3.45.07-1.88-2.36-1.14-2.36,1.06-.81-.48-.29-1.32-.45-2-1.67,1.22-4.15-.4-4.67,3a31.62,31.62,0,0,0-4.11.33c-2.33-3.81-9.93,2.79-14.49,0-4.07,5.15-9.07-.85-13,5.21-1-1.88-1.54.84-2.46-.47,2.41-3,5.91-2.44,9.3-4.56a11.94,11.94,0,0,0,.1-3c-1-.23-2.07.17-2.95,2.15-1.86-.7,1.93-3.11-.64-3.59.23,2-3.7,1.42-2.44,4.1-1.92-1.15-2.94,1.92-4.11.47,1.14,2-.31,2.15-.3,4.31-2.35-1.58-3.7.3-5,2-1.24-.45-.17-1.63-.91-2.24-2.06,1.45-6,2.51-7.18,1.08,1.75.26,3.26-1.94,5-2.07-1.21-.87-.15-2.47-2.06-3.12.2,1.73-1.05,1.3-1.77,3.11.27-3.38-7.85-2.61-9,.54-1.6-.3.64-1.91-1-2.21-.29.53-.66.39-1,.75-.16,2-.85,3.21.86,4.35-1.09-.32-2.06.32-3.07.62.71,1.56,2.73.07,2.3,1.75-1.47-1.61-2.32,1.94-3.83,0,.43-2.21,1.78-2.12,1.62-3.93-1.39-.82-2.4,1.46-3.75.89.7-1.38-1.1-1.85-.4-3.23.91-.57,3.2-2.47,2-3.67-1-.21-1.51,3-2.5,2.58,1-2.27-2.61-1.12-1.09-3-1.36.15-3.61,2-1.32,3.44.41-2.79.66.47,1.56,1.12.3-.35.57-1,1-.77-.62.93-.19,1.48-.74,2.39-1.56.57-.73-1.89-2.44-2.5-.51.63-1.1.61-1.52,1.83.46,1,2.15-.64,1.55,1.12-2.48-.14-4.6,2.33-7.21,1.37,2.63-2,3.41-3.74,6.29-5.69-.39-.27-.23-.75-.5-1.07-2.76,1.42-5.34,4.11-8.16,5.09-.86-.39-.41-1.26-.63-1.88-.27.52-.65.4-1,.77-.36.7.45,1,.24,1.61-1.16.75-3.38,2.25-3.87.24-2,1.63-5.23,7.26-6.72,4.76.67-.43,2.33-2.93,5.13-5.84-2.43.43-4.3,4.32-7,3.18,1.7.74-.23,2.91.66,4-.66-.38-1,1.14-1.74.26a3.47,3.47,0,0,0,.27-4.77c-1.27,3.1-2.2,1.86-3.51.53-3.52,4.85-6.26,3-9.74,5.82-.27-2.9,3.73-2.42,3.28-5.64-2.69-.07-4.46,4.5-7.72,1.56-1.73,2.35-3.86,2.61-5.88,3.46-.61,1.28,0,2-1.09,3.5-.53-.2-1.14-.77-1.5-.18,1.19.57,1,1.65.09,2.1-2.08-1.13.14-2.59.91-4.26-2.14,1,.6-1.72-1.18-2.05-.21,2.18-1.67,3.63-2.26,1.47,1.68-1.66,1.82-3.39,3.7-3.4-.42-.24-.29-.73-.59-1-1.22-.67-2.42,2.5-2.86.44,2.16-2.07,4.94-1.16,7-3.62.1-.91-1.57-1-1.15-2,1.19,1,1.74-1.13,3,.39-.24.66-.82,1.47-.37,1.85,1.35-.46,4.23-3.05,3.21-4.33,1.09,1.15,1.69-.2,2.76,1-.76,2.42-2.49-.18-3.25,2.23,2.45.44,2.79-.58,5.08,1.69a3.11,3.11,0,0,1,1.21-1.36c-.38-1.4-.55-.27-1.65-1a1.86,1.86,0,0,0,0-2.12c.85-2,2.21-1.22,3.11-3-.88-1.74-3.28,1.38-2.07-1.25,1.87-.58,5.5-2.1,6.43-1-.94-.5-1.57.81-2.18,2.18,2.82,1.18,6.09-2.81,7.78-1.42.55-.92.25-1.51-.66-1.85.84-2.27,2-2.39,3.17-3,3,2.14,6.29-1,10-3.44-.28,1.1-2.38,1.38-1.44,2.64,1.62,1.2,2.54-2.48,4-2.32.16.79-.94,2,.33,2.41l1.15-2.1c2.65,1.84,4.24-4.28,6.56-5,2.14,2.16,5.95-1,5.33-3.57-.52.12-2.45,3-2.08.72,1.52.35-.86-1.32.1-2.15,1.27.52,2.5.72,3.76,1.25-1.23,2.79-1.08,2.36-2.78,3.9,3.36.53,7.09-1.26,8.2-3.66-.42,1.09,2,1.41,2.63,1.21,0-3.17,3.11-.48,4.43-1.93-.1-.71,1.13-3.94,2.15-3.64,0,1.28-.4,2.66.71,3.57,1.82-3.12,2.67,1.5,4.76-2.37-1.42.43-.64-.81-.54-1.93,1.84-.15,5.08-1.89,3.3,1,1.91-2.14,5.37-4.71,8.56-3.94l1.26-2.07c2,.38-1.24,2.34-.13,3,2.86-1.4,3.89-3.8,7.14-4.25-.93-1.33-1.6.82-2.53-.5,1.79,0,5.2-3.34,5.94-1.38-.55-.37-2.71.83-2,1.45,1.61-.47,3.31.18,4.81-2.26-.94-.09-2.24.76-1.51-1.24,1.28.25,2.65-1.34,2.2,1.05.33-2.49,1.32-1.86,2.44-2.52l-1.17-1,.06-.1a3.2,3.2,0,0,1-1.27-1c-.63,1.36-1.4.53-2,2.25-3-4.7-7.71,3.74-11.73.58-1.95,2.47-4.34-.53-6.23,2.73-3.78.31-7.58.78-11.23,2.76,0-1-.91-1.66-.62-2.74-.92.43-2-.61-2.8.9-1.62-.88-1.23-2.41-1.82-3.62-.82,1.38-1.91,2.89-1.77,4a3.79,3.79,0,0,1-3.76-1.23c-.57,1.49-.54,2.22-1.92,2.35,0-2.22,2.45-2.82,1.35-4.27-1.11.93-3.2,3-3.6.4-.7,1.36-1.57,1.18-2.33,2.07.6,1,.66,2.31-.62,4-1.37-1,.84-1.33-.69-2.72-2,2.45-3.39.23-6,1.7,1.56-2.4,2-2.34,1.31-4.29.82.7,1.26-1.74,1.92-2.36,1.41.45,2.65-.37,3.94-.93-.24,1.68-2.44,1.36-1.53,2.64,1.31-2.58,3.54,1.11,3.74-2.55,2.73,1.12,4.26.93,7.4.82a4.45,4.45,0,0,0,.85-2.39c.51.28,1,.53,1.41-.47,1.88.23-.82,1.94.24,2.44,1.61.45,2.6-1.1,2.27-2.83,1.36.4.57,1.49,1.64,2,2.38-.67,2.76-3.26,5.71-1,.62-1-.67-1.47.48-2.69,2.18.08,2.49.24,1.33-1.27,1-.7,2.23.63,3.28.21,3.62-3.78,7.32-1.09,10.31-1.88,1.14-2,3.3-4.37,1.76-5.58-.76,1.32-.28,2.17-1.62,2.58-1.64-.33.75-1.9-.88-2.25-5.45,1.34-10.89,2.83-16.5,2.63.88-2.29,2.09-1.15,3.08-2.27.24-2-1.65-1-.61-2.75a2.28,2.28,0,0,1,.86,1.4c2.09-2,2.23-3.3,4.06-3.81-2.22,1.38-.17,1.75-1.14,3.72-.65-.35-1.33-1.28-1.89-.66.2,1.06-.87,2.53.28,3.29-.25-3.37,1.73-.4,3.41-2.77-1.26-.9,1.1-3,1.55-3.41,3.18.09,11.23-5.65,13.58-3.28.47-1.11-1.23-1.61.16-3,2.25,2.75,2.79,2,5.2,1.86-1.72.93-1.12,3-2.74,2.47.36-.66.66-1.31-.11-1.65-.61.88-2.29,2-2.29,3.6,1.27-1.35,6.26-.27,6.5-5.65,1.35.28,2.59-1,3.94-.71-.85,2.3-3.07,2.39-1.93,3.91a.63.63,0,0,0,.26.07,10.1,10.1,0,0,0,1.43-.92c.68-.87,1.36-1.94,2.13-1.5-1-3.75,4.71-2.51,5.12-5.23.47,1.46-.43,1.21-.24,2.16,1.08.51,2.89.19,2.79-1.6,1.49,1.63,1.83-.9,2.59,1.39,1.51-1,3-2.12,2.68-4.09,1.75-1,.14,2.8,1.87,1.6-.21-1.47.46-2.91,2.77-2.44.61.53-.72,1.59-.26,2.17,1.43-.41.49-1.15,1-2.37.63.72,1.2.13,1.83.76.55,1.94-2.39.66-1.68,2.56,2,.48,4.26-1.93,3.4-4.26,1,1.66,3,2.87,3.47,1a.92.92,0,0,1-.4-.12c.71-1.33-1-1.95-.24-3.28.88-.48,3.1-2.27,2-3.55-.9-.27-1.53,2.9-2.45,2.4,1.07-2.18-2.4-1.34-.89-3.09-1.29,0-3.48,1.7-1.4,3.36.51-2.78.6.53,1.42,1.25.3-.32.58-1,.93-.69-.62.89-.24,1.47-.8,2.34-1.49.45-.61-2-2.19-2.72-.5.59-1.05.53-1.51,1.72.39,1.07,2.05-.46,1.42,1.26-2.33-.35-4.45,2-6.85.77,2.56-1.76,3.37-3.48,6.17-5.2-.35-.31-.19-.78-.42-1.12-2.66,1.2-5.21,3.69-7.89,4.44-.79-.47-.33-1.31-.5-1.95-.28.5-.63.35-.94.7-.37.67.37,1,.15,1.64-1.14.63-3.31,1.9-3.66-.18-2,1.4-5.33,6.76-6.58,4.14.65-.38,2.35-2.8,5.14-5.39a4.24,4.24,0,0,0-2.1.94,2.14,2.14,0,0,0-.06.27l-.08-.17c-1.45,1.05-2.86,2.41-4.49,1.5,1.55.89-.38,2.92.38,4.08-.58-.43-1,1.08-1.64.12a3.71,3.71,0,0,0,.53-4.81c-1.36,3-2.15,1.71-3.3.24-3.61,4.5-6.06,2.32-9.51,4.79,0-3,3.66-2,3.45-5.34-2.49-.37-4.47,4-7.29.71-1.77,2.22-3.79,2.13-5.74,2.71-.67,1.2-.18,2-1.29,3.38-.49-.28-1-.94-1.39-.39,1.06.74.84,1.81-.1,2.13-1.84-1.44.36-2.6,1.2-4.18-2.07.71.7-1.64-.92-2.22-.38,2.16-1.86,3.42-2.23,1.15,1.71-1.43,2-3.15,3.71-2.9-.36-.3-.21-.77-.46-1.11-1.08-.85-2.45,2.18-2.69,0,2.17-1.77,4.67-.45,6.78-2.64.17-.9-1.37-1.23-.91-2.22,1,1.19,1.7-.9,2.78.77-.27.65-.86,1.4-.48,1.84,1.28-.31,4.13-2.61,3.28-4,.92,1.29,1.57,0,2.49,1.29-.87,2.35-2.29-.48-3.16,1.88,2.23.72,2.61-.27,4.6,2.28a2.83,2.83,0,0,1,1.21-1.24c-.26-1.45-.49-.34-1.47-1.21a2,2,0,0,0,.12-2.14c.92-1.91,2.14-1,3.09-2.7-.64-1.69-2.69.52-2.09-.94l-.84,0a2.07,2.07,0,0,1-1.8.78,2.19,2.19,0,0,1,.09-.84c-1-.19-1.47-.84-.78-2.75-1.88-.49-3.57,2-5.42,2.07.33-.66,1-1.43.61-1.87-2,1.88-2.07-1.5-4.1,0-.65,2,.65,3.44,0,5.46-.9-2.26-4.69-2.89-5.15.72a104.25,104.25,0,0,0-17.18,2.8c-5.71,1.29-11.44,2.94-17.24,4,.89-2.21,2.29-.11,3.26-1.55-.21-1.48,1.57-1.28.47-2.7-.44.7-1,0-1.48.52-.3.8,0,1.41-.87,2.4-1.67-.26-.51-1.51-1-2.17a8.32,8.32,0,0,0-2.63.49,4.56,4.56,0,0,0-.12,2.15,4.32,4.32,0,0,1,2.33,2.18c1.44.83,4.26-2,6.8.75.71-.52,1.33-1.72,2.15-1.42A4.32,4.32,0,0,0,154,671a1.85,1.85,0,0,0,1.55.31c-.61.68-1.1,2.43-1.77,2.53a2.3,2.3,0,0,1,.23.28c1.08-1.33,2-3.6,3.32-3.3-1.24,3.73-2,3.74-2,5.77-1.29,0-.78-2.71-1.9-1.43-.36.69.42,1,.22,1.6-.8-1.32-1.32-1.8-2.34.42-3.1-1-5.83.75-8.7,1.43-2,6.14.76-2.15-1.93-1.43.38-.92.89-.9,1.3-1.53l-.06,0c.45-1,2-2.39.43-2.69-2.68,2.06-6.06-1.23-8.52,2.71-1-1.43-1.3-1.3-1.47.55-1.21-1.36-2.14-.53-3.17-.52,1.33-1.66,2.91-1.46,4.22-3.26-2.87-2.2-5,1.65-7.52,1.94,0-2.49-2.57-.07-3.62-.74.06-1.61,2.4-4,1.23-5.14-1.32,2.67-3.14,1.93-4.69,3.12-1.1,2.3-.49,1.51-1,3.8-1.51-1.49-1.44-1-3.48-2,1-1.73.44-1.93.58-4.05,1.21-.8,2.68.22,3.64-2.31,3.75,1.43,6.57-1.42,10.84-1.57,1.78-4.45,4.52-1.5,6.63-3.31-.48-.39-.9-.8-.2-1.62,1.18,1.1,2-1.07,3.2.51,0,1.12-1.09,2.66.38,3.24.33-.55.73-.41,1.08-.8,1.94-2.23-.61-2.88,1.33-5.11,1.58,1,1.9.78,3.32-1.58a2.15,2.15,0,0,1,.93,1.38c.95-.7,1.78-2.59,2.81-2.68.69,3.17-2.89,2.4-4.63,3.72.67.75-.94,2.31.69,2.72,1.58-2,3.43-1.57,5-3.44,1.7-.07,1.22,2.08,2.65-.49,1.13.45.29,1.59,1.74,1.93.7-1.84,1.62-1.68,2.39-2.94.81.36,1.12,2.92,2.46,1.72-.77-1.29-1.78-2.5-.07-4.61,1.15,3.42,2.09-.13,3.35,3.12,1-2.64,1.09-1.74,2.74-3.41-1.1-.63-3.85,2-3.86-.44,2.18-1.26,4.53-.57,6.75-1.35-.5-3,5.19-2.38,7.26-4-2.1-1-8,0-6.82-4.13-.77,0-1.48.6-2.17,1.55a1.52,1.52,0,0,1,.55,1.93c-3.14-.54-1.4,3.74-4.24,3.91.89-1.27,1.7-2.52.85-3.23a3.4,3.4,0,0,0-1.89.2c-.45.71-.9,1.41-1.34,2.12-1.22-.73-2.33-.23-3.55-.95.9-2.53,2.17-1.46,3.16-3.14a2,2,0,0,0-2.32-.09l-2,3.19c1-.19,1.36.13.9,1.39-2.5-.63-4.82.82-7.23,1.23-2.65,8.6-10.9,1.37-14.07,6.66a5.82,5.82,0,0,0,1.44-4.35c2.61,1,6.46,2.54,7.29-1.29,1.6,1.56,2.91.56,4.25-.22-.48-1.75-2.27.47-2.18-2.19-1.31,4.18-4.15-1.33-4.33,3.19-2.35-2.26-4.12.4-6.31-.28.88-1.33,1.84-1.2.89-2.45-.89,1.32-1.55-.73-1.72-1.06.29,2-1.61.62-2.4,3,1-.23,1.4.06,1,1.34-1.77-.41-3.21,1.76-5.18-.19.41-.86,1.36-1.92.87-2.44-2.12.73-1.63,2.37-3.48,3.83-1.59-2.82-3.62.34-5.55-2.58-1.44,1.43-3.74.44-5,.43A2.56,2.56,0,0,0,115,651c-1.35.61-4.3-1.19-3.07,1.23-2.31.16-.67-1.07-1.59-2.34-.7,1.63-2-.4-2.76.68-.08,2.33.82.84,2.24,1.22.22,1.52-.85.86-1.62,2.78q-1.45-1.46-2.31.92c-.28-1.75-3.26,0-2.06-2.57.63,0,1.76,2.6,3.55-1-3-.09-1.49-1.54-2.95-3.07-1.31,3-3.66-.37-5.12,1.63.65-1.87,1.73-1.21,2.4-3.09,1.75,1.44,3.09.34,4.47-.52-.41-.4-.54-1.5.2-1.36,1,1.56,4.69-1.66,6.45-3.85,1.22.35.37,1.54,1.9,1.78,1.44-1.89,4.47-3.28,5.1-1.55-.59,2.57-2-.92-2.76.62.43,1.24-2.45,3.81-1,4.64,1.46-.59.33-1.16,1.64-2.78,1.36,1,2.31-1,3.54-.89,1.82.16-.74,2,1.09,2.13-.16-2.1,2.19-3.78,3.53-3.87a7,7,0,0,1,.69-4.06c2.35.45,4.32-2.15,6.72-1.24-.21,1.28-2.43,1.06-1.35,2.19,2.12-1.88,2.43.63,4.62-1.68.44,1.27,4.14,1.55,5.54-.25,1.72.81-.24,2.9,2,3.53-.07-2.39,2.58-1.86,2.7-4.32.91,1.15,1.52-.52,2.36,0-.48.87-1.22,1.84-.16,2.17.54-1.08,1.23-.89,1.78-1.88,1.48.61.2,2.17,1.09,3,1.24-3.36,3-1.71,4.38-3.16a10.64,10.64,0,0,0-4.37-.64c2.53-2.35,5.49.11,8-2.24-3.25,0-6.64-1.45-9.77.32.63.48,1.51.89.58,1.91-1.54-1.08-.82-1.39-2.54-1.65,0-1,.85-2.27.86-3.26,3.67,1.71,7.7,2,9.66-2-.68,1.44,1.65,1.71,1.94-.21,1.67.57-.58,2.43.29,3.27.94-1.16,2.06-.31,3-1-.62-.65-3.32.17-1.73-2,.64-1.66,1.72,1.73,2.35.07.66-2.58.35-2.1,2.42-3.73-1.63-.46-.77-1.72-.63-2.75,1.64,1.4,1.88-2.07,2.5-2.93,1.5.92-1.09,3.17.34,4.11,1.56-1.7,3.22-1.78,4.89-2-.92,1.29-1.87,1.09-1,2.41,1.6-.54,1,1.1,2.45,1.77-.14-2.42,2.18-1,3.48.19,1.52-1.77,2.67-2.57,2.36-4.52,2,.79,1.93,2.22,1.8,3.66,1.29-2.74,4.24-1.18,4.34-3.85.78.13,1.67,2.17,2.35,1-.15-4.52-6.69-.12-7.15-3.72,1.92-.05,3.89.44,5.79.34-1.3-3.62,1.27-6,.93-9.52,2,2.05,5.64-1.93,9.39-3.14-1.54,1.53-1.6,2.48-3.57,4.39,3.53,1.63,7,2.25,10.24-.86,3.43,3.26,6.44-2,9.86,1.49.67-1.64,1.48-.43,2.19-1.45l1.94,1.57c4-3.49,8.87.32,11.87-.64-.38-.46-1.14-.82-.79-1.48.74-.23,2.08-2.56,2.21-.58-.91-.74-.82,1.51.06,1.67.87-.8,5.44-.26,6.44-.64-.8,1.09-2.86,1.6-2.31,2.49,1.62.59,3.2-.08,4.79,0,.54-1.81-.28-3.28.57-5.18,0,.4.11.81.18,1.21,1-1.56,2.63-3.71,1.76-5.31-2.44,1.64-3.1,5.12-5.41,4.85-.94-.62.57-2.19-.7-2.7-1.54.13-2.69,2.69-4.41,1.68.57-1.2,1.09-2.38.37-3.11-1.39-.68-2.17,2.36-3.82.18-.25.67.16,1.08-.28,1.81-1.93-1.41-3.53-.84-5,.61-2-2.19-3.24-.2-5.06-1.38a25.42,25.42,0,0,1,4.09-4.23c-1.66-.29-3.34-.81-4.81,1.49-.81-1.53-1.12-1.43-1.35.41-1-1.48-1.91-.74-2.84-.83,1.26-1.54,2.69-1.19,3.94-2.87a4.09,4.09,0,0,0-.33-.28,3.37,3.37,0,0,0-1.6,1.28c.6-1.84-.6-1.31-1.69-1.27-1.07.61-2.12,1.47-3.24,1.49.08-1.89-1.27-1.11-2.34-1a11.83,11.83,0,0,1-4.78.18c0,.23-.1.51-.19.88a6.33,6.33,0,0,0-1-1.14,14.87,14.87,0,0,1-1.6-.52c-1.34,2.21-.95,1.07-1.91.13a11,11,0,0,1-1.22.76h.08c-.65,1.62-1.46,1.41-2.31.95-1.88.6-3.74.62-4.58-.65-1.62,3.13-5.62.46-6.23-.71.36.19,2.4-.81,1.47-1.26a3,3,0,0,0-3.05.9c.46.42.86.86.1,1.66-1.72-.31-3.31,1.19-5,1.94,3.94-4,3.69-7.11,6.69-5.4,1.93-2.14,4-1.61,6-3.43,1.45.69.8,2.32,2.42,1.81-.27,1.26-2.39.85-1.42,2.1.88-.3,1.81-.59,2.74-.91.33-.39.67-.75,1.08-.39,2.44-.92,4.68-2.14,5.52-4.36.87.43.72,1.15.65,1.85.91-.07,1.84.23,2.59-1.64,3,1.75,5.43-.22,8.7-.41.86-1.13,1.68-2.55,3.19-2.31h0c1.31-.29,2.72.64,4-.39-.41-.43-.78-.88-.12-1.64,1,1.22,1.8-.88,2.85.82,0,1.13-1.07,2.57.24,3.3.31-.52.67-.37,1-.73,1.83-2.09-.45-2.94,1.38-5a2.22,2.22,0,0,0,1.25.68c.43-1,.8-1.76,1.14-2.39-2,.11-4.26-.66-6.08-.25a1.91,1.91,0,0,1-1,.35,3.56,3.56,0,0,0-1.31,1.31,7.48,7.48,0,0,0,.83-1.25,2.24,2.24,0,0,0-2.17,1.91c-1.17-1.27-1.5.44-3.07.36.43-1.3,1.14-1.13,1.69-1.84a2.34,2.34,0,0,1-1.21-.11,5.36,5.36,0,0,1,.92-1.42c-.41-.62-.79-1.15-1.56-.83.15-.38.31-.73.47-1.1a2.07,2.07,0,0,1-2.27-1c.4-.83,1.29-1.79.87-2.37-1.91.53-1.54,2.22-3.25,3.5-1.31-3-3.24,0-4.85-3.16-1.33,1.28-3.33,0-4.47-.19a2.77,2.77,0,0,0,.35-2.34c-1.21.44-3.74-1.75-2.76.84-2-.14-.54-1.16-1.3-2.55-.69,1.54-1.72-.66-2.46.35-.17,2.35.68.92,1.92,1.49.12,1.55-.79.75-1.55,2.61-.81-1.09-1.5-.86-2.07.67-.17-1.79-2.86-.35-1.69-2.81.55,0,1.43,2.81,3.16-.62-2.61-.41-1.24-1.7-2.45-3.41-1.28,2.91-3.18-.77-4.55,1.09.66-1.82,1.57-1,2.24-2.85,1.46,1.64,2.68.68,3.93,0-.34-.44-.41-1.57.24-1.34.76,1.63,4.19-1.08,5.81-3.05,1.06.51.27,1.59,1.61,2,1.33-1.68,4.06-2.77,4.55-1-.62,2.52-1.75-1.14-2.46.33.33,1.3-2.31,3.5-1,4.52,1.31-.41.34-1.11,1.56-2.58,1.17,1.13,2.08-.72,3.17-.53,1.61.35-.73,1.9.89,2.25a3.62,3.62,0,0,1,3.28-3.52,7.54,7.54,0,0,1,.75-4c2.07.7,3.91-1.71,6-.55-.23,1.26-2.2.81-1.27,2.06,1.95-1.69,2.13.91,4.17-1.25.35,1.31,3.65,1.88,5,.18,0,0,.07.07.12.11,2.34-3.17,5.34-6.81,7.56-7.32,2.93-6.13,9-9.92,13.55-12.64,3.07-5.06,7.21-7.08,11.56-9.86a2.17,2.17,0,0,0,.14,1.64c1.2-1.94,4.54-2.46,3.77-4.89-.62.34-1.25.74-1.88,1,3.68-3.78,3.51-6.94,6.22-5,1.82-2,3.74-1.35,5.59-3.05a1.89,1.89,0,0,1,.51.45,41.92,41.92,0,0,0,4.69-7.69c2.11,0,3.87-1.27,4.29-4.48,5.38,2.43,12.12.62,16.17-3.49-.65-.59-1.24,1.39-1.89.44.57-2.28,1.47-2.21,1.8-4.61,1-.37,1.92.29,2.84-1.91,1.09,1.33,2.15,1.74,3.2.94-.5-1.28.4-2.89,1.22-4.47,6.72,2.22,13.25.28,20-6.15,1.65,2.68,3.41-2.66,5.08-2.62-.45-4.66,6.26-3.84,4.28-8.72,4,2.12,8.66-.08,13.12-2.78s8.64-5.69,11.69-5.45c1.93-3.14,6.56-6.05,9.38-6,5.05-5.16,9.9-6.12,14.72-6.94,4.14-3.88,6.43-4.29,10.13-7.56.71.42.16,3,1.4,2,.28-3.81,4.3-4.48,6.27-5.34-.47.76-1.37,1.55-1.1,2.23,3.54-4.31,9.62-6.83,13-5.2-1,.71-6.07,5.86-5.64,1.43-1.84,1.07-3.81,3.84-5.67,5.26.45.85,1,.35,1.45,1.1-1.18,1.82-3.69.25-3.92,3,2-1.1,5.3-.95,6.55-4.94,4.48,4,11-5.73,16.16-3.31,1.26-2.1,2.81-.9,2.42-3.19.45,1.77,1.2.25,1.77.67-.36.6-1,1.23-.77,1.77,2.38-2.84,4.37-1.08,6.71-3.59-.41-.33-2.62.34-1.06-1.59,1.83,2.37,2.05-.8,3-.27-1.53,1.68.71.67,1,2.46,2.43-1.83,3.94-1.51,5.8-3.88-1.39-.5,0-3.62-.45-1.65l1.32,2c3.8-2.05,7.62-3.54,11.43-6-.95,1.43-2.72.62-2.06,2.7,1.82-.15,3.93-1.67,5.07-2.94-.39.6-.74,1.19-.17,1.71,1.11-2.09,1.85-.61,2.84-1.49-.12-.42-.5-.81-.17-1.26,1.54,1.67,2-1.78,2.84-1.49a2,2,0,0,0,.08,2.12c3.88-.52,7.39-.32,10.47-3.35.81.81,1.65,2.67,2.72-.62.56.67.18,1.4.67,2.07,1.1-2.06,4.39-3.11,6-1.29l1.37-1.79c10.64,2.82,22.12-4.27,32.89-3.61,2.46-2,4.66-1.65,6.92-1.77l1.35-1.79c1.62,1.34,4.38.12,5.4-1.23,0,2.63,1.25-.35,2.44-1,6.27,1.62,13.24-3.51,19.63-3.09l1-1.34c24.11-4.58,48-10.44,71.89-15.88,11.89-2.71,23.94-5.38,36.58-7.66a377.89,377.89,0,0,1,39.16-5.18,1.77,1.77,0,0,1,2.51-1.34c-.57.91-1.41.49-1.18,1.31,1.94,1.38,1.49-1.45,2.91-1.78l1.06,1.67c7.68-2,13-2,20.82-3.57-.39.56-.58,1.73.1,1.29l1.69-1.71c14.16.54,29.16-1.68,43.19-.11a48.94,48.94,0,0,1,9.82-.45,26.13,26.13,0,0,1,9.12,2c2.84-1.86,4.18,1.44,7.14-.77,3,3.08,8.11-.75,10.92,2.64,9.32-1.71,16.44,3.43,25.71,2l.69,2c7.09-1,13.39,4.45,19.67,2.76,1.1,3.42,5.43-.12,5.54,3.29l1.89-1.35c1.13,2.58,3.62,1.61,6.15,2.31,4.63,1.32,11,5.88,13.61,3.75a78.66,78.66,0,0,0,7.76,2.77l7.74,2.52a79.18,79.18,0,0,1,14.95,6.12c.47-.31.47-.78.83-1.13,2.7,1.58,5.24,3.36,8,4.73a19.81,19.81,0,0,0,9,2.3c.18,1,.36,2.08.55,3.11,3.17-.91,4.83.93,6.1,2.43.61-.4.27-1.19.75-1.64,1.45.18,1.35,3.7,3.12,3.17,5.88.46,10.46,3.64,14.86,7.19a.77.77,0,0,0,.39.31l-.39-.31c-.26-.45.55-1.05,1.08-1.84a27.09,27.09,0,0,0,8.58,5.79c3,1.46,6.19,2.6,9.24,4,.34,1.15-.7,1.67-.15,2.92,2.4-2.07,2.53.5,4.8-1.3.17,3.78,3,2.06,3.58,5.09,3.54-1.27,6.92,3.22,10.29,4.25-1.56,3.89,5.24,1.65,5.9,5.26,1.28-.39.81-1.61,1.72-2.19.54.82.39,3.47,3.06,1.46,1.55,3.64,4.54,4.4,7.38,5.45.54,1.75-2.4,1.87-1.57,3.75,3.92-.93,6.55-1,9.65.62-.85,1.75-1.41.17-2.77,1.18.49,1.39-1.15,1.78-.66,3.18,2.17-1.06,4.64-1.32,4.87.83-.55,0-2-1.33-2.37.37,1.55.84,2.92,2,5.38,1.07.3,1.15-.73,1.66-.22,2.9,1.77-.25,2.05,1.5,4.23-1,.69,3.76,4,2.29,6,3.41,1.21-.59-.66-2.67,1.18-2.94,1,1.55-1.86,3.7-.14,3.93.51-1.28,2.69-3.72,2.74-1.19-.66.52-1.67.87-1.75,1.66a19.09,19.09,0,0,0,8.24,4.79,2.5,2.5,0,0,0-.2.57c1.63,1.73,5.1,5.38,6.88,2.8,0,1.12.7.65,1,1-.7.49-1.56.91-1.26,1.9,1.72-1.8,1.07,1.14,2.79-.67-.3-.62-.78-.89-1.08-1.51,2.71-1.52-.1,4.25,2.6,2.74-.19,2.21,1.44.75,1.6,2.25-1,1.37-1.79-.25-1.79,1.15,1.79,1.7,3.83,2.87,6.78,2.2a7.53,7.53,0,0,0-1.25,1.9c.93-.43,1,.84,1.92.41.63-.53.68-1.34,1.25-1.91a2.93,2.93,0,0,0,2.09,2.49c-.19-.54,1.14-2.63,1.3-1.39-2.42,3.23,1.64,1.27,1.69,3.3-.19,1.07-2.11,1.32-2.13,2.48,2.24-1.87,2.41.42,3.79.29-.13-2.38,2.49-1.43,2.76-.69a3.07,3.07,0,0,0-2.53,3.29c.67-.13,2.24-2.09,2.27-.92-2.84,3.65,2.35,4.93,3.79,5.72,0-.66,0-1.31.8-1.62,0,2.6.6.21,1.46.66l.24,2.6c-1.7.54-1.34,2-2.07,3-1.2-1.75-1-2.44-3.44-1.56.21-3.56-1-1.05-1.35-4.59-.21,1.63-2.13,2.18-2.72,1.22.67-.53,1.66-.88,1.74-1.68-.87.51.58-2.53-1.07-1.51-1.07,1.33-1.31,3.05-2.93,4.1-.14-1.88,2.72-2.37,1.94-4.56-2.68,2.16-1.39-3.73-4.33-1-.12,1.44.29,3.12-1.06,4,.18-2.47-.16-2.28,1-4.5-4.07,2.1-5.38-1.37-7.77-2.67a1.35,1.35,0,0,1-.85,1.1c.1,1,1.27-.13,1.08,1.49-2.32,1.19-.53-3.08-1.7-3.29-.76,1.31-1.39,2.38-2.24,1.45,2.43-1.06.2-1.45.63-3.7-2.59,1.14-6.44-4.26-9.52-.53-.66-1.32.6-1.72.72-2.66-1.85-.6-2.89-2.81-5.4-2.09a2.54,2.54,0,0,0,1.71-2.18c-.84,0-1.27-.73-2.79.66,0,.83.32,1.83-.27,2.37-.24-1.14-1.65,0-1.57-1.75a2.57,2.57,0,0,0,1.62-3.23c-3.6,2.21-3.18-5.22-6.76-1.23-.59-.45-.63-1-.17-2.09-1.34,1.76-2-.77-2.3.9.12.57.9.68.13,1.57-1.42-.83-1.94-3.49-3.26-4.58.06.7-.76,1-.82,1.62,0,1.05.62.84.64,1.81-4.46.62-5.16-6.19-10.42-4-.53-2.08.94-.14.81-1.6-1.37-2.43-4.1-2.16-5.65-4.22-4,2.73-3.63-6.25-7.39-2,.87-3.31-3.08-.44-2.86-4.34-2.3,1.87-2.69-.07-3.92-.34,1.48-3.08-2.8-4.15-5.49-1.59-.69-1.32.59-1.72.7-2.67-1.38.89-.71-2.36-2.1-1.48-.26,1.2-2,2.93-2.27,1.42.63-.7,2.41-.86,2.22-1.94-.42-1.89-3.2.94-4.31.45,1-1.43.56-1.7.18-2.89-2.37,1.62-3.22.15-5.66,1.85.61.43.65,1-.27,1.85-.15-.34-.13-1-.58-.76-.61.73.15,2.05-.68,2.66-1.4-3.13-2.78.3-3.87-3.73,1.07-.72,2.66,2,2.3-1.44,1.43-1.35,2.17,2,2.93-.15-.67-.79-2.11,0-1.8-2.8-1.95,1.81-1.71-.82-3.39.45-.18,1.63,1,.47,1.15,1.52-1.27.4-.76,1.62-1.19,2.42-1.48,1.07-2.28.76-2.53-.65.67-.52,1.71-.88,1.77-1.68-.61.37-.53-.65-1-.46-1.45.48-.72,2-2.17,2.47-1.52-3.28-6.59-1.55-5.8-7.59-.57.2-2-1-2.35.92-.21,1.4,2.31.34.76,2.33-.86-1.86-6.24-1.32-3.09-5.37-.17-.52-.61-.49-1-.47-1.44.5-.69,2-2.14,2.49-4.14-2.07-9-6.13-13.27-5.71-3.67-4.44-9-5.12-13.67-7.72,0,.47.15,1-.3,1.33-1.63-5.09-9.13-4.49-13-7.58-.63.55-.63,1.37-1.2,1.95-2.46-2.66-6-2.82-8.6-5.29.07.65.1,1.31-.73,1.64-.55-3-2.57-4.72-4.59-2.13-2.18-4.48-7.73-1.14-10-5.48-.64,2.1-3.22.22-1.35-1.43-.22,1.9,2.39.89,2.51-.54-1.27-1.24-.22-2-.3-3.92-3,.17-3.76,4-4.14,5.2-2.28-1.8-5.37-1.61-8.31-1.92-.33-.88.25-1.48,0-2.34-8.71,2.06-15.38-5.22-22.56-4.23-.89-1.79-1.37-1.43-1.85-2.87-.58.47-.46,1.11-1.24,1.52a98.71,98.71,0,0,0-16.93-4.19c-2.81-.51-5.6-1-8.38-1.66a80.42,80.42,0,0,1-8.52-2.05c-1.47,2-4.21.32-5.33-2-2.88,2.7-3.85-.43-5.89-.29-1.56,1.91-9.84-.6-14,.13a2,2,0,0,0,.31-2.16c-4.08,3.11-6-1.61-8.45,1.44a3.46,3.46,0,0,1-.36-2.27c-.83-.11-1.89.8-2.2,1.9-1.37-1.62-2.07,1.26-1.46-2-2.61,1-4.46-.83-7.34,1.18.51-.52,1-1,.46-1.71-2.08,1.14-3.29-1-5.61,1,.86-.3-.3-2.84-.86-1.84-1.7.74.37,1.78-1.32,2.51-2.09-2.36-4.81-2.36-7.91-.62-.9-2.34-3.72.45-6.8.34-1.83-.06-5.1-2.84-6.37,0-7.1-3.82-14.26,1.7-21.28-.95.23.58.79,1.16.35,1.73-1.19-.16-.29-.6-1-1.74-4.39,3.49-12.16.62-18.3,3.48a1,1,0,0,0-.13-1.28c-4.08,2.59-7.56,1.53-11.12,1.12-4.87,2.61-10.45,4.4-13.38.54-1,1.19,0,2.27-1.08,3.46-1-2.17-2.65,1.12-3.78.19.53-.93,1.33-.53,1.11-1.33-1.3.62-1.68.44-2.46,2.25-7.69-1.76-16.15,4.36-23.54,2.3-.57,1-1.42,2.08-.63,3,25.8-4.14,53.06-8.08,81.45-9.3l5.33-.2h5.28l10.55.05,10.54.11c1.74.05,3.53,0,5.24.14l5.14.39q10.28.78,20.52,1.7l2.56.23,2.5.36,5,.73,9.94,1.53,9.91,1.6c3.27.6,6.43,1.37,9.64,2.06,6.4,1.44,12.78,2.91,19.11,4.46q9.25,2.67,18.43,5.5c3,1,6.14,1.85,9.11,2.91l8.85,3.26c23.75,8.56,45.69,19.38,66.67,31.36,3.29,1.69,8.11,3.28,9.49,5.8,2.71-1,3.82,1.23,6.43.45.33.6-.23,3,.75,2.32,1.3-2.4,3.06,1.4,3.66,2.17,1.51,1.87,5.6-.11,5.08,2.39-.87-.14-1.95.14-2.49-.67-.47,5.36,7.3-.1,7.32,5.44,4.82-2.48,6.92,6.27,10.4,2.41-.06,1.37,1,.61.71,2.32,1.51-1.74,4.23-.24,2.66,2.77,2.42.94,6.07-.54,7.41,2.56-.19,1.07-2.15,1.3-2.17,2.46.68-.36,2.44-.42,2.22-1.94,3.5-.17,4.48,4.67,8.46,3.55-1,1.73.8,2.51,2,.44.23.94-.53,1.42-.77,2.14,1.63-.15,2.25,2.89,4.31.06a21.49,21.49,0,0,0,2.57,2.23c-.66,5,7.27,3.47,8.39,9,5.1-2.21,4.74,6.51,10.27,3.42-.47,2.39,1.32.22,1.13,2-3,1.18-4.66-1.53-7.75-1.69a17.57,17.57,0,0,0-1.66,2.71c.48.87,1.27,1.14,2.84-.15.68,1.83-2.77,1.68-1.57,3.76,1-2,2.87,1,3.6-2.28.46,2.32,2.7.11,2.57,2.21.43-2.56,1.34-1.8,2.51-3.81a2.63,2.63,0,0,0,.8,1.77,1,1,0,0,1,.09-.17c.38.81.62-.47,1.48-.83.19.41.51.55.72.93l.81-.36c.46,1.21-.8,1.62-.71,2.65,1.94,0,4.72,1.53,4.59,3.66-.82-1.42-2.88-.34-3.91-1.34.19,1.59-1.28,2.39-.57,4.22.83-1.73,1.3-.56,2.69-1.73-2,2.94,2.85,7.59,5.23,5.45.71,1.34-1.41,1.34-.7,2.67.45-.29.57.08.94-.06,1.19-1.73,2.25-2.39,2-4.56.41,1,1.31,1.06,2,1.45.49-1.9-1.45-1.86-.28-3.12-.09,2.45,2.36-.25,2.12,2.49-1.47,1.75-2.16.78-3.08,2.54.3,1.66,2.12.24,2.53,1.68-1.15.8-.45,2.43-1.59,3.23-.8-.1-3.11.13-3.14,2,.41.82,2.49-1.73,2.78-.69a1.49,1.49,0,0,0-.67,1.07,6.4,6.4,0,0,0,.82-.14,1.19,1.19,0,0,0-.3,1.35l-.26.13c.09.42,0,.78-.68,1,.81.78,3,.6,2.64-2.26-1.79,2.28-.09-.88-.21-2.08-.35.12-.88.56-.93.07.85-.44.92-1.23,1.73-1.69,1.15.52-.67,2.22-.1,3.92.62-.23.92.18,1.84-.66.33-1.24-1.51-.85-.2-2.06.72,1,1.87,1.2,2.87,1.66,1.29-.31,2.19-.69,3.49.43-.74.17-1.52.4-2.24.53a3.08,3.08,0,0,1,.49,1,11.85,11.85,0,0,0-3.09.53,1.54,1.54,0,0,1,.33.45,2.41,2.41,0,0,0-2.51,1.53c1.91.1,4-.17,5.58.6.23.93-.5,1.42-.74,2.14.45-.3.57.06,1-.07.59-.4.31-1.18.79-1.63,1,.12,3,.3,2.14,2.47,2-.09,6.87-3,6.2.33-.53-.06-2.49.85-5.19,1.54a2.41,2.41,0,0,0,.26.62c1.2.15,2.71-.35,3.64.35a1.2,1.2,0,0,1,.73.31c.3-1.21,1.81-1.88,2-3.18.12.79,1.17-.34,1,1a3.8,3.8,0,0,0-2.59,2.74,4,4,0,0,1,.28,1c.94-.62,1.34-.49,1.5,0a2.93,2.93,0,0,0,2.17-.76,22.58,22.58,0,0,1-2.12,3.06,6,6,0,0,1,2.46-.53c2.73-2.07,6.12-4.11,8.2-3.5-.17,1.24-3,1.23-2.25,2.93,3.12-1.25,5.23-1.23,8.55-4.46,1.23,1.86,3,2.67,4.46,4.1,3.52-2.37,4.53-.36,7-4.08.65,1.68-1.95,1.71-1.11,3.49,1.93,1.1,1.14.14.39,2.74l4.52-2.26a2,2,0,0,0,2.91,1.48c.34-2-1-.93-1.32-1.68a3.86,3.86,0,0,0,2.88-2.6c.81.8,2.59-.21,2.48,2.29-1.14.76-2.32,1.52-1.71,3.18,2.37-1.66,4.93-3.23,7.44-4.82-.42,4,4.84-2.48,4.52,1.29-1.12,1.68-1.89.35-2.39,2.34-.25-1.38-2,0-2.77-.41,0,.81-.57,1.4-.2,2.43l3-1.48c-1.06,3.09,2,1,2.55,2.82-3.67,1.35-6-1.72-9.78,3.63,1.87,2.34,10.76-3.5,8.54,3.36.69.33,1.88-.26,3.13-.94,0-.68-.29-1.51.29-1.88,3.73,3.11,10,1.63,13.49,5.28,0-.84,1-1.15,1.4-1.81-.15,2.24,2.08.3,2.35,1.82-1.75,1.31-2.78-.21-3,2,1.72.93,3.32,2.07,5.58,2,.59,1.36-.57,1.76-.21,3,.67-.48.88-1.22,2-1.49.16,1.3-.69,2-.14,3.54,1.9-.82,1.52-.05,3.06-1.4-.31,1.89-1.82,3.13-2.14,5,1.54-.07,3.52-.9,3.85,1.11l-1,.47c0,.34,0,.68-.46.78a1.17,1.17,0,1,0-2.21-.71c2.24,1,3.68,1.8,6.47.48-1,2.46,1.26,1.32.34,3.3.61-1,1.81-1.57,2.07-.35a4.35,4.35,0,0,0-2.73,4.69,39.19,39.19,0,0,0-4.28-.36c.09,1.44-2.12,1.59-1.26,3.45,3.17-2.53,5.08-1.69,7.3-1,.8-1.68,3.16-4.11,4.06-1.79-1.2.54-1.58-.3-3.1.79a4.19,4.19,0,0,0,.3,3.34c.58-.43,1.72-3.09,2.48-1.69-.63.12-1.61,2.39-.36,1.9,1.58-.63,1.3-2.38,3.45-2.68.33,1.15-1.3,3.71-.22,3.56.24-1.3,3-3.79,4-2.89-.36,1.82-1.67,1.11-2,2,1.8-.63-.71,2.86.7,2,1.06-3.59,5.62-3,6.76-1.21a7.4,7.4,0,0,0,1.86-3.11c.49,1.49,1.48,1.52,2.09-.33.12,1.48,1.72.51,1.77,2.11a11.28,11.28,0,0,1-7.81,1.65c0,.56-.35.84-.41,1.34,6.42-.33,8.53,2.84,16,1.14-.31,1.74.83,1.13.71,2.57-3.22,1.85-6.54.37-10.29,3.82l.09,1.11c2.44-.5,5.24-1.58,7.55-1.85s4.1.34,4.6,3c3.6.11,9-.08,9.12,3.74.64-1,1.52-1,2.08-.26-1.35.38-2.19,1.09-2,2.5.9.19,1.4,1,1.2,2.94,1.29-.45,1.67.42,2-1.39-.61.16-1.44.69-1.56.06,1.72-2.29,3.25-.22,5.67-1.71-2.28,5.3,1.84,7,3.15,10.13-1.69,1.67-.57,4-.26,5.77-3.53,5.1-10.33,6.53-16.36,6.65.85-1.89,1.71-.81,2.49-2.16-.94-2.15-3.78.85-5.25-1.25-4.73,6.45-10.74-1.35-15,.54a6.45,6.45,0,0,0-5.16-3.83,17.18,17.18,0,0,0-5.94.1c.56.74,4-.14,2.24,2.4-3-.1-4.25-2.27-7.33-.71-1.62-1.76-5.49-3.76-7.36-1.26-1.4-.86.79-.8.35-2.43-1.78-.33-5.26,2.25-5.72-.27,1.2-.93,2,1.85,2.59,0-1.24-1-3.21-3.47-4.13.15-2.67-3.15-6.72-4-10.74-4.77-2.48,3-7.59,4.34-10.11,3.69a28.57,28.57,0,0,0-1.61,5.32,3.14,3.14,0,0,0,2.55-.66,3.15,3.15,0,0,1,1.8-3.13c1.65,1.33,3.28,2.68,5.94,2.27.2,1-.46,1.46-.32,2.43,1.71-1.91,1.39.12,3.06-.27.08-.49-.07-1.1.41-1.34a2.61,2.61,0,0,0,.66,2c-1.62.62-5.39.72-5.91,3.29,2.9.68,5.75-1.68,7.23.67.25,1.38-1.9,1.31-1.34,2.89,1.18,1.28,3.76.19,4.29,2.58-1.24.49-2.42,1-2.41,2.25.49,1.81,3.14,0,2.77,3.26.64-.33.65-1,1.46-1.24.35,2.88,1.84,3.83,3.85,3.91-.2,3.56,2.07,3,2.39,5.67-4.74.42-8.52-.76-12.42-1.73a4.85,4.85,0,0,0-.07,1.88c-1.63-.19-3.12-.63-4.81-.72.18,1.51-2.28,1.47-1.22,3.48,3.39-2.33,5.59-1.34,8.14-.47.8-1.67,3.35-4,4.49-1.56-1.33.47-1.81-.42-3.46.59a4.16,4.16,0,0,0,.5,3.45c.64-.39,1.8-3.07,2.72-1.51-.7.05-1.7,2.32-.33,2,1.75-.5,1.35-2.36,3.76-2.43.42,1.23-1.3,3.73-.09,3.7.2-1.34,3.18-3.64,4.34-2.59-.32,1.86-1.82,1-2.1,1.89,2-.46-.69,2.92.86,2.16,1-3.64,6.22-2.54,7.56-.5a6.38,6.38,0,0,0,2-3c.61,1.62,1.72,1.76,2.35-.09.19,1.58,2,.81,2,2.52a9.94,9.94,0,0,1-4.36,1.07,12.59,12.59,0,0,1-4.36-.37c.07.59-.38.84-.43,1.35a20.62,20.62,0,0,1,4.7.79c1.36.43,2.6.94,3.87,1.41a20.79,20.79,0,0,0,9.37,1.42c-.32,1.81.95,1.33.85,2.83-3.61,1.48-7.32-.68-11.44,2.41,0,.41.07.8.11,1.2,2.71-.15,5.81-.84,8.4-.75a6.6,6.6,0,0,1,3.38.86,4.54,4.54,0,0,1,1.85,3.08c4,.78,10.16,1.64,10.22,5.73a1.35,1.35,0,0,1,2.34.12c-1.51.15-2.46.75-2.2,2.29,1,.38,1.57,1.34,1.31,3.41,1.43-.19,1.83.85,2.26-1-.68,0-1.61.4-1.73-.31,1.94-2.09,3.59.54,6.3-.49-2.63,5.21,1.86,8,3.19,11.76C1201.32,700.54,1202.47,703.3,1202.74,705.32Zm-13-79.59a2.75,2.75,0,0,0,3.58-.92C1193.22,623.19,1190.38,624.68,1189.74,625.73ZM1014.52,467.26c.36,1.55,1,2.6,3,.91C1017.27,466.37,1015.55,465.51,1014.52,467.26Zm-24.33-15c-.28,2.05,1.51-.07,2.39-.37C993,450,990.42,450.87,990.19,452.3Zm-18.29,8c.53.65,1.07,1.29,2.48.13C974.27,459,973.08,459.66,971.9,460.33Zm-10.19-7.1c-.15,2.11,1.29,2,2,.42C963.7,452.18,962.61,452.9,961.71,453.23Zm-12.38-2.9c.07,1,.71.74.75,1.79,1.17-1,1-2.48,3.07-3.09.65,1.42-1.4,1.69-1.63,2.73,1.7,1.16,4.06.08,5.89-.9-1.41-2.06-1.88-1.93-2.32-5.9C953,447.35,951.59,447.59,949.33,450.33Zm-6.47-3.26c-.27,3.08,1.72,1.33,2.36,2.48.47-.45.16-1.24.77-1.64.64-.23.56,1.08.75,1.8,2-2.36,1.61-1.2,3.14-2.57-1.06-1.6-2.29-2.83-4.33-2.35C945.68,447.9,944.54,445.58,942.86,447.07Zm-8.33-5.49c.05,1.76.79,2,2.17.88C936.06,442,935.94,440.39,934.53,441.58Zm-13-7.6c-.75,2.36,1.76,2.43,3.38,1.82C924.39,433.81,922.93,433.92,921.5,434Zm-24.86-7.84c-.7,1.67.42.87.89,1.75C898.85,426.89,898.13,424.69,896.64,426.14ZM796,404.85c.84.15,2.38-1.15,2.69-2.28a1.66,1.66,0,0,1-1-1C796.27,402.52,795.12,403.54,796,404.85Zm-21.1-2.54c-.72,2,2.17,1,3.23.45C777.52,400.69,775.75,403.13,774.85,402.31Zm-89.22,5.05c-.58,2.2,1.92,1.2,2.81.3a3.19,3.19,0,0,0-.67-2.1C687.65,406.69,686.33,408.36,685.63,407.36Zm-7.94.83c.22,3.22,3.75,1.48,5.56.55.27-2.41-1.65-1.55-2.9.58,0-1.56.66-3.16-.35-4.66C678.91,406,679.79,409.33,677.69,408.19Zm-4.24,1.5c-1.39,2.17,2.39,2.52,2.51-.13C675.23,408.73,674.25,410,673.45,409.69ZM209.41,570c-.65-.61-1.19,0-1.84-.71-.81,1-.57,1.58-.87,2.37C207.74,572.86,208.58,571.55,209.41,570Zm6.37-.25c2.08-3-3.28-2.58-2.84,0C214.39,570.41,215,567.08,215.78,569.76Zm-23.93,28.62c.17-1,.52-2.12-.55-2.79.5,1.08-1.7,2.74-1.11.75-1.08.46-1.69,1.69-2.13,3.14C190.55,599.49,190.11,598.44,191.85,598.38Zm-70.36,46.68c-.76-.53-1.34.12-2.1-.5-.87,1-.57,1.64-.87,2.45C119.74,648.07,120.62,646.68,121.49,645.06Zm7.12-1c2.21-3.25-3.77-2.18-3.18.35C127.08,644.88,127.62,641.51,128.61,644.08Zm13.8-1.19c-2.3.44-3.32-4.38-5.6-.57,2-.75.88,1.47,2.23,2.17C139.91,641.82,141.47,645.13,142.41,642.89Zm11.79.12c-1.9-.94-5.37,3.28-3.78,5.12.59-1.84,1.9-3.69,2.18-1.6A3.94,3.94,0,0,0,154.2,643Zm-21.29,22.34c.78-2.78-1.38-.77-2.45-.78C130.08,667,132.2,664.34,132.91,665.35Zm13.78,10.5a2.8,2.8,0,0,1-2.65-.44,4.4,4.4,0,0,1-1.22.51c.2.65-.39,1.57.07,2.13C143.9,675.54,145.65,678.18,146.69,675.85Zm-7.32-8.66c1.45,1.25,2.5-.65,3.71-1.31C141.67,664.86,140.37,664.72,139.37,667.19Zm-.61-1.89c.37-.85-1.15-1-.62-1.89-1.53-.18-1.81,1.82-2.76-.24-.86,1-.57,1.61-.88,2.43l1.28.8C137.21,664.07,136.91,665.75,138.76,665.3Zm2.48,4.59c-2.58-.11-4.89,2.09-7.39,2.73C135.15,673.71,139.19,672.82,141.24,669.89Zm11.87-7.07,1.32-2.15c-.89.06-1.86-.65-2.55,1.31ZM204.05,618c-.71,1.19.24,1.89,1.27,2.58A1.58,1.58,0,0,0,204.05,618Zm-11.89-2c.92-1.11-.78-1.46-.16-2.48C190.18,613.31,190.41,617,192.16,615.94Zm.85,7.73c.41-.82-1.06-1.09-.5-1.95,1.86-.55,2.64-.28,3.88,1.39,1.42-1.65,3.07.8,4.42-2.11.53,1.43,2.66-.26,2,1.53,2.11,0,.57-2.36.21-3-1.3-.76-2.49.52-3.87-1.4.81-1.46,1.81.77,2.59-1.18-.64-1-2.25.52-.84-1.43a8.84,8.84,0,0,0-3.79.25c-.43-.68.61-.54,1.06-1.57-1-1.41-1.82-.7-2.7-.46.62,2-.47.88-1.75,2.6a2.56,2.56,0,0,0,1.25,1.74c-.59.67-1.31-.73-1.89.13-.19-.65.39-1.51-.5-2C191.32,620.1,189.56,622.37,193,623.67Zm-8,11.22A3.72,3.72,0,0,0,183,638c1.06.69,2,.4,3-.91C184.21,636.82,186.73,635.21,185,634.89Zm-9.79-3.31c-.91,1.67-.21,2.18,2,1.48a1.54,1.54,0,0,0-.53-1.94c2.37-.22,6.52.2,7.49-2.3-2.64-.49-4.08.42-5.89-2-1.73,1-3.55.61-5.07,4.09.1-1.3.59-2.71.08-3.82a4.8,4.8,0,0,0-3,.94c-.39,1.11-1.22,2.37-.9,3.24-1.7.16-1.07,1.52-3,1C168.31,635.75,173.55,632.56,175.23,631.58ZM163.84,642.8c-1.6-1.48-1.43,1.07-2.24.74-.32.67.47,1,.9,1.39C163,644.23,163.4,643.51,163.84,642.8Zm5.24-1.71c.65-2.55-4.94.81-2.18-3.07-.87-1.17-1.5.47-2.33-.09.16,1.22.58,2.34,0,3.81l-.82-.57C164.26,644.2,167.47,640.38,169.08,641.09Zm6.66-2.94c-1.77,1.74-3.83-.27-5.63,1.35.6.37,1.21.73.88,1.4C173.26,640.28,174.33,640.41,175.74,638.15Zm2-3.15c-1-.82-1.79-.1-2.71-.42C174.11,636.74,176.85,636.8,177.79,635Zm.78,5.23c.19-1.93-2.67-2-3.45-.2C176.33,640.9,177.38,639.67,178.57,640.23Zm5.24-6.23c-.76-.48-.43-1.28-1.26-1.72l-1.38,2.1C182.13,635.31,183,635.47,183.81,634Zm2.53-2,1.72-2.63c-1.93-.57-.19-2.93-2.06-2.32-1.63,1.63,1.39,1.82,1,3.08-.86.41-1.8-.33-2.64.38C183.66,632.26,185.83,631.12,186.34,632ZM166.8,658.7c-1.24-1.17-2.11,1.81-3.2,2.31C164.87,662.35,165.81,660.32,166.8,658.7Zm4.54-4.43c-.89-1.6-1.39,1.49-2.28-.1-.89,1.13.8,1.43.21,2.46-.33.52-.66,1.06-1,1.59l1.22.87C170.79,657.26,170.35,656,171.34,654.27Zm7.91-5c-.91-.42-1.18-1-.53-1.95-1.55,1.06-3.05,2.79-4.62,3.52,1.16.3,2.34,1.06,3.47,1C178.14,651,178.69,650.15,179.25,649.28Zm10-13.58c2.09,1.26,3.86-2.34,5.86-2.55-2.07-.93-3.89,1.89-6,.89C188.86,634.69,189.7,635,189.25,635.7Zm-3.47,15.36c.81-3.49-3.48-4-4.13,0C183.33,651.68,185,648.28,185.78,651.06Zm4.81-6.51c-2.5.42-.7,2.39-3.18,3.07C189.59,648.15,190.16,646.81,190.59,644.55Zm1.27,8c-1-.41-.26-1.32.24-2.17l-1.58-1.21c-.58,1.15.4,1.84-.17,3-1,1.27-.21-1.24-1.58-1.2-.26,1.61-2.58,3.87-.79,4.86,1-1.14,0-1.68,1.3-2.92.79.32.48,1,.11,1.65C190.3,655.17,191.09,653.91,191.86,652.58Zm9.34-11.52c.18-1-.77-1.74-1.27-2.58l-1.37,2.08C199.51,641.89,200.25,639.72,201.2,641.06ZM190.62,672c.56-.8.1-1.84.85-1.54-.18-1.4-3-1.27-3.9,1.28C188.83,674,189.37,669.7,190.62,672Zm-1.3,12.93c-.59-.84-2.74,1.41-2,2.3C188.39,688.78,189.39,685.49,189.32,684.9Zm4.82,1.48-1.53-1.21c-1.53,1.3,1,1.38-.54,2.68C192.82,688.26,193.51,687.65,194.14,686.38ZM106.7,748c.54-.86,0-1.82.79-1.61-.28-1.36-3.34-.89-4.06,1.71C104.94,750.19,105.19,745.92,106.7,748Zm50-10c-.21-.09-1.52-1.69-2.72.92C155.05,740.05,155.79,738.4,156.69,738Zm39.87-27.08c.05-2.16-2.61-.44-3.47,1.05C194.34,712.89,195.4,711.15,196.56,710.89Zm.94,73c0-1.44-2.51-1.88-3.53.63.86,2.5,1.78-1.76,2.64.78C197.17,784.59,196.89,783.46,197.5,783.9Zm41,3.72c-.16-.13-1-2.1-2.33.33C236.85,789.33,237.68,787.85,238.47,787.62Zm35.8-19c.32-2.19-2-1-2.93.38C272.23,770.18,273.3,768.63,274.27,768.59ZM308.64,822c-.92-1.07-1.91-1.62-3.13.74A1.66,1.66,0,0,0,308.64,822Zm28.11.86c-.46-1.83-1.38.75-2.09,1.41C335,826,337,824.18,336.75,822.89ZM351,808c-.71-.31-1.43-.6-2.35,1C349.22,810.17,350.09,809.05,351,808Zm11.91,1.47c-.55-1.85-1.86-1.13-2,.51C361.35,811.17,362.13,810.09,362.87,809.43Zm8.74,4.34c1.21-2.9,2.42-3.68,3.67-6.94-.36-.81-.89-.35-1.25-1.23-.79,1.3-.21,2.55-1.89,3.9-1-1,.77-2,.66-3-1.94-.3-3.8,1.59-5.18,3.17C369.58,810.86,370,810.56,371.61,813.77Zm8.88-3.74c-1.07-2.62.69-1.09,1.8-3.06-.68-2.74-2-.43-2.94-1.15-.31.58.22,1.12-.22,1.71s-.85-.69-1.25-1.23c-1.09,2.82-1.12,1.68-2.13,3.48C377.23,810.72,378.74,811.27,380.49,810Zm11.17-1.71q-.82-2.27-2.26.09C390.13,808.51,390.7,809.89,391.66,808.32Zm14.06,1.8c.06-2.34-2.27-1.5-3.6-.38C403.12,811.31,404.42,810.69,405.72,810.12Zm24.68-1.6c.26-1.73-.57-.64-1.21-1.27C428.22,808.58,429.38,810.31,430.4,808.52Zm93.32-2.85c-.74-.07-2,1.36-2.18,2.49a1.46,1.46,0,0,1,1,.92C523.58,808,524.51,806.87,523.72,805.67Zm18.35.51c.57-2-1.91-.79-2.81-.15C539.81,808,541.27,805.46,542.07,806.18Zm76.57-2.27c.74-2.17-1.56-1.45-2.43-.63a3.65,3.65,0,0,0,.36,2.21C616.8,804.36,618.13,802.8,618.64,803.91Zm7.13.14c.16-3.31-3.18-2-4.87-1.26-.51,2.43,1.28,1.78,2.62-.23-.18,1.59-.92,3.13-.21,4.78C624.43,806.16,624,802.62,625.77,804.05Zm3.94-1c1.5-2-1.83-2.87-2.25-.19C628,803.82,629,802.64,629.71,803.07ZM1048.13,766c-.3,1.92.81,1.21,1.06,2.1.49-1.11,1.87-1.74,1.72-3.18C1049.53,766.07,1049.21,765.32,1048.13,766ZM378.9,733.33h-.34a1.43,1.43,0,0,1,.23.2A2.12,2.12,0,0,0,378.9,733.33ZM278.13,750.6c.82.86,2.66-1.08,2.16-2.13a1.19,1.19,0,0,0-.29-.39,3.55,3.55,0,0,1-1.3,1c-.18.32-.36.64-.54.9A.42.42,0,0,1,278.13,750.6Zm18.48-2a4.3,4.3,0,0,0,1.26-.68A4.11,4.11,0,0,0,296.61,748.62Zm57.49-31.85.71-.14a1.41,1.41,0,0,0-.43-.46C354.3,716.37,354.2,716.57,354.1,716.77Zm-10.4,5c.92-.09,1.87,1.08,2.77-.64C345.52,719.84,344.6,720.06,343.7,721.77Zm16.37-1.59a2.39,2.39,0,0,0,1,.25l.21-.08A3.37,3.37,0,0,1,360.07,720.18ZM210.63,689.72c-.32-.36-.1-.88.19-1.42a1,1,0,0,0-1.34.43C209.74,689.19,210.08,689.85,210.63,689.72Zm1.35-1.43a3.49,3.49,0,0,1-.73-.38,5.33,5.33,0,0,0-.32,1.67A3.77,3.77,0,0,0,212,688.29ZM219,685a1.06,1.06,0,0,0,.2.82c.83-.14.71-.62,1-1.34a3.53,3.53,0,0,1-1,.7Zm2.05,1.35a5.23,5.23,0,0,0,1.78-1.75,1,1,0,0,1-.77-.53c-.81.84-.66,1.52-1,2.27Zm1.11.48a4,4,0,0,0,1.15-1.3A7.53,7.53,0,0,0,222.2,686.79ZM199.53,661a8.4,8.4,0,0,1,.95-.11l0-.19a11.08,11.08,0,0,0-1.09.2A1.09,1.09,0,0,0,199.53,661Zm45.54-48.58c-.73,2.09,2.3,2.1,4.14,1.26a9.18,9.18,0,0,1,.31-1.9C248,611.62,246.6,613.76,245.07,612.42Zm10.16-10c.34.45.62.45.87.13.41.71-.44,1.84.83,2.25.27-1,.45-4,1.29-3.8-.06-1.09-.7-2.33-1.38-2.07C257.78,601.44,256.55,601.5,255.23,602.41Zm-.15-3.74c-.91-1-2,.68-1.8,1.87C254.74,601.8,254.27,600.24,255.08,598.67ZM221,592.53l.43.35a5.24,5.24,0,0,1,.68-.92,1.22,1.22,0,0,0-1.1.31A2.35,2.35,0,0,0,221,592.53Zm3.19-.86a2.11,2.11,0,0,0-.44-.7A1.15,1.15,0,0,0,224.15,591.67Zm682-69.71a15.28,15.28,0,0,1-1.95.55,2.14,2.14,0,0,0-.06.27c1.13.4,3.29,2.77,4.52-.1-1.38,1-2.51-.68-1.85-2.39l.09,0a.49.49,0,0,0-.5-.15A3.86,3.86,0,0,1,906.18,522Zm5.4.35a2,2,0,0,0-1.18.4,1.15,1.15,0,0,1,0,.41,1,1,0,0,1,.75.52,7.65,7.65,0,0,1-1.31.86,1.1,1.1,0,0,0,.19.9c1.59-1.65,2.77-.86,3.3-2.31a7.11,7.11,0,0,0-1.42-.74,2.65,2.65,0,0,0-.37.48C911.58,522.63,911.58,522.47,911.58,522.31Zm118.65,22.39c-.82,1-4,1.09-4.64,3.11,2.19.45,6.39-.77,7.32-1.95-.56.43-.36,1.15-.17,1.87a20.35,20.35,0,0,1,2.78-.55c-1.21-.8-3-1.31-.75-2.7a8,8,0,0,1-3.66.43c.1,1-.54,1.14-.68-.16Zm98.5,78.24c-.84.62-2.92,3.13-3.44,2.23-.64,1-.93,2.63-.24,3,.87-3,1.87-2,3.48-1.68,0-.68-.2-.92-.6-.86C1128.07,624.65,1129.46,624.38,1128.73,622.94Zm-52.79,100.77-.85-.16a1.74,1.74,0,0,0-.1.77ZM548,690.83c1.17-1.48,2.8-2.94,1.7-4.53-1.31,3.12-1.57,1.36-3.18,4.17a.79.79,0,0,0,.17.4h.61c.17-.07.34-.12.47,0Zm-2.06,0a2.13,2.13,0,0,0,0-1.71c-2,3.45-.75.08-2.71.29a2.36,2.36,0,0,0-.28.85A11.9,11.9,0,0,0,545.89,690.86ZM539,690.7a2.44,2.44,0,0,0,.38,0c.88-2.48,1.73-2.4,3.14-1.29.33-1.62.81-.49,1.88-2.07l-.55-1.17h-.47c-.79,2.09-2.22.12-3.45,1.39a1.6,1.6,0,0,0-.58-1.37l-3.28,0c1.66.61.45,1.76,1.15,3.94l.26.11,1.71-1.88C539.35,689.17,538.45,689.9,539,690.7Zm-30.33-1.93c-.6-1.42-2.28-.48-2.5.79C506.87,690.13,507.75,689.61,508.69,688.77ZM252.4,569.7a1.38,1.38,0,0,0-1.45.42l-.14.15a1.85,1.85,0,0,1,1.54-.11A1.32,1.32,0,0,0,252.4,569.7Zm768.31-30.48a6.35,6.35,0,0,1,.93.32,3.13,3.13,0,0,0,1.68-.52c-.19-1.66-1.7-.71-2.49-1.19C1020.43,538.51,1020.46,539,1020.71,539.22Zm-4.71,3.37a5.29,5.29,0,0,0,0,1.44,3.75,3.75,0,0,1,.6.24A4.82,4.82,0,0,0,1016,542.59ZM226.89,684.51l.56.49a3.87,3.87,0,0,1,1-1.51A1.76,1.76,0,0,0,226.89,684.51Zm9.7-3.51a2.65,2.65,0,0,0,.93.73,7.68,7.68,0,0,1,2.11.24,2,2,0,0,0,1-.57,1.45,1.45,0,0,1,.41.83c1.34-1.05,2.69-2.22,4.11-1,1.19-1.14-.05-1.67.62-2.68-2.61,2.11-3.28.52-5.58,3.13l-1.84-1.61c-.56.88-1.14,1.07-1.75.87C236.57,681,236.59,681,236.59,681Zm48.18-131a3.09,3.09,0,0,0,1.34,1.73,1.71,1.71,0,0,0-.4-2.45C285.39,549.57,285.08,549.82,284.77,550Zm-25.18,12.69.42-.1a2.27,2.27,0,0,0,.11-1.11C260,561.91,259.77,562.32,259.59,562.72Zm1.9-2.07a1.77,1.77,0,0,0-.31-1.7l-.69,1.68Zm19.7-7.62a3,3,0,0,0,.72-1c-.13.12-.27.25-.4.39S281.29,552.81,281.19,553ZM261,569.21a1.16,1.16,0,0,0-.44-.59.3.3,0,0,1-.31-.15v0a1.73,1.73,0,0,0-1.48.12c.44.35.47.83.68,1.26a3.7,3.7,0,0,1,1-.1Zm-2.52-.43a2.08,2.08,0,0,0-.37.41A4.89,4.89,0,0,1,258.46,568.78Zm5.94-3.93a2.74,2.74,0,0,0,0-.57.65.65,0,0,0-.71,0A2.36,2.36,0,0,0,264.4,564.85Zm3.62-3.11a.63.63,0,0,1,.33.29c.55-.86,1.09-1.7,1.64-2.54a1.4,1.4,0,0,1-.53-.35A11.57,11.57,0,0,1,268,561.74Zm-2,4a3.84,3.84,0,0,0,1.15-.78l-.08,0A2.19,2.19,0,0,0,266,565.71Zm11.81-11.92.07-.07-.1,0Zm6.13-3.22a15.93,15.93,0,0,0-2,1.39c.47,1.43,2.46-.1,1.79,1.64,1.95.15.58-2.33.26-3Zm-25.86,15c.57.48,1.79.18,2.37-.95a1.68,1.68,0,0,0-1.55-.46A13.86,13.86,0,0,1,258.08,565.55Zm-4,10.8a1.45,1.45,0,0,0,0,.3c.08-.06.14-.16.22-.23ZM237.48,684.89a.81.81,0,1,0,.94,1.3A4,4,0,0,0,237.48,684.89Zm22-7.62a5.69,5.69,0,0,0-1.66.33c.41.45.77,1.93,1.26.85C259.2,677.94,259.32,677.57,259.43,677.27Zm-12.26,2.81a6.61,6.61,0,0,1,.52.82c.4-.24.63-.74,1-1.06A4.06,4.06,0,0,0,247.17,680.08ZM444.78,583.3l.6-.17a2.66,2.66,0,0,1-.49-.31A3.58,3.58,0,0,1,444.78,583.3Zm-177.06,94a1.85,1.85,0,0,0,.32.37h0c.14-1.81,1.06-1.29,1.89-.3.49-1.42-.29-.87-1.19-1.6Zm4.86-4.54c-.59-.18-1.18,0-1.75.85-.37-.19-.21-.51,0-.84-.6-.29-1.16,1-1.73,1.68C270.27,675,271.44,674.33,272.58,672.72Zm-6.16-6.56a1.09,1.09,0,0,0,1-.29,1.13,1.13,0,0,0-.78-.48A1.17,1.17,0,0,1,266.42,666.16ZM484,576.63l0,.3a.87.87,0,0,0,.37,0c.08-.16.14-.28.19-.41A1.08,1.08,0,0,0,484,576.63ZM249.62,678.87a.57.57,0,0,0-.73-.37A7.17,7.17,0,0,0,249.62,678.87Zm-3,1.85-.07.15.16,0Zm97.07-16.83.72.67c-.05-1.47.92-1.52,1.8-2.53-.52.21-1,.27-1.26,0a8.93,8.93,0,0,1-1,.08,5.37,5.37,0,0,0-.94,1.9C343.2,664.42,343.43,664.17,343.66,663.89ZM241.21,685a3.41,3.41,0,0,0-.18-2.37C241,683.45,240.69,684.29,241.21,685Zm9.32-16.16a3.08,3.08,0,0,1,0,.44.7.7,0,0,1,.7.05A2,2,0,0,0,250.53,668.86ZM1016,542.55a2.13,2.13,0,0,0-2.46-.88,4.46,4.46,0,0,1,.19,1.75C1014.75,542.53,1014.77,543.73,1016,542.55ZM913.64,526c.92,1.54,1.59-1.36,2.8-.12C917.91,523.16,913.7,524.92,913.64,526ZM254.09,570.11c2.08-.43,3.07-.28,4.41-2.46-1.66,1.64-3.51-.48-5.18,1C253.86,569.05,254.41,569.46,254.09,570.11Zm-3.24,7.22c-.94,1-1.78,2.74-2.69,3.89h1.19A8,8,0,0,0,250.85,577.33Zm-4.3,5.44,1.1,0a4,4,0,0,0,.45-.31A4.87,4.87,0,0,0,246.55,582.77ZM244,584l-.21,0,.15.06Zm-6,4.55-.37-.08a1.73,1.73,0,0,0-.15.77Zm.53,81.61a22.21,22.21,0,0,0-.34,2.64c2.51-.69,4.61-.77,7.62-3.09,1.46.62.6,1.81,1.15,2.64a8.77,8.77,0,0,0,1.68-1.38c-.43-1.09-1.91-1.64-3.54-1.66-2,0-4.23.88-4.83,2.44-1.49-.41.68-1.89-.81-2.29C239.16,670,238.82,669.82,238.52,670.17Zm279,21.43a2.83,2.83,0,0,0,2.17-1.1c-.94.13-1.85.1-2.39-1.91-1.23.83-.67,1.7-1.65,2.53A7.93,7.93,0,0,1,517.52,691.6Zm3.54.2c.3-.45,0-.93,0-1.39a4.4,4.4,0,0,0-1.39.09c-.41.25-.18,1.14.17,1.63A2.13,2.13,0,0,0,521.06,691.8Zm4.09-2.55c.78.58,1.68.5,2.9-1.21C527.54,685.82,525.49,687.67,525.15,689.25Zm-3.89-2.69-1.27.05c-.6.77-1.18,1.37-1.78.28-1.32,2.38,1.14,1.89,2,1.79C521,687.28,520.74,687.1,521.26,686.56Zm599.41-36.87a4.9,4.9,0,0,0-2.49.47,15.49,15.49,0,0,0,2.61-.28A1.22,1.22,0,0,0,1120.67,649.69Zm-13.43,41.2c0-.69-.26-.94-.69-.89.1-1,1.61-1.2.74-2.69-.88.6-3,3.09-3.63,2.16-.65,1-.88,2.64-.12,3C1104.34,689.46,1105.47,690.51,1107.24,690.89Zm19.57-36.74c-.31-1.41-1.17-1.89-2.58-1.4C1124.18,654.81,1125.5,654.47,1126.81,654.15Zm-107.16-111.1c-.59-.52-.83-1.81-2.3-.41l.33,1.57Zm-2.28-4.06a14.47,14.47,0,0,1,1.47,0A1.74,1.74,0,0,0,1017.37,539Zm-94-10.68.88-.1a2.06,2.06,0,0,1,.51-.88C924.14,527.28,923.55,527.23,923.42,528.31Zm-.47-2.59c.44-1.69-1.19-1.47-1.77-3.15a1.55,1.55,0,0,0-.42.47c1.21,3.19-2.37.24-2.6,2.83.92,1.15,2,.62,2.16,1.54A9.34,9.34,0,0,1,923,525.72Zm-17.11-5.41a4,4,0,0,0-1.13,1.13C905.22,521.46,905.62,521.33,905.84,520.31ZM877.61,517l-.13-.06a1.34,1.34,0,0,0,0,.2A1.74,1.74,0,0,1,877.61,517ZM230.94,585.34v0l.18-.15Zm-1.65,1c.52.82-.92,2.23.52,2.75,1.5-1.89,3.16-1.32,4.66-3.08,1.54.06,1,2.17,2.42-.29.68.38.55,1,.79,1.48a.68.68,0,0,1,.71.07c-.11.13-.19.26-.29.39a1.13,1.13,0,0,0,.31.16c.69-1.77,1.52-1.51,2.26-2.71.4.24.65,1.14,1,1.71a10,10,0,0,0,.73-.73,3.39,3.39,0,0,1-.36-1.84c-1,.12-2,.24-3,.33a5.56,5.56,0,0,1,3.54-1.67,5.16,5.16,0,0,1,.35-.51c0,.17.1.31.14.45.58-.06,1.18-.07,1.76-.08l0,0,.11,0h.28a1.16,1.16,0,0,1-.26-.94,5,5,0,0,1,1.85-.54c1.75-2.31,3.49-5,5.42-5.9a2.39,2.39,0,0,1-.47-2.55c-.7-.09-1.36.49-2,1.39a1.66,1.66,0,0,1,.45,2c-2.85-.77-1.38,3.65-4,3.61.85-1.22,1.62-2.41.86-3.18a2.76,2.76,0,0,0-1.73,0l-1.28,2a3.94,3.94,0,0,0-1.79-.66c-1,.75-2,1.45-3.06,2.12.83,1.55-1,3.09-2.53,3.07a4,4,0,0,1,.92-2c-1.37.87-2.72,1.73-4,2.53-.12,1.93-2.19,1.65-3.69,2.23Zm-2.86,7.85A17.88,17.88,0,0,1,228,593a2.58,2.58,0,0,0-1.55-.81,3.26,3.26,0,0,0-.54,1.71A1,1,0,0,0,226.43,594.18Zm-10.77,39.45c.53.65,1,0,1.5.43l2.77-4.13a2.55,2.55,0,0,0-2,.32,2.66,2.66,0,0,1-.42.79,1.07,1.07,0,0,0-.34-.29C216.16,631.54,215.43,632.7,215.66,633.63Zm18.63,39.71a2,2,0,0,0,.23,1,14.5,14.5,0,0,1,1.88-.91,2.9,2.9,0,0,0,0-.52C235.66,672.35,235,672.93,234.29,673.34Zm255.77,15.32a3.85,3.85,0,0,0,3.85-.38Zm81.78,1.85.34,0a.78.78,0,0,0,0-.14A1.72,1.72,0,0,0,571.84,690.51Zm566.8-37.7c-.43-.06-.86-.11-1.3-.15a2.8,2.8,0,0,1-2.24,2,14.8,14.8,0,0,0,.4-2.09,22,22,0,0,0-4.3.39,3.15,3.15,0,0,0-3.06-1.8,9.36,9.36,0,0,0-1.53.16c.09,1,1.6,1.49,2.87,1.17-.24,1.74-2.22-.31-2,2,1.5,2.49,6.87-1.46,7.45,2.68A6.54,6.54,0,0,0,1138.64,652.81Zm-12.4-23a1,1,0,0,0,.48.92c.25,0,.52,0,.78,0a2.29,2.29,0,0,0,1.32-1.06C1128.52,627.41,1127.87,629.15,1126.24,629.84Zm24.3-47c-.3,1.63,3.16,1.36,2.6-.63-.81,1.2-1.1,1-1.13-.63A3.69,3.69,0,0,1,1150.54,582.8Zm-2.3,3.38c-.84,1.54.89,2.26,2.32,1.8-.31,1.72-2-.21-1.92,2,1.21,2.42,6.27-1.83,6.6,2.11,2.52-1.34,4.86-5,3-7.13-.48,1.8-.36,3.94-2.72,4.7a13.33,13.33,0,0,0,.57-4.86c-1.31.76-2.53,1.36-2.21-.71C1151,585.87,1150.54,586.17,1148.24,586.18Zm-2.41,2.27c-.16,2,1.05,1.62,2.25,1.26C1147.87,588.34,1147.12,587.91,1145.83,588.45Zm-7.83-3.82c.7,2,2.77,1.64,4.89,1.16C1142.23,583.69,1139.49,585.24,1138,584.63Zm-4.77-4.71c-.24,2,1.74,0,1.76,1.49C1136.26,580.13,1134.7,578.47,1133.23,579.92Zm-31.2-21.2c.1,2.36,2.15,1,3.4,1.22-1.11-2.93,2.3-3.55,1.8-6.18a2.64,2.64,0,0,0-2.09.46C1105.85,557.26,1103.9,559.73,1102,558.72Zm-15.24-3.61a5.53,5.53,0,0,0,3.44,1.3c-1.56,2.81-3.29-.44-4.93,2.79a1.6,1.6,0,0,0,.41.41,8.57,8.57,0,0,0,5.69-2.93c2.74,1.76,7.44,3.43,11.9-.36-1.2-5.91-10.92,1.67-11.83-2.6.41.93-2,2.95-2.42,1.86a2.19,2.19,0,0,0,.74-2.15A7.68,7.68,0,0,0,1086.79,555.11Zm-22.46-12.34h-.23c.05.51-.3.85-.34,1.31a3.7,3.7,0,0,0,.58.1C1064.32,543.7,1064.37,543.18,1064.33,542.77Zm-5.09-4.52a2.29,2.29,0,0,1-1.55,1c.2.47.67.73,1.8-.13C1059.5,538.65,1059.4,538.39,1059.24,538.25Zm-1.74,0s0,.18,0,.34c.16-.1.32-.23.49-.35A1.31,1.31,0,0,1,1057.5,538.22Zm-20.74,7.2c.84.41.23.93-.38,1.66,1.42-.16,2.81-.24,4.26-.46a2.26,2.26,0,0,0,0-.37C1038,548,1040,543.16,1036.76,545.42Zm-8.82-2.69-1.81,1.14c-.9-1.6,1.94-1.4,1.67-2.7a8.84,8.84,0,0,0-3.19.17,5.07,5.07,0,0,1-2,.57,1.16,1.16,0,0,1,.12.82,2.27,2.27,0,0,0-1.28-.56,1.68,1.68,0,0,0-1.07,1.64,19.72,19.72,0,0,0,9.08.52A3.8,3.8,0,0,1,1027.94,542.73Zm1.8-33.65c.48,1.07.83,2.42,2.48,1.18C1032.18,508.29,1030.6,507.53,1029.74,509.08Zm-7-3.86c-.1,2.65,1.71,1.5,2.17,3C1025.88,506.31,1024.1,504.62,1022.75,505.22ZM1011.87,496c.73.8.79,2.95,2.55,1.72C1014,496.33,1013.44,495.16,1011.87,496Zm-30.06,39.53c.8.12,1.59.26,2.38.41-.27-.61-.63-1-.9-1.61A4.4,4.4,0,0,0,981.81,535.54Zm21.79-41c.34,1.26,2,1.5,2.86-.13C1005.82,493.75,1004.65,492.53,1003.6,494.55Zm-37.9,36c.51.49,1,1.08,1.5,1.56a1.76,1.76,0,0,1,.47-.6,1.53,1.53,0,0,1,.25,1.16,2.53,2.53,0,0,0,.87.35C970.85,530.17,967.6,529.29,965.7,530.51Zm-2.91-.38a5.79,5.79,0,0,0,2.86-.14C965.07,528.62,964,528.66,962.79,530.13Zm26.36-45.42c0,1.92,1.52.72,2.08,1.48C992.06,487.1,991.12,482.23,989.15,484.71Zm-28,43.68,1.36-.87c.19-1.64-1-.48-1.1-1.51C960.16,527.29,961,527.11,961.18,528.39Zm-3.76.71c.27.51.68.71,1.46.18.12.4-.13.61-.4.81.2.62,1.16-.27,1.85-.61C959.92,528.23,958.89,528.21,957.42,529.1Zm20.23-52.78c.84,1.5,2.3,4.34,4.08,1.91C980,478.29,979.58,475.83,977.65,476.32Zm-38.41,53.36a6.6,6.6,0,0,0,1.44,2,9.64,9.64,0,0,0,3.08.38A15.08,15.08,0,0,0,939.24,529.68Zm-.9.58a.73.73,0,0,0-1-.33c-.32.52-.62,1.13-1.06,1.75a5.44,5.44,0,0,1,1.34-.32A7.61,7.61,0,0,0,938.34,530.26Zm3.75-14.65c1,.3.57-.41,1.81-1.16C944,512.22,941.52,513.83,942.09,515.61Zm-9.72,13.51c.41.19.7.65.82,1.58a2,2,0,0,0,1-.2A3.25,3.25,0,0,0,932.37,529.12Zm-1.64.17a3.5,3.5,0,0,1,.83-.24A2.13,2.13,0,0,0,930.73,529.29Zm.51-2.77a9.44,9.44,0,0,1-1.36,1.31,1.65,1.65,0,0,0-.21.42,1.7,1.7,0,0,1,0-.22,12.8,12.8,0,0,0-1.47,1.35,4.74,4.74,0,0,1,.37.87l.52-.21C929.62,528.79,931.18,528,931.24,526.52Zm-2.35-4a2.71,2.71,0,0,0-1.37,1.18c.23-.15.46-.29.69-.47a3.08,3.08,0,0,1-1,1.88,5.07,5.07,0,0,0,.16,1.19c1.29-1.09,1.23.61,2.5-.44a2.39,2.39,0,0,1,.16-.32C928.85,525.18,929.5,523.11,928.89,522.47Zm-3.14,2.08-.14.09.15-.06Zm-17.93-4.82a1.72,1.72,0,0,1-.17.31l.28,0A1.56,1.56,0,0,1,907.82,519.73ZM905.91,516a3.25,3.25,0,0,0,.28.56s0-.07,0-.11l0,.13a2,2,0,0,0,2.77.74A2.09,2.09,0,0,0,905.91,516Zm-7.45,2.3c.19.49.39.72.6.78.05-.45.08-.9.13-1.35.31,2.48.93-1.12,1.61-.22.33-.31.66-.39,1,.18a3.2,3.2,0,0,0-.88.78,1.19,1.19,0,0,1,.49.77c-.52.53-1,.37-1.24.52-.06.15-.11.29-.16.44s0,0,0,0c.23,1.28.94,1.29,1.71,1.12-.39-.3-.67-.86-1-1.21a3.83,3.83,0,0,1,.76-.35,3.08,3.08,0,0,1,0-.55,3,3,0,0,1,2.34-.88c-.76-1.29-1.37-2.92-2.73-2.93C899.71,515.68,898.86,516.5,898.46,518.26Zm8.21-18.52c.63,1.56,2.49.84,3.82-.9,0-.49-.25-.36-.53-.21l-.14-1C909,499.42,908.22,498.21,906.67,499.74Zm-44.88,2c-.31-1.49-2.83.54-2.09,2.1C861,503.4,860.71,502.33,861.79,501.78Zm-8.39-.11c1.06-.38,1.6.49,2.21,1.2-1.49,2.29-.84-.23-2.7,1.46,1.06,1,2.71.67,3.75,1.79-.49.45-1.24.81-1.2,1.46,1,.21,1.76.31,2.16-1.59,1.09,1.45,2.33,2.22,3.65,1.32-1.17,1.1.25,1.62,1,.39a3.75,3.75,0,0,1-.18,1.84,3.05,3.05,0,0,0,2.26-1.09c.1,3.32,2,2.27,3.74,1.83-.75.62-.12,1.74-.47,2.5l.37-.08a2.06,2.06,0,0,1,1.84,0,2.13,2.13,0,0,1,1.11.72,10.67,10.67,0,0,0,1.06.81,1.48,1.48,0,0,1,1.5-.73,1.3,1.3,0,0,1,.34.82,4.3,4.3,0,0,0,1.08-1c-.05,1,.23,1.23.63,1.19h0c.53-.07,1.29-.63,1.86-.75a2.71,2.71,0,0,1,.2,1.3c1.09.36,2.09.5,3.56-1,1.31,1.26-1.48,1.46-.91,2.53,1.62.5,3.69,1.84,5.48-.9,1.27.62,2.25,2,4.25.62.39,1.16-.33,2.05.49,3.33,2-2.38,1.71,1.59,3.46,0,.18-1.18,1.13-2.15,1.87-3.2.55,2.13-2.71,3.29-1.71,5.54.51-.48.82-.39,1.1-.25a2.55,2.55,0,0,1,.65-.55c0,.07.05.11.07.17A2.9,2.9,0,0,1,897.3,519c.74,1.4-1.2,2.49.32,2.84a3.28,3.28,0,0,0,1.21-1.75c-.46-.59-1.29-.78-1.78-1.47,1.06-1.19,2.3-2.31,1.88-4.1-.84.25-1.64,2.78-2.22,1.54a7.15,7.15,0,0,0,1.19-1.94A38.49,38.49,0,0,1,894,514c.41-3.59-4.18-2-5.44-4.12,0,.8-.89,1.26-1.18,1.95-.49-.49-.63-1.75-2-.31.52-4.19-2.31-1.44-4.11-1.66,1.15-1.37-.84-.93.14-2.38,1.38-1.28,2.23-1.38,2.78-.8.86-3.56-2.21-3.54-4.31-2.65.45,1.07,1.9-.15,1.81,2.12-3,.27-5.07-1.37-8.4-.21-.5.45-.34,1.14-.19,1.84l-2.2,1.59c-.53-1.63,1.36-2.37.83-4-1.25-2.6-2.92,1.6-3.23-1.65-1.78,2.1.13,3.87,1.11,3.75-1.89,2.07-2.07-2-3.31.71-.32-2.51,2.4-3.91,1.33-6.68-2,1.09-5.58-2.19-7.24,3.57a5.8,5.8,0,0,1,4.36-.33c-.91,2-1.64-.48-2.1,2.11-1.45-2.05-5.85-.86-6.35-2.79.19.5.62.43,1.05.38-.06-1.76-1.59-1.41.51-2.68,1.55-1-1.29,2.51.27,1.53,2.4-1.17-.08-1.15,1-2.49,1.21,1.1,2-2.12,3.75-1-.23-1.85-1.41-1.44-2.28-1.78-.93.92-2.15,2.9-2.7,1.4.49-.94,1.53-1.66,1.47-2.81-1.1.11-2.18-.06-2.61,1.92,1.46-.31-.4,2.86,1,2.74-1.93,2-1.76-1.11-2.73-1.42C854.41,500.42,853.41,500.88,853.4,501.67Zm-11.92-2.41c3,3,6.87,3.77,10.81,4.4-.42-.7-.62-1.91-1.35-1.84.16-1.36,1.75-2.26,2.32-3.49-.24-.88-.61-1.45-1.26-1.34-1.49.62-.28,2.11-1.45,2.83-1.58.34.67-1.92,0-2.84-1.15,1.35-1.27.15-2.28,1.16,0,2,.9,1.74,1.47,2.33-2.1,2-2-1.58-4,.15-.72-1.52.49-3.16-.7-3.51-1.17,1.41-.33,1.13,0,2.34C843,501.41,843.76,496.54,841.48,499.26ZM839,497.08c.33,1.5,3.36-.9,2.48-2.49C840.76,497.28,840,495.27,839,497.08Zm-3.08-.51c.48,1.58,2.22-.1,3.74-1.15-.11-.5-.21-1-.31-1.51C837.81,495.7,836.66,494.72,836,496.57Zm-15-3.82c.42,1.58,1.17,2.21,2.4,1.57-1.38-1.11-.31-2.36,1.12-3.85C823.59,488.27,822.37,491.44,821,492.75Zm-18.69-3.43c1-1.24,1.56-1.11,1.66.35.9-2.28.85-2.43,3.1-3.87C806,484,802.05,486.51,802.29,489.32ZM647.91,417.71c0,3.14,3.28-.89,4.48.11C652.29,414.6,649.3,417.85,647.91,417.71Zm-10.57,2c.83,1.32,1.93.28,3-1.06-.63-.59-1.43.54-1.94-1.13C637.63,418.29,637.72,419,637.34,419.73Zm-4-1.42-1-1.61C630.87,418.1,632.26,420.36,633.38,418.31Zm-16.61,5c.56,1.08,1.31.55,1.93,1.13,1.6-1.38.27-2.56,1.87-3.94-.43-1.44-1.17.07-1.67-.73a4.42,4.42,0,0,0-.27,2.57c-.87.91-1.47-.06-.75-1.23C616.78,420.31,617.26,422.77,616.77,423.31Zm-4,1.55c1.29,1.16,1.77-1.9,1.2-3.05C613.12,422.86,613.35,423.83,612.8,424.86Zm-2.42-1.95c.55,1.21,1.29.71,2.11-.57C611.93,421.13,611.19,421.63,610.38,422.91Zm-5.8-.43c.24,1.25-.67,2.58-1.88,3.94,1.29.64,2.92-1.81,4.12-.29,1-1.82-1.59-.51.36-3.41C606.37,422.13,605.34,423.53,604.58,422.48ZM397.15,460.75c1.67-.44,1.73-4,3.42-4.59-.75-.9.09-2-.09-2.94-1.43-.35-1,2.6-1.49,3.54-.45.48-.8-.32-1.19-.71C396.36,457.76,396.9,459.24,397.15,460.75Zm-2.82.74c1.36,1.1,2.06-2,2.39-3.22-1.4,0-1.08-.17-2-1.88C391.34,461,397.4,458.12,394.33,461.49Zm-5-3.19c.17,1.39-.47,2.87.32,4.17,1-2.46,1.16-2.2,2.18-4.5C391.11,456.32,390.09,459.06,389.32,458.3Zm-2.46,4.11c.56.91,1.18.83,1.87-.25-.42-.5-.85-1-.5-1.62C387.6,460.54,387.26,461.32,386.86,462.41ZM270.92,528.78c.56-.54,1.11-1.1,1.65-1.69a1.8,1.8,0,0,1,.11-.56A3.59,3.59,0,0,0,270.92,528.78Zm-4.08,3.68c1-.81,2-1.68,2.93-2.59a4,4,0,0,1-.93-1.14c.32.2,2.23-.66,1.38-1.17a2.49,2.49,0,0,0-2.82.7c.41.45.77.91.06,1.67a3.63,3.63,0,0,0-2.67.63Zm-43.7,36.35c.69-.23,1-.06,1.11.28l1-1.4C224.67,567.26,224,567.31,223.14,568.81Zm5.36,12.74-1,.63A2,2,0,0,0,228.5,581.55ZM231,581c.19-.34.39-.71.6-1.14-.55.27-1.1.55-1.65.86A1.77,1.77,0,0,0,231,581Zm-7.38,9.14a1.09,1.09,0,0,0-.25,0,1,1,0,0,1,.16.25A.89.89,0,0,1,223.62,590.11Zm-3,.39a8.45,8.45,0,0,0,.81-.26,3.47,3.47,0,0,1-.29-.65A2.7,2.7,0,0,0,220.62,590.5Zm-4,0a1.81,1.81,0,0,0,0,.87c.78-.19,1.56-.34,2.34-.5C219.26,589.17,217.54,590.63,216.67,590.52Zm-6.39,3.18c-.08.16-.17.27-.25.41a2.81,2.81,0,0,0,.27-.36Zm-4.87,3.73c1.39-.29,2.76-.92,4.18-.45a10.09,10.09,0,0,0,.87-2,1.82,1.82,0,0,0-1-.1c-1.12,1.06-2.35.62-3.49,1.42C205.68,596.8,205.52,597.16,205.41,597.43Zm20.32,0a1.3,1.3,0,0,1-1.06-.45,5,5,0,0,0-.76.21,1.57,1.57,0,0,1-.45,1.12,1.45,1.45,0,0,0-1.16-.46,12.71,12.71,0,0,1-2.89,1.08C220.46,600.07,223.7,599.71,225.73,597.44Zm1,1,2-1.44,0,0c-.45.53-.95.08-1.44-.37a1.42,1.42,0,0,0-.33.11A5.91,5.91,0,0,0,226.68,598.44ZM248,610.85c-1.06-.84-.17-1.5-1.5-1.3,2-2.72,3.69-2.29,5.86-3.22a8.42,8.42,0,0,1,2-1.92,21.61,21.61,0,0,0-1.68-4.5,3.69,3.69,0,0,0-1.47,2.19,2.82,2.82,0,0,1,.4,3.23c-1.88.29-3.77.56-5.41,2.64-.67-.47-.48-1.24-1.1-1.73-.15,2.39-1,.92-2,2.34.22.36.66.63.46,1.11a3.27,3.27,0,0,0-.78-.6C243.43,611.72,244.9,613.75,248,610.85ZM212,634.64c2.35.4,2.37-2,3.37-4.62l0,0,.07-.11a8.65,8.65,0,0,1,1.43-2.47c1.57-1,3.23.46,4.78-.89-.72-2.31-3.87,1.05-2.31-1.88-1.71-.48-3.71,1.83-4.48-.45-.94.89-2.24.76-2.13,2.26C216.29,626.9,214,632.57,212,634.64ZM208.52,639c-1.35,0-2.77-.81-4,1.57C205.89,640.74,207.2,639.57,208.52,639Zm-13.6,20.73c1.7,1.58,3.28,1.22,4.73-.95A3.67,3.67,0,0,0,194.92,659.68Zm5.22,3.7a1.28,1.28,0,0,0,.24.11c0-.14,0-.28,0-.42l-.1.1,0,0Zm37.79,3.18c-.19-.1-1.35-1.8-2.57.76C236.32,668.55,237.08,666.94,237.93,666.56ZM223.76,685.2c0,.22.12.41.47.57a3.38,3.38,0,0,1,.18-.85A2.61,2.61,0,0,0,223.76,685.2Zm-2.69-1.58c.75.74,1.56-.29,2.33-.31,0,0,0-.1,0-.15C222.61,682.36,221.83,682.89,221.07,683.62Zm-.39-6c0,1.64,2.86.24,4,.19C224.63,675.68,221.76,677.26,220.68,677.6Zm-25.55,12.69c-.72-.07-1.41.54-2.06,1.46,1.36,1-1.23,1.77-.47,3.51C195,695.73,193.65,692.11,195.13,690.29Zm15.44-3.91c0-.15,0-.31,0-.47a2.53,2.53,0,0,0-3.3,2.57c-1.55-3.48-4.05,1.27-6.46.17.1,2.27-2,2.25-3,3.8-1-1-2-1.76-2.88,0a3.07,3.07,0,0,0,3.59-.2c.87.48-1,1.42-1.36,1.23.74,1.87,4.23-1,6-2.14,1,2.62.68-1.09,2.26,1.88C208.32,690.56,207.77,688,210.57,686.38Zm-6.76,17.41.08-.06,0,0Zm14.05-13.37a2.6,2.6,0,0,0,0-1c-1.11.26-3.08-2.35-2.5.43-1.33-.34-.86-.88-.76-1.79a1.52,1.52,0,0,1-1.3,0,4.84,4.84,0,0,1,.2-.73c-.39-.31-.78-.8-1.19-.31-.39,2.33.5,1.06,1.52,1.83-.06,1.59-.77.64-1.63,2.38-.59-1.25-1.22-1.14-1.87.31,0-.88-.54-1.12-1-1.38a2.66,2.66,0,0,0,1,1.68c1.73-2.93.65.06,1.83.75C214,690.31,216,691.19,217.86,690.42Zm-13.27,45.87c-1.17-.37-2.38-1-3.4,1C202.44,738.55,204.6,737.93,204.59,736.29Zm9.88-2.39c-1.49-1.84-2.75.21-4.18-.49C210.44,735.39,213.38,735.26,214.47,733.9Zm17.21-1.34c-1.26,0-2.59-1.45-3.76.61C229.22,733.82,230.5,734.23,231.68,732.56Zm9.87-4.66a2.22,2.22,0,0,0-3.05,2C239.59,730,241.59,730,241.55,727.9ZM263,725c-1.08-1.35-2.07.51-3.12.35C258.45,725.26,262.28,728,263,725Zm17.41-1.73c-1.76-.52-5-1.54-5.55,1.35C276.69,723.43,278.59,724.86,280.41,723.26Zm63-6.73c1.3-.15,2.89-3,3.92-.7,0-2.44-2.84-2.85-4.34-1C342.57,716.44,344,715.29,343.38,716.53Zm.86,1.55,1.32-.28a4.82,4.82,0,0,1-.14-1A2.87,2.87,0,0,0,344.24,718.08Zm-13.45,5.42c-.57.57-1.17-.43-1.76-.85-.87,3-1.1,1.88-2,3.84,2,.51,4,.65,5.95-1-1.79-2.2.66-1.2,1.7-3.34-1.33-2.42-2.57.09-3.86-.35C330.49,722.45,331.24,722.83,330.79,723.5Zm-14,5c2.66.62,3.11.23,5.71,2.85,1-3.05,2.4-4.1,3.4-7.51-.6-.66-1.18-.09-1.78-.84-.76,1.44.18,2.47-1.7,4.18-1.46-.63.62-2.11.31-3C320.24,724.36,318.23,726.62,316.77,728.47Zm-8.44,2c.84,1,1.64-.19,2.45-1C309.79,727.85,308.27,728.87,308.33,730.47Zm-15.45,2c.95,1,1.85-.26,2.77-1.5C294.71,730.82,293.77,730.71,292.88,732.45Zm-47.3,22.06a2.36,2.36,0,0,0,.08-.4,2.2,2.2,0,0,0-2.3-.4A10.24,10.24,0,0,0,245.58,754.51Zm-1.2,1.36a1.74,1.74,0,0,0-.13-.55c-.3.19-.67.47-1.05.7A2.6,2.6,0,0,0,244.38,755.87Zm6.07-.69c.32-.71.59-1.41-.38-1.78l-.55.48c-.29.42-.6.85-.24,1.19A1.1,1.1,0,0,0,250.45,755.18Zm19.87-2.49q.24-.37.51-.75a15.09,15.09,0,0,1-1.75.6A3.33,3.33,0,0,0,270.32,752.69Zm4.11-1.8a3.63,3.63,0,0,0-1.41.21,1.84,1.84,0,0,0,0,.81C273.85,752.33,274.19,751.77,274.43,750.89Zm5.06.41c-.75.09-1.48.2-2.19.35C277.79,752,278.62,751.71,279.49,751.3Zm3.2-.38-.46.06C282.38,751.27,282.52,751,282.69,750.92Zm2.61-.49a22.35,22.35,0,0,1-2.41.46c.17.07.39.41.67,1.45A7.84,7.84,0,0,0,285.3,750.43Zm15.86-2c-1.31-2-2.94,0-4.61,2.56-1,.34-1.84-1.36-2.82-1.4.4-.14.77-.31.69-.72-1.82-.71-3.59,1.06-5.42-.44a3.47,3.47,0,0,1-.29.25,8.45,8.45,0,0,0-.3,1.44.84.84,0,0,1-.21-1,7,7,0,0,1-1.06.62,3.44,3.44,0,0,0,.56,2.16c1.74-2.62.51.2,1.38,1.13,2.23-2.44,4.07.39,6.29-1.89,0,1.11.28,1.51,1.05,1.57.73-1.7,2-3.22,1.84-1C299.25,750.5,298.78,748.66,301.16,748.47Zm1.18-.13a5.39,5.39,0,0,1,.33-.6l-.63.15Zm2.36-.23.78-1.06-1.17.29A3.23,3.23,0,0,1,304.7,748.11Zm-27.07,47.83c-.9-.59-1.79-1.47-2.86.38C275.62,797.85,277.44,797.61,277.63,795.94Zm33.23-48c-.94-.36-1.8-1.67-2.87-.57C308.82,749,309.76,749.32,310.86,747.92ZM286,795.55c-1-2.17-2.27-.35-3.34-1.36A1.91,1.91,0,0,0,286,795.55Zm31.9-50.45c-2.37,1.69-2.71-.07-4.88,2.17-.4-.6-.79-1.21-1.19-1.82l-.28.07c-.49.56-.92.63-1.34.35,0,1.75,2.38.59,2.73,2.26-1.05,1.93-1.83.89-2.84,2.4.77,1.27,1.64,1.33,2.46,1.87a4.41,4.41,0,0,0,1-4.33c1.24-.83,2.51-1.88,3.54-.36C318.12,746.76,317.18,746,317.85,745.1Zm3,1.8c.49-2.37-1.82-1.13-2.69.7C319.62,748.79,319.71,746.07,320.89,746.9Zm10.51.11c-1.33-.31-2.63-1-4-.57C326.43,749.71,330,748.92,331.4,747ZM300,797.54c-1-.28-1.92-2-3.12-.11C297.88,798.34,298.86,799,300,797.54ZM334.43,746a7.64,7.64,0,0,0-2.78,1.46C332.75,748.28,333.79,747.74,334.43,746ZM308.51,794.6c-.82-.85-2.51-.22-2.69,1.53C306.69,796.35,308.29,796.74,308.51,794.6Zm28.84-45.88c.77-1.66,0-1.11-.66-2.08l-1,1.35C336.12,749.43,336.85,747.92,337.35,748.72Zm2.8-4.43c-.46-.3-.94-.27-1.52.53-.27-.27-.1-.56.09-.86-.44-.41-1.05.78-1.6,1.38C338,746.18,339,745.71,340.15,744.29ZM326,795.65c-.7-1.58-1.72.11-2.53-.25C322.35,795,325.06,798.61,326,795.65Zm34.36-47.26c-1.09.21-.42.6-1.37,1.79C359.66,752.1,361.57,749.61,360.37,748.39Zm11.4-14.58c-.91.11-1.82.25-2.74.42a3.56,3.56,0,0,0-.34.58c1.48-.49,1.51,1.73,2.39,2A2.33,2.33,0,0,0,371.77,733.81Zm1.73,0,.11-.15-.26,0A.93.93,0,0,0,373.5,733.76ZM340,797.25c-1.32-.87-3.76-2.53-4.56.31C337.06,796.71,338.38,798.53,340,797.25Zm44-65.59c-.93.1-1.85.21-2.78.26a1.29,1.29,0,0,0-.2.59A3.15,3.15,0,0,0,384.05,731.66Zm6.59-.92-1.13.19A1.56,1.56,0,0,0,390.64,730.74Zm2.6-.36c0-.06,0-.09,0-.14l-.15,0A1.2,1.2,0,0,1,393.24,730.38Zm3.18,2.42c-1-1-2.21-1-3.53.15Q394.45,734.45,396.42,732.8Zm6.83-4.65-1.73.37c-.33.84-.63,1.75-1.45,1.15a3.8,3.8,0,0,0,.62-1l-3.55.76c1.47.69,2.8,2.49,4.45,1.86A3.27,3.27,0,0,0,403.25,728.15Zm-2.38,18.93c-1.11-1.1-2.73.25-3.5,2.27.14.44.36.23.59,0l.46.83C398.65,748.27,399.81,749,400.87,747.08ZM447,726.65c-1.21.87-.62,1.72-1.58,2.58C446.08,730.46,448.13,727.79,447,726.65Zm2.65,1.71c1.45-2.38,2.07.42,3.13.45.5-.71,1.41-1.41,1.22-2.13-1,.65-1.75,0-2.55-.45.93-2.55.91-.05,2.38-2.12-1.35-.68-3,.21-4.3-.47.38-.56,1.06-1.13.85-1.7-1.08.13-1.89.28-1.8,2.13-1.5-1-3-1.2-4.1,0,.9-1.38-.69-1.35-1.17,0a3,3,0,0,1-.32-1.7,3.6,3.6,0,0,0-2,1.74c-1-2.93-2.73-1.32-4.34-.35a1.18,1.18,0,0,0,0-1.23,2.34,2.34,0,0,0-1.18-.56,2.69,2.69,0,0,1-1.75.22,24.39,24.39,0,0,1-3.41,1.09,38,38,0,0,1-3.83.33,2.19,2.19,0,0,1-.42.3,2.61,2.61,0,0,1-.22-.27c-4.16.18-8.58.27-9.86,2.38-1.19.1-2.38.26-3.58.42a1.55,1.55,0,0,1,.38.25c-.38.57-1,1.15-.83,1.72a14.48,14.48,0,0,1,6.7-1.82c-2.07,3.41-4.2,1.48-7.3,4-.6-1.3-.55-3.3.11-4-2.46.37-4.93.85-7.41,1.36-.5,1.1-.83,2.18-.08,3.22.77-.54.78-3,1.76-2.2a6.72,6.72,0,0,0-.59,2.15,41.68,41.68,0,0,1,4-1.35c.71,3.29,4.84.17,6.78,1.6-.23-.71.52-1.44.6-2.15.65.25,1.18,1.3,2.12-.46.73,3.86,2.78.4,4.68-.07-.77,1.63,1.13.5.56,2.13-1,1.64-1.85,2-2.58,1.74.18,3.45,3.27,2.26,5.13.78-.76-.8-1.87.77-2.44-1.25,2.91-1.29,5.52-.52,8.57-2.69.38-.58,0-1.14-.33-1.71l1.8-2.16c1,1.26-.71,2.57.28,3.84,2,1.9,2.53-2.42,3.74.37,1.24-2.47-1.2-3.41-2.17-2.95,1.36-2.5,2.67,1.06,3.19-1.77,1,2.13-1.37,4.3.47,6.4,1.72-1.65,6.24,0,6.43-5.65a7.23,7.23,0,0,1-4.37,1.78c.38-2.07,1.8-.13,1.57-2.59,2,1.32,6.23-1.25,7.25.37-.33-.4-.75-.2-1.17,0,.52,1.56,2,.76.17,2.57-1.33,1.37.67-2.67-.67-1.29-2.15,1.82.38,1-.41,2.57-1.51-.6-1.45,2.55-3.55,2.17.72,1.58,1.81.8,2.79.82.69-1.13,1.42-3.29,2.37-2.12-.25,1-1.12,2-.77,3,1.08-.45,2.22-.64,2.16-2.56C449.89,731.26,451,727.81,449.61,728.36Zm17.1-2.86c-3.77-1.93-7.93-1.49-12.11-1,.6.52,1.11,1.57,1.83,1.3.17,1.28-1.22,2.55-1.5,3.84.46.74,1,1.16,1.61.88,1.36-1-.23-2,.78-3,1.52-.75-.21,2,.74,2.59.84-1.57,1.25-.5,2-1.71-.48-1.82-1.33-1.34-2-1.72,1.66-2.4,2.38.89,4-1.26,1.1,1.19.25,3,1.55,3,.86-1.62.07-1.13-.52-2.15C464.63,724,465,728.64,466.71,725.5Zm3,1.31c-.68-1.28-3.22,1.77-2,3C467.9,727.12,469.15,728.73,469.7,726.81Zm3.27-.4c-.85-1.31-2.25.72-3.56,2.11.21.42.44.86.65,1.29C471.27,727.72,472.66,728.3,473,726.41Zm16.09-.3c-.73-1.38-1.63-1.78-2.76-.88,1.63.69.78,2.12-.38,3.86C487.26,730.92,487.89,727.67,489.06,726.11Zm19.67-.73c-.83,1.36-1.41,1.34-1.74,0-.56,2.33-.49,2.46-2.52,4.23C505.83,731.06,509.4,728,508.73,725.38ZM654,798.64c.44-3.21-3.15.39-4.12-.82C649.53,801.11,652.71,798.27,654,798.64Zm10.17-.37c-.62-1.49-1.79-.6-3,.59.51.7,1.42-.32,1.68,1.47C663.66,799.68,663.68,799,664.14,798.27Zm3.54,2.08.73,1.81C670,801,669,798.44,667.68,800.35Zm16.4-2.41c-.39-1.2-1.16-.78-1.67-1.47-1.71,1.14-.61,2.56-2.32,3.72.22,1.53,1.13.11,1.49,1a4.87,4.87,0,0,0,.61-2.58c.94-.79,1.38.31.54,1.38C683.66,801,683.54,798.41,684.08,797.94Zm4-.9c-1.06-1.41-1.94,1.63-1.56,2.9C687.48,799,687.4,798,688.05,797Zm2,2.39c-.36-1.32-1.12-.94-2.07.23C688.37,801,689.13,800.6,690.08,799.43Zm7.77-2.27c-1.14-.87-3,1.36-4-.4-1.24,1.68,1.43.79-.81,3.42.68.74,1.85-.52,2.43.68C695.46,799.54,696.52,798.34,697.85,797.16ZM892.66,802c-1.49,0-2.34,3.62-3.87,3.79.42,1.11-.52,2-.59,3,1.09.73,1.4-2.4,2-3.23.48-.37.58.54.81,1C892.61,805.24,892.52,803.59,892.66,802Zm2.5,0c-.87-1.47-2.16,1.5-2.72,2.66,1.15.35.85.46,1.22,2.44C897.51,803.2,891.84,804.59,895.16,802Zm3.31,4.62c.2-1.46,1.07-2.78.75-4.34-1.37,2.21-1.45,1.89-2.82,4C896.59,808.07,898,805.58,898.47,806.58Zm2.95-3.46c-.22-1.1-.73-1.2-1.55-.3.22.63.43,1.28,0,1.79C900.37,804.81,900.83,804.11,901.42,803.12Zm114.85-50c-2.64.56-6.13,1.4-8.28,3-.49.45-.23,1.21-.21,1.86,2.67-1.12,4.43-.33,6.13-1C1015.29,756,1016.5,754.85,1016.27,753.16Zm6.51,5a3.94,3.94,0,0,0,.64-2.66c-2.31,1-4.23,1.23-6.51,2.25C1018.48,758.71,1020.87,757.92,1022.78,758.17Zm10.16-3.26c-2.17-2.77-6.48,1.87-8.39,2.1l.23,2.08C1027.41,756.12,1029.71,756.12,1032.94,754.91Zm62.54-23.81a3,3,0,0,1,.61-.81,8.44,8.44,0,0,0-1.91-1.13C1094.14,730.62,1095.19,730.2,1095.48,731.1Zm14.9.08,1.16.59a6.58,6.58,0,0,0-.79-.71Zm14.2-4.57c0-1.63-3-.27-3.64.75A2.78,2.78,0,0,0,1124.58,726.61Zm-18.24-33.2a1.58,1.58,0,0,1-1.27,1.42c.5.95,2.09.4,2.63-.6C1107.42,692.67,1107.05,692.9,1106.34,693.41Zm71.72,2.77c-.1-1.74-3.25-.67-4,.33A3,3,0,0,0,1178.06,696.18Zm-938.6-86.95a1.51,1.51,0,0,1-.18.26C239.44,609.43,239.52,609.35,239.46,609.23Zm-124.75,44.1a1.34,1.34,0,0,0-.56.09A.53.53,0,0,0,114.71,653.33Zm87.82,111-.5.2C202.33,764.58,202.54,764.59,202.53,764.33Zm-2.05.89c.52-.24,1-.47,1.55-.69C201.49,764.43,200.68,764.18,200.48,765.22ZM183.21,768c-.64,3.75-4.53.89-6.36,3.7,4.43-.32,8.16-2.49,11.8-2.9.63-1.74-1.06-.17-1.45-1.23C186,768.88,184.69,769.37,183.21,768ZM135,774.28c1.23.6,2-1.67,3.08-2.06C137,772.46,135.81,772.19,135,774.28Zm58.1-30c-.79.94-.56,1.57-.85,2.36.6.27,1.07-1,1.58-1.73a2.36,2.36,0,0,0,.8,1.44C195.34,744.56,194.06,744.88,193.11,744.31Zm-58.42-42.38c-1.39,1,2.28-.56,2.46,1.64.49-1.17,0-2,0-3C135.38,700,136.43,702.59,134.69,701.93Zm28,16.69c.6-1.33-1.39-.17-1.87-.63-.72,1.09-.64,1.91.27,2.43A1.6,1.6,0,0,1,162.7,718.62ZM156,710c.27-.65-.23-.58-.4-.29-.21-.62.29-1.5-.58-1.9a4.94,4.94,0,0,0-1.13,2.91C154.65,711.15,155.15,709.13,156,710Zm54.1,42c1.33,1.54.76-1.28,1.23-2,.89-1.24.2,1.25,1.45,1.28,1.63-2.94,3.46-2.88,5.31-2.36.27-.92.25-1.75.53-2.66a7.64,7.64,0,0,1-7,2.41C210.94,750.67,210,750.53,210.08,752Zm-55.73-56.63c-1.09-1.22-3,3.57-3.41,5.81,4.26-2.08,7.19-2.44,11.1-6.35-.62-.6-1.57.17-1.2-.86-1.64-.21-.85,1-2.36,2.08C158.53,693.84,153.08,697.46,154.35,695.32Zm81.28,63.9c-2.35.59-4.7.88-7,1.48C229.68,762,233.54,760.75,235.63,759.22ZM91,653.58c.29,1.43-1.19,1.26-1.91,3.39,2.66-.29,2.29-1.65,3.3-2.7C92.69,653.33,91.7,654.2,91,653.58ZM160.16,698c1.25-.91,2.66-.32,3.78-2.54C162.44,694,161.41,697.1,160.16,698Zm62.69,44.13c.83.52,1.57-.7,2.36-1.06.54-1.41-1.51,1-2.13-1.1C222.18,740.87,223.32,741.26,222.85,742.09ZM135.23,655.6c-1.58,0-3.19-.24-4.43,2.49,1.58.35,1.95-.9,2.89,1,.31-.53-.26-.74-.52-1.07C133.78,656.64,134.65,657.35,135.23,655.6Zm47.08,9.15c-1.52,1.6-4.56,2.34-4.89,4,1.77-1.69,1.69.39,3.69-.29A26.89,26.89,0,0,1,182.31,664.75Zm80.93,68.57c-.84-1-1.57,1.7-2.42.18.37,1.65-1.47,3,.14,5,.89-1.07,1.8-1.83,2.73-1.53.68-1.28-1.33-.31-1.75-.82C261.26,734.8,263.72,735,263.24,733.32Zm9.41.63c-1.49.85-3,1-4.47,2.35,1.65,1,3.18-2.58,4.86-.34C274.11,734.12,272.05,735.1,272.65,734Zm-4.25-2.32c.46,3.4,3.71-.2,5.3,2.49,1.1-2.43,2.29-1.34,3.47,0,2-1.15,2-2.14,3.75-3.85-.71-.24-1.4-.1-2.1-.33-.94.93.2,1.35-.3,2.17-.34.34-.69.17-1,.67-.41-.74.76-1.86-.75-2.34a2,2,0,0,0-1.35,2c-.67-.54-.33-1.32-1.08-1.83A5.77,5.77,0,0,1,268.4,731.63ZM167.46,602c.62.37,1.24.73.9,1.4.67.24,1.22-1.08,1.82-1.82-1.07-.3-2.08.16-3.14.13C166.71,602.39,167.26,602.31,167.46,602Zm41.75-1.46c-1.54-.57-2.88,3-4.48,1.23-.56,1.24,5,1.83,6.76-1C210.92,600.55,208.64,602.72,209.21,600.55ZM167.45,786.6c.9,1.29,1.79,1.15,2.67-.12C169.23,786.71,168.32,785,167.45,786.6Zm5-4.8c-.9-.32-1.8-2.12-2.67.14C170.66,781.28,171.57,783.37,172.45,781.8Zm5.34,3.94c-.56.82-.26,1.46-.88,2.28,1,.79,1-.59,2.36-1.32C178.77,785.74,178.28,786.08,177.79,785.74Zm28.49,32.78c-.93-1.44-1.89-1.28-2.86.48l1.11,1.48C205.13,818.86,205.69,819.81,206.28,818.52ZM175.4,780.35c-.08.66-.17,1.3-.59,1-.43,1.33,1.56,2.27,2.08.84C176.87,780.57,176.18,781.79,175.4,780.35Zm33.18,36.95-1.17,1.87c1.1-.22,1.11,1.23,1.67,2.24A4.86,4.86,0,0,0,208.58,817.3Zm-16.11-28.68c-.36,1.58,1.72,1.72,2.35-.48C194.05,786.37,193.24,790,192.47,788.62ZM224.28,816c0,2.33-.53,1.46-1.79,2.82a2.87,2.87,0,0,0-.52-1.6c-.79,1.15-1.55,1.28-2.29.38a6.91,6.91,0,0,0-1.5,3.19c.43.08,1.25-.74.84.28.55.89,1.18-1.49,1.76-2a3.63,3.63,0,0,0,2.48,2.52c.06-3.4,2-3.44,3.55-4.78C226,816.85,225.08,817.54,224.28,816Zm-26-26.75c.46-1.28-1.51-2-2-.08l1.16,1.48C197.47,790,197.79,788.76,198.32,789.22Zm1.62-12.43c.89.34,1.78-.27,2.69-1.72C201.7,774.92,200,774.66,199.94,776.79ZM241.7,826.3c.78,1.18,2.23.61,2.31-1.15C243.25,825.4,242.5,825.17,241.7,826.3Zm-32.91-50.16c1,.05,1.92,2,3-.5C210.77,775.26,209.8,774.86,208.79,776.14Zm32.5,19.94a1.42,1.42,0,0,1-1.13-.7c-.53,2.86-1.91.79-1.57,3.15C239.82,799.12,239.73,797.23,241.29,796.08ZM219,768.55c.4-1.43-1.71-1.09-2.28-3C215.77,767.62,218.14,767.92,219,768.55Zm13.24-.12c-1.16-.45-2.34-.19-3.48-1.09-1.05,1,1.54,1.42.5,2.43C230.23,769.44,231.18,770,232.22,768.43Zm27.94,44.11c-.49,2.67,1.65.23,2.23.55C262.85,810.91,260.74,812.79,260.16,812.54Zm2.5-9.16c-.58-1.54-1.39,1.12-1.94-1a4,4,0,0,0-.19,3.39C261.45,803.54,262.56,805.48,262.66,803.38Zm14.93,22.51c1,.91,2,1.59,3.08.12C279.65,825.84,278.67,825.16,277.59,825.89Zm.11-22.37c.74-2.29-1.12.47-1.35-1.09-1.22,1.14-.56,2-1.05,3.09a6.88,6.88,0,0,0,2.17,1.41,1.24,1.24,0,0,0-1.29-2C275.62,804.54,277.37,803.27,277.7,803.52Zm5,2.05c1-2.89-2-2.17-3-1.81C279.41,806.39,281.89,804.34,282.66,805.57Zm7.68-.33c.11-1.38-1.21-3-2.16-1.48C288.08,805.07,289.35,807.3,290.34,805.24Zm5.82,1.55c2-2.11,3.55.39,5.52-1.81-2.69.53-3.62-4.27-6,1C296.08,806.07,296.49,806.16,296.16,806.79Zm9.25-2.59c-.47-2.19-1.48,1.94-2-.25-.44.69-.87,1.36-1.21,1-.8,1.61.83.41,1,1.59C302.91,804,304.25,806.23,305.41,804.2Zm.18,1.25c1.78.49,1.89,3.79,3.52,1.76-1.65-1.25.72-2.89-.78-4.15C308,806.06,306.61,803.79,305.59,805.45Zm9.67-1c1,1.83,2.25,0,3.34.55.48,1-.3,2-1.14,3,1.89,1,2.16-3.23,4.79-2.86-.4-1.78-.52-1-1.46-2.44-1.4,1.7.39.48.65,2.07C319.34,805.17,317.5,802.59,315.26,804.5Zm-10.65-83.4c-1.31.91-3.54-.55-4,1.68C301.87,723,303.15,723.14,304.61,721.1Zm122.8,5.43c-.74.36-1.26-.7-2.12.46l.92,1.69C426.88,728,426.69,727.26,427.41,726.53Zm436,88.06c1.83,1.42,5-2.17,6.85-.74C870,810.5,865.71,813.47,863.37,814.59Zm7.47-2c.53,1.45,1.52,1.19,2.9-.44A2.72,2.72,0,0,0,870.84,812.61ZM164.42,781.35c-.93-2.16-1.8-.41-2.68.13-2-3.39-4.94-.64-6-2.12-1.29,2.07,1.59,2.79,2.14,2.5-1.16,2.18-2.41-.8-3.55,1.56-.48-.88.88-2.13-.36-2.86-.48.9-1,.57-1.46,1.56,2.41-.26-.81,7.66,1.53,1.78,2.58-.18,5.14-1.48,7.75.09,1.12-2.07,1.52-1.5,2.08,0,.24-.6-.41-1,0-1.67,1.1-1.1.38,1.52,1.5,1.78.23-2.05.84-1.94,2.32-5.5C166.56,778.06,165.49,780.19,164.42,781.35Zm15.74,12.29c1.57.74,3.12,0,4.69-.95-1.07-.62-.35-1.61-1.17-2.28C183.16,794.06,181.5,792,180.16,793.64Zm90.53,31c.47-.15.94-.25,1.41-.38C271.67,824.06,271,823.58,270.69,824.64ZM256.15,824c-1,3.68-3.86-.06-5.73,2.42,3.69.61,7.06-.81,10.12-.47.74-1.63-.85-.38-1-1.55C258.32,825.51,257.19,825.74,256.15,824Zm16.33.15-.38.1C272.3,824.35,272.45,824.37,272.48,824.16Zm-57.11-4.62c.93.92,1.93-1.19,2.88-1.32C217.3,818.19,216.36,817.62,215.37,819.54Zm52.45-16.83a3,3,0,0,0,.46,1.62c.8-1.72-.28-1.64-1-2.4-.77.8-.65,1.48-1,2.23C266.76,804.55,267.31,803.33,267.82,802.71ZM246,769.4c.66-1.21-1.1-.5-1.42-1.08a1.8,1.8,0,0,0-.11,2.53C244.48,769.74,245.2,769.22,246,769.4ZM280.16,813c.9,1.83.78-1.15,1.26-1.82.87-1.07,0,1.31,1,1.6,1.69-2.64,3.17-2.21,4.61-1.3.33-.88.42-1.73.75-2.6a5.1,5.1,0,0,1-6,1C281,811.87,280.27,811.53,280.16,813ZM300,825.41c-2,.16-3.9,0-5.87.15C294.84,827.13,298.12,826.57,300,825.41Zm-8.26-19.88c.61.69,1.36-.41,2-.62.62-1.33-1.33.73-1.58-1.54C291.34,804.16,292.21,804.78,291.73,805.53Zm33.45-1.35c-.54-1.21-1.46,1.41-1.95-.29.1,1.74-1.53,2.7-.5,5.11.84-.9,1.65-1.5,2.36-1,.7-1.16-1-.57-1.3-1.18C323.42,805.29,325.36,806,325.18,804.18Zm7.37,2.47c-1.28.57-2.48.41-3.81,1.52,1.18,1.3,2.82-2,3.87.6C333.68,807.09,331.94,807.7,332.55,806.65Zm-3.07-3.18c-.06,3.55,3,.51,3.88,3.55,1.17-2.27,2-.93,2.74.67,1.74-.79,1.84-1.8,3.44-3.21-.53-.37-1.09-.36-1.62-.73-.86.76,0,1.41-.5,2.15-.32.28-.58,0-.9.49-.24-.84.83-1.76-.3-2.53-.77.19-1.11.65-1.32,1.78-.46-.67-.1-1.4-.63-2.07A3.74,3.74,0,0,1,329.48,803.47Zm98.52-77c-.34.58.21,1.14-.26,1.72.33.4.49-.2.36-.43,1.09-1.43,1.42,2.18,2.7-.47C430.15,725.19,428.92,726.83,428,726.51Zm426.87,88.6c-.2-.32,0-.59.23-.85-3.46,1.43-6.2.13-9.71,1.76,1.45.53,3.16,0,4.48,1.06,1.29-2.46,3-1,4.4-.73C854.55,816,854.49,815.5,854.87,815.11Zm244-288.32-.21-2c-1.2,1.27-1.21,0-2.25,1C1096.5,527.63,1097.33,528,1098.88,526.79Zm-3.05-2.29c-1-.38-.32-1.81-.31-3.1a6.19,6.19,0,0,0-1.45,4.28Zm-14.67-6.18c1.07-2.25,1.07-1.14,2.65-1.76a4,4,0,0,0-.29,1.84c1.13-.68,1.78-.39,2,.9a6.55,6.55,0,0,0,2.6-2.29c-.3-.32-1.31,0-.54-.74,0-1.17-1.59.81-2.25,1a4.82,4.82,0,0,0-.83-3.84c-1.56,3.28-3.1,2.26-4.91,2.71C1080.23,516.54,1081.23,516.34,1081.16,518.32Zm-9.27-19.69c-.11-1.57-1.54-1.79-2.37-.11C1070.25,498.69,1070.74,499.31,1071.89,498.63ZM1059,528.44a1.65,1.65,0,0,1,.59,1.28c1.69-2.51,1.88.25,2.64-2.25C1061.48,526.24,1060.72,528.15,1059,528.44Zm-8-26.19c1.55-2.35-1.25-1.13-1.58-1.75C1048.11,502.38,1050.64,501.7,1051,502.25Zm-4.85,9.69a4.63,4.63,0,0,0,1.62-3.23c-1.7,1.68-1.76-.83-2.75,1.18C1044.83,511.72,1046.63,509.55,1046.15,511.94Zm-3.74-32.33c-.43-1.38-1-2.56-2.53-1.7C1040.66,478.6,1041.2,479.77,1042.41,479.61Zm-7.89,18.74a1.49,1.49,0,0,0,.22,2.62c.27.74-1.68,1-1.85.62-1.57,1.85,1.12.11.63,1.79,1.48-.46,1.33-1.7,2.17-2.47A8.34,8.34,0,0,0,1034.52,498.35Zm-3.16,2c1.33-2.46-1.59-1.7-1.71-3.32C1027.64,499.38,1030.38,500.18,1031.36,500.34Zm-8.23-6.94c-.66,1.31-.25,3.63,1.19,2.57C1025,494.74,1024.81,491.88,1023.13,493.4Zm-9.61-5.61c2.47.87,1.28,6.1,5.47,2.12-.33-.29-.64-.6-.1-1.05C1016.38,489.93,1016.07,486.63,1013.52,487.79Zm-3.45-1.16c-.49,2.41,2-1.15,1.54,1.26.64-.46,1.28-.9,1.41-.34,1.33-1.19-.53-.84-.19-2.09C1012.07,488.16,1011.87,485.22,1010.07,486.63Zm.35-1.33c-1.29-1.41-.06-4.75-2.24-3.57.88,2.09-1.78,2.49-1,4.51C1008.61,483.42,1008.9,486.41,1010.42,485.3Zm-8.55-4.08c-.09-2.3-1.89-1.23-2.64-2.24-.05-1.18,1-1.84,2.18-2.46-1.24-1.93-3.15,2.16-5.29.51-.34,2,.09,1.2.32,3.13,1.88-1-.15-.67.25-2.37C998.64,478.5,999.22,481.93,1001.87,481.22Zm-112,34.55c1.09,2.15,2.62-1.12,2.44-3.38-3.47,1.36-4.74-1.38-7.58,1.32a11.61,11.61,0,0,0,6.39.62C891.14,515,890.38,515.33,889.87,515.77ZM879,510.91c-.11-.67-.21-1.36-.32-2-.8.5-.83,1.28-1.69,1.77C877.76,510.54,877.91,511.79,879,510.91ZM427.25,441.16c-2.36-.86-5.18,3.3-7.54,2.43C420.67,446.66,424.86,442.8,427.25,441.16Zm-8,3.74c-.92-1.21-2-.71-3.15,1.15A3.6,3.6,0,0,0,419.29,444.9Zm626.59,39.22.4.12C1046.13,484,1046,483.87,1045.88,484.12Zm1.69.48q-.66-.17-1.29-.36C1046.54,484.68,1046.89,485.45,1047.57,484.6Zm11.62,8.54c2.43-3.06,3.1,2.13,5.7.7-2.73-2.58-6.07-3-8.41-5-1.32,1.19.53.84.17,2.08C1058.08,490.5,1059.1,490.89,1059.19,493.14Zm30.55,26.61c-.31-1.41-2,.1-2.84-.3C1087.63,520,1088.11,521.08,1089.74,519.75Zm-49.18-12a4,4,0,0,0,.31-1.85c-1.38,1.26-.47,1.76-.22,2.9,1-.37,1.16-1.11,1.75-1.66C1042.21,506.51,1041.24,507.42,1040.56,507.75Zm-8.38-14.52c1.47-1.57,2-.85,2.66-2.23,0-2.27-1.13.73-1.81,1.14-1.17.61.54-1.29-.17-2.09-2.52,1.73-3.55.55-4.38-1.09-.65.69-1.07,1.48-1.72,2.17A4.41,4.41,0,0,1,1032.18,493.23Zm-8.92-24.79c1.74.87,3.32,2.05,5.07,2.93C1028.35,469.44,1025.32,468.27,1023.26,468.44ZM1020.12,492c-1.06,1,1.43,0,.69,2.33,1-.34.56-1.4,1.27-1.89C1021.86,491.4,1020.78,492.1,1020.12,492ZM997.18,473c-1.08.49-2,.69-2.44-.15-1.06.82.66,1.08.67,1.81-.27,1.7-1.69.07-2.23,1.95,0,1.46,1.81-.7,1.57,1.24C995.35,476.09,997.14,475.94,997.18,473Zm-5.55-2.11c-.54-1.87-3.24.63-3.16-2.48-1.57,1.14.18,1.39-.75,2.14C989.06,470.63,990,471.39,991.63,470.92Zm-8.16.65c.73.18,1.21-.11,1.82-1.14.14.9-.45,1.45-.24,2.37,2-.38,3.24.64,4.12,2.44,1.42-3.5-2.37-1.95-2-5.43-1.89,1.69-2.07,0-2.14-2-1.83-.08-2.28.89-4.22,1.52.33.62.82.89,1.14,1.51,1-.34.54-1.4,1.25-1.89.38-.13.52.23,1-.06C984.05,469.85,982.77,470.24,983.47,471.57Zm-107,38.9c.46-.47.14-1.22.72-1.65-.17-.52-.49,0-.44.32-1.37,1.08-.64-2.7-2.53-.44C874.2,511.08,875.75,509.84,876.48,510.47Zm-439.94-71c3.52-2.12,6.79-1.52,10.34-3.84-1.7-.17-3.49.67-5.14,0-.95,2.6-3.11,1.61-4.7,1.68-.23.44-.08.85-.42,1.3C436.9,438.88,436.73,439.17,436.54,439.47Z"/></svg>