<svg id="Layer_1" data-name="Layer 1" xmlns="http://www.w3.org/2000/svg" xmlns:xlink="http://www.w3.org/1999/xlink" viewBox="0 0 1919.76 787.7"><defs><style>.cls-1,.cls-4,.cls-5{opacity:0.68;}.cls-2{opacity:0.41;fill:url(#linear-gradient);}.cls-3{opacity:0.69;fill:url(#linear-gradient-2);}.cls-4{fill:url(#linear-gradient-3);}.cls-5{fill:url(#linear-gradient-4);}.cls-6{fill:url(#linear-gradient-5);}</style><linearGradient id="linear-gradient" x1="-9181.6" y1="-5537.59" x2="-7166.56" y2="-5454.13" gradientTransform="translate(-7262.47 -5050.46) rotate(180)" gradientUnits="userSpaceOnUse"><stop offset="0" stop-color="#fbbf24"/><stop offset="1" stop-color="#b45309"/></linearGradient><linearGradient id="linear-gradient-2" x1="-9185.51" y1="-5440.57" x2="-7170.1" y2="-5357.1" xlink:href="#linear-gradient"/><linearGradient id="linear-gradient-3" x1="-9182.23" y1="-5670.19" x2="-7262.47" y2="-5670.19" xlink:href="#linear-gradient"/><linearGradient id="linear-gradient-4" x1="-9182.23" y1="-5648.69" x2="-7262.47" y2="-5648.69" xlink:href="#linear-gradient"/><linearGradient id="linear-gradient-5" x1="-9106.47" y1="750.5" x2="-7186.47" y2="750.5" gradientTransform="matrix(1, 0, 0, -1, 9106.23, 1501)" xlink:href="#linear-gradient"/></defs><title>Artboard 5ldpi</title><g class="cls-1"><path class="cls-2" d="M1919.76,216.45v500H0V198.59S359,27.71,567.76,389.07c145.71,252.27,284.58,253.79,609-154.76,87-109.54,274-95.24,345-17.86C1621,324.62,1766.76,561.69,1919.76,216.45Z"/><path class="cls-3" d="M0,75.11V689H1919.76V53.18s-359-209.81-567.76,233.87C1206.29,596.8,1067.42,598.66,743,97,656-37.46,469-19.9,398,75.11,298.75,207.92,153,499,0,75.11Z"/></g><path class="cls-4" d="M1919.76,544.08V716.46H0V537.92S359,479,567.76,603.59c145.71,87,284.58,87.5,609-53.35,87-37.77,274-32.84,345-6.16C1621,581.37,1766.76,663.1,1919.76,544.08Z"/><path class="cls-5" d="M0,505.35V717H1919.76V497.79s-359-72.33-567.76,80.63c-145.71,106.78-284.58,107.43-609-65.51-87-46.36-274-40.31-345-7.56C298.75,551.14,153,651.49,0,505.35Z"/><rect class="cls-6" x="-0.24" y="714" width="1920" height="73" transform="translate(1919.52 1501) rotate(180)"/></svg>