<svg id="Layer_1" data-name="Layer 1" xmlns="http://www.w3.org/2000/svg" xmlns:xlink="http://www.w3.org/1999/xlink" viewBox="0 0 1578.93 1170.89"><defs><style>.cls-1{fill:#463033;}.cls-2{fill:#606060;}.cls-3{fill:url(#linear-gradient);}.cls-4{fill:#2e3f1f;}.cls-5{fill:#374f24;}.cls-6{fill:url(#linear-gradient-2);}.cls-7{fill:none;stroke:#979797;stroke-miterlimit:10;stroke-width:2px;}.cls-8{fill:url(#linear-gradient-3);}.cls-9{fill:#979797;}.cls-10{fill:url(#linear-gradient-4);}.cls-11{fill:url(#linear-gradient-5);}.cls-12{font-size:19.02px;font-family:MyriadPro-Regular, Myriad Pro;}</style><linearGradient id="linear-gradient" x1="419.02" y1="800.24" x2="509.8" y2="897.27" gradientUnits="userSpaceOnUse"><stop offset="0" stop-color="#15cff5"/><stop offset="1" stop-color="#3957b4"/></linearGradient><linearGradient id="linear-gradient-2" x1="666.76" y1="465.22" x2="717.15" y2="465.22" xlink:href="#linear-gradient"/><linearGradient id="linear-gradient-3" x1="299.24" y1="723.09" x2="349.62" y2="723.09" xlink:href="#linear-gradient"/><linearGradient id="linear-gradient-4" x1="577.84" y1="711.23" x2="628.23" y2="711.23" xlink:href="#linear-gradient"/><linearGradient id="linear-gradient-5" x1="1197.3" y1="749.76" x2="1247.69" y2="749.76" xlink:href="#linear-gradient"/></defs><title>Artboard 9ldpi</title><path class="cls-1" d="M1351.83,841.9l-79.77-83.79a29.68,29.68,0,0,0-42.24-.76h0a29.68,29.68,0,0,0-.75,41.7l82.62,86.74a31.7,31.7,0,0,1-.51,44.83h0a30.88,30.88,0,0,1-43.67-.5l-215.2-220.18-5.92-5.89.15-.14L822.8,475a86.92,86.92,0,0,0-122.92-1.41A93.62,93.62,0,0,0,698.36,606l42.82,43.81-.62.6L962,876.9a31.7,31.7,0,0,1-.51,44.83h0a30.88,30.88,0,0,1-43.67-.5L702.56,701.05l-6.85-6.82,0,0-52.63-49.71C589.24,607.72,538.17,671,533.73,676.69l-.25-.25-6.86,6.82L311.42,903.44a30.87,30.87,0,0,1-43.67.5h0a31.71,31.71,0,0,1-.52-44.83l82.62-86.73a29.68,29.68,0,1,0-43-40.94L227.1,815.22a93.63,93.63,0,0,0,1.51,132.39h0a86.93,86.93,0,0,0,122.93-1.4l222.87-228,.47.47,17.78-17.78c14.82-11.86,23.71,0,23.71,0l38.54,35.56.16-.16L877.65,964a86.93,86.93,0,0,0,122.92,1.41h0A93.62,93.62,0,0,0,1002.09,833L959.27,789.2l.62-.6L738.5,562.09a31.7,31.7,0,0,1,.51-44.83h0a30.88,30.88,0,0,1,43.67.5l215.2,220.18,5.92,5.89-.15.14,223.74,228.91a86.91,86.91,0,0,0,122.92,1.41h0A93.62,93.62,0,0,0,1351.83,841.9Z"/><path class="cls-2" d="M437.22,800.31l-7.93-7.93a3.68,3.68,0,0,1,0-5.21l9-9a4.54,4.54,0,0,1,6.43,0l6.81,6.81a4.16,4.16,0,0,1,1,4.28l-2,6-10.3,5.48A2.53,2.53,0,0,1,437.22,800.31Z"/><path class="cls-2" d="M401.65,835.87,393.72,828a3.68,3.68,0,0,1,0-5.21l9-9a4.56,4.56,0,0,1,6.43,0l6.82,6.82a4.16,4.16,0,0,1,1,4.27l-2,6-10.31,5.48A2.52,2.52,0,0,1,401.65,835.87Z"/><path class="cls-2" d="M451.34,814.44l7.93,7.92a3.68,3.68,0,0,0,5.21,0l9-9a4.54,4.54,0,0,0,0-6.43l-6.81-6.81a4.15,4.15,0,0,0-4.27-1l-6,2-5.48,10.3A2.55,2.55,0,0,0,451.34,814.44Z"/><path class="cls-2" d="M418.74,853l7.93,7.92a3.68,3.68,0,0,0,5.21,0l9-9a4.53,4.53,0,0,0,0-6.42l-6.82-6.82a4.14,4.14,0,0,0-4.27-1l-6,2L418.3,850A2.55,2.55,0,0,0,418.74,853Z"/><polygon class="cls-3" points="444.47 777.92 450.39 771.99 480.03 801.63 474.11 807.56 462.25 795.7 447.43 819.41 447.43 834.23 420.76 846.09 429.65 854.98 420.76 863.87 391.12 834.23 400.01 825.34 408.9 834.23 417.79 804.59 432.61 804.59 456.32 789.77 444.47 777.92"/><polygon class="cls-4" points="432.61 816.45 438.54 810.52 444.47 810.52 444.47 816.45 438.54 822.38 432.61 816.45"/><rect class="cls-5" x="426.07" y="822.63" width="4.19" height="8.38" transform="translate(-459.25 544.93) rotate(-45)"/><circle class="cls-6" cx="691.95" cy="465.22" r="25.19"/><line class="cls-7" x1="691.95" y1="440.03" x2="691.95" y2="210.15"/><line class="cls-7" x1="1222.5" y1="726.99" x2="1222.5" y2="497.11"/><line class="cls-7" x1="324.43" y1="700.03" x2="324.43" y2="470.15"/><line class="cls-7" x1="603.04" y1="964.79" x2="603.04" y2="734.91"/><circle class="cls-8" cx="324.43" cy="723.09" r="25.19"/><circle class="cls-9" cx="324.43" cy="461.5" r="10.37"/><circle class="cls-9" cx="691.95" cy="201.49" r="10.37"/><circle class="cls-9" cx="691.95" cy="201.49" r="10.37"/><circle class="cls-9" cx="1222.5" cy="486.86" r="10.37"/><circle class="cls-9" cx="603.04" cy="971.99" r="10.37"/><circle class="cls-10" cx="603.04" cy="711.23" r="25.19"/><circle class="cls-11" cx="1222.5" cy="749.76" r="25.19"/><text class="cls-12" transform="translate(276.32 429.32)">High School</text><text class="cls-12" transform="translate(636.17 164.56)">Post Graduate</text><text class="cls-12" transform="translate(566.23 1017.49)">Graduate</text><text class="cls-12" transform="translate(1182.74 448.34)">Doctorate</text></svg>