<svg xmlns="http://www.w3.org/2000/svg" version="1.1" xmlns:xlink="http://www.w3.org/1999/xlink" xmlns:svgjs="http://svgjs.dev/svgjs" viewBox="0 0 800 800" opacity="1"><defs><filter id="bbburst-blur-1" x="-100%" y="-100%" width="400%" height="400%"><feGaussianBlur in="SourceGraphic" stdDeviation="1"></feGaussianBlur></filter><filter id="bbburst-blur-2" x="-100%" y="-100%" width="400%" height="400%"><feGaussianBlur in="SourceGraphic" stdDeviation="2"></feGaussianBlur></filter><filter id="bbburst-blur-3" x="-100%" y="-100%" width="400%" height="400%"><feGaussianBlur in="SourceGraphic" stdDeviation="4"></feGaussianBlur></filter><filter id="bbburst-blur-4" x="-100%" y="-100%" width="400%" height="400%"><feGaussianBlur in="SourceGraphic" stdDeviation="12"></feGaussianBlur></filter><symbol id="bbburst-shape-9" viewBox="0 0 182 172"><path d="M13.5809 69.845 91 13.5967l77.419 56.2483-29.571 91.012H43.1524L13.5809 69.845Z" stroke-width="22"></path></symbol><symbol id="bbburst-shape-10" viewBox="0 0 145 145"><circle cx="72.5" cy="72.5" r="61.5" fill="none" stroke-width="22"></circle></symbol><symbol id="bbburst-shape-11" viewBox="0 0 194 167"><path d="M10.398 161 97 11l86.603 150H10.397Z" stroke-width="11"></path></symbol></defs><use xlink:href="#bbburst-shape-11" width="40.34995417165993" opacity="0.6415287859077323" transform="matrix(0.9396109274635749,0.3422445105345602,-0.3422445105345602,0.9396109274635749,688.0007714106787,141.90383522044567)" fill="none" stroke="#2793d4" filter="url(#bbburst-blur-1)"></use><use xlink:href="#bbburst-shape-11" width="76.74650345841854" opacity="0.010927343960301705" transform="matrix(0.9666914322178564,0.25594467151435213,-0.25594467151435213,0.9666914322178564,148.74259856693817,-278.97593588225357)" fill="none" stroke="#2793d4" filter="url(#bbburst-blur-3)"></use><use xlink:href="#bbburst-shape-11" width="18.52709241814461" opacity="0.8678318470447498" transform="matrix(0.8980870197586897,0.439817808803776,-0.439817808803776,0.8980870197586897,850.4926332238113,375.4200768153229)" fill="none" stroke="#2793d4"></use><use xlink:href="#bbburst-shape-10" width="44.071255561969906" opacity="0.4280069732516556" transform="matrix(0.99865531879097,0.05184162661902188,-0.05184162661902188,0.99865531879097,259.78397362994957,207.79038643236083)" fill="none" stroke="#2793d4" filter="url(#bbburst-blur-2)"></use><use xlink:href="#bbburst-shape-11" width="59.53566225708124" opacity="0.2776808086859903" transform="matrix(0.9998060135381326,0.019696073034677318,-0.019696073034677318,0.9998060135381326,358.44886488625264,-189.16312219056348)" fill="none" stroke="#2793d4" filter="url(#bbburst-blur-2)"></use><use xlink:href="#bbburst-shape-11" width="29.409603041992447" opacity="0.7618497550187475" transform="matrix(0.9272721693216974,0.37438793249974467,-0.37438793249974467,0.9272721693216974,906.5719323160467,186.9420884524285)" fill="none" stroke="#2793d4"></use><use xlink:href="#bbburst-shape-10" width="37.04234818377616" opacity="0.5775421448887272" transform="matrix(0.997228972829061,0.07439338512459252,-0.07439338512459252,0.997228972829061,489.7361008973612,125.73179979019727)" fill="none" stroke="#2793d4" filter="url(#bbburst-blur-1)"></use><use xlink:href="#bbburst-shape-9" width="41.427140246320214" opacity="0.45485030243957925" transform="matrix(0.9546045912578649,0.29787593784897204,-0.29787593784897204,0.9546045912578649,448.1511543680781,105.93035720544265)" fill="none" stroke="#2793d4" filter="url(#bbburst-blur-1)"></use><use xlink:href="#bbburst-shape-11" width="35.18222075282294" opacity="0.5518372381527572" transform="matrix(0.9688540170872281,-0.2476325777718697,0.2476325777718697,0.9688540170872281,253.25282132766236,291.93122470651815)" fill="none" stroke="#2793d4" filter="url(#bbburst-blur-1)"></use><use xlink:href="#bbburst-shape-10" width="17.78883574456989" opacity="0.8731545823923054" transform="matrix(0.9885848352581148,-0.15066526971298347,0.15066526971298347,0.9885848352581148,695.2789431998375,284.1770339101944)" fill="none" stroke="#2793d4"></use><use xlink:href="#bbburst-shape-11" width="31.814647279713043" opacity="0.7737392349054698" transform="matrix(0.8991463359688083,-0.43764810808898374,0.43764810808898374,0.8991463359688083,433.1348028153483,306.3988705814724)" fill="none" stroke="#2793d4"></use><use xlink:href="#bbburst-shape-11" width="36.21752416541288" opacity="0.6910973499755424" transform="matrix(0.9141023763606696,0.40548347134226914,-0.40548347134226914,0.9141023763606696,691.7344686343176,250.9290964324906)" fill="none" stroke="#2793d4"></use><use xlink:href="#bbburst-shape-9" width="35.83286599386989" opacity="0.4840381985245673" transform="matrix(0.8845830128992039,0.46638277550759394,-0.46638277550759394,0.8845830128992039,900.0377467261733,-73.48678979682848)" fill="none" stroke="#2793d4" filter="url(#bbburst-blur-1)"></use><use xlink:href="#bbburst-shape-11" width="50.25898809379271" opacity="0.5298001363263038" transform="matrix(0.9060866999730273,0.42309206105998887,-0.42309206105998887,0.9060866999730273,763.9642540486363,-6.874634950827954)" fill="none" stroke="#2793d4" filter="url(#bbburst-blur-1)"></use><use xlink:href="#bbburst-shape-10" width="21.485768572913486" opacity="0.797501746673325" transform="matrix(0.8015044049614454,-0.5979888701534498,0.5979888701534498,0.8015044049614454,351.29015860584366,460.46096437073976)" fill="none" stroke="#2793d4"></use><use xlink:href="#bbburst-shape-11" width="55.801222237781126" opacity="0.25265893851013277" transform="matrix(0.7528034743033544,-0.6582453410976783,0.6582453410976783,0.7528034743033544,413.18800738578625,-223.63986545146878)" fill="none" stroke="#2793d4" filter="url(#bbburst-blur-2)"></use><use xlink:href="#bbburst-shape-9" width="63.069905941753596" opacity="0.21627233285057934" transform="matrix(0.7394780290206497,-0.6731806923818708,0.6731806923818708,0.7394780290206497,202.91528037794353,-197.15610257837074)" fill="none" stroke="#2793d4" filter="url(#bbburst-blur-3)"></use><use xlink:href="#bbburst-shape-11" width="11.440629975986925" opacity="0.970601941930397" transform="matrix(0.9743503441025023,0.2250364569293947,-0.2250364569293947,0.9743503441025023,868.300551915994,384.27981385237075)" fill="none" stroke="#2793d4"></use><use xlink:href="#bbburst-shape-11" width="57.94538070109637" opacity="0.15451117046374607" transform="matrix(0.9726088690789627,-0.23244781734604708,0.23244781734604708,0.9726088690789627,-57.71611404222306,1.5258899632569864)" fill="none" stroke="#2793d4" filter="url(#bbburst-blur-3)"></use><use xlink:href="#bbburst-shape-9" width="19.319340519260585" opacity="0.8424987156605579" transform="matrix(0.935674908450323,-0.35286323936686825,0.35286323936686825,0.935674908450323,536.0260626459581,320.0723876030883)" fill="none" stroke="#2793d4"></use><use xlink:href="#bbburst-shape-10" width="15.249720008377592" opacity="0.9072751841168716" transform="matrix(0.9393876176364345,0.342856972849239,-0.342856972849239,0.9393876176364345,840.0077696495243,399.205927629998)" fill="none" stroke="#2793d4"></use><use xlink:href="#bbburst-shape-9" width="25.545228338388668" opacity="0.8116358071848097" transform="matrix(0.9285773864472017,-0.3711388384134491,0.3711388384134491,0.9285773864472017,468.78089253843575,353.80854803953486)" fill="none" stroke="#2793d4"></use><use xlink:href="#bbburst-shape-11" width="36.36014883686623" opacity="0.5581722000332696" transform="matrix(0.9432473749297043,0.3320909358718208,-0.3320909358718208,0.9432473749297043,475.64519343893244,378.31272977083137)" fill="none" stroke="#2793d4" filter="url(#bbburst-blur-1)"></use><use xlink:href="#bbburst-shape-11" width="84.49660302269325" opacity="0.2010708326807621" transform="matrix(0.9452404993003332,0.32637462904223563,-0.32637462904223563,0.9452404993003332,286.5283410243783,-115.34849882077702)" fill="none" stroke="#2793d4" filter="url(#bbburst-blur-3)"></use><use xlink:href="#bbburst-shape-9" width="14.222561895441784" opacity="0.9431430596445616" transform="matrix(0.9686805416534705,-0.2483103063143756,0.2483103063143756,0.9686805416534705,643.3452325589992,387.9193563828822)" fill="none" stroke="#2793d4"></use><use xlink:href="#bbburst-shape-11" width="49.02700091954575" opacity="0.36700868165610756" transform="matrix(0.9979615417553637,-0.06381818845170698,0.06381818845170698,0.9979615417553637,292.486383505052,-35.72960084539773)" fill="none" stroke="#2793d4" filter="url(#bbburst-blur-2)"></use><use xlink:href="#bbburst-shape-11" width="18.123321936186862" opacity="0.9226031636990784" transform="matrix(0.9858512540984424,0.16762250681972338,-0.16762250681972338,0.9858512540984424,837.6165214463504,329.2882474689018)" fill="none" stroke="#2793d4"></use><use xlink:href="#bbburst-shape-11" width="34.23942468065405" opacity="0.6857487853317059" transform="matrix(0.828826459432151,-0.5595057641751021,0.5595057641751021,0.828826459432151,512.2827375112414,167.3507391530282)" fill="none" stroke="#2793d4"></use><use xlink:href="#bbburst-shape-11" width="34.121305241236485" opacity="0.7505299842447133" transform="matrix(0.9036242713809858,0.42832601622033495,-0.42832601622033495,0.9036242713809858,721.7056684985607,345.4434755752948)" fill="none" stroke="#2793d4"></use><use xlink:href="#bbburst-shape-10" width="58.12415871584903" opacity="0.49438508190599906" transform="matrix(0.997488781582147,-0.07082464696533142,0.07082464696533142,0.997488781582147,432.9083644725577,3.453810994598939)" fill="none" stroke="#2793d4" filter="url(#bbburst-blur-1)"></use><use xlink:href="#bbburst-shape-10" width="22.517372150163112" opacity="0.7217225414201383" transform="matrix(0.9964671805108719,0.08398308261021081,-0.08398308261021081,0.9964671805108719,545.968071539271,368.25056391740196)" fill="none" stroke="#2793d4"></use><use xlink:href="#bbburst-shape-10" width="45.421181044041184" opacity="0.45552705913591607" transform="matrix(0.9802477096240992,0.19777367816953706,-0.19777367816953706,0.9802477096240992,315.9144794430143,341.42310848706256)" fill="none" stroke="#2793d4" filter="url(#bbburst-blur-1)"></use><use xlink:href="#bbburst-shape-9" width="28.220118630439696" opacity="0.731781917327678" transform="matrix(0.8908838607908363,0.45423115985411433,-0.45423115985411433,0.8908838607908363,803.9842091088046,225.78149591491547)" fill="none" stroke="#2793d4"></use><use xlink:href="#bbburst-shape-9" width="18.433129901036104" opacity="0.8558994235907974" transform="matrix(0.7113865076146307,-0.7028009937271424,0.7028009937271424,0.7113865076146307,369.9715201354979,498.90266985244904)" fill="none" stroke="#2793d4"></use><use xlink:href="#bbburst-shape-10" width="24.117125165593208" opacity="0.8230251374355131" transform="matrix(0.8204770788311476,0.5716794233770416,-0.5716794233770416,0.8204770788311476,985.5705818780095,291.08410492037126)" fill="none" stroke="#2793d4"></use><use xlink:href="#bbburst-shape-10" width="59.249792826362686" opacity="0.3075702614908373" transform="matrix(0.9999982287539003,-0.0018821501167542202,0.0018821501167542202,0.9999982287539003,149.03605084798323,92.92186924769038)" fill="none" stroke="#2793d4" filter="url(#bbburst-blur-2)"></use><use xlink:href="#bbburst-shape-9" width="42.062136813608674" opacity="0.6406771762584067" transform="matrix(0.9939857661380614,-0.1095093453314874,0.1095093453314874,0.9939857661380614,579.7216363266784,80.51260813567569)" fill="none" stroke="#2793d4" filter="url(#bbburst-blur-1)"></use><use xlink:href="#bbburst-shape-10" width="59.207259651230956" opacity="0.10890209260277328" transform="matrix(0.7661506306475409,0.6426610390854385,-0.6426610390854385,0.7661506306475409,508.3091642401348,-244.72190984788722)" fill="none" stroke="#2793d4" filter="url(#bbburst-blur-3)"></use><use xlink:href="#bbburst-shape-10" width="49.43067022176052" opacity="0.23885613151770013" transform="matrix(0.9345544922468443,0.3558200402187082,-0.3558200402187082,0.9345544922468443,177.28464932365813,247.51102424179322)" fill="none" stroke="#2793d4" filter="url(#bbburst-blur-3)"></use><use xlink:href="#bbburst-shape-11" width="39.75911405223753" opacity="0.3690022851502873" transform="matrix(0.9801316347708463,0.19834812457250098,-0.19834812457250098,0.9801316347708463,760.5744623528394,-219.62017772280262)" fill="none" stroke="#2793d4" filter="url(#bbburst-blur-2)"></use><use xlink:href="#bbburst-shape-11" width="22.25957681675902" opacity="0.8115240177324126" transform="matrix(0.9967693992198604,0.08031665318524325,-0.08031665318524325,0.9967693992198604,722.5165070135236,239.44756342409693)" fill="none" stroke="#2793d4"></use><use xlink:href="#bbburst-shape-11" width="16.89498880725997" opacity="0.8973604687694845" transform="matrix(0.9789795689085684,0.20395833804871405,-0.20395833804871405,0.9789795689085684,805.2733071815072,329.6647043697834)" fill="none" stroke="#2793d4"></use><use xlink:href="#bbburst-shape-10" width="36.55026891843207" opacity="0.5955036342643607" transform="matrix(0.7752997841859832,0.6315934171927126,-0.6315934171927126,0.7752997841859832,981.2254397368104,77.9121915131592)" fill="none" stroke="#2793d4" filter="url(#bbburst-blur-1)"></use><use xlink:href="#bbburst-shape-11" width="39.38644640932952" opacity="0.6442204450464344" transform="matrix(0.9990554345276986,0.0434538691104869,-0.0434538691104869,0.9990554345276986,444.8280465274055,353.84860398425633)" fill="none" stroke="#2793d4" filter="url(#bbburst-blur-1)"></use><use xlink:href="#bbburst-shape-11" width="53.192459340386094" opacity="0.32586464299216766" transform="matrix(0.8343694231255665,0.5512056474249056,-0.5512056474249056,0.8343694231255665,327.88500528670585,383.8837382663439)" fill="none" stroke="#2793d4" filter="url(#bbburst-blur-2)"></use><use xlink:href="#bbburst-shape-9" width="31.756461693652653" opacity="0.742574558363861" transform="matrix(0.9620311227534823,-0.2729397714765551,0.2729397714765551,0.9620311227534823,576.4604455012649,181.70029613873095)" fill="none" stroke="#2793d4"></use><use xlink:href="#bbburst-shape-10" width="43.014898842178255" opacity="0.5712610009211341" transform="matrix(0.9997779067107948,-0.02107456412316292,0.02107456412316292,0.9997779067107948,389.6906536021148,202.72757896561887)" fill="none" stroke="#2793d4" filter="url(#bbburst-blur-1)"></use><use xlink:href="#bbburst-shape-11" width="71.20683998335824" opacity="0.38877871998428626" transform="matrix(0.711927514468426,-0.7022529559516351,0.7022529559516351,0.711927514468426,236.37440178435043,-15.110459942009868)" fill="none" stroke="#2793d4" filter="url(#bbburst-blur-2)"></use><use xlink:href="#bbburst-shape-9" width="35.58656211365556" opacity="0.6653497674081297" transform="matrix(0.9083346212121292,0.4182442060655687,-0.4182442060655687,0.9083346212121292,638.2702796729047,310.50149323787974)" fill="none" stroke="#2793d4"></use></svg>
