<svg id="Layer_1" data-name="Layer 1" xmlns="http://www.w3.org/2000/svg" viewBox="0 0 421.97 418.42"><defs><style>.cls-1,.cls-2,.cls-3{fill:#fff;}.cls-2{font-size:116.63px;font-family:JavaneseText, Javanese Text;}.cls-3{font-size:90.89px;font-family:TwCenMT-Regular, Tw Cen MT;}</style></defs><title>writing service</title><polygon class="cls-1" points="7.62 272.79 14.08 310.48 53.07 285.22 6.82 268.01 7.62 272.79"/><path class="cls-1" d="M267.24,158.42s-82.49-1.41,32.88,67.84l-23.4,23.13-11-1.94L283,207.23s-46.6-8.67-57.89-43.56C225.09,163.67,227.31,143.5,267.24,158.42Z" transform="translate(-146 -150.74)"/><polygon class="cls-1" points="28.78 301.08 328.91 313.19 14.08 310.48 28.78 301.08"/><text class="cls-2" transform="translate(130.48 299.46)">W</text><text class="cls-3" transform="translate(223.32 302.52) scale(1.08 1)">riting</text><path class="cls-1" d="M360.29,226c0,.17-.06.3-.1.45l.23-.37Z" transform="translate(-146 -150.74)"/><path class="cls-1" d="M348.11,234.46a50.16,50.16,0,0,0,7.75-8.31,12,12,0,0,0,.27-1.24l-.31.5A46,46,0,0,1,348.11,234.46Z" transform="translate(-146 -150.74)"/><path class="cls-1" d="M357.07,231.46c.83-1,1.65-2,2.44-3.08l.27-.5a12.57,12.57,0,0,0,.41-1.44c-.26.44-.53.87-.81,1.3Z" transform="translate(-146 -150.74)"/><path class="cls-1" d="M358.32,224.79c0,.28-.08.53-.13.77.13-.21.28-.38.4-.58l-.42.67a9.9,9.9,0,0,1-.39,1.48c-.77,1.07-1.59,2.07-2.42,3.05l-4.94,7.95a53.73,53.73,0,0,0,6.65-6.67l2.31-3.72c.28-.43.55-.86.81-1.3,0-.15.07-.28.1-.45Z" transform="translate(-146 -150.74)"/><path class="cls-1" d="M358.59,225c-.12.2-.27.37-.4.58,0,0,0,.06,0,.09Z" transform="translate(-146 -150.74)"/><path class="cls-1" d="M357.78,227.13a9.9,9.9,0,0,0,.39-1.48l-2.81,4.53C356.19,229.2,357,228.2,357.78,227.13Z" transform="translate(-146 -150.74)"/><path class="cls-1" d="M355.36,230.18l2.81-4.53s0-.06,0-.09a49.47,49.47,0,0,1-7.63,9.55A52.17,52.17,0,0,0,355.36,230.18Z" transform="translate(-146 -150.74)"/><path class="cls-1" d="M304.35,167.11c-2.1-1-51.79-23.61-72.74-14a15.24,15.24,0,0,0-8.32,9l-25.82,53.8c-13-6.45-21.4-11.36-21.74-11.56l-2.7-1.6L146.18,371.48l-.18,1.19.21.18,7.28,51.34,6.59,37,90.72-58.57,57.36-92.39L331.43,274l-.86.19,26.5-42.69a53.73,53.73,0,0,1-6.65,6.67l4.94-7.95a52.17,52.17,0,0,1-4.8,4.93,49.47,49.47,0,0,0,7.63-9.55c.05-.24.09-.49.13-.77l2,1.2C361.82,218.62,362.83,191.45,304.35,167.11Zm-80.53,3.71c2.69,5,8.7,13.41,20.68,21.86,1.31.94,2.68,1.88,4.15,2.81l0,0a105.14,105.14,0,0,0,9.78,5.46h0a141,141,0,0,0,21.35,8.41l-14.42,32.83c-23.86-6.26-47.21-16.29-64.12-24.47ZM163.05,454.39l-5.6-27.76L190.1,437.8Zm31.46-19.58-38.58-13.2-.19-2-3.86-41.06a104.73,104.73,0,0,0,33.86,18.54,114.63,114.63,0,0,0,42.54,8.47,96.24,96.24,0,0,0,11.26-.66l-43.23,28.75ZM278,349.39c-24.11,2.91-37.19-5.1-40.69-7.68l17.4-63.56c17.1,10,53.12,4.73,67,2.18L304.6,307.91Zm67.39-107.18-20.61,33.2c-9.09,1.82-54.19,10-70-2.36l-2.52-2-19.74,72.09.93.88c.52.48,11.19,10.24,34.26,10.24,2.62,0,5.46-.18,8.42-.46l-5,8.08c-24.24,11.15-73.31-21-73.31-21l.81,18.55c35.7,24,55.26,20.82,63.31,17.27l-13.77,22.18c-5.24.72-32.2,3.7-60.37-5.61A138.16,138.16,0,0,1,150.58,371l25.68-161.4c3.6,2.06,10.38,5.82,19.31,10.29l-.07.16,1.82.95c31.06,16.19,67.46,26.24,68.41,26.5a133.5,133.5,0,0,0,37.45,5.6A98.44,98.44,0,0,0,319,251.82C328.73,250.45,337.73,247.45,345.39,242.21Zm10.47-16.06a50.16,50.16,0,0,1-7.75,8.31c-7.89,6.73-17.33,10.51-26.93,12.43-15.55,2.74-33.57.75-51.56-3.62l16.05-36.59h0l-2.11-.62-.21-.06-.19-.06c-2.24-.65-4.33-1.35-6.41-2.06-1.54-.53-3-1.06-4.49-1.61-.95-.36-1.89-.72-2.8-1.09-1.58-.63-3.1-1.28-4.56-1.93-1-.45-2-.91-3-1.37s-2.15-1.06-3.18-1.59c-1.23-.64-2.43-1.28-3.58-1.93q-1.15-.66-2.25-1.32c-1-.59-1.93-1.19-2.84-1.78-18.89-12.37-22.45-25.09-23-27.46a11,11,0,0,1,6.26-6.82c19.16-8.81,68.7,13.78,69.26,14,54.8,22.81,54.53,47.69,53.49,53.9A12,12,0,0,1,355.86,226.15Z" transform="translate(-146 -150.74)"/><path class="cls-1" d="M186.69,259.18c.68.68,16.85,16.58,40.13,16.58v-8.52c-19.68,0-34-13.94-34.11-14.08Z" transform="translate(-146 -150.74)"/><path class="cls-1" d="M216.73,294.48c-16.86,0-29.15-12-29.27-12.09l-6,6C182,289,196.26,303,216.73,303v-4.26h0Z" transform="translate(-146 -150.74)"/><path class="cls-1" d="M180.61,313c.5.5,12.47,12.27,29.7,12.27v-8.51c-13.63,0-23.59-9.69-23.69-9.79Z" transform="translate(-146 -150.74)"/><path class="cls-1" d="M197.77,340.89s56.63,30.08,74,20.37l-12,19.23s-23.06,7-67.43-19Z" transform="translate(-146 -150.74)"/><path class="cls-1" d="M382.2,496.17l2.67-2.88a8.7,8.7,0,0,0,5.06,1.94c1.94,0,2.9-.69,2.9-1.79s-1.18-1.54-3-2.21l-2.68-1c-2.14-.78-4.16-2.37-4.16-5.07,0-3.07,3.05-5.53,7.34-5.53A10.07,10.07,0,0,1,397,482l-2.35,2.65a7.11,7.11,0,0,0-4.27-1.46c-1.61,0-2.63.61-2.63,1.67s1.35,1.55,3.15,2.2l2.62,1c2.52.91,4.09,2.43,4.09,5.05,0,3.09-2.86,5.76-7.76,5.76A12.07,12.07,0,0,1,382.2,496.17Z" transform="translate(-146 -150.74)"/><path class="cls-1" d="M412.16,479.94h12.9v3.52h-8.24v3.73h7v3.52h-7V495h8.56v3.52H412.16Z" transform="translate(-146 -150.74)"/><path class="cls-1" d="M440.54,479.94H448c4.37,0,7.95,1.37,7.95,5.79,0,4.26-3.58,6.1-7.95,6.1h-2.76v6.69h-4.65Zm7,8.56c2.44,0,3.76-.95,3.76-2.77s-1.32-2.46-3.76-2.46h-2.39v5.23Zm-.48,2.23,3.22-2.69,6.58,10.48h-5.21Z" transform="translate(-146 -150.74)"/><path class="cls-1" d="M467.9,479.94h4.93l2.48,8.66c.61,2,1,3.9,1.65,5.95h.13c.62-2.05,1.06-3.92,1.65-5.95l2.43-8.66h4.76l-6.21,18.58h-5.6Z" transform="translate(-146 -150.74)"/><path class="cls-1" d="M498.94,479.94h4.65v18.58h-4.65Z" transform="translate(-146 -150.74)"/><path class="cls-1" d="M518.54,489.34a9.35,9.35,0,0,1,9.72-9.74,9.13,9.13,0,0,1,6.19,2.41L532,484.7a5.46,5.46,0,0,0-3.64-1.48c-2.82,0-5.05,2.25-5.05,6s2,6,5,6a5.7,5.7,0,0,0,4-1.73l2.45,2.63a8.86,8.86,0,0,1-6.65,2.73C522.9,498.86,518.54,495.59,518.54,489.34Z" transform="translate(-146 -150.74)"/><path class="cls-1" d="M549,479.94h12.91v3.52h-8.25v3.73h7v3.52h-7V495h8.56v3.52H549Z" transform="translate(-146 -150.74)"/></svg>