<svg id="Layer_1" data-name="Layer 1" xmlns="http://www.w3.org/2000/svg" viewBox="0 0 975.59 967.38"><defs><style>.cls-1,.cls-2,.cls-3{fill:#fff;}.cls-2{font-size:269.64px;font-family:JavaneseText, Javanese Text;}.cls-3{font-size:210.14px;font-family:TwCenMT-Regular, Tw Cen MT;}</style></defs><title>Artboard 1 copyldpi</title><polygon class="cls-1" points="17.62 630.67 32.56 717.81 122.7 659.43 15.76 619.63 17.62 630.67"/><path class="cls-1" d="M583.84,158.12s-190.72-3.27,76,156.84l-54.09,53.47L580.34,364l39.87-93S512.49,250.92,486.38,170.24C486.38,170.24,491.51,123.61,583.84,158.12Z" transform="translate(-303.52 -140.35)"/><path class="cls-1" d="M716.74,435.58S603.89,458.89,552.6,430L508.76,583.87s50.36,34.5,104.46,17.72Z" transform="translate(-303.52 -140.35)"/><polygon class="cls-1" points="66.54 696.1 760.42 724.08 32.56 717.81 66.54 696.1"/><text class="cls-2" transform="translate(301.67 692.34)">W</text><text class="cls-3" transform="translate(516.31 699.42) scale(1.08 1)">riting</text><polygon class="cls-1" points="245.65 104.97 317.58 127.75 296.64 177.1 245.65 104.97"/><path class="cls-1" d="M799,314.33c-.08.38-.16.71-.23,1,.17-.29.35-.56.53-.85Z" transform="translate(-303.52 -140.35)"/><path class="cls-1" d="M770.8,333.91a115.6,115.6,0,0,0,17.92-19.2c.16-.56.39-1.54.62-2.87l-.72,1.15A106.43,106.43,0,0,1,770.8,333.91Z" transform="translate(-303.52 -140.35)"/><path class="cls-1" d="M791.52,327c1.92-2.29,3.82-4.64,5.63-7.12l.63-1.17a30.34,30.34,0,0,0,1-3.33c-.62,1-1.24,2-1.88,3Z" transform="translate(-303.52 -140.35)"/><path class="cls-1" d="M794.41,311.56c-.1.65-.2,1.23-.3,1.77.29-.47.64-.86.92-1.34l-1,1.56a25.33,25.33,0,0,1-.9,3.42c-1.8,2.47-3.69,4.79-5.61,7.06L776.15,342.4A127.14,127.14,0,0,0,791.52,327l5.34-8.61c.64-1,1.26-2,1.88-3,.07-.33.15-.66.23-1Z" transform="translate(-303.52 -140.35)"/><path class="cls-1" d="M795,312c-.28.48-.63.87-.92,1.34a1.7,1.7,0,0,0,0,.22Z" transform="translate(-303.52 -140.35)"/><path class="cls-1" d="M793.17,317a25.33,25.33,0,0,0,.9-3.42L787.56,324C789.48,321.76,791.37,319.44,793.17,317Z" transform="translate(-303.52 -140.35)"/><path class="cls-1" d="M787.56,324l6.51-10.48a1.7,1.7,0,0,1,0-.22,113.76,113.76,0,0,1-17.64,22.09A119.74,119.74,0,0,0,787.56,324Z" transform="translate(-303.52 -140.35)"/><path class="cls-1" d="M669.64,178.2c-4.87-2.24-119.75-54.58-168.19-32.38a35.2,35.2,0,0,0-19.24,20.76L422.54,291c-30.1-14.91-49.49-26.25-50.28-26.71l-6.23-3.7L304,650.7l-.44,2.75.49.41,16.83,118.71,15.25,85.58L545.83,722.74l132.61-213.6,53.8-83.9-2,.44L791.52,327a127.14,127.14,0,0,1-15.37,15.41L787.56,324a119.74,119.74,0,0,1-11.09,11.39,113.76,113.76,0,0,0,17.64-22.09c.1-.54.2-1.12.3-1.77l4.56,2.77C802.5,297.3,804.84,234.48,669.64,178.2Zm-186.2,8.59c6.23,11.44,20.13,31,47.81,50.54,3,2.17,6.19,4.34,9.61,6.5l.07,0a244.12,244.12,0,0,0,22.62,12.62l.05,0A325.84,325.84,0,0,0,613,276l-33.32,75.92c-55.17-14.49-109.14-37.67-148.24-56.6ZM343,842.4,330,778.21,405.49,804Zm72.73-45.28-89.2-30.52-.44-4.71L317.13,667c24.52,20.4,51.6,33.9,78.27,42.87,38.33,15.32,72.49,19.57,98.36,19.57a223.83,223.83,0,0,0,26-1.51l-99.94,66.46Zm193-197.5c-55.75,6.75-86-11.77-94.08-17.74l40.24-146.95c39.52,23.12,122.8,10.94,154.92,5.05l-39.58,63.75ZM764.5,351.84l-47.64,76.74c-21,4.21-125.29,23.22-161.9-5.44l-5.83-4.56L503.5,585.26l2.15,2c1.19,1.1,25.86,23.67,79.19,23.67,6.07,0,12.64-.42,19.47-1.07l-11.6,18.68C536.66,654.35,423.22,580,423.22,580l1.87,42.9c82.54,55.48,127.75,48.13,146.37,39.92l-31.84,51.29c-12.12,1.65-74.43,8.54-139.57-13-26.93-10.65-56.06-27-85.93-51.62l59.36-373.16c8.33,4.76,24,13.45,44.66,23.8l-.17.35,4.22,2.21C494,340.1,578.15,363.35,580.34,364a308.53,308.53,0,0,0,86.58,12.95A226.73,226.73,0,0,0,703.41,374C726,370.89,746.8,364,764.5,351.84Zm24.22-37.13a115.6,115.6,0,0,1-17.92,19.2c-18.25,15.56-40,24.31-62.25,28.75-36,6.32-77.62,1.72-119.22-8.38l37.12-84.59h0v0l-4.88-1.42-.48-.14-.43-.14c-5.19-1.51-10-3.13-14.82-4.76q-5.36-1.83-10.4-3.74c-2.19-.82-4.35-1.66-6.46-2.51q-5.47-2.19-10.55-4.46c-2.35-1.05-4.66-2.11-6.89-3.18q-3.78-1.81-7.35-3.66c-2.84-1.48-5.62-3-8.26-4.47q-2.69-1.52-5.2-3.05-3.42-2.06-6.57-4.12c-43.67-28.6-51.92-58-53.09-63.48,2.35-7.22,7.1-12.38,14.48-15.76,44.29-20.37,158.82,31.84,160.12,32.44C792.37,240,791.75,297.48,789.34,311.84,789.11,313.17,788.88,314.15,788.72,314.71Z" transform="translate(-303.52 -140.35)"/><path class="cls-1" d="M397.61,391.07c1.57,1.57,38.94,38.33,92.77,38.33V409.71c-45.49,0-78.53-32.24-78.85-32.57Z" transform="translate(-303.52 -140.35)"/><path class="cls-1" d="M467.05,472.69c-39,0-67.38-27.68-67.67-28l-13.9,13.94c1.38,1.38,34.25,33.7,81.57,33.7v-9.84h0Z" transform="translate(-303.52 -140.35)"/><path class="cls-1" d="M383.54,515.43c1.16,1.16,28.84,28.37,68.68,28.37V524.11c-31.51,0-54.55-22.4-54.78-22.63Z" transform="translate(-303.52 -140.35)"/><path class="cls-1" d="M423.22,580s130.92,69.56,171,47.11l-27.82,44.45S513.11,687.7,410.52,627.7Z" transform="translate(-303.52 -140.35)"/><path class="cls-1" d="M849.61,939l6.18-6.66a20.07,20.07,0,0,0,11.7,4.49c4.49,0,6.69-1.6,6.69-4.15s-2.71-3.57-6.87-5.12l-6.19-2.38c-4.93-1.81-9.61-5.46-9.61-11.71,0-7.12,7-12.8,17-12.8a23.31,23.31,0,0,1,15.32,5.63l-5.43,6.12a16.53,16.53,0,0,0-9.89-3.36c-3.71,0-6.07,1.39-6.07,3.85,0,2.63,3.12,3.59,7.27,5.08l6.07,2.22c5.81,2.12,9.44,5.62,9.44,11.69,0,7.13-6.59,13.31-17.94,13.31A27.81,27.81,0,0,1,849.61,939Z" transform="translate(-303.52 -140.35)"/><path class="cls-1" d="M918.88,901.44h29.83v8.15H929.64v8.62h16.24v8.15H929.64v9.9h19.8v8.14H918.88Z" transform="translate(-303.52 -140.35)"/><path class="cls-1" d="M984.49,901.44h17.15c10.09,0,18.37,3.16,18.37,13.38,0,9.87-8.28,14.12-18.37,14.12h-6.39V944.4H984.49Zm16.27,19.79c5.66,0,8.7-2.19,8.7-6.41s-3-5.67-8.7-5.67h-5.51v12.08Zm-1.09,5.15,7.44-6.21,15.2,24.23h-12Z" transform="translate(-303.52 -140.35)"/><path class="cls-1" d="M1047.75,901.44h11.39l5.74,20c1.42,4.7,2.37,9,3.82,13.78h.29c1.44-4.75,2.46-9.08,3.82-13.78l5.62-20h11l-14.36,43h-12.93Z" transform="translate(-303.52 -140.35)"/><path class="cls-1" d="M1119.5,901.44h10.77v43H1119.5Z" transform="translate(-303.52 -140.35)"/><path class="cls-1" d="M1164.82,923.17c0-14.25,10.44-22.52,22.47-22.52a21.13,21.13,0,0,1,14.32,5.57l-5.67,6.23a12.61,12.61,0,0,0-8.41-3.41c-6.52,0-11.68,5.19-11.68,13.8,0,8.84,4.55,14,11.51,14a13.12,13.12,0,0,0,9.32-4l5.67,6.1a20.53,20.53,0,0,1-15.37,6.3C1174.9,945.19,1164.82,937.64,1164.82,923.17Z" transform="translate(-303.52 -140.35)"/><path class="cls-1" d="M1235.16,901.44H1265v8.15h-19.07v8.62h16.23v8.15h-16.23v9.9h19.8v8.14h-30.57Z" transform="translate(-303.52 -140.35)"/></svg>