<svg id="Layer_1" data-name="Layer 1" xmlns="http://www.w3.org/2000/svg" xmlns:xlink="http://www.w3.org/1999/xlink" viewBox="0 0 605.59 509.09"><defs><style>.cls-1{fill:#4a4a4a;}.cls-2{fill:#424142;}.cls-3{fill:#535353;}.cls-4{font-size:48.67px;font-family:CalisMTBol, Calisto MT;}.cls-33,.cls-4{fill:#231f20;}.cls-5{fill:url(#linear-gradient);}.cls-6{fill:url(#linear-gradient-2);}.cls-7{fill:url(#linear-gradient-3);}.cls-8{fill:url(#linear-gradient-4);}.cls-9{fill:url(#linear-gradient-5);}.cls-10{fill:url(#linear-gradient-6);}.cls-11{fill:url(#linear-gradient-7);}.cls-12{fill:url(#linear-gradient-8);}.cls-13{fill:url(#linear-gradient-9);}.cls-14{fill:url(#linear-gradient-10);}.cls-15{fill:url(#linear-gradient-11);}.cls-16{fill:url(#linear-gradient-12);}.cls-17{fill:url(#linear-gradient-13);}.cls-18{fill:url(#linear-gradient-14);}.cls-19{fill:url(#linear-gradient-15);}.cls-20{fill:url(#linear-gradient-16);}.cls-21{fill:url(#linear-gradient-17);}.cls-22{fill:url(#linear-gradient-18);}.cls-23{fill:url(#linear-gradient-20);}.cls-24{fill:url(#linear-gradient-22);}.cls-25{fill:url(#linear-gradient-24);}.cls-26{fill:url(#linear-gradient-26);}.cls-27{fill:url(#linear-gradient-28);}.cls-28{fill:url(#linear-gradient-30);}.cls-29{fill:url(#linear-gradient-32);}.cls-30{fill:url(#linear-gradient-33);}.cls-31{fill:url(#linear-gradient-34);}.cls-32{fill:url(#linear-gradient-35);}</style><linearGradient id="linear-gradient" x1="323.16" y1="100.41" x2="325.99" y2="100.41" gradientUnits="userSpaceOnUse"><stop offset="0" stop-color="#3ec5ec"/><stop offset="1" stop-color="#415aa8"/></linearGradient><linearGradient id="linear-gradient-2" x1="509.01" y1="100.19" x2="570.4" y2="100.19" xlink:href="#linear-gradient"/><linearGradient id="linear-gradient-3" x1="441.56" y1="143.01" x2="457.27" y2="143.01" xlink:href="#linear-gradient"/><linearGradient id="linear-gradient-4" x1="442.15" y1="123.26" x2="503.06" y2="123.26" xlink:href="#linear-gradient"/><linearGradient id="linear-gradient-5" x1="442.3" y1="117.58" x2="503.24" y2="117.58" xlink:href="#linear-gradient"/><linearGradient id="linear-gradient-6" x1="441.88" y1="130.85" x2="499.58" y2="130.85" xlink:href="#linear-gradient"/><linearGradient id="linear-gradient-7" x1="442.51" y1="109.54" x2="503.49" y2="109.54" xlink:href="#linear-gradient"/><linearGradient id="linear-gradient-8" x1="443.11" y1="89.81" x2="504.02" y2="89.81" xlink:href="#linear-gradient"/><linearGradient id="linear-gradient-9" x1="443.26" y1="84.13" x2="504.19" y2="84.13" xlink:href="#linear-gradient"/><linearGradient id="linear-gradient-10" x1="442.84" y1="97.4" x2="503.86" y2="97.4" xlink:href="#linear-gradient"/><linearGradient id="linear-gradient-11" x1="443.47" y1="76.09" x2="504.44" y2="76.09" xlink:href="#linear-gradient"/><linearGradient id="linear-gradient-12" x1="444.07" y1="56.39" x2="452.55" y2="56.39" xlink:href="#linear-gradient"/><linearGradient id="linear-gradient-13" x1="443.79" y1="63.97" x2="483.1" y2="63.97" xlink:href="#linear-gradient"/><linearGradient id="linear-gradient-14" x1="245.24" y1="143.08" x2="434.81" y2="143.08" xlink:href="#linear-gradient"/><linearGradient id="linear-gradient-15" x1="245.83" y1="123.36" x2="435.35" y2="123.36" xlink:href="#linear-gradient"/><linearGradient id="linear-gradient-16" x1="245.98" y1="117.68" x2="435.52" y2="117.68" xlink:href="#linear-gradient"/><linearGradient id="linear-gradient-17" x1="245.56" y1="130.94" x2="435.19" y2="130.94" xlink:href="#linear-gradient"/><linearGradient id="linear-gradient-18" x1="246.19" y1="109.63" x2="435.77" y2="109.63" xlink:href="#linear-gradient"/><linearGradient id="linear-gradient-20" x1="246.79" y1="89.91" x2="436.31" y2="89.91" xlink:href="#linear-gradient"/><linearGradient id="linear-gradient-22" x1="246.94" y1="84.23" x2="436.48" y2="84.23" xlink:href="#linear-gradient"/><linearGradient id="linear-gradient-24" x1="246.52" y1="97.5" x2="436.15" y2="97.5" xlink:href="#linear-gradient"/><linearGradient id="linear-gradient-26" x1="247.15" y1="76.18" x2="436.73" y2="76.18" xlink:href="#linear-gradient"/><linearGradient id="linear-gradient-28" x1="247.75" y1="56.46" x2="437.26" y2="56.46" xlink:href="#linear-gradient"/><linearGradient id="linear-gradient-30" x1="247.47" y1="64.05" x2="437.1" y2="64.05" xlink:href="#linear-gradient"/><linearGradient id="linear-gradient-32" x1="172.85" y1="102.41" x2="172.86" y2="102.41" xlink:href="#linear-gradient"/><linearGradient id="linear-gradient-33" x1="172.86" y1="102.89" x2="172.86" y2="102.89" xlink:href="#linear-gradient"/><linearGradient id="linear-gradient-34" x1="8.62" y1="103.12" x2="334.61" y2="103.12" xlink:href="#linear-gradient"/><linearGradient id="linear-gradient-35" x1="172.85" y1="101.86" x2="172.85" y2="101.86" xlink:href="#linear-gradient"/></defs><title>logo</title><path class="cls-1" d="M427.23,494.25l1.88-.29.18.32a3.41,3.41,0,0,0-.06.9C427.78,496.56,427.46,495.5,427.23,494.25Z" transform="translate(-8.62 -1.94)"/><path class="cls-2" d="M429.23,495.18a3.41,3.41,0,0,1,.06-.9,3.87,3.87,0,0,1,.33.64S429.37,495.09,429.23,495.18Z" transform="translate(-8.62 -1.94)"/><path class="cls-3" d="M151.27,511H137.43c-1.13-2.9-3.79-5.77.14-8.64,2-1.45,11.07-2.05,12.75-.49C153.24,504.6,152.39,507.82,151.27,511Z" transform="translate(-8.62 -1.94)"/><text class="cls-4" transform="translate(10.33 216.94)">ASSIGNMENTS HELP.AE</text><polyline class="cls-5" points="323.17 100.42 325.63 55.38 325.99 145.44"/><polygon class="cls-6" points="509.01 119.1 570.4 100.13 510.09 81.28 509.01 119.1"/><polygon class="cls-7" points="441.56 145.22 442.93 145.22 457.27 140.79 441.68 140.81 441.56 145.22"/><polygon class="cls-8" points="442.15 124.4 503 124.34 503.06 122.13 442.22 122.19 442.15 124.4"/><polygon class="cls-9" points="442.38 116.32 442.3 119.13 503.15 119.07 503.24 116.03 442.39 116.09 442.38 116.32"/><polygon class="cls-10" points="441.97 130.64 441.88 133.98 479.43 133.94 499.58 127.72 442.06 127.78 441.97 130.64"/><polygon class="cls-11" points="442.51 111.77 503.36 111.71 503.49 107.3 442.64 107.36 442.51 111.77"/><polygon class="cls-12" points="443.11 90.95 503.95 90.88 504.02 88.68 443.17 88.74 443.11 90.95"/><polygon class="cls-13" points="443.3 84.19 443.26 85.69 504.11 85.62 504.19 82.58 443.35 82.65 443.3 84.19"/><polygon class="cls-14" points="442.84 100.54 503.68 100.47 503.86 94.27 443.01 94.33 442.84 100.54"/><polygon class="cls-15" points="443.48 78.16 443.47 78.33 504.32 78.26 504.44 73.84 443.6 73.91 443.48 78.16"/><polygon class="cls-16" points="444.13 55.29 444.07 57.5 452.55 57.49 445.5 55.29 444.13 55.29"/><polygon class="cls-17" points="443.79 67.08 483.1 67.04 463.33 60.86 443.97 60.88 443.79 67.08"/><polygon class="cls-18" points="434.69 145.23 434.81 140.81 325.83 140.93 325.83 145.35 434.69 145.23"/><polygon class="cls-19" points="435.28 124.41 435.35 122.2 325.83 122.31 325.83 124.52 435.28 124.41"/><polygon class="cls-20" points="435.44 119.14 435.52 116.1 325.83 116.22 325.83 119.25 435.44 119.14"/><polygon class="cls-21" points="435.01 133.99 435.19 127.78 325.83 127.9 325.83 134.11 435.01 133.99"/><polygon class="cls-22" points="435.65 111.78 435.77 107.37 325.83 107.48 325.83 111.9 435.65 111.78"/><polygon class="cls-22" points="435.65 111.78 435.77 107.37 325.83 107.48 325.83 111.9 435.65 111.78"/><polygon class="cls-23" points="436.24 90.95 436.31 88.75 325.83 88.86 325.83 91.07 436.24 90.95"/><polygon class="cls-23" points="436.24 90.95 436.31 88.75 325.83 88.86 325.83 91.07 436.24 90.95"/><polygon class="cls-24" points="436.39 85.69 436.48 82.66 325.83 82.77 325.83 85.81 436.39 85.69"/><polygon class="cls-24" points="436.39 85.69 436.48 82.66 325.83 82.77 325.83 85.81 436.39 85.69"/><polygon class="cls-25" points="435.97 100.54 436.15 94.34 325.83 94.45 325.83 100.66 435.97 100.54"/><polygon class="cls-25" points="435.97 100.54 436.15 94.34 325.83 94.45 325.83 100.66 435.97 100.54"/><polygon class="cls-26" points="436.6 78.33 436.73 73.92 325.83 74.03 325.83 78.45 436.6 78.33"/><polygon class="cls-26" points="436.6 78.33 436.73 73.92 325.83 74.03 325.83 78.45 436.6 78.33"/><polygon class="cls-27" points="437.2 57.51 437.26 55.3 325.83 55.41 325.83 57.62 437.2 57.51"/><polygon class="cls-27" points="437.2 57.51 437.26 55.3 325.83 55.41 325.83 57.62 437.2 57.51"/><polygon class="cls-28" points="436.93 67.09 437.1 60.89 325.83 61.01 325.83 67.21 436.93 67.09"/><polygon class="cls-28" points="436.93 67.09 437.1 60.89 325.83 61.01 325.83 67.21 436.93 67.09"/><path class="cls-29" d="M172.86,102.79c0-.21,0-.52,0-.76C172.85,102.19,172.86,102.47,172.86,102.79Z" transform="translate(-8.62 -1.94)"/><path class="cls-30" d="M172.86,103v0Z" transform="translate(-8.62 -1.94)"/><path class="cls-31" d="M334.6,147.37v0h0l-.36-90.05v.22l-37.07.15s2.7,13.24-15.83,16-71.51,2.93-100.76-26.09c0,0-8-13.21-23.85-2.55,0,0-37,26.64-148.11,53.57l143-.57s0-10.6,10.55-10.64c0,0,10.6,0,10.64,10.55,0,2.5,0,4.06,0,5.07h0c0,1,0,2.65,0,5.3,0,10.6-10.55,10.64-10.55,10.64-10.6,0-10.64-10.56-10.64-10.56L8.66,109C120,135,157.2,161.33,157.2,161.33c15.93,10.53,23.83-2.75,23.83-2.75,29-29.25,82-29.46,100.54-26.89s16,15.83,16,15.83Z" transform="translate(-8.62 -1.94)"/><path class="cls-32" d="M172.85,102Z" transform="translate(-8.62 -1.94)"/><path class="cls-33" d="M140.49,1.94,100.14,44.48,115.72,51s21.36-29.19,66.64-22.27l.95-1.31,10.4,7.41-1,1.42,18.67,13.39,2.75-4L195.53,32.41l-.92,1.25-10.43-7.49L196.81,8.46Z" transform="translate(-8.62 -1.94)"/><path class="cls-33" d="M118.57,52.64l5,13.15s19-27.56,58.86-21.49l-1.75-12.95S144.13,25.22,118.57,52.64Z" transform="translate(-8.62 -1.94)"/></svg>