<svg id="Layer_1" data-name="Layer 1" xmlns="http://www.w3.org/2000/svg" xmlns:xlink="http://www.w3.org/1999/xlink" viewBox="0 0 1182.97 1182.97"><defs><style>.cls-1{fill:url(#linear-gradient);}.cls-2{fill:url(#linear-gradient-2);}.cls-3{fill:url(#linear-gradient-3);}.cls-4{fill:url(#linear-gradient-4);}.cls-5{font-size:77.79px;font-family:CalisMTBol, Calisto MT;}.cls-29,.cls-5{fill:#231f20;}.cls-6{fill:url(#linear-gradient-5);}.cls-7{fill:url(#linear-gradient-6);}.cls-8{fill:url(#linear-gradient-7);}.cls-9{fill:url(#linear-gradient-8);}.cls-10{fill:url(#linear-gradient-9);}.cls-11{fill:url(#linear-gradient-10);}.cls-12{fill:url(#linear-gradient-11);}.cls-13{fill:url(#linear-gradient-12);}.cls-14{fill:url(#linear-gradient-13);}.cls-15{fill:url(#linear-gradient-14);}.cls-16{fill:url(#linear-gradient-15);}.cls-17{fill:url(#linear-gradient-16);}.cls-18{fill:url(#linear-gradient-17);}.cls-19{fill:url(#linear-gradient-18);}.cls-20{fill:url(#linear-gradient-19);}.cls-21{fill:url(#linear-gradient-20);}.cls-22{fill:url(#linear-gradient-21);}.cls-23{fill:url(#linear-gradient-23);}.cls-24{fill:url(#linear-gradient-25);}.cls-25{fill:url(#linear-gradient-27);}.cls-26{fill:url(#linear-gradient-29);}.cls-27{fill:url(#linear-gradient-31);}.cls-28{fill:url(#linear-gradient-33);}</style><linearGradient id="linear-gradient" x1="389.64" y1="528.34" x2="389.65" y2="528.34" gradientUnits="userSpaceOnUse"><stop offset="0" stop-color="#15cff5"/><stop offset="1" stop-color="#3957b4"/></linearGradient><linearGradient id="linear-gradient-2" x1="389.65" y1="529.11" x2="389.65" y2="529.11" xlink:href="#linear-gradient"/><linearGradient id="linear-gradient-3" x1="127.15" y1="529.48" x2="648.17" y2="529.48" xlink:href="#linear-gradient"/><linearGradient id="linear-gradient-4" x1="389.64" y1="527.46" x2="389.64" y2="527.46" xlink:href="#linear-gradient"/><linearGradient id="linear-gradient-5" x1="940.68" y1="527.89" x2="1038.8" y2="527.89" xlink:href="#linear-gradient"/><linearGradient id="linear-gradient-6" x1="832.87" y1="596.32" x2="857.99" y2="596.32" xlink:href="#linear-gradient"/><linearGradient id="linear-gradient-7" x1="833.82" y1="564.76" x2="931.17" y2="564.76" xlink:href="#linear-gradient"/><linearGradient id="linear-gradient-8" x1="834.06" y1="555.68" x2="931.45" y2="555.68" xlink:href="#linear-gradient"/><linearGradient id="linear-gradient-9" x1="833.38" y1="576.89" x2="925.6" y2="576.89" xlink:href="#linear-gradient"/><linearGradient id="linear-gradient-10" x1="834.4" y1="542.82" x2="931.85" y2="542.82" xlink:href="#linear-gradient"/><linearGradient id="linear-gradient-11" x1="835.36" y1="511.3" x2="932.7" y2="511.3" xlink:href="#linear-gradient"/><linearGradient id="linear-gradient-12" x1="835.6" y1="502.23" x2="932.98" y2="502.23" xlink:href="#linear-gradient"/><linearGradient id="linear-gradient-13" x1="834.92" y1="523.43" x2="932.45" y2="523.43" xlink:href="#linear-gradient"/><linearGradient id="linear-gradient-14" x1="835.93" y1="489.36" x2="933.38" y2="489.36" xlink:href="#linear-gradient"/><linearGradient id="linear-gradient-15" x1="836.89" y1="457.89" x2="850.44" y2="457.89" xlink:href="#linear-gradient"/><linearGradient id="linear-gradient-16" x1="836.45" y1="470" x2="899.28" y2="470" xlink:href="#linear-gradient"/><linearGradient id="linear-gradient-17" x1="519.1" y1="596.44" x2="822.1" y2="596.44" xlink:href="#linear-gradient"/><linearGradient id="linear-gradient-18" x1="520.05" y1="564.92" x2="822.95" y2="564.92" xlink:href="#linear-gradient"/><linearGradient id="linear-gradient-19" x1="520.29" y1="555.83" x2="823.23" y2="555.83" xlink:href="#linear-gradient"/><linearGradient id="linear-gradient-20" x1="519.61" y1="577.04" x2="822.69" y2="577.04" xlink:href="#linear-gradient"/><linearGradient id="linear-gradient-21" x1="520.63" y1="542.98" x2="823.63" y2="542.98" xlink:href="#linear-gradient"/><linearGradient id="linear-gradient-23" x1="521.59" y1="511.46" x2="824.48" y2="511.46" xlink:href="#linear-gradient"/><linearGradient id="linear-gradient-25" x1="521.83" y1="502.38" x2="824.76" y2="502.38" xlink:href="#linear-gradient"/><linearGradient id="linear-gradient-27" x1="521.15" y1="523.59" x2="824.22" y2="523.59" xlink:href="#linear-gradient"/><linearGradient id="linear-gradient-29" x1="522.16" y1="489.52" x2="825.16" y2="489.52" xlink:href="#linear-gradient"/><linearGradient id="linear-gradient-31" x1="523.12" y1="457.99" x2="826.01" y2="457.99" xlink:href="#linear-gradient"/><linearGradient id="linear-gradient-33" x1="522.68" y1="470.12" x2="825.75" y2="470.12" xlink:href="#linear-gradient"/></defs><title>Artboard 1ldpi</title><path class="cls-1" d="M389.65,528.94c0-.33,0-.82,0-1.21C389.64,528,389.65,528.44,389.65,528.94Z"/><path class="cls-2" d="M389.65,529.27v0Z"/><path class="cls-3" d="M648.15,600.21l0,.36v-.36h0l-.57-143.94,0,.36-59.25.24s4.32,21.15-25.3,25.5-114.28,4.7-161-41.69c0,0-12.78-21.11-38.11-4.08,0,0-59.1,42.57-236.73,85.62l228.6-.92s-.07-16.93,16.87-17c0,0,16.93-.06,17,16.87,0,4,0,6.49,0,8.1h0c0,1.59,0,4.24,0,8.47.07,16.93-16.86,17-16.86,17-16.94.07-17-16.86-17-16.86l-228.6.91c178,41.62,237.4,83.72,237.4,83.72,25.47,16.83,38.08-4.39,38.08-4.39,46.39-46.75,131.05-47.09,160.7-43s25.51,25.29,25.51,25.29Z"/><path class="cls-4" d="M389.64,527.73Z"/><text class="cls-5" transform="translate(143.66 714.49)">ASSIGNMENTS HELP.AE</text><polygon class="cls-6" points="940.68 558.11 1038.8 527.78 942.41 497.66 940.68 558.11"/><polygon class="cls-7" points="832.87 599.86 835.06 599.86 857.99 592.78 833.07 592.8 832.87 599.86"/><polygon class="cls-8" points="833.82 566.58 931.07 566.48 931.17 562.95 833.92 563.05 833.82 566.58"/><polygon class="cls-9" points="834.19 553.67 834.07 558.16 931.31 558.06 931.45 553.2 834.2 553.3 834.19 553.67"/><polygon class="cls-10" points="833.54 576.56 833.38 581.9 893.41 581.84 925.6 571.88 833.67 571.98 833.54 576.56"/><polygon class="cls-11" points="834.4 546.4 931.65 546.3 931.85 539.25 834.6 539.35 834.4 546.4"/><polygon class="cls-12" points="835.36 513.11 932.6 513.01 932.7 509.49 835.46 509.59 835.36 513.11"/><polygon class="cls-13" points="835.66 502.32 835.6 504.7 932.84 504.6 932.98 499.75 835.74 499.85 835.66 502.32"/><polygon class="cls-14" points="834.92 528.44 932.16 528.34 932.45 518.42 835.2 518.52 834.92 528.44"/><polygon class="cls-15" points="835.94 492.67 835.93 492.94 933.18 492.84 933.38 485.78 836.13 485.88 835.94 492.67"/><polygon class="cls-16" points="836.99 456.12 836.89 459.65 850.44 459.64 839.18 456.12 836.99 456.12"/><polygon class="cls-17" points="836.45 474.97 899.28 474.9 867.67 465.03 836.73 465.06 836.45 474.97"/><polygon class="cls-18" points="821.89 599.88 822.1 592.82 647.91 593 647.91 600.06 821.89 599.88"/><polygon class="cls-19" points="822.85 566.59 822.95 563.06 647.91 563.24 647.91 566.77 822.85 566.59"/><polygon class="cls-20" points="823.09 558.17 823.23 553.32 647.91 553.5 647.91 558.35 823.09 558.17"/><polygon class="cls-21" points="822.41 581.91 822.69 571.99 647.91 572.17 647.91 582.09 822.41 581.91"/><polygon class="cls-22" points="823.42 546.41 823.63 539.36 647.91 539.55 647.91 546.6 823.42 546.41"/><polygon class="cls-22" points="823.42 546.41 823.63 539.36 647.91 539.55 647.91 546.6 823.42 546.41"/><polygon class="cls-23" points="824.38 513.13 824.48 509.6 647.91 509.79 647.91 513.31 824.38 513.13"/><polygon class="cls-23" points="824.38 513.13 824.48 509.6 647.91 509.79 647.91 513.31 824.38 513.13"/><polygon class="cls-24" points="824.62 504.71 824.76 499.86 647.91 500.05 647.91 504.9 824.62 504.71"/><polygon class="cls-24" points="824.62 504.71 824.76 499.86 647.91 500.05 647.91 504.9 824.62 504.71"/><polygon class="cls-25" points="823.94 528.45 824.22 518.53 647.91 518.72 647.91 528.64 823.94 528.45"/><polygon class="cls-25" points="823.94 528.45 824.22 518.53 647.91 518.72 647.91 528.64 823.94 528.45"/><polygon class="cls-26" points="824.96 492.95 825.16 485.89 647.91 486.08 647.91 493.14 824.96 492.95"/><polygon class="cls-26" points="824.96 492.95 825.16 485.89 647.91 486.08 647.91 493.14 824.96 492.95"/><polygon class="cls-27" points="825.91 459.67 826.01 456.13 647.91 456.32 647.91 459.85 825.91 459.67"/><polygon class="cls-27" points="825.91 459.67 826.01 456.13 647.91 456.32 647.91 459.85 825.91 459.67"/><polygon class="cls-28" points="825.47 474.98 825.75 465.07 647.91 465.26 647.91 475.17 825.47 474.98"/><polygon class="cls-28" points="825.47 474.98 825.75 465.07 647.91 465.26 647.91 475.17 825.47 474.98"/><path class="cls-29" d="M337.92,367.76l-64.49,68,24.9,10.47s34.13-46.64,106.51-35.58l1.51-2.09L423,420.4l-1.57,2.26,29.83,21.41,4.4-6.37-29.75-21.23-1.46,2-16.68-12,20.2-28.31Z"/><path class="cls-29" d="M302.89,448.8l8,21s30.3-44.05,94.07-34.34l-2.79-20.7S343.74,405,302.89,448.8Z"/></svg>