<?xml version="1.0" encoding="UTF-8"?>
<svg xmlns="http://www.w3.org/2000/svg" xmlns:xlink="http://www.w3.org/1999/xlink" width="205.5pt" height="61.9pt" viewBox="0 0 205.5 61.9" version="1.1">
<defs>
<clipPath id="clip1">
  <path d="M 0 0 L 62 0 L 62 61.898438 L 0 61.898438 Z M 0 0 "/>
</clipPath>
<clipPath id="clip2">
  <path d="M 0 0 L 62 0 L 62 61.898438 L 0 61.898438 Z M 0 0 "/>
</clipPath>
<clipPath id="clip3">
  <path d="M 0 0 L 68 0 L 68 61.898438 L 0 61.898438 Z M 0 0 "/>
</clipPath>
<clipPath id="clip4">
  <path d="M 192 14 L 205.5 14 L 205.5 34 L 192 34 Z M 192 14 "/>
</clipPath>
<clipPath id="clip5">
  <path d="M 198 36 L 205.5 36 L 205.5 45 L 198 45 Z M 198 36 "/>
</clipPath>
</defs>
<g id="surface1">
<g clip-path="url(#clip1)" clip-rule="nonzero">
<path style=" stroke:none;fill-rule:evenodd;fill:rgb(100%,100%,100%);fill-opacity:1;" d="M 30.953125 -0.0234375 C 48.03125 -0.0234375 61.875 13.820313 61.875 30.898438 C 61.875 47.976563 48.03125 61.820313 30.953125 61.820313 C 13.875 61.820313 0.0273438 47.976563 0.0273438 30.898438 C 0.0273438 13.820313 13.875 -0.0234375 30.953125 -0.0234375 Z M 30.953125 -0.0234375 "/>
</g>
<path style=" stroke:none;fill-rule:evenodd;fill:rgb(44.309998%,9.423828%,44.309998%);fill-opacity:1;" d="M 2.710938 30.925781 C 2.710938 15.335938 15.351563 2.691406 30.945313 2.691406 C 46.535156 2.691406 59.175781 15.335938 59.175781 30.925781 C 59.175781 46.519531 46.535156 59.164063 30.945313 59.164063 C 15.351563 59.164063 2.710938 46.519531 2.710938 30.925781 Z M 2.710938 30.925781 "/>
<g clip-path="url(#clip2)" clip-rule="nonzero">
<path style="fill:none;stroke-width:4.15;stroke-linecap:butt;stroke-linejoin:miter;stroke:rgb(44.309998%,9.423828%,44.309998%);stroke-opacity:1;stroke-miterlimit:4;" d="M 27.109375 309.742188 C 27.109375 465.640625 153.515625 592.085938 309.453125 592.085938 C 465.351563 592.085938 591.757813 465.640625 591.757813 309.742188 C 591.757813 153.804688 465.351563 27.359375 309.453125 27.359375 C 153.515625 27.359375 27.109375 153.804688 27.109375 309.742188 Z M 27.109375 309.742188 " transform="matrix(0.1,0,0,-0.1,0,61.9)"/>
</g>
<path style="fill-rule:evenodd;fill:rgb(100%,100%,100%);fill-opacity:1;stroke-width:4.15;stroke-linecap:butt;stroke-linejoin:miter;stroke:rgb(44.309998%,9.423828%,44.309998%);stroke-opacity:1;stroke-miterlimit:4;" d="M 127.109375 309.742188 C 127.109375 410.445313 208.75 492.046875 309.453125 492.046875 C 410.117188 492.046875 491.757813 410.445313 491.757813 309.742188 C 491.757813 209.039063 410.117188 127.4375 309.453125 127.4375 C 208.75 127.4375 127.109375 209.039063 127.109375 309.742188 Z M 127.109375 309.742188 " transform="matrix(0.1,0,0,-0.1,0,61.9)"/>
<path style="fill:none;stroke-width:4.15;stroke-linecap:butt;stroke-linejoin:miter;stroke:rgb(0%,46.655273%,19.993591%);stroke-opacity:1;stroke-miterlimit:4;" d="M 137.851563 309.742188 C 137.851563 404.46875 214.6875 481.34375 309.453125 481.34375 C 404.179688 481.34375 481.015625 404.46875 481.015625 309.742188 C 481.015625 214.976563 404.179688 138.140625 309.453125 138.140625 C 214.6875 138.140625 137.851563 214.976563 137.851563 309.742188 Z M 137.851563 309.742188 " transform="matrix(0.1,0,0,-0.1,0,61.9)"/>
<path style=" stroke:none;fill-rule:evenodd;fill:rgb(0%,46.655273%,19.993591%);fill-opacity:1;" d="M 19.519531 40.601563 L 18.023438 37.050781 L 22.1875 29.191406 L 26.828125 29.191406 L 30.992188 37.050781 L 29.492188 40.601563 Z M 19.519531 40.601563 "/>
<path style=" stroke:none;fill-rule:evenodd;fill:rgb(0%,46.655273%,19.993591%);fill-opacity:1;" d="M 27.941406 16.652344 L 22.621094 27.480469 L 27.34375 27.480469 L 31.054688 20.300781 L 34.765625 27.480469 L 39.488281 27.480469 L 34.164063 16.652344 Z M 27.941406 16.652344 "/>
<path style=" stroke:none;fill-rule:evenodd;fill:rgb(0%,46.655273%,19.993591%);fill-opacity:1;" d="M 32.621094 40.601563 L 31.125 37.050781 L 35.289063 29.191406 L 39.929688 29.191406 L 44.09375 37.050781 L 42.597656 40.601563 Z M 32.621094 40.601563 "/>
<path style=" stroke:none;fill-rule:evenodd;fill:rgb(100%,100%,100%);fill-opacity:1;" d="M 47.292969 14.925781 L 48.199219 12.195313 L 45.570313 13.378906 Z M 41.378906 13.367188 L 41.925781 12.761719 L 42.421875 13.214844 L 48.273438 10.847656 L 49.707031 12.140625 L 47.953125 18.1875 L 48.449219 18.636719 L 47.90625 19.242188 L 45.367188 16.960938 L 45.914063 16.351563 L 46.667969 17.03125 L 47.054688 15.808594 L 44.726563 13.714844 L 43.542969 14.21875 L 44.304688 14.902344 L 43.757813 15.507813 Z M 41.378906 13.367188 "/>
<path style=" stroke:none;fill-rule:evenodd;fill:rgb(100%,100%,100%);fill-opacity:1;" d="M 48.519531 20.359375 L 49.285156 20.085938 L 49.617188 21.003906 L 54.179688 19.339844 L 53.84375 18.421875 L 54.609375 18.144531 L 55.679688 21.089844 L 51.960938 25.773438 L 55.992188 24.320313 L 55.652344 23.390625 L 56.417969 23.109375 L 57.554688 26.230469 L 56.789063 26.507813 L 56.472656 25.644531 L 51.144531 27.589844 L 50.433594 25.628906 L 54.257813 20.832031 L 50.101563 22.332031 L 50.417969 23.207031 L 49.652344 23.480469 Z M 48.519531 20.359375 "/>
<path style=" stroke:none;fill-rule:evenodd;fill:rgb(100%,100%,100%);fill-opacity:1;" d="M 33.085938 10.972656 L 33.328125 10.007813 L 39 6.582031 L 35.871094 5.796875 L 35.558594 7.050781 L 34.265625 6.730469 L 34.769531 4.714844 L 41.003906 6.265625 L 40.765625 7.230469 L 35.023438 10.644531 L 38.453125 11.503906 L 38.777344 10.191406 L 40.070313 10.511719 L 39.550781 12.589844 Z M 33.085938 10.972656 "/>
<path style=" stroke:none;fill-rule:evenodd;fill:rgb(100%,100%,100%);fill-opacity:1;" d="M 24.070313 12.089844 L 23.929688 11.285156 L 24.890625 11.117188 L 24.050781 6.339844 L 23.085938 6.503906 L 22.945313 5.707031 L 29.808594 4.492188 L 30.152344 6.445313 L 28.875 6.671875 L 28.675781 5.519531 L 25.636719 6.058594 L 25.980469 8.003906 L 27.195313 7.785156 L 27.050781 6.960938 L 28.152344 6.761719 L 28.582031 9.195313 L 27.480469 9.390625 L 27.339844 8.589844 L 26.121094 8.800781 L 26.480469 10.839844 L 29.515625 10.300781 L 29.300781 9.070313 L 30.574219 8.847656 L 30.933594 10.878906 Z M 24.070313 12.089844 "/>
<path style=" stroke:none;fill-rule:evenodd;fill:rgb(100%,100%,100%);fill-opacity:1;" d="M 16.472656 17.066406 L 15.992188 16.410156 L 16.785156 15.839844 L 13.929688 11.90625 L 13.140625 12.480469 L 12.660156 11.828125 L 18.300781 7.726563 L 19.464844 9.335938 L 18.417969 10.09375 L 17.730469 9.148438 L 15.234375 10.964844 L 16.394531 12.558594 L 17.394531 11.832031 L 16.898438 11.148438 L 17.804688 10.492188 L 19.257813 12.492188 L 18.355469 13.148438 L 17.875 12.488281 L 16.875 13.214844 L 18.085938 14.886719 L 20.582031 13.078125 L 19.847656 12.0625 L 20.894531 11.300781 L 22.109375 12.972656 Z M 16.472656 17.066406 "/>
<path style=" stroke:none;fill-rule:evenodd;fill:rgb(100%,100%,100%);fill-opacity:1;" d="M 15.171875 18.171875 L 13.746094 21.238281 L 13.007813 20.890625 L 13.386719 20.085938 L 8.992188 18.03125 L 13.207031 22.386719 L 12.582031 23.734375 L 6.570313 23.230469 L 10.957031 25.289063 L 11.308594 24.53125 L 12.050781 24.878906 L 10.714844 27.734375 L 9.976563 27.386719 L 10.378906 26.523438 L 5.980469 24.472656 L 5.578125 25.339844 L 4.839844 24.992188 L 6.308594 21.847656 L 11.601563 22.378906 L 7.800781 18.644531 L 9.296875 15.433594 L 10.035156 15.777344 L 9.632813 16.644531 L 14.03125 18.695313 L 14.433594 17.832031 Z M 15.171875 18.171875 "/>
<path style=" stroke:none;fill-rule:evenodd;fill:rgb(100%,100%,100%);fill-opacity:1;" d="M 19.265625 47.132813 C 19.679688 47.460938 19.964844 47.71875 20.128906 47.921875 C 20.292969 48.128906 20.421875 48.355469 20.515625 48.59375 C 20.605469 48.835938 20.625 49.085938 20.574219 49.339844 C 20.527344 49.605469 20.429688 49.832031 20.28125 50.019531 C 19.753906 50.695313 19.015625 50.746094 18.070313 50.175781 C 18.5 50.511719 18.746094 50.914063 18.804688 51.371094 C 18.875 51.835938 18.773438 52.238281 18.503906 52.582031 C 18.304688 52.835938 18.046875 53.003906 17.71875 53.085938 C 17.40625 53.171875 17.085938 53.167969 16.761719 53.074219 C 16.441406 52.984375 16.136719 52.84375 15.851563 52.648438 C 15.570313 52.460938 15.246094 52.222656 14.875 51.933594 L 11.933594 49.632813 L 12.441406 48.984375 L 13.203125 49.582031 L 16.183594 45.761719 L 15.421875 45.167969 L 15.925781 44.527344 Z M 17.453125 46.753906 L 16.257813 48.289063 L 17 48.867188 C 17.25 49.066406 17.457031 49.214844 17.609375 49.3125 C 17.773438 49.40625 17.933594 49.464844 18.089844 49.480469 C 18.25 49.492188 18.410156 49.464844 18.5625 49.390625 C 18.722656 49.328125 18.847656 49.234375 18.9375 49.121094 C 19.066406 48.960938 19.136719 48.792969 19.148438 48.621094 C 19.175781 48.453125 19.140625 48.289063 19.042969 48.144531 C 18.953125 48.003906 18.839844 47.878906 18.707031 47.753906 C 18.570313 47.632813 18.433594 47.519531 18.296875 47.414063 L 17.984375 47.167969 Z M 15.320313 51.246094 C 15.609375 51.472656 15.832031 51.628906 15.984375 51.695313 C 16.144531 51.773438 16.308594 51.820313 16.476563 51.832031 C 16.65625 51.84375 16.8125 51.820313 16.953125 51.753906 C 17.101563 51.691406 17.230469 51.59375 17.335938 51.460938 C 17.574219 51.152344 17.632813 50.871094 17.515625 50.617188 C 17.394531 50.363281 17.28125 50.179688 17.175781 50.078125 C 17.074219 49.976563 16.921875 49.84375 16.710938 49.675781 L 16.597656 49.589844 L 15.753906 48.929688 L 14.464844 50.582031 Z M 15.320313 51.246094 "/>
<path style=" stroke:none;fill-rule:evenodd;fill:rgb(100%,100%,100%);fill-opacity:1;" d="M 25.160156 53.613281 L 24.828125 50.757813 L 22.941406 52.9375 Z M 19.140625 54.699219 L 19.378906 53.921875 L 20.019531 54.117188 L 24.324219 49.503906 L 26.167969 50.070313 L 27.136719 56.292969 L 27.777344 56.488281 L 27.539063 57.269531 L 24.273438 56.269531 L 24.511719 55.492188 L 25.480469 55.792969 L 25.316406 54.515625 L 22.320313 53.597656 L 21.460938 54.558594 L 22.441406 54.855469 L 22.203125 55.636719 Z M 19.140625 54.699219 "/>
<path style=" stroke:none;fill-rule:evenodd;fill:rgb(100%,100%,100%);fill-opacity:1;" d="M 30.226563 57.386719 L 30.125 56.574219 L 31.097656 56.457031 L 30.503906 51.640625 L 29.535156 51.757813 L 29.433594 50.953125 L 32.542969 50.566406 L 36.273438 55.25 L 35.761719 50.992188 L 34.78125 51.113281 L 34.679688 50.304688 L 37.976563 49.902344 L 38.074219 50.714844 L 37.164063 50.820313 L 37.855469 56.449219 L 35.789063 56.707031 L 31.972656 51.898438 L 32.5 56.289063 L 33.421875 56.171875 L 33.519531 56.980469 Z M 30.226563 57.386719 "/>
<path style=" stroke:none;fill-rule:evenodd;fill:rgb(100%,100%,100%);fill-opacity:1;" d="M 43.539063 54.324219 L 43.050781 53.675781 L 43.820313 53.09375 L 40.898438 49.21875 L 40.128906 49.796875 L 39.636719 49.148438 L 42.460938 47.019531 L 42.949219 47.671875 L 42.1875 48.246094 L 43.492188 49.972656 L 44.164063 46.757813 L 43.53125 47.234375 L 43.042969 46.585938 L 45.636719 44.628906 L 46.128906 45.277344 L 45.621094 45.660156 L 44.882813 48.925781 L 48.671875 49.4375 L 49.199219 49.042969 L 49.691406 49.691406 L 46.992188 51.726563 L 46.5 51.078125 L 47.167969 50.570313 L 43.574219 50.085938 L 45.109375 52.125 L 45.871094 51.550781 L 46.359375 52.199219 Z M 43.539063 54.324219 "/>
<g clip-path="url(#clip3)" clip-rule="nonzero">
<path style="fill:none;stroke-width:12.461;stroke-linecap:butt;stroke-linejoin:miter;stroke:rgb(0%,46.655273%,19.993591%);stroke-opacity:1;stroke-miterlimit:4;" d="M 11.367188 309.742188 C 11.367188 474.351563 144.804688 607.867188 309.453125 607.867188 C 474.0625 607.867188 607.539063 474.351563 607.539063 309.742188 C 607.539063 145.132813 474.0625 11.65625 309.453125 11.65625 C 144.804688 11.65625 11.367188 145.132813 11.367188 309.742188 Z M 11.367188 309.742188 " transform="matrix(0.1,0,0,-0.1,0,61.9)"/>
</g>
<path style=" stroke:none;fill-rule:evenodd;fill:rgb(100%,100%,100%);fill-opacity:1;" d="M 98.214844 52.9375 C 98.214844 52.980469 98.265625 53.007813 98.332031 53.027344 L 98.402344 53.019531 C 98.402344 53.003906 98.410156 53 98.410156 52.980469 C 98.410156 52.933594 98.214844 52.890625 98.214844 52.9375 Z M 98.214844 52.9375 "/>
<path style=" stroke:none;fill-rule:evenodd;fill:rgb(88.671875%,71.289063%,18.431091%);fill-opacity:1;" d="M 98.214844 52.9375 C 98.214844 52.980469 98.265625 53.007813 98.332031 53.027344 L 98.402344 53.019531 C 98.402344 53.003906 98.410156 53 98.410156 52.980469 C 98.410156 52.933594 98.214844 52.890625 98.214844 52.9375 Z M 98.214844 52.9375 "/>
<path style=" stroke:none;fill-rule:evenodd;fill:rgb(100%,100%,100%);fill-opacity:1;" d="M 110.546875 51.6875 C 110.546875 51.707031 110.582031 51.714844 110.613281 51.714844 C 110.636719 51.714844 110.660156 51.703125 110.660156 51.6875 C 110.660156 51.675781 110.671875 51.660156 110.652344 51.652344 C 110.609375 51.644531 110.546875 51.660156 110.546875 51.6875 Z M 110.546875 51.6875 "/>
<path style=" stroke:none;fill-rule:evenodd;fill:rgb(88.671875%,71.289063%,18.431091%);fill-opacity:1;" d="M 110.546875 51.6875 C 110.546875 51.707031 110.582031 51.714844 110.613281 51.714844 C 110.636719 51.714844 110.660156 51.703125 110.660156 51.6875 C 110.660156 51.675781 110.671875 51.660156 110.652344 51.652344 C 110.609375 51.644531 110.546875 51.660156 110.546875 51.6875 Z M 110.546875 51.6875 "/>
<path style=" stroke:none;fill-rule:evenodd;fill:rgb(100%,100%,100%);fill-opacity:1;" d="M 108.449219 51.765625 C 108.421875 51.753906 108.410156 51.726563 108.375 51.726563 C 108.316406 51.726563 108.308594 51.769531 108.308594 51.804688 C 108.308594 51.828125 108.339844 51.832031 108.339844 51.847656 C 108.339844 51.867188 108.300781 51.871094 108.269531 51.886719 L 108.324219 51.859375 C 108.355469 51.878906 108.386719 51.882813 108.429688 51.882813 C 108.472656 51.882813 108.519531 51.871094 108.519531 51.847656 C 108.519531 51.8125 108.488281 51.785156 108.449219 51.765625 Z M 108.449219 51.765625 "/>
<path style=" stroke:none;fill-rule:evenodd;fill:rgb(88.671875%,71.289063%,18.431091%);fill-opacity:1;" d="M 108.449219 51.765625 C 108.421875 51.753906 108.410156 51.726563 108.375 51.726563 C 108.316406 51.726563 108.308594 51.769531 108.308594 51.804688 C 108.308594 51.828125 108.339844 51.832031 108.339844 51.847656 C 108.339844 51.867188 108.300781 51.871094 108.269531 51.886719 L 108.324219 51.859375 C 108.355469 51.878906 108.386719 51.882813 108.429688 51.882813 C 108.472656 51.882813 108.519531 51.871094 108.519531 51.847656 C 108.519531 51.8125 108.488281 51.785156 108.449219 51.765625 Z M 108.449219 51.765625 "/>
<path style=" stroke:none;fill-rule:evenodd;fill:rgb(100%,100%,100%);fill-opacity:1;" d="M 97.867188 52.957031 C 97.84375 52.929688 97.820313 52.90625 97.765625 52.90625 C 97.730469 52.90625 97.71875 52.921875 97.6875 52.929688 C 97.632813 52.941406 97.558594 52.945313 97.558594 52.980469 C 97.558594 53.03125 97.640625 53.066406 97.726563 53.066406 C 97.808594 53.066406 97.902344 53.050781 97.902344 53.007813 C 97.902344 52.988281 97.882813 52.972656 97.867188 52.957031 Z M 97.867188 52.957031 "/>
<path style=" stroke:none;fill-rule:evenodd;fill:rgb(88.671875%,71.289063%,18.431091%);fill-opacity:1;" d="M 97.867188 52.957031 C 97.84375 52.929688 97.820313 52.90625 97.765625 52.90625 C 97.730469 52.90625 97.71875 52.921875 97.6875 52.929688 C 97.632813 52.941406 97.558594 52.945313 97.558594 52.980469 C 97.558594 53.03125 97.640625 53.066406 97.726563 53.066406 C 97.808594 53.066406 97.902344 53.050781 97.902344 53.007813 C 97.902344 52.988281 97.882813 52.972656 97.867188 52.957031 Z M 97.867188 52.957031 "/>
<path style=" stroke:none;fill-rule:evenodd;fill:rgb(100%,100%,100%);fill-opacity:1;" d="M 101.992188 52.542969 C 101.953125 52.542969 101.929688 52.542969 101.894531 52.542969 C 101.867188 52.550781 101.851563 52.558594 101.824219 52.570313 L 101.847656 52.566406 C 101.828125 52.582031 101.804688 52.589844 101.804688 52.609375 C 101.804688 52.667969 101.902344 52.707031 102.003906 52.707031 C 102.066406 52.707031 102.121094 52.675781 102.121094 52.640625 C 102.121094 52.589844 102.078125 52.542969 101.992188 52.542969 Z M 101.992188 52.542969 "/>
<path style=" stroke:none;fill-rule:evenodd;fill:rgb(88.671875%,71.289063%,18.431091%);fill-opacity:1;" d="M 101.992188 52.542969 C 101.953125 52.542969 101.929688 52.542969 101.894531 52.542969 C 101.867188 52.550781 101.851563 52.558594 101.824219 52.570313 L 101.847656 52.566406 C 101.828125 52.582031 101.804688 52.589844 101.804688 52.609375 C 101.804688 52.667969 101.902344 52.707031 102.003906 52.707031 C 102.066406 52.707031 102.121094 52.675781 102.121094 52.640625 C 102.121094 52.589844 102.078125 52.542969 101.992188 52.542969 Z M 101.992188 52.542969 "/>
<path style=" stroke:none;fill-rule:evenodd;fill:rgb(100%,100%,100%);fill-opacity:1;" d="M 110.84375 51.414063 C 110.804688 51.414063 110.761719 51.425781 110.761719 51.453125 C 110.761719 51.480469 110.808594 51.503906 110.859375 51.503906 C 110.894531 51.503906 110.925781 51.488281 110.925781 51.46875 C 110.925781 51.4375 110.890625 51.414063 110.84375 51.414063 Z M 110.84375 51.414063 "/>
<path style=" stroke:none;fill-rule:evenodd;fill:rgb(88.671875%,71.289063%,18.431091%);fill-opacity:1;" d="M 110.84375 51.414063 C 110.804688 51.414063 110.761719 51.425781 110.761719 51.453125 C 110.761719 51.480469 110.808594 51.503906 110.859375 51.503906 C 110.894531 51.503906 110.925781 51.488281 110.925781 51.46875 C 110.925781 51.4375 110.890625 51.414063 110.84375 51.414063 Z M 110.84375 51.414063 "/>
<path style=" stroke:none;fill-rule:evenodd;fill:rgb(100%,100%,100%);fill-opacity:1;" d="M 111.425781 51.675781 C 111.488281 51.675781 111.492188 51.628906 111.492188 51.59375 C 111.492188 51.550781 111.539063 51.527344 111.539063 51.480469 C 111.539063 51.472656 111.539063 51.46875 111.539063 51.464844 L 111.449219 51.53125 C 111.488281 51.496094 111.507813 51.46875 111.507813 51.429688 C 111.507813 51.398438 111.457031 51.378906 111.40625 51.378906 C 111.316406 51.378906 111.253906 51.425781 111.253906 51.472656 C 111.253906 51.53125 111.277344 51.5625 111.324219 51.609375 C 111.355469 51.640625 111.367188 51.675781 111.425781 51.675781 Z M 111.425781 51.675781 "/>
<path style=" stroke:none;fill-rule:evenodd;fill:rgb(88.671875%,71.289063%,18.431091%);fill-opacity:1;" d="M 111.425781 51.675781 C 111.488281 51.675781 111.492188 51.628906 111.492188 51.59375 C 111.492188 51.550781 111.539063 51.527344 111.539063 51.480469 C 111.539063 51.472656 111.539063 51.46875 111.539063 51.464844 L 111.449219 51.53125 C 111.488281 51.496094 111.507813 51.46875 111.507813 51.429688 C 111.507813 51.398438 111.457031 51.378906 111.40625 51.378906 C 111.316406 51.378906 111.253906 51.425781 111.253906 51.472656 C 111.253906 51.53125 111.277344 51.5625 111.324219 51.609375 C 111.355469 51.640625 111.367188 51.675781 111.425781 51.675781 Z M 111.425781 51.675781 "/>
<path style=" stroke:none;fill-rule:evenodd;fill:rgb(100%,100%,100%);fill-opacity:1;" d="M 113.523438 51.308594 C 113.699219 51.382813 113.699219 51.476563 113.523438 51.589844 C 113.390625 51.484375 113.398438 51.363281 113.523438 51.308594 Z M 113.523438 51.308594 "/>
<path style=" stroke:none;fill-rule:evenodd;fill:rgb(88.671875%,71.289063%,18.431091%);fill-opacity:1;" d="M 113.523438 51.308594 C 113.699219 51.382813 113.699219 51.476563 113.523438 51.589844 C 113.390625 51.484375 113.398438 51.363281 113.523438 51.308594 Z M 113.523438 51.308594 "/>
<path style=" stroke:none;fill-rule:evenodd;fill:rgb(100%,100%,100%);fill-opacity:1;" d="M 116 51.425781 C 115.957031 51.394531 115.917969 51.367188 115.847656 51.367188 C 115.773438 51.367188 115.675781 51.378906 115.675781 51.417969 C 115.675781 51.480469 115.753906 51.535156 115.859375 51.535156 C 115.945313 51.535156 116 51.476563 116 51.425781 Z M 116 51.425781 "/>
<path style=" stroke:none;fill-rule:evenodd;fill:rgb(88.671875%,71.289063%,18.431091%);fill-opacity:1;" d="M 116 51.425781 C 115.957031 51.394531 115.917969 51.367188 115.847656 51.367188 C 115.773438 51.367188 115.675781 51.378906 115.675781 51.417969 C 115.675781 51.480469 115.753906 51.535156 115.859375 51.535156 C 115.945313 51.535156 116 51.476563 116 51.425781 Z M 116 51.425781 "/>
<path style=" stroke:none;fill-rule:evenodd;fill:rgb(100%,100%,100%);fill-opacity:1;" d="M 118.628906 51.332031 C 118.597656 51.328125 118.589844 51.308594 118.5625 51.308594 C 118.476563 51.308594 118.449219 51.363281 118.449219 51.410156 C 118.449219 51.464844 118.519531 51.503906 118.609375 51.503906 C 118.664063 51.503906 118.710938 51.480469 118.710938 51.453125 C 118.710938 51.402344 118.6875 51.363281 118.628906 51.332031 Z M 118.628906 51.332031 "/>
<path style=" stroke:none;fill-rule:evenodd;fill:rgb(88.671875%,71.289063%,18.431091%);fill-opacity:1;" d="M 118.628906 51.332031 C 118.597656 51.328125 118.589844 51.308594 118.5625 51.308594 C 118.476563 51.308594 118.449219 51.363281 118.449219 51.410156 C 118.449219 51.464844 118.519531 51.503906 118.609375 51.503906 C 118.664063 51.503906 118.710938 51.480469 118.710938 51.453125 C 118.710938 51.402344 118.6875 51.363281 118.628906 51.332031 Z M 118.628906 51.332031 "/>
<path style=" stroke:none;fill-rule:evenodd;fill:rgb(100%,100%,100%);fill-opacity:1;" d="M 122.199219 50.910156 C 122.203125 50.902344 122.207031 50.898438 122.207031 50.894531 C 122.207031 50.851563 122.140625 50.828125 122.070313 50.828125 C 121.996094 50.828125 121.90625 50.839844 121.90625 50.878906 C 121.90625 50.925781 122 50.957031 122.085938 50.957031 C 122.136719 50.957031 122.167969 50.929688 122.199219 50.910156 Z M 122.199219 50.910156 "/>
<path style=" stroke:none;fill-rule:evenodd;fill:rgb(88.671875%,71.289063%,18.431091%);fill-opacity:1;" d="M 122.199219 50.910156 C 122.203125 50.902344 122.207031 50.898438 122.207031 50.894531 C 122.207031 50.851563 122.140625 50.828125 122.070313 50.828125 C 121.996094 50.828125 121.90625 50.839844 121.90625 50.878906 C 121.90625 50.925781 122 50.957031 122.085938 50.957031 C 122.136719 50.957031 122.167969 50.929688 122.199219 50.910156 Z M 122.199219 50.910156 "/>
<path style=" stroke:none;fill-rule:evenodd;fill:rgb(100%,100%,100%);fill-opacity:1;" d="M 124.34375 50.605469 C 124.300781 50.5625 124.246094 50.53125 124.160156 50.53125 C 124.101563 50.53125 124.046875 50.554688 124.046875 50.589844 C 124.046875 50.613281 124.085938 50.621094 124.113281 50.644531 C 124.144531 50.671875 124.167969 50.703125 124.226563 50.703125 C 124.300781 50.703125 124.34375 50.648438 124.34375 50.605469 Z M 124.34375 50.605469 "/>
<path style=" stroke:none;fill-rule:evenodd;fill:rgb(88.671875%,71.289063%,18.431091%);fill-opacity:1;" d="M 124.34375 50.605469 C 124.300781 50.5625 124.246094 50.53125 124.160156 50.53125 C 124.101563 50.53125 124.046875 50.554688 124.046875 50.589844 C 124.046875 50.613281 124.085938 50.621094 124.113281 50.644531 C 124.144531 50.671875 124.167969 50.703125 124.226563 50.703125 C 124.300781 50.703125 124.34375 50.648438 124.34375 50.605469 Z M 124.34375 50.605469 "/>
<path style=" stroke:none;fill-rule:evenodd;fill:rgb(100%,100%,100%);fill-opacity:1;" d="M 123.917969 50.605469 C 123.878906 50.566406 123.835938 50.535156 123.757813 50.535156 C 123.699219 50.535156 123.644531 50.554688 123.644531 50.589844 C 123.644531 50.628906 123.679688 50.640625 123.707031 50.671875 C 123.742188 50.710938 123.773438 50.738281 123.839844 50.738281 C 123.886719 50.738281 123.917969 50.714844 123.917969 50.6875 C 123.917969 50.65625 123.917969 50.636719 123.917969 50.605469 Z M 123.917969 50.605469 "/>
<path style=" stroke:none;fill-rule:evenodd;fill:rgb(88.671875%,71.289063%,18.431091%);fill-opacity:1;" d="M 123.917969 50.605469 C 123.878906 50.566406 123.835938 50.535156 123.757813 50.535156 C 123.699219 50.535156 123.644531 50.554688 123.644531 50.589844 C 123.644531 50.628906 123.679688 50.640625 123.707031 50.671875 C 123.742188 50.710938 123.773438 50.738281 123.839844 50.738281 C 123.886719 50.738281 123.917969 50.714844 123.917969 50.6875 C 123.917969 50.65625 123.917969 50.636719 123.917969 50.605469 Z M 123.917969 50.605469 "/>
<path style=" stroke:none;fill-rule:evenodd;fill:rgb(100%,100%,100%);fill-opacity:1;" d="M 123.507813 50.609375 C 123.480469 50.5625 123.421875 50.527344 123.339844 50.527344 C 123.214844 50.527344 123.09375 50.582031 123.09375 50.648438 C 123.09375 50.695313 123.199219 50.710938 123.285156 50.710938 C 123.382813 50.710938 123.511719 50.695313 123.511719 50.636719 C 123.511719 50.628906 123.507813 50.617188 123.507813 50.609375 Z M 123.507813 50.609375 "/>
<path style=" stroke:none;fill-rule:evenodd;fill:rgb(88.671875%,71.289063%,18.431091%);fill-opacity:1;" d="M 123.507813 50.609375 C 123.480469 50.5625 123.421875 50.527344 123.339844 50.527344 C 123.214844 50.527344 123.09375 50.582031 123.09375 50.648438 C 123.09375 50.695313 123.199219 50.710938 123.285156 50.710938 C 123.382813 50.710938 123.511719 50.695313 123.511719 50.636719 C 123.511719 50.628906 123.507813 50.617188 123.507813 50.609375 Z M 123.507813 50.609375 "/>
<path style=" stroke:none;fill-rule:evenodd;fill:rgb(100%,100%,100%);fill-opacity:1;" d="M 124.886719 50.609375 C 124.84375 50.582031 124.796875 50.558594 124.722656 50.558594 C 124.664063 50.558594 124.605469 50.582031 124.605469 50.613281 C 124.605469 50.65625 124.6875 50.679688 124.765625 50.679688 C 124.832031 50.679688 124.898438 50.648438 124.886719 50.609375 Z M 124.886719 50.609375 "/>
<path style=" stroke:none;fill-rule:evenodd;fill:rgb(88.671875%,71.289063%,18.431091%);fill-opacity:1;" d="M 124.886719 50.609375 C 124.84375 50.582031 124.796875 50.558594 124.722656 50.558594 C 124.664063 50.558594 124.605469 50.582031 124.605469 50.613281 C 124.605469 50.65625 124.6875 50.679688 124.765625 50.679688 C 124.832031 50.679688 124.898438 50.648438 124.886719 50.609375 Z M 124.886719 50.609375 "/>
<path style=" stroke:none;fill-rule:evenodd;fill:rgb(100%,100%,100%);fill-opacity:1;" d="M 125.734375 50.675781 C 125.710938 50.675781 125.707031 50.65625 125.683594 50.65625 C 125.652344 50.65625 125.609375 50.65625 125.609375 50.675781 C 125.609375 50.707031 125.664063 50.714844 125.710938 50.714844 C 125.726563 50.714844 125.742188 50.710938 125.742188 50.695313 C 125.742188 50.6875 125.746094 50.675781 125.734375 50.675781 Z M 125.734375 50.675781 "/>
<path style=" stroke:none;fill-rule:evenodd;fill:rgb(88.671875%,71.289063%,18.431091%);fill-opacity:1;" d="M 125.734375 50.675781 C 125.710938 50.675781 125.707031 50.65625 125.683594 50.65625 C 125.652344 50.65625 125.609375 50.65625 125.609375 50.675781 C 125.609375 50.707031 125.664063 50.714844 125.710938 50.714844 C 125.726563 50.714844 125.742188 50.710938 125.742188 50.695313 C 125.742188 50.6875 125.746094 50.675781 125.734375 50.675781 Z M 125.734375 50.675781 "/>
<path style=" stroke:none;fill-rule:evenodd;fill:rgb(100%,100%,100%);fill-opacity:1;" d="M 120.738281 50.140625 C 120.671875 50.140625 120.617188 50.175781 120.617188 50.214844 C 120.617188 50.253906 120.652344 50.289063 120.71875 50.289063 C 120.773438 50.289063 120.816406 50.257813 120.816406 50.226563 C 120.816406 50.191406 120.804688 50.140625 120.738281 50.140625 Z M 120.738281 50.140625 "/>
<path style=" stroke:none;fill-rule:evenodd;fill:rgb(88.671875%,71.289063%,18.431091%);fill-opacity:1;" d="M 120.738281 50.140625 C 120.671875 50.140625 120.617188 50.175781 120.617188 50.214844 C 120.617188 50.253906 120.652344 50.289063 120.71875 50.289063 C 120.773438 50.289063 120.816406 50.257813 120.816406 50.226563 C 120.816406 50.191406 120.804688 50.140625 120.738281 50.140625 Z M 120.738281 50.140625 "/>
<path style=" stroke:none;fill-rule:evenodd;fill:rgb(100%,100%,100%);fill-opacity:1;" d="M 108.617188 51.503906 C 108.515625 51.515625 108.382813 51.511719 108.382813 51.570313 C 108.382813 51.589844 108.386719 51.601563 108.386719 51.621094 C 108.414063 51.621094 108.429688 51.621094 108.453125 51.621094 C 108.550781 51.621094 108.640625 51.585938 108.640625 51.527344 C 108.640625 51.519531 108.621094 51.507813 108.617188 51.503906 Z M 108.617188 51.503906 "/>
<path style=" stroke:none;fill-rule:evenodd;fill:rgb(88.671875%,71.289063%,18.431091%);fill-opacity:1;" d="M 108.617188 51.503906 C 108.515625 51.515625 108.382813 51.511719 108.382813 51.570313 C 108.382813 51.589844 108.386719 51.601563 108.386719 51.621094 C 108.414063 51.621094 108.429688 51.621094 108.453125 51.621094 C 108.550781 51.621094 108.640625 51.585938 108.640625 51.527344 C 108.640625 51.519531 108.621094 51.507813 108.617188 51.503906 Z M 108.617188 51.503906 "/>
<path style=" stroke:none;fill-rule:evenodd;fill:rgb(100%,100%,100%);fill-opacity:1;" d="M 109.390625 51.515625 C 109.875 51.515625 109.664063 51.539063 109.960938 51.839844 C 109.960938 51.839844 109.648438 51.839844 109.558594 51.765625 C 109.679688 51.753906 109.722656 51.726563 109.722656 51.691406 L 109.585938 51.609375 C 109.449219 51.65625 109.515625 51.847656 109.308594 51.847656 C 109.101563 51.847656 109.238281 51.792969 109.183594 51.753906 C 109.128906 51.792969 109.140625 51.828125 109.128906 51.890625 L 108.746094 51.890625 C 108.648438 51.785156 108.644531 51.679688 108.6875 51.589844 C 108.730469 51.632813 108.714844 51.714844 108.777344 51.753906 C 109.191406 51.664063 108.996094 51.515625 109.390625 51.515625 Z M 109.390625 51.515625 "/>
<path style=" stroke:none;fill-rule:evenodd;fill:rgb(88.671875%,71.289063%,18.431091%);fill-opacity:1;" d="M 109.390625 51.515625 C 109.875 51.515625 109.664063 51.539063 109.960938 51.839844 C 109.960938 51.839844 109.648438 51.839844 109.558594 51.765625 C 109.679688 51.753906 109.722656 51.726563 109.722656 51.691406 L 109.585938 51.609375 C 109.449219 51.65625 109.515625 51.847656 109.308594 51.847656 C 109.101563 51.847656 109.238281 51.792969 109.183594 51.753906 C 109.128906 51.792969 109.140625 51.828125 109.128906 51.890625 L 108.746094 51.890625 C 108.648438 51.785156 108.644531 51.679688 108.6875 51.589844 C 108.730469 51.632813 108.714844 51.714844 108.777344 51.753906 C 109.191406 51.664063 108.996094 51.515625 109.390625 51.515625 Z M 109.390625 51.515625 "/>
<path style=" stroke:none;fill-rule:evenodd;fill:rgb(100%,100%,100%);fill-opacity:1;" d="M 116.585938 50.160156 C 116.523438 50.160156 116.449219 50.175781 116.449219 50.214844 C 116.449219 50.265625 116.53125 50.285156 116.601563 50.328125 C 116.636719 50.28125 116.636719 50.160156 116.585938 50.160156 Z M 116.585938 50.160156 "/>
<path style=" stroke:none;fill-rule:evenodd;fill:rgb(88.671875%,71.289063%,18.431091%);fill-opacity:1;" d="M 116.585938 50.160156 C 116.523438 50.160156 116.449219 50.175781 116.449219 50.214844 C 116.449219 50.265625 116.53125 50.285156 116.601563 50.328125 C 116.636719 50.28125 116.636719 50.160156 116.585938 50.160156 Z M 116.585938 50.160156 "/>
<path style=" stroke:none;fill-rule:evenodd;fill:rgb(100%,100%,100%);fill-opacity:1;" d="M 117.324219 50.15625 C 117.273438 50.164063 117.222656 50.183594 117.210938 50.214844 L 117.210938 50.238281 C 117.238281 50.257813 117.25 50.277344 117.289063 50.277344 C 117.351563 50.277344 117.390625 50.242188 117.390625 50.210938 C 117.390625 50.183594 117.355469 50.171875 117.324219 50.15625 Z M 117.324219 50.15625 "/>
<path style=" stroke:none;fill-rule:evenodd;fill:rgb(88.671875%,71.289063%,18.431091%);fill-opacity:1;" d="M 117.324219 50.15625 C 117.273438 50.164063 117.222656 50.183594 117.210938 50.214844 L 117.210938 50.238281 C 117.238281 50.257813 117.25 50.277344 117.289063 50.277344 C 117.351563 50.277344 117.390625 50.242188 117.390625 50.210938 C 117.390625 50.183594 117.355469 50.171875 117.324219 50.15625 Z M 117.324219 50.15625 "/>
<path style=" stroke:none;fill-rule:evenodd;fill:rgb(100%,100%,100%);fill-opacity:1;" d="M 120.011719 50.207031 C 119.996094 50.203125 119.988281 50.1875 119.96875 50.1875 C 119.945313 50.1875 119.921875 50.195313 119.921875 50.214844 C 119.921875 50.230469 119.945313 50.253906 119.980469 50.253906 C 120.007813 50.253906 120.011719 50.222656 120.011719 50.207031 Z M 120.011719 50.207031 "/>
<path style=" stroke:none;fill-rule:evenodd;fill:rgb(88.671875%,71.289063%,18.431091%);fill-opacity:1;" d="M 120.011719 50.207031 C 119.996094 50.203125 119.988281 50.1875 119.96875 50.1875 C 119.945313 50.1875 119.921875 50.195313 119.921875 50.214844 C 119.921875 50.230469 119.945313 50.253906 119.980469 50.253906 C 120.007813 50.253906 120.011719 50.222656 120.011719 50.207031 Z M 120.011719 50.207031 "/>
<path style=" stroke:none;fill-rule:evenodd;fill:rgb(100%,100%,100%);fill-opacity:1;" d="M 118.421875 50.191406 L 118.984375 50.246094 C 118.992188 50.308594 118.992188 50.378906 118.785156 50.378906 C 118.578125 50.378906 118.621094 50.335938 118.421875 50.335938 Z M 118.421875 50.191406 "/>
<path style=" stroke:none;fill-rule:evenodd;fill:rgb(88.671875%,71.289063%,18.431091%);fill-opacity:1;" d="M 118.421875 50.191406 L 118.984375 50.246094 C 118.992188 50.308594 118.992188 50.378906 118.785156 50.378906 C 118.578125 50.378906 118.621094 50.335938 118.421875 50.335938 Z M 118.421875 50.191406 "/>
<path style=" stroke:none;fill-rule:evenodd;fill:rgb(100%,100%,100%);fill-opacity:1;" d="M 119.289063 50.472656 C 119.464844 50.523438 119.695313 50.566406 119.902344 50.566406 C 120.109375 50.566406 119.902344 50.472656 120.109375 50.472656 C 120.316406 50.472656 120.554688 50.578125 120.648438 50.640625 C 120.554688 50.707031 120.359375 50.714844 119.464844 50.710938 C 119.3125 50.796875 119.320313 50.933594 119.222656 51.039063 C 119.117188 51.042969 119.085938 50.988281 119.035156 50.945313 C 118.980469 50.988281 118.910156 51.066406 118.914063 51.027344 L 118.765625 50.945313 C 118.703125 50.945313 118.648438 51.035156 118.53125 51.089844 C 118.417969 50.980469 118.496094 50.898438 118.496094 50.78125 C 118.496094 50.664063 118.164063 50.640625 118.175781 50.527344 C 118.511719 50.464844 118.882813 50.445313 119.289063 50.472656 Z M 119.289063 50.472656 "/>
<path style=" stroke:none;fill-rule:evenodd;fill:rgb(88.671875%,71.289063%,18.431091%);fill-opacity:1;" d="M 119.289063 50.472656 C 119.464844 50.523438 119.695313 50.566406 119.902344 50.566406 C 120.109375 50.566406 119.902344 50.472656 120.109375 50.472656 C 120.316406 50.472656 120.554688 50.578125 120.648438 50.640625 C 120.554688 50.707031 120.359375 50.714844 119.464844 50.710938 C 119.3125 50.796875 119.320313 50.933594 119.222656 51.039063 C 119.117188 51.042969 119.085938 50.988281 119.035156 50.945313 C 118.980469 50.988281 118.910156 51.066406 118.914063 51.027344 L 118.765625 50.945313 C 118.703125 50.945313 118.648438 51.035156 118.53125 51.089844 C 118.417969 50.980469 118.496094 50.898438 118.496094 50.78125 C 118.496094 50.664063 118.164063 50.640625 118.175781 50.527344 C 118.511719 50.464844 118.882813 50.445313 119.289063 50.472656 Z M 119.289063 50.472656 "/>
<path style=" stroke:none;fill-rule:evenodd;fill:rgb(100%,100%,100%);fill-opacity:1;" d="M 120.734375 50.535156 C 120.855469 50.519531 120.9375 50.613281 121.144531 50.613281 C 121.652344 50.613281 122.300781 50.402344 122.882813 50.695313 C 121.402344 50.664063 121.179688 50.820313 120.734375 50.535156 Z M 120.734375 50.535156 "/>
<path style=" stroke:none;fill-rule:evenodd;fill:rgb(88.671875%,71.289063%,18.431091%);fill-opacity:1;" d="M 120.734375 50.535156 C 120.855469 50.519531 120.9375 50.613281 121.144531 50.613281 C 121.652344 50.613281 122.300781 50.402344 122.882813 50.695313 C 121.402344 50.664063 121.179688 50.820313 120.734375 50.535156 Z M 120.734375 50.535156 "/>
<path style=" stroke:none;fill-rule:evenodd;fill:rgb(100%,100%,100%);fill-opacity:1;" d="M 114.347656 51.597656 C 114.226563 51.613281 114.03125 51.558594 113.871094 51.460938 L 113.871094 51.28125 C 114.089844 51.382813 114.257813 51.527344 114.347656 51.597656 Z M 114.347656 51.597656 "/>
<path style=" stroke:none;fill-rule:evenodd;fill:rgb(88.671875%,71.289063%,18.431091%);fill-opacity:1;" d="M 114.347656 51.597656 C 114.226563 51.613281 114.03125 51.558594 113.871094 51.460938 L 113.871094 51.28125 C 114.089844 51.382813 114.257813 51.527344 114.347656 51.597656 Z M 114.347656 51.597656 "/>
<path style=" stroke:none;fill-rule:evenodd;fill:rgb(100%,100%,100%);fill-opacity:1;" d="M 113.382813 51.613281 C 113.398438 51.613281 113.398438 51.601563 113.398438 51.59375 C 113.398438 51.566406 113.378906 51.535156 113.332031 51.535156 C 113.269531 51.535156 113.191406 51.539063 113.191406 51.578125 C 113.191406 51.609375 113.261719 51.628906 113.324219 51.628906 C 113.347656 51.628906 113.359375 51.613281 113.382813 51.613281 Z M 113.382813 51.613281 "/>
<path style=" stroke:none;fill-rule:evenodd;fill:rgb(88.671875%,71.289063%,18.431091%);fill-opacity:1;" d="M 113.382813 51.613281 C 113.398438 51.613281 113.398438 51.601563 113.398438 51.59375 C 113.398438 51.566406 113.378906 51.535156 113.332031 51.535156 C 113.269531 51.535156 113.191406 51.539063 113.191406 51.578125 C 113.191406 51.609375 113.261719 51.628906 113.324219 51.628906 C 113.347656 51.628906 113.359375 51.613281 113.382813 51.613281 Z M 113.382813 51.613281 "/>
<path style=" stroke:none;fill-rule:evenodd;fill:rgb(100%,100%,100%);fill-opacity:1;" d="M 119.847656 50.871094 C 119.792969 50.828125 119.769531 50.765625 119.671875 50.765625 C 119.644531 50.765625 119.628906 50.765625 119.601563 50.765625 C 119.601563 50.773438 119.601563 50.777344 119.601563 50.785156 C 119.601563 50.8125 119.636719 50.828125 119.664063 50.847656 C 119.714844 50.890625 119.746094 50.925781 119.835938 50.9375 C 119.851563 50.914063 119.847656 50.898438 119.847656 50.871094 Z M 119.847656 50.871094 "/>
<path style=" stroke:none;fill-rule:evenodd;fill:rgb(88.671875%,71.289063%,18.431091%);fill-opacity:1;" d="M 119.847656 50.871094 C 119.792969 50.828125 119.769531 50.765625 119.671875 50.765625 C 119.644531 50.765625 119.628906 50.765625 119.601563 50.765625 C 119.601563 50.773438 119.601563 50.777344 119.601563 50.785156 C 119.601563 50.8125 119.636719 50.828125 119.664063 50.847656 C 119.714844 50.890625 119.746094 50.925781 119.835938 50.9375 C 119.851563 50.914063 119.847656 50.898438 119.847656 50.871094 Z M 119.847656 50.871094 "/>
<path style=" stroke:none;fill-rule:evenodd;fill:rgb(100%,100%,100%);fill-opacity:1;" d="M 120.269531 50.839844 C 120.25 50.820313 120.234375 50.800781 120.199219 50.800781 C 120.167969 50.800781 120.148438 50.816406 120.148438 50.835938 C 120.148438 50.859375 120.160156 50.882813 120.199219 50.902344 C 120.234375 50.882813 120.269531 50.867188 120.269531 50.839844 Z M 120.269531 50.839844 "/>
<path style=" stroke:none;fill-rule:evenodd;fill:rgb(88.671875%,71.289063%,18.431091%);fill-opacity:1;" d="M 120.269531 50.839844 C 120.25 50.820313 120.234375 50.800781 120.199219 50.800781 C 120.167969 50.800781 120.148438 50.816406 120.148438 50.835938 C 120.148438 50.859375 120.160156 50.882813 120.199219 50.902344 C 120.234375 50.882813 120.269531 50.867188 120.269531 50.839844 Z M 120.269531 50.839844 "/>
<path style=" stroke:none;fill-rule:evenodd;fill:rgb(88.671875%,71.289063%,18.431091%);fill-opacity:1;" d="M 121.144531 48.035156 C 121.292969 48.113281 121.277344 48.089844 121.507813 48.050781 C 121.714844 48.015625 121.542969 48.15625 122.0625 48.050781 C 122.269531 48.007813 123.984375 48.058594 124.203125 48.058594 C 124.277344 48.058594 124.722656 48.058594 124.777344 48.214844 L 125.015625 48.089844 C 125.125 48.089844 125.144531 48.097656 125.277344 48.105469 C 125.347656 48.175781 125.492188 48.105469 125.546875 48.105469 C 125.613281 48.175781 125.769531 48.160156 125.828125 48.128906 C 126.332031 48.15625 126.765625 48.15625 126.902344 48.15625 C 127.121094 48.15625 126.859375 48.273438 127.074219 48.273438 C 127.292969 48.273438 127.25 48.175781 127.46875 48.175781 C 127.707031 48.175781 128.28125 48.203125 128.484375 48.285156 C 128.484375 48.285156 128.753906 48.4375 128.742188 48.289063 L 129.089844 48.21875 L 129.265625 48.308594 C 129.191406 48.433594 129.078125 48.503906 129.292969 48.601563 C 129.269531 48.582031 129.355469 48.472656 129.371094 48.355469 L 130.113281 48.355469 L 130.273438 48.453125 C 130.324219 48.40625 130.3125 48.351563 130.53125 48.351563 C 130.746094 48.351563 131.070313 48.601563 131.390625 48.703125 C 131.453125 48.65625 131.628906 48.605469 131.847656 48.503906 C 131.875 48.578125 131.863281 48.65625 131.9375 48.703125 L 132.511719 48.703125 C 132.582031 48.65625 132.582031 48.554688 132.710938 48.503906 C 132.960938 48.960938 133.933594 48.648438 134.550781 49.039063 C 134.605469 49.128906 134.183594 48.9375 134.070313 49.0625 C 134 49.140625 133.863281 48.964844 133.644531 48.964844 C 133.429688 48.964844 133.164063 49.003906 132.847656 48.992188 C 132.789063 48.992188 132.921875 49.242188 132.648438 49.195313 C 132.527344 49.085938 132.808594 49.046875 132.699219 48.941406 C 132.621094 48.898438 132.382813 48.96875 132.328125 48.925781 C 132.253906 48.929688 132.355469 49.207031 132.28125 49.191406 C 132.027344 49.203125 132.171875 48.992188 132.085938 49.011719 C 131.996094 49.007813 132.0625 49.121094 132 49.171875 C 131.777344 49.222656 132.011719 48.953125 131.675781 48.964844 C 131.609375 48.960938 131.542969 49.101563 131.660156 49.15625 C 131.925781 49.101563 131.84375 49.394531 131.714844 49.390625 C 131.394531 49.347656 131.542969 49.621094 131.425781 49.613281 C 131.261719 49.589844 131.390625 49.457031 131.25 49.351563 C 131.238281 49.257813 131.398438 49.351563 131.480469 49.308594 L 131.464844 49.175781 C 131.414063 49.1875 131.171875 49.085938 131.023438 49.082031 C 130.953125 49.214844 131.09375 49.46875 131.058594 49.640625 C 130.890625 49.511719 130.679688 49.328125 130.714844 49.136719 C 130.546875 49.15625 130.664063 49.371094 130.40625 49.335938 C 130.226563 49.285156 130.652344 49.113281 130.40625 48.914063 C 130.207031 48.898438 130.390625 48.992188 130.378906 49.0625 C 130.261719 49.066406 130.097656 49.046875 130.03125 49.042969 C 130.03125 49.042969 129.945313 48.988281 129.945313 49.113281 C 129.945313 49.238281 130.085938 49.148438 130.085938 49.273438 C 130.085938 49.332031 129.96875 49.3125 129.949219 49.363281 C 129.921875 49.429688 130.039063 49.609375 129.875 49.558594 C 129.742188 49.503906 129.722656 49.386719 129.664063 49.34375 C 129.515625 49.34375 129.742188 49.585938 129.417969 49.554688 C 129.3125 49.554688 129.296875 49.511719 129.199219 49.441406 C 129.179688 49.410156 129.214844 49.382813 129.4375 49.441406 C 129.5625 49.460938 129.421875 49.320313 129.488281 49.265625 C 129.597656 49.230469 129.6875 49.1875 129.769531 49.128906 C 129.695313 49.09375 129.878906 49.011719 129.664063 49.007813 C 129.292969 49.003906 129.160156 49.523438 128.863281 49.539063 C 128.660156 49.492188 128.824219 49.144531 128.761719 49.011719 C 128.535156 48.992188 128.636719 49.339844 128.613281 49.527344 C 128.445313 49.582031 128.324219 49.585938 128.253906 49.53125 C 128.15625 49.484375 127.992188 49.316406 127.9375 49.230469 C 127.886719 49.269531 127.957031 49.484375 127.957031 49.484375 C 127.769531 49.539063 127.300781 49.511719 126.4375 49.460938 C 125.914063 49.421875 126.210938 49.300781 125.980469 49.207031 C 125.933594 49.253906 125.496094 49.460938 125.289063 49.460938 C 125.082031 49.460938 124.855469 49.40625 120.722656 49.433594 C 120.519531 49.4375 120.332031 49.390625 120.109375 49.394531 C 118.578125 49.40625 118.355469 49.4375 118 49.476563 C 117.871094 49.488281 117.679688 49.578125 117.449219 49.589844 C 117.351563 49.589844 117.308594 49.507813 117.175781 49.507813 C 117.136719 49.511719 117.050781 49.566406 117.007813 49.566406 C 116.957031 49.566406 116.894531 49.507813 116.835938 49.507813 C 116.773438 49.511719 116.738281 49.554688 116.667969 49.554688 C 116.5625 49.558594 116.417969 49.492188 116.292969 49.492188 C 116.203125 49.492188 116.125 49.617188 115.90625 49.617188 C 115.6875 49.617188 115.855469 49.542969 115.636719 49.542969 C 115.46875 49.542969 115.339844 49.53125 115.21875 49.53125 C 115.132813 49.535156 115.039063 49.660156 114.949219 49.679688 C 114.898438 49.6875 114.667969 49.589844 114.609375 49.605469 C 114.511719 49.636719 114.59375 49.679688 114.464844 49.742188 L 114.265625 49.628906 C 114.210938 49.671875 114.195313 49.714844 113.976563 49.714844 C 113.757813 49.714844 113.902344 49.640625 113.683594 49.640625 C 113.46875 49.640625 113.496094 49.765625 113.277344 49.765625 C 113.058594 49.765625 113.273438 49.683594 113.054688 49.683594 C 112.90625 49.683594 112.859375 49.78125 112.777344 49.789063 C 112.648438 49.796875 112.496094 49.691406 112.433594 49.710938 C 112.355469 49.726563 112.289063 49.820313 112.097656 49.835938 C 111.988281 49.839844 111.617188 49.746094 111.398438 49.746094 C 111.292969 49.746094 111.15625 49.941406 111.121094 49.941406 C 110.90625 49.941406 111.046875 49.808594 110.828125 49.808594 C 110.609375 49.808594 110.652344 49.980469 110.4375 49.980469 C 110.21875 49.980469 110.296875 49.859375 110.078125 49.859375 C 109.992188 49.859375 110.023438 49.945313 109.941406 49.984375 C 109.863281 50.019531 109.507813 49.972656 109.441406 50.011719 C 109.394531 50.039063 109.511719 50.09375 109.472656 50.113281 C 109.515625 50.132813 109.75 50.121094 109.980469 50.105469 C 110.019531 50.105469 110.015625 50.128906 110.054688 50.128906 C 110.082031 50.121094 110.15625 50.097656 110.183594 50.09375 C 110.285156 50.089844 110.375 50.085938 110.433594 50.085938 L 111.195313 50.050781 L 111.359375 50.066406 L 111.417969 50.039063 L 111.769531 50.023438 C 111.769531 50.023438 112.121094 49.957031 112.148438 49.960938 C 112.15625 49.960938 112.261719 50.003906 112.449219 49.992188 C 112.570313 49.988281 112.710938 49.980469 112.859375 49.976563 C 112.875 49.976563 112.929688 50.023438 112.945313 50.019531 C 112.972656 50.019531 112.960938 49.972656 112.988281 49.96875 C 113.167969 49.964844 113.34375 49.957031 113.5 49.953125 C 113.769531 49.878906 113.910156 49.871094 113.90625 49.929688 C 113.808594 50.058594 113.8125 50.144531 113.921875 50.191406 C 113.921875 50.191406 113.902344 50.238281 114.117188 50.238281 C 114.335938 50.238281 114.347656 50.195313 114.421875 50.164063 C 114.347656 50.132813 114.261719 50.03125 114.164063 49.964844 C 114.359375 49.894531 114.683594 49.839844 114.898438 49.839844 C 115.117188 49.839844 115.335938 49.890625 115.542969 49.898438 C 115.417969 50.1875 115.703125 50.1875 115.898438 50.1875 C 116.117188 50.1875 116.300781 50.089844 116.625 50.140625 C 116.691406 50.097656 116.765625 50.0625 116.773438 50.027344 C 116.617188 49.988281 116.46875 49.988281 115.914063 50.035156 C 115.898438 49.964844 115.824219 49.984375 115.726563 49.910156 C 116.015625 49.84375 116.367188 49.84375 116.71875 49.792969 L 118.324219 49.765625 C 118.730469 49.722656 118.816406 49.753906 118.589844 49.859375 C 118.390625 49.9375 118.125 49.988281 117.894531 50.019531 C 117.617188 50.097656 117.695313 50.136719 118.128906 50.140625 C 118.839844 50.203125 119.382813 50.203125 119.75 50.140625 C 119.96875 50.140625 120.414063 50.039063 120.632813 50.039063 C 120.847656 50.039063 120.804688 50.089844 120.921875 50.097656 C 120.621094 50.183594 120.777344 50.464844 120.636719 50.4375 C 120.511719 50.378906 120.339844 50.335938 120.285156 50.289063 C 120.226563 50.335938 120.109375 50.339844 119.96875 50.335938 C 119.980469 50.363281 120.066406 50.464844 120.054688 50.53125 C 119.9375 50.535156 119.878906 50.53125 119.761719 50.589844 C 119.644531 50.53125 119.761719 50.289063 119.546875 50.289063 C 118.851563 50.289063 118.460938 50.410156 118.046875 50.734375 C 117.9375 50.734375 117.910156 50.679688 117.851563 50.636719 L 117.675781 50.734375 C 117.472656 50.628906 117.230469 50.589844 116.996094 50.535156 C 116.917969 50.589844 116.59375 50.839844 116.203125 50.839844 C 115.984375 50.839844 115.910156 50.726563 115.855469 50.6875 C 115.691406 50.675781 115.933594 50.816406 115.796875 50.832031 C 115.449219 50.894531 115.527344 50.636719 115.4375 50.734375 C 115.375 50.867188 115.464844 51.066406 115.328125 51.28125 C 115.289063 51.210938 115.304688 51.175781 115.246094 51.132813 C 115.191406 51.175781 115.203125 51.257813 115.1875 51.332031 C 114.917969 51.378906 114.777344 51.351563 114.769531 51.261719 C 115.058594 51.121094 115.082031 50.894531 115.203125 50.8125 L 115.058594 50.734375 C 114.421875 50.839844 114.808594 51.085938 114.566406 51.335938 C 114.359375 51.28125 114.347656 51.175781 114.164063 51.066406 C 114.160156 51.007813 114.339844 50.996094 114.359375 50.914063 L 114.359375 50.839844 C 114.359375 50.839844 114.25 50.859375 114.222656 50.933594 C 114.085938 50.878906 113.691406 50.570313 113.609375 50.683594 C 113.542969 50.726563 113.46875 50.808594 113.453125 50.878906 C 113.335938 50.886719 113.25 50.839844 112.757813 50.832031 C 112.636719 50.828125 112.878906 51.398438 112.757813 51.378906 C 112.207031 51.363281 112.507813 51.042969 112.109375 50.882813 C 112.035156 50.886719 111.988281 50.972656 111.882813 51.082031 C 111.773438 51.085938 111.6875 50.984375 111.46875 50.984375 C 111.253906 50.984375 110.828125 51.085938 110.503906 51.128906 C 110.203125 51.109375 110.546875 51.597656 110.488281 51.582031 C 110.355469 51.523438 110.367188 51.429688 110.21875 51.382813 C 110.15625 51.425781 110.253906 51.507813 110.242188 51.578125 C 110.125 51.585938 110.007813 51.523438 109.949219 51.480469 C 109.894531 51.523438 109.90625 51.679688 109.691406 51.679688 C 109.472656 51.679688 109.214844 51.617188 109.164063 51.53125 C 109.113281 51.578125 109.125 51.605469 109.113281 51.671875 C 108.734375 51.679688 108.289063 51.730469 107.964844 51.679688 L 107.757813 51.777344 C 107.738281 51.707031 107.671875 51.628906 107.527344 51.585938 C 107.464844 51.628906 107.605469 51.832031 107.386719 51.832031 C 107.171875 51.832031 107.34375 51.730469 107.128906 51.730469 C 106.414063 51.730469 100.015625 52.480469 98.953125 52.570313 C 98.953125 52.582031 99.082031 52.664063 98.855469 52.800781 C 98.761719 52.890625 98.542969 52.816406 98.632813 52.722656 C 98.800781 52.628906 98.691406 52.5625 98.539063 52.597656 C 97.96875 52.675781 98.375 52.84375 98.234375 52.875 C 97.921875 52.894531 97.898438 52.699219 97.820313 52.71875 C 97.726563 52.832031 97.992188 52.941406 97.503906 52.992188 C 97.398438 52.933594 97.425781 52.761719 97.363281 52.71875 C 97.121094 52.707031 97.015625 52.796875 97.011719 52.980469 C 96.917969 53.042969 96.910156 53.109375 96.691406 53.109375 C 96.476563 53.109375 96.5 53.007813 96.28125 53.007813 C 96.265625 53.007813 96.160156 53.152344 95.679688 53.222656 C 95.125 53.300781 94.171875 53.304688 93.976563 53.304688 C 92.757813 53.304688 92.800781 52.433594 92.800781 52.101563 C 92.800781 51.238281 93.246094 49.441406 95.980469 49.441406 L 97.105469 49.394531 L 112.371094 48.253906 L 118.441406 48.078125 L 118.640625 48.117188 L 118.871094 48.050781 Z M 121.144531 48.035156 "/>
<path style=" stroke:none;fill-rule:evenodd;fill:rgb(10.594177%,9.812927%,9.423828%);fill-opacity:1;" d="M 107.007813 26.277344 L 107.007813 26.003906 C 107.007813 24.890625 106.8125 24.089844 106.417969 23.589844 C 106.046875 23.089844 105.398438 22.839844 104.476563 22.839844 C 103.53125 22.839844 102.796875 23.128906 102.265625 23.695313 C 101.753906 24.269531 101.5 25.128906 101.5 26.277344 Z M 101.410156 27.859375 C 101.410156 29.632813 101.648438 30.902344 102.117188 31.660156 C 102.609375 32.417969 103.492188 32.796875 104.769531 32.796875 C 105.8125 32.796875 106.695313 32.539063 107.421875 32.019531 C 108.167969 31.484375 108.679688 30.734375 108.953125 29.773438 L 109.601563 29.773438 C 109.011719 32.253906 107.285156 33.488281 104.417969 33.488281 C 102.785156 33.488281 101.421875 32.980469 100.320313 31.964844 C 99.222656 30.945313 98.671875 29.691406 98.671875 28.191406 C 98.671875 26.542969 99.230469 25.15625 100.351563 24.03125 C 101.46875 22.902344 102.855469 22.339844 104.503906 22.339844 C 106.015625 22.339844 107.214844 22.742188 108.097656 23.558594 C 109.003906 24.355469 109.523438 25.519531 109.660156 27.054688 L 101.410156 27.054688 Z M 101.410156 27.859375 "/>
<path style=" stroke:none;fill-rule:evenodd;fill:rgb(10.594177%,9.812927%,9.423828%);fill-opacity:1;" d="M 122.582031 33.519531 C 121.578125 33.519531 120.785156 33.296875 120.195313 32.851563 C 119.625 32.390625 119.339844 31.789063 119.339844 31.050781 C 119.339844 29.808594 119.96875 28.832031 121.226563 28.109375 C 122.503906 27.386719 124.308594 27.027344 126.644531 27.027344 L 126.644531 24.417969 C 126.644531 23.382813 125.871094 22.863281 124.320313 22.863281 C 123.652344 22.863281 123.089844 22.976563 122.640625 23.203125 C 122.1875 23.402344 121.960938 23.605469 121.960938 23.808594 C 122.160156 23.992188 122.34375 24.1875 122.519531 24.390625 C 122.699219 24.59375 122.785156 24.828125 122.785156 25.089844 C 122.785156 25.433594 122.667969 25.722656 122.433594 25.945313 C 122.21875 26.148438 121.941406 26.253906 121.609375 26.253906 C 120.785156 26.253906 120.371094 25.816406 120.371094 24.945313 C 120.371094 24.207031 120.785156 23.589844 121.609375 23.089844 C 122.453125 22.589844 123.582031 22.339844 124.996094 22.339844 C 126.507813 22.339844 127.539063 22.558594 128.089844 23.003906 C 128.640625 23.445313 128.914063 24.207031 128.914063 25.277344 L 128.914063 31.332031 C 128.914063 31.714844 128.945313 31.984375 129.003906 32.132813 C 129.082031 32.277344 129.25 32.351563 129.503906 32.351563 C 130.035156 32.351563 130.378906 32.011719 130.535156 31.332031 L 131.007813 31.382813 C 130.949219 32.03125 130.691406 32.546875 130.242188 32.9375 C 129.808594 33.304688 129.257813 33.488281 128.589844 33.488281 C 127.453125 33.488281 126.824219 32.898438 126.707031 31.714844 C 126.351563 32.253906 125.792969 32.6875 125.027344 33.019531 C 124.28125 33.351563 123.464844 33.519531 122.582031 33.519531 Z M 121.578125 30.355469 C 121.578125 30.964844 121.773438 31.464844 122.167969 31.855469 C 122.558594 32.242188 123.101563 32.4375 123.789063 32.4375 C 124.613281 32.4375 125.289063 32.242188 125.820313 31.855469 C 126.371094 31.464844 126.644531 30.929688 126.644531 30.246094 L 126.644531 27.636719 C 124.996094 27.636719 123.738281 27.867188 122.875 28.332031 C 122.011719 28.792969 121.578125 29.46875 121.578125 30.355469 Z M 121.578125 30.355469 "/>
<path style=" stroke:none;fill-rule:evenodd;fill:rgb(10.594177%,9.812927%,9.423828%);fill-opacity:1;" d="M 68.953125 32.492188 L 71.074219 32.492188 L 71.074219 15.652344 L 68.953125 15.652344 L 68.953125 14.960938 L 74.785156 14.960938 L 78.882813 28.441406 L 83.242188 14.960938 L 88.929688 14.960938 L 88.929688 15.652344 L 86.660156 15.652344 L 86.660156 32.492188 L 88.929688 32.492188 L 88.929688 33.1875 L 81.710938 33.1875 L 81.710938 32.492188 L 83.890625 32.492188 L 83.890625 15.902344 L 83.773438 15.902344 L 78.175781 33.1875 L 77.4375 33.1875 L 72.222656 15.902344 L 71.988281 15.902344 L 71.988281 32.492188 L 74.167969 32.492188 L 74.167969 33.1875 L 68.953125 33.1875 Z M 68.953125 32.492188 "/>
<path style=" stroke:none;fill-rule:evenodd;fill:rgb(10.594177%,9.812927%,9.423828%);fill-opacity:1;" d="M 95.675781 26.277344 L 95.675781 26.003906 C 95.675781 24.890625 95.480469 24.089844 95.085938 23.589844 C 94.714844 23.089844 94.0625 22.839844 93.140625 22.839844 C 92.199219 22.839844 91.460938 23.128906 90.933594 23.695313 C 90.421875 24.269531 90.167969 25.128906 90.167969 26.277344 Z M 90.078125 27.859375 C 90.078125 29.632813 90.3125 30.902344 90.785156 31.660156 C 91.273438 32.417969 92.160156 32.796875 93.4375 32.796875 C 94.476563 32.796875 95.359375 32.539063 96.085938 32.019531 C 96.835938 31.484375 97.34375 30.734375 97.617188 29.773438 L 98.269531 29.773438 C 97.679688 32.253906 95.949219 33.488281 93.082031 33.488281 C 91.453125 33.488281 90.085938 32.980469 88.988281 31.964844 C 87.886719 30.945313 87.335938 29.691406 87.335938 28.191406 C 87.335938 26.542969 87.898438 25.15625 89.015625 24.03125 C 90.136719 22.902344 91.519531 22.339844 93.171875 22.339844 C 94.683594 22.339844 95.882813 22.742188 96.765625 23.558594 C 97.667969 24.355469 98.1875 25.519531 98.328125 27.054688 L 90.078125 27.054688 Z M 90.078125 27.859375 "/>
<path style=" stroke:none;fill-rule:evenodd;fill:rgb(10.594177%,9.812927%,9.423828%);fill-opacity:1;" d="M 109.496094 32.6875 L 116.304688 23.167969 L 113.472656 23.167969 C 112.058594 23.167969 111.214844 24.160156 110.941406 26.136719 L 110.234375 26.136719 L 110.410156 22.589844 L 118.953125 22.589844 L 118.953125 23.226563 L 112.179688 32.546875 L 115.300781 32.546875 C 116.851563 32.546875 117.84375 31.460938 118.277344 29.273438 L 118.925781 29.273438 L 118.746094 33.1875 L 109.496094 33.1875 Z M 109.496094 32.6875 "/>
<path style=" stroke:none;fill-rule:evenodd;fill:rgb(10.594177%,9.812927%,9.423828%);fill-opacity:1;" d="M 131.230469 32.546875 L 132.820313 32.546875 L 132.820313 23.167969 L 131.230469 23.167969 L 131.230469 22.589844 L 131.761719 22.589844 C 132.957031 22.589844 134.058594 22.503906 135.058594 22.339844 L 135.058594 25.417969 C 135.925781 23.34375 137.378906 22.308594 139.421875 22.308594 C 140.421875 22.308594 141.21875 22.566406 141.808594 23.089844 C 142.394531 23.605469 142.691406 24.339844 142.691406 25.277344 L 142.691406 32.546875 L 144.222656 32.546875 L 144.222656 33.183594 L 138.773438 33.183594 L 138.773438 32.546875 L 140.449219 32.546875 L 140.449219 25.195313 C 140.449219 23.832031 139.84375 23.140625 138.625 23.140625 C 137.683594 23.140625 136.855469 23.589844 136.148438 24.472656 C 135.460938 25.34375 135.121094 26.433594 135.121094 27.746094 L 135.121094 32.546875 L 136.679688 32.546875 L 136.679688 33.183594 L 131.230469 33.183594 Z M 131.230469 32.546875 "/>
<path style=" stroke:none;fill-rule:evenodd;fill:rgb(10.594177%,9.812927%,9.423828%);fill-opacity:1;" d="M 152.4375 32.492188 L 154.558594 32.492188 L 154.558594 15.652344 L 152.4375 15.652344 L 152.4375 14.960938 L 159.863281 14.960938 C 164.457031 14.960938 166.757813 16.363281 166.757813 19.175781 C 166.757813 20.300781 166.34375 21.246094 165.519531 22.003906 C 164.714844 22.742188 163.542969 23.234375 162.011719 23.472656 L 162.011719 23.589844 C 163.703125 23.84375 165.019531 24.398438 165.960938 25.253906 C 166.921875 26.085938 167.40625 27.0625 167.40625 28.191406 C 167.40625 29.765625 166.746094 30.992188 165.429688 31.882813 C 164.113281 32.753906 162.21875 33.1875 159.746094 33.1875 L 152.4375 33.1875 Z M 159.625 23.253906 C 161.257813 23.253906 162.355469 22.964844 162.925781 22.390625 C 163.496094 21.820313 163.78125 20.773438 163.78125 19.257813 C 163.78125 17.835938 163.464844 16.878906 162.835938 16.398438 C 162.230469 15.902344 161.117188 15.652344 159.507813 15.652344 L 157.445313 15.652344 L 157.445313 23.253906 Z M 157.445313 32.492188 L 160.007813 32.492188 C 161.640625 32.492188 162.738281 32.207031 163.308594 31.632813 C 163.898438 31.039063 164.191406 29.9375 164.191406 28.332031 C 164.191406 26.738281 163.859375 25.609375 163.191406 24.945313 C 162.523438 24.28125 161.375 23.945313 159.746094 23.945313 L 157.445313 23.945313 Z M 157.445313 32.492188 "/>
<path style=" stroke:none;fill-rule:evenodd;fill:rgb(10.594177%,9.812927%,9.423828%);fill-opacity:1;" d="M 170.582031 33.519531 C 169.582031 33.519531 168.785156 33.296875 168.195313 32.851563 C 167.625 32.390625 167.339844 31.789063 167.339844 31.050781 C 167.339844 29.808594 167.96875 28.832031 169.226563 28.109375 C 170.503906 27.386719 172.3125 27.027344 174.648438 27.027344 L 174.648438 24.417969 C 174.648438 23.382813 173.871094 22.863281 172.320313 22.863281 C 171.652344 22.863281 171.09375 22.976563 170.640625 23.203125 C 170.1875 23.402344 169.964844 23.605469 169.964844 23.808594 C 170.160156 23.992188 170.347656 24.1875 170.523438 24.390625 C 170.699219 24.59375 170.789063 24.828125 170.789063 25.089844 C 170.789063 25.433594 170.671875 25.722656 170.433594 25.945313 C 170.21875 26.148438 169.945313 26.253906 169.609375 26.253906 C 168.785156 26.253906 168.371094 25.816406 168.371094 24.945313 C 168.371094 24.207031 168.785156 23.589844 169.609375 23.089844 C 170.453125 22.589844 171.582031 22.339844 173 22.339844 C 174.511719 22.339844 175.542969 22.558594 176.089844 23.003906 C 176.640625 23.445313 176.917969 24.207031 176.917969 25.277344 L 176.917969 31.332031 C 176.917969 31.714844 176.945313 31.984375 177.003906 32.132813 C 177.082031 32.277344 177.25 32.351563 177.507813 32.351563 C 178.035156 32.351563 178.378906 32.011719 178.539063 31.332031 L 179.007813 31.382813 C 178.949219 32.03125 178.695313 32.546875 178.242188 32.9375 C 177.808594 33.304688 177.261719 33.488281 176.59375 33.488281 C 175.453125 33.488281 174.824219 32.898438 174.707031 31.714844 C 174.351563 32.253906 173.792969 32.6875 173.027344 33.019531 C 172.28125 33.351563 171.464844 33.519531 170.582031 33.519531 Z M 169.582031 30.355469 C 169.582031 30.964844 169.777344 31.464844 170.171875 31.855469 C 170.5625 32.242188 171.101563 32.4375 171.789063 32.4375 C 172.617188 32.4375 173.292969 32.242188 173.824219 31.855469 C 174.375 31.464844 174.648438 30.929688 174.648438 30.246094 L 174.648438 27.636719 C 173 27.636719 171.742188 27.867188 170.878906 28.332031 C 170.011719 28.792969 169.582031 29.46875 169.582031 30.355469 Z M 169.582031 30.355469 "/>
<path style=" stroke:none;fill-rule:evenodd;fill:rgb(10.594177%,9.812927%,9.423828%);fill-opacity:1;" d="M 179.132813 32.546875 L 180.722656 32.546875 L 180.722656 23.167969 L 179.132813 23.167969 L 179.132813 22.589844 L 179.664063 22.589844 C 180.859375 22.589844 181.960938 22.503906 182.964844 22.339844 L 182.964844 25.417969 C 183.828125 23.34375 185.28125 22.308594 187.324219 22.308594 C 188.324219 22.308594 189.121094 22.566406 189.710938 23.089844 C 190.300781 23.605469 190.59375 24.339844 190.59375 25.277344 L 190.59375 32.546875 L 192.125 32.546875 L 192.125 33.183594 L 186.675781 33.183594 L 186.675781 32.546875 L 188.355469 32.546875 L 188.355469 25.195313 C 188.355469 23.832031 187.746094 23.140625 186.527344 23.140625 C 185.585938 23.140625 184.761719 23.589844 184.054688 24.472656 C 183.363281 25.34375 183.023438 26.433594 183.023438 27.746094 L 183.023438 32.546875 L 184.585938 32.546875 L 184.585938 33.183594 L 179.132813 33.183594 Z M 179.132813 32.546875 "/>
<g clip-path="url(#clip4)" clip-rule="nonzero">
<path style=" stroke:none;fill-rule:evenodd;fill:rgb(10.594177%,9.812927%,9.423828%);fill-opacity:1;" d="M 194.378906 15.511719 L 192.84375 15.511719 L 192.84375 14.960938 L 196.675781 14.679688 L 196.675781 32.546875 L 198.324219 32.546875 L 198.324219 33.1875 L 192.757813 33.1875 L 192.757813 32.546875 L 194.378906 32.546875 Z M 201.773438 23.203125 L 199.828125 23.203125 L 199.828125 22.589844 L 204.660156 22.589844 L 204.660156 23.203125 L 202.832031 23.203125 L 198.824219 26.359375 L 204.394531 32.546875 L 205.574219 32.546875 L 205.574219 33.1875 L 200.003906 33.1875 L 200.003906 32.546875 L 201.507813 32.546875 L 196.761719 27.109375 Z M 201.773438 23.203125 "/>
</g>
<path style=" stroke:none;fill-rule:evenodd;fill:rgb(10.594177%,9.812927%,9.423828%);fill-opacity:1;" d="M 88.359375 43.175781 C 88.238281 43.71875 87.980469 44.148438 87.585938 44.464844 C 87.203125 44.765625 86.734375 44.921875 86.183594 44.921875 C 85.425781 44.921875 84.785156 44.65625 84.257813 44.128906 C 83.746094 43.589844 83.488281 42.921875 83.488281 42.121094 C 83.488281 41.316406 83.769531 40.664063 84.328125 40.164063 C 84.890625 39.65625 85.476563 39.402344 86.085938 39.402344 C 86.730469 39.402344 87.273438 39.640625 87.714844 40.121094 C 88.164063 40.597656 88.386719 41.230469 88.386719 42.023438 L 84.652344 42.023438 L 84.625 42.601563 C 84.625 43.34375 84.75 43.878906 85.003906 44.214844 C 85.265625 44.550781 85.691406 44.71875 86.28125 44.71875 C 86.722656 44.71875 87.105469 44.589844 87.433594 44.316406 C 87.769531 44.039063 88 43.660156 88.121094 43.175781 Z M 87.265625 41.84375 L 87.277344 41.253906 C 87.277344 40.644531 87.195313 40.214844 87.027344 39.964844 C 86.855469 39.714844 86.539063 39.585938 86.070313 39.585938 C 85.582031 39.585938 85.230469 39.765625 85.003906 40.128906 C 84.777344 40.496094 84.667969 41.066406 84.667969 41.84375 Z M 87.265625 41.84375 "/>
<path style=" stroke:none;fill-rule:evenodd;fill:rgb(10.594177%,9.812927%,9.423828%);fill-opacity:1;" d="M 70.847656 44.578125 L 72.210938 44.578125 L 72.210938 37.042969 L 72 37.03125 C 71.1875 37.03125 70.558594 37.285156 70.117188 37.789063 C 69.6875 38.296875 69.472656 39.070313 69.472656 40.109375 L 69.320313 40.109375 L 69.320313 36.832031 L 76.367188 36.832031 L 76.367188 40.109375 L 76.199219 40.109375 C 76.066406 38.960938 75.804688 38.160156 75.414063 37.714844 C 75.019531 37.265625 74.355469 37.042969 73.417969 37.042969 L 73.390625 44.578125 L 74.753906 44.578125 L 74.753906 44.785156 L 70.847656 44.785156 Z M 70.847656 44.578125 "/>
<path style=" stroke:none;fill-rule:evenodd;fill:rgb(10.594177%,9.812927%,9.423828%);fill-opacity:1;" d="M 80.820313 39.683594 C 80.351563 39.683594 79.945313 39.910156 79.597656 40.367188 C 79.257813 40.820313 79.089844 41.414063 79.089844 42.144531 L 79.089844 44.605469 L 80.058594 44.605469 L 80.058594 44.785156 L 77.070313 44.785156 L 77.070313 44.605469 L 78.050781 44.605469 L 78.050781 37.019531 L 77.070313 37.019531 L 77.070313 36.832031 L 79.089844 36.832031 L 79.089844 40.953125 C 79.242188 40.464844 79.492188 40.089844 79.847656 39.816406 C 80.214844 39.539063 80.625 39.402344 81.085938 39.402344 C 81.582031 39.402344 81.980469 39.554688 82.277344 39.863281 C 82.578125 40.167969 82.726563 40.597656 82.726563 41.148438 L 82.726563 44.605469 L 83.699219 44.605469 L 83.699219 44.785156 L 80.707031 44.785156 L 80.707031 44.605469 L 81.691406 44.605469 L 81.691406 40.765625 C 81.691406 40.042969 81.398438 39.683594 80.820313 39.683594 Z M 80.820313 39.683594 "/>
<path style=" stroke:none;fill-rule:evenodd;fill:rgb(10.594177%,9.812927%,9.423828%);fill-opacity:1;" d="M 97.738281 44.578125 L 97.738281 44.785156 L 93.835938 44.785156 L 93.835938 44.578125 L 95.195313 44.578125 L 95.195313 37.042969 L 93.835938 37.042969 L 93.835938 36.832031 L 97.976563 36.832031 C 98.894531 36.832031 99.632813 37.035156 100.195313 37.445313 C 100.765625 37.847656 101.050781 38.367188 101.050781 39.003906 C 101.050781 40.277344 99.996094 40.914063 97.878906 40.914063 L 96.375 40.914063 L 96.375 44.578125 Z M 97.695313 40.707031 C 98.566406 40.707031 99.125 40.589844 99.367188 40.363281 C 99.621094 40.132813 99.746094 39.617188 99.746094 38.808594 C 99.746094 38.144531 99.628906 37.6875 99.394531 37.433594 C 99.171875 37.171875 98.667969 37.042969 97.894531 37.042969 L 96.375 37.042969 L 96.375 40.707031 Z M 97.695313 40.707031 "/>
<path style=" stroke:none;fill-rule:evenodd;fill:rgb(10.594177%,9.812927%,9.423828%);fill-opacity:1;" d="M 111.140625 43.175781 C 111.015625 43.71875 110.761719 44.148438 110.367188 44.464844 C 109.984375 44.765625 109.515625 44.921875 108.964844 44.921875 C 108.203125 44.921875 107.5625 44.65625 107.039063 44.128906 C 106.523438 43.589844 106.265625 42.921875 106.265625 42.121094 C 106.265625 41.316406 106.546875 40.664063 107.109375 40.164063 C 107.671875 39.65625 108.257813 39.402344 108.863281 39.402344 C 109.511719 39.402344 110.054688 39.640625 110.492188 40.121094 C 110.941406 40.597656 111.167969 41.230469 111.167969 42.023438 L 107.433594 42.023438 L 107.402344 42.601563 C 107.402344 43.34375 107.53125 43.878906 107.78125 44.214844 C 108.046875 44.550781 108.472656 44.71875 109.0625 44.71875 C 109.5 44.71875 109.886719 44.589844 110.214844 44.316406 C 110.550781 44.039063 110.777344 43.660156 110.898438 43.175781 Z M 110.042969 41.84375 L 110.058594 41.253906 C 110.058594 40.644531 109.972656 40.214844 109.804688 39.964844 C 109.636719 39.714844 109.316406 39.585938 108.851563 39.585938 C 108.363281 39.585938 108.007813 39.765625 107.78125 40.128906 C 107.558594 40.496094 107.445313 41.066406 107.445313 41.84375 Z M 110.042969 41.84375 "/>
<path style=" stroke:none;fill-rule:evenodd;fill:rgb(10.594177%,9.812927%,9.423828%);fill-opacity:1;" d="M 124.277344 44.605469 L 124.277344 44.785156 L 121.285156 44.785156 L 121.285156 44.605469 L 122.253906 44.605469 L 122.253906 39.707031 L 121.285156 39.707031 L 121.285156 39.527344 L 123.292969 39.527344 L 123.292969 44.605469 Z M 122.828125 37.03125 C 123.027344 37.03125 123.183594 37.085938 123.308594 37.1875 C 123.4375 37.285156 123.503906 37.40625 123.503906 37.554688 C 123.503906 37.710938 123.4375 37.835938 123.308594 37.9375 C 123.175781 38.039063 123.015625 38.09375 122.828125 38.09375 C 122.652344 38.09375 122.496094 38.039063 122.367188 37.9375 C 122.234375 37.835938 122.167969 37.710938 122.167969 37.554688 C 122.167969 37.40625 122.230469 37.285156 122.351563 37.1875 C 122.484375 37.085938 122.640625 37.03125 122.828125 37.03125 Z M 122.828125 37.03125 "/>
<path style=" stroke:none;fill-rule:evenodd;fill:rgb(10.594177%,9.812927%,9.423828%);fill-opacity:1;" d="M 128.898438 43.175781 C 128.777344 43.71875 128.519531 44.148438 128.128906 44.464844 C 127.742188 44.765625 127.273438 44.921875 126.722656 44.921875 C 125.964844 44.921875 125.324219 44.65625 124.800781 44.128906 C 124.285156 43.589844 124.027344 42.921875 124.027344 42.121094 C 124.027344 41.316406 124.308594 40.664063 124.871094 40.164063 C 125.429688 39.65625 126.015625 39.402344 126.625 39.402344 C 127.269531 39.402344 127.8125 39.640625 128.253906 40.121094 C 128.703125 40.597656 128.925781 41.230469 128.925781 42.023438 L 125.191406 42.023438 L 125.164063 42.601563 C 125.164063 43.34375 125.292969 43.878906 125.542969 44.214844 C 125.804688 44.550781 126.230469 44.71875 126.820313 44.71875 C 127.261719 44.71875 127.644531 44.589844 127.972656 44.316406 C 128.308594 44.039063 128.539063 43.660156 128.660156 43.175781 Z M 127.804688 41.84375 L 127.816406 41.253906 C 127.816406 40.644531 127.734375 40.214844 127.566406 39.964844 C 127.398438 39.714844 127.078125 39.585938 126.609375 39.585938 C 126.125 39.585938 125.769531 39.765625 125.542969 40.128906 C 125.320313 40.496094 125.207031 41.066406 125.207031 41.84375 Z M 127.804688 41.84375 "/>
<path style=" stroke:none;fill-rule:evenodd;fill:rgb(10.594177%,9.812927%,9.423828%);fill-opacity:1;" d="M 105.335938 39.402344 C 105.597656 39.402344 105.816406 39.476563 105.996094 39.628906 C 106.183594 39.769531 106.277344 39.960938 106.277344 40.203125 C 106.277344 40.355469 106.21875 40.484375 106.105469 40.589844 C 105.996094 40.695313 105.839844 40.746094 105.644531 40.746094 C 105.476563 40.746094 105.335938 40.707031 105.222656 40.621094 C 105.121094 40.53125 105.066406 40.421875 105.066406 40.285156 C 105.066406 40.144531 105.113281 40.03125 105.210938 39.953125 C 105.3125 39.863281 105.441406 39.816406 105.601563 39.816406 C 105.753906 39.816406 105.890625 39.867188 106.023438 39.964844 C 105.882813 39.710938 105.628906 39.585938 105.265625 39.585938 C 104.84375 39.585938 104.480469 39.816406 104.167969 40.285156 C 103.859375 40.757813 103.707031 41.371094 103.707031 42.132813 L 103.707031 44.605469 L 104.6875 44.605469 L 104.6875 44.785156 L 101.699219 44.785156 L 101.699219 44.605469 L 102.667969 44.605469 L 102.667969 39.707031 L 101.699219 39.707031 L 101.699219 39.527344 L 103.648438 39.527344 L 103.707031 40.8125 C 104.035156 39.871094 104.578125 39.402344 105.335938 39.402344 Z M 105.335938 39.402344 "/>
<path style=" stroke:none;fill-rule:evenodd;fill:rgb(10.594177%,9.812927%,9.423828%);fill-opacity:1;" d="M 117.660156 44.785156 L 114.667969 44.785156 L 114.667969 44.605469 L 115.636719 44.605469 L 115.636719 40.769531 C 115.636719 40.042969 115.371094 39.683594 114.835938 39.683594 C 114.40625 39.683594 114.03125 39.910156 113.714844 40.363281 C 113.402344 40.8125 113.25 41.40625 113.25 42.144531 L 113.25 44.605469 L 114.234375 44.605469 L 114.234375 44.785156 L 111.242188 44.785156 L 111.242188 44.605469 L 112.210938 44.605469 L 112.210938 39.710938 L 111.242188 39.710938 L 111.242188 39.527344 L 113.195313 39.527344 L 113.25 40.890625 C 113.410156 40.414063 113.648438 40.046875 113.964844 39.792969 C 114.292969 39.53125 114.664063 39.402344 115.074219 39.402344 C 115.46875 39.402344 115.816406 39.542969 116.113281 39.832031 C 116.421875 40.113281 116.605469 40.480469 116.664063 40.9375 C 116.820313 40.445313 117.058594 40.066406 117.378906 39.804688 C 117.707031 39.535156 118.082031 39.402344 118.5 39.402344 C 119.007813 39.402344 119.398438 39.554688 119.679688 39.863281 C 119.972656 40.160156 120.117188 40.589844 120.117188 41.148438 L 120.117188 44.605469 L 121.085938 44.605469 L 121.085938 44.785156 L 118.09375 44.785156 L 118.09375 44.605469 L 119.078125 44.605469 L 119.078125 40.769531 C 119.078125 40.042969 118.804688 39.683594 118.261719 39.683594 C 117.832031 39.683594 117.460938 39.90625 117.152344 40.355469 C 116.84375 40.800781 116.691406 41.398438 116.691406 42.144531 L 116.691406 44.605469 L 117.660156 44.605469 Z M 117.660156 44.785156 "/>
<path style=" stroke:none;fill-rule:evenodd;fill:rgb(10.594177%,9.812927%,9.423828%);fill-opacity:1;" d="M 132.707031 39.402344 C 132.96875 39.402344 133.1875 39.476563 133.363281 39.628906 C 133.550781 39.769531 133.644531 39.960938 133.644531 40.203125 C 133.644531 40.355469 133.589844 40.484375 133.476563 40.589844 C 133.363281 40.695313 133.210938 40.746094 133.015625 40.746094 C 132.847656 40.746094 132.707031 40.707031 132.59375 40.621094 C 132.492188 40.53125 132.4375 40.421875 132.4375 40.285156 C 132.4375 40.144531 132.484375 40.03125 132.578125 39.953125 C 132.683594 39.863281 132.8125 39.816406 132.972656 39.816406 C 133.121094 39.816406 133.261719 39.867188 133.394531 39.964844 C 133.253906 39.710938 133 39.585938 132.636719 39.585938 C 132.214844 39.585938 131.847656 39.816406 131.539063 40.285156 C 131.230469 40.757813 131.074219 41.371094 131.074219 42.132813 L 131.074219 44.605469 L 132.058594 44.605469 L 132.058594 44.785156 L 129.070313 44.785156 L 129.070313 44.605469 L 130.039063 44.605469 L 130.039063 39.707031 L 129.070313 39.707031 L 129.070313 39.527344 L 131.019531 39.527344 L 131.074219 40.8125 C 131.402344 39.871094 131.945313 39.402344 132.707031 39.402344 Z M 132.707031 39.402344 "/>
<path style=" stroke:none;fill-rule:evenodd;fill:rgb(10.594177%,9.812927%,9.423828%);fill-opacity:1;" d="M 151.785156 42.144531 C 151.550781 42.214844 151.394531 42.355469 151.308594 42.570313 C 151.234375 42.777344 151.195313 43.109375 151.195313 43.566406 C 151.195313 43.984375 151.242188 44.277344 151.335938 44.453125 C 151.429688 44.621094 151.617188 44.710938 151.898438 44.710938 C 152.273438 44.710938 152.609375 44.535156 152.910156 44.191406 C 153.21875 43.851563 153.375 43.40625 153.375 42.859375 L 153.375 41.710938 C 153.195313 41.796875 152.964844 41.878906 152.683594 41.941406 C 152.402344 42.011719 152.105469 42.082031 151.785156 42.144531 Z M 151.746094 44.921875 C 151.238281 44.921875 150.84375 44.789063 150.5625 44.527344 C 150.285156 44.269531 150.144531 43.898438 150.144531 43.421875 C 150.144531 42.644531 150.53125 42.183594 151.308594 42.03125 C 152.09375 41.878906 152.578125 41.777344 152.753906 41.742188 C 152.933594 41.707031 153.140625 41.621094 153.375 41.496094 L 153.375 40.488281 C 153.375 39.898438 153 39.605469 152.25 39.605469 C 151.648438 39.605469 151.230469 39.8125 150.988281 40.230469 C 151.078125 40.195313 151.160156 40.175781 151.222656 40.175781 C 151.375 40.175781 151.496094 40.21875 151.589844 40.308594 C 151.691406 40.390625 151.746094 40.496094 151.746094 40.621094 C 151.746094 40.773438 151.6875 40.890625 151.574219 40.980469 C 151.464844 41.070313 151.308594 41.113281 151.113281 41.113281 C 150.945313 41.113281 150.796875 41.0625 150.675781 40.960938 C 150.5625 40.847656 150.507813 40.707031 150.507813 40.53125 C 150.507813 40.226563 150.695313 39.964844 151.070313 39.738281 C 151.453125 39.515625 151.941406 39.402344 152.53125 39.402344 C 153.101563 39.402344 153.554688 39.542969 153.890625 39.816406 C 154.238281 40.089844 154.414063 40.46875 154.414063 40.96875 L 154.414063 44.171875 C 154.414063 44.503906 154.539063 44.675781 154.792969 44.675781 C 154.96875 44.675781 155.113281 44.589844 155.226563 44.417969 C 155.347656 44.246094 155.410156 44.003906 155.410156 43.679688 L 155.648438 43.679688 C 155.648438 44.503906 155.300781 44.921875 154.609375 44.921875 C 154.261719 44.921875 153.980469 44.820313 153.765625 44.617188 C 153.558594 44.410156 153.457031 44.132813 153.457031 43.789063 L 153.457031 43.734375 C 153.242188 44.128906 152.996094 44.429688 152.714844 44.628906 C 152.441406 44.828125 152.117188 44.921875 151.746094 44.921875 Z M 151.746094 44.921875 "/>
<path style=" stroke:none;fill-rule:evenodd;fill:rgb(10.594177%,9.812927%,9.423828%);fill-opacity:1;" d="M 168.851563 44.605469 L 168.851563 44.785156 L 165.863281 44.785156 L 165.863281 44.605469 L 166.832031 44.605469 L 166.832031 39.707031 L 165.863281 39.707031 L 165.863281 39.527344 L 167.871094 39.527344 L 167.871094 44.605469 Z M 167.40625 37.03125 C 167.601563 37.03125 167.761719 37.085938 167.882813 37.1875 C 168.015625 37.285156 168.082031 37.40625 168.082031 37.554688 C 168.082031 37.710938 168.015625 37.835938 167.882813 37.9375 C 167.753906 38.039063 167.59375 38.09375 167.40625 38.09375 C 167.230469 38.09375 167.074219 38.039063 166.941406 37.9375 C 166.8125 37.835938 166.746094 37.710938 166.746094 37.554688 C 166.746094 37.40625 166.808594 37.285156 166.929688 37.1875 C 167.058594 37.085938 167.21875 37.03125 167.40625 37.03125 Z M 167.40625 37.03125 "/>
<path style=" stroke:none;fill-rule:evenodd;fill:rgb(10.594177%,9.812927%,9.423828%);fill-opacity:1;" d="M 142.699219 44.578125 L 142.699219 44.785156 L 138.792969 44.785156 L 138.792969 44.578125 L 140.15625 44.578125 L 140.15625 37.042969 L 138.792969 37.042969 L 138.792969 36.832031 L 142.699219 36.832031 L 142.699219 37.042969 L 141.335938 37.042969 L 141.335938 44.578125 Z M 142.699219 44.578125 "/>
<path style=" stroke:none;fill-rule:evenodd;fill:rgb(10.594177%,9.812927%,9.423828%);fill-opacity:1;" d="M 145.460938 44.730469 C 145.828125 44.730469 146.128906 44.632813 146.363281 44.4375 C 146.597656 44.246094 146.710938 44.003906 146.710938 43.714844 C 146.710938 43.382813 146.578125 43.128906 146.304688 42.953125 C 146.035156 42.765625 145.5625 42.53125 144.886719 42.257813 C 144.210938 41.980469 143.75 41.753906 143.496094 41.5625 C 143.253906 41.367188 143.132813 41.089844 143.132813 40.722656 C 143.132813 40.339844 143.285156 40.019531 143.597656 39.773438 C 143.90625 39.527344 144.292969 39.402344 144.761719 39.402344 C 145.265625 39.402344 145.757813 39.605469 146.234375 40.019531 L 146.980469 39.527344 L 147.007813 41.484375 L 146.851563 41.484375 C 146.683594 40.894531 146.410156 40.433594 146.023438 40.097656 C 145.640625 39.761719 145.21875 39.59375 144.761719 39.59375 C 144.480469 39.59375 144.25 39.65625 144.074219 39.785156 C 143.894531 39.910156 143.804688 40.078125 143.804688 40.277344 C 143.804688 40.558594 143.914063 40.777344 144.128906 40.925781 C 144.355469 41.066406 144.789063 41.269531 145.433594 41.53125 C 146.089844 41.785156 146.566406 42.039063 146.867188 42.300781 C 147.175781 42.554688 147.332031 42.890625 147.332031 43.308594 C 147.332031 43.769531 147.152344 44.15625 146.796875 44.464844 C 146.441406 44.765625 146 44.921875 145.476563 44.921875 C 144.832031 44.921875 144.269531 44.679688 143.792969 44.191406 L 143.144531 44.808594 L 142.992188 44.808594 L 142.992188 42.636719 L 143.144531 42.636719 C 143.351563 43.308594 143.660156 43.832031 144.074219 44.191406 C 144.484375 44.550781 144.949219 44.730469 145.460938 44.730469 Z M 145.460938 44.730469 "/>
<path style=" stroke:none;fill-rule:evenodd;fill:rgb(10.594177%,9.812927%,9.423828%);fill-opacity:1;" d="M 147.140625 37.019531 L 147.140625 36.832031 L 149.164063 36.832031 L 149.164063 44.605469 L 150.132813 44.605469 L 150.132813 44.785156 L 147.140625 44.785156 L 147.140625 44.605469 L 148.125 44.605469 L 148.125 37.019531 Z M 147.140625 37.019531 "/>
<path style=" stroke:none;fill-rule:evenodd;fill:rgb(10.594177%,9.812927%,9.423828%);fill-opacity:1;" d="M 162.121094 44.785156 L 159.128906 44.785156 L 159.128906 44.605469 L 160.097656 44.605469 L 160.097656 40.769531 C 160.097656 40.042969 159.832031 39.683594 159.300781 39.683594 C 158.867188 39.683594 158.496094 39.910156 158.175781 40.363281 C 157.867188 40.8125 157.710938 41.40625 157.710938 42.144531 L 157.710938 44.605469 L 158.695313 44.605469 L 158.695313 44.785156 L 155.703125 44.785156 L 155.703125 44.605469 L 156.671875 44.605469 L 156.671875 39.710938 L 155.703125 39.710938 L 155.703125 39.527344 L 157.65625 39.527344 L 157.710938 40.890625 C 157.871094 40.414063 158.109375 40.046875 158.429688 39.792969 C 158.757813 39.53125 159.125 39.402344 159.539063 39.402344 C 159.929688 39.402344 160.277344 39.542969 160.578125 39.832031 C 160.886719 40.113281 161.070313 40.480469 161.125 40.9375 C 161.285156 40.445313 161.523438 40.066406 161.839844 39.804688 C 162.167969 39.535156 162.542969 39.402344 162.964844 39.402344 C 163.46875 39.402344 163.863281 39.554688 164.144531 39.863281 C 164.433594 40.160156 164.578125 40.589844 164.578125 41.148438 L 164.578125 44.605469 L 165.546875 44.605469 L 165.546875 44.785156 L 162.554688 44.785156 L 162.554688 44.605469 L 163.539063 44.605469 L 163.539063 40.769531 C 163.539063 40.042969 163.269531 39.683594 162.726563 39.683594 C 162.292969 39.683594 161.925781 39.90625 161.617188 40.355469 C 161.308594 40.800781 161.152344 41.398438 161.152344 42.144531 L 161.152344 44.605469 L 162.121094 44.605469 Z M 162.121094 44.785156 "/>
<path style=" stroke:none;fill-rule:evenodd;fill:rgb(10.594177%,9.812927%,9.423828%);fill-opacity:1;" d="M 171.121094 44.921875 C 170.429688 44.921875 169.820313 44.65625 169.296875 44.128906 C 168.78125 43.597656 168.523438 42.945313 168.523438 42.167969 C 168.523438 41.273438 168.816406 40.589844 169.40625 40.121094 C 170.007813 39.640625 170.625 39.402344 171.261719 39.402344 C 171.730469 39.402344 172.117188 39.535156 172.425781 39.792969 C 172.746094 40.046875 172.90625 40.363281 172.90625 40.734375 C 172.90625 41.195313 172.660156 41.429688 172.175781 41.429688 C 171.976563 41.429688 171.816406 41.378906 171.695313 41.28125 C 171.574219 41.1875 171.515625 41.058594 171.515625 40.902344 C 171.515625 40.753906 171.574219 40.628906 171.695313 40.535156 C 171.816406 40.429688 171.972656 40.378906 172.160156 40.378906 C 172.339844 40.378906 172.507813 40.441406 172.664063 40.582031 C 172.589844 40.257813 172.425781 40.011719 172.175781 39.839844 C 171.929688 39.667969 171.621094 39.585938 171.246094 39.585938 C 170.601563 39.585938 170.179688 39.792969 169.984375 40.21875 C 169.785156 40.636719 169.6875 41.363281 169.6875 42.390625 C 169.6875 43.21875 169.792969 43.816406 170 44.183594 C 170.203125 44.539063 170.59375 44.71875 171.164063 44.71875 C 171.714844 44.71875 172.179688 44.546875 172.554688 44.207031 C 172.929688 43.859375 173.113281 43.386719 173.113281 42.78125 L 173.339844 42.78125 C 173.339844 43.445313 173.128906 43.96875 172.707031 44.347656 C 172.285156 44.730469 171.757813 44.921875 171.121094 44.921875 Z M 171.121094 44.921875 "/>
<path style=" stroke:none;fill-rule:evenodd;fill:rgb(10.594177%,9.812927%,9.423828%);fill-opacity:1;" d="M 178.726563 44.578125 L 180.089844 44.578125 L 180.089844 37.042969 L 178.726563 37.042969 L 178.726563 36.832031 L 183.207031 36.832031 C 183.964844 36.832031 184.578125 36.996094 185.046875 37.335938 C 185.523438 37.667969 185.761719 38.101563 185.761719 38.628906 C 185.761719 39.136719 185.535156 39.554688 185.089844 39.882813 C 184.648438 40.214844 184.015625 40.417969 183.191406 40.503906 C 185.15625 40.671875 186.140625 41.359375 186.140625 42.558594 C 186.140625 43.261719 185.859375 43.808594 185.300781 44.207031 C 184.746094 44.59375 183.941406 44.785156 182.882813 44.785156 L 178.726563 44.785156 Z M 181.269531 40.386719 L 182.632813 40.386719 C 183.296875 40.386719 183.78125 40.261719 184.089844 40.007813 C 184.410156 39.746094 184.570313 39.34375 184.570313 38.796875 C 184.570313 38.164063 184.433594 37.714844 184.160156 37.445313 C 183.898438 37.175781 183.421875 37.042969 182.730469 37.042969 L 181.269531 37.042969 Z M 182.660156 44.578125 C 183.4375 44.578125 184.003906 44.402344 184.359375 44.058594 C 184.714844 43.710938 184.890625 43.152344 184.890625 42.390625 C 184.890625 41.78125 184.707031 41.332031 184.34375 41.035156 C 183.976563 40.746094 183.398438 40.601563 182.601563 40.601563 L 181.269531 40.601563 L 181.269531 44.578125 Z M 182.660156 44.578125 "/>
<path style=" stroke:none;fill-rule:evenodd;fill:rgb(10.594177%,9.812927%,9.423828%);fill-opacity:1;" d="M 188.074219 42.144531 C 187.839844 42.214844 187.679688 42.355469 187.59375 42.570313 C 187.519531 42.777344 187.484375 43.109375 187.484375 43.566406 C 187.484375 43.984375 187.53125 44.277344 187.625 44.453125 C 187.714844 44.621094 187.902344 44.710938 188.183594 44.710938 C 188.558594 44.710938 188.898438 44.535156 189.195313 44.191406 C 189.503906 43.851563 189.660156 43.40625 189.660156 42.859375 L 189.660156 41.710938 C 189.480469 41.796875 189.25 41.878906 188.972656 41.941406 C 188.691406 42.011719 188.390625 42.082031 188.074219 42.144531 Z M 188.03125 44.921875 C 187.523438 44.921875 187.132813 44.789063 186.851563 44.527344 C 186.570313 44.269531 186.429688 43.898438 186.429688 43.421875 C 186.429688 42.644531 186.820313 42.183594 187.59375 42.03125 C 188.382813 41.878906 188.863281 41.777344 189.042969 41.742188 C 189.21875 41.707031 189.425781 41.621094 189.660156 41.496094 L 189.660156 40.488281 C 189.660156 39.898438 189.285156 39.605469 188.535156 39.605469 C 187.9375 39.605469 187.515625 39.8125 187.273438 40.230469 C 187.367188 40.195313 187.445313 40.175781 187.511719 40.175781 C 187.660156 40.175781 187.78125 40.21875 187.875 40.308594 C 187.980469 40.390625 188.03125 40.496094 188.03125 40.621094 C 188.03125 40.773438 187.976563 40.890625 187.863281 40.980469 C 187.75 41.070313 187.59375 41.113281 187.398438 41.113281 C 187.230469 41.113281 187.085938 41.0625 186.964844 40.960938 C 186.851563 40.847656 186.792969 40.707031 186.792969 40.53125 C 186.792969 40.226563 186.980469 39.964844 187.355469 39.738281 C 187.742188 39.515625 188.226563 39.402344 188.816406 39.402344 C 189.386719 39.402344 189.839844 39.542969 190.179688 39.816406 C 190.527344 40.089844 190.699219 40.46875 190.699219 40.96875 L 190.699219 44.171875 C 190.699219 44.503906 190.824219 44.675781 191.078125 44.675781 C 191.253906 44.675781 191.402344 44.589844 191.511719 44.417969 C 191.632813 44.246094 191.695313 44.003906 191.695313 43.679688 L 191.933594 43.679688 C 191.933594 44.503906 191.585938 44.921875 190.894531 44.921875 C 190.546875 44.921875 190.269531 44.820313 190.050781 44.617188 C 189.847656 44.410156 189.742188 44.132813 189.742188 43.789063 L 189.742188 43.734375 C 189.527344 44.128906 189.28125 44.429688 189 44.628906 C 188.726563 44.828125 188.40625 44.921875 188.03125 44.921875 Z M 188.03125 44.921875 "/>
<path style=" stroke:none;fill-rule:evenodd;fill:rgb(10.594177%,9.812927%,9.423828%);fill-opacity:1;" d="M 195.761719 39.683594 C 195.292969 39.683594 194.886719 39.910156 194.539063 40.367188 C 194.199219 40.820313 194.035156 41.414063 194.035156 42.144531 L 194.035156 44.605469 L 195.015625 44.605469 L 195.015625 44.785156 L 192.023438 44.785156 L 192.023438 44.605469 L 192.992188 44.605469 L 192.992188 39.707031 L 192.023438 39.707031 L 192.023438 39.527344 L 193.976563 39.527344 L 194.035156 40.953125 C 194.183594 40.464844 194.433594 40.089844 194.792969 39.816406 C 195.15625 39.539063 195.574219 39.402344 196.042969 39.402344 C 196.535156 39.402344 196.933594 39.554688 197.234375 39.863281 C 197.535156 40.167969 197.683594 40.597656 197.683594 41.148438 L 197.683594 44.605469 L 198.652344 44.605469 L 198.652344 44.785156 L 195.660156 44.785156 L 195.660156 44.605469 L 196.628906 44.605469 L 196.628906 40.765625 C 196.628906 40.042969 196.339844 39.683594 195.761719 39.683594 Z M 195.761719 39.683594 "/>
<g clip-path="url(#clip5)" clip-rule="nonzero">
<path style=" stroke:none;fill-rule:evenodd;fill:rgb(10.594177%,9.812927%,9.423828%);fill-opacity:1;" d="M 198.875 37.019531 L 198.875 36.832031 L 200.894531 36.832031 L 200.894531 42.367188 L 202.734375 40.613281 C 202.875 40.476563 202.945313 40.34375 202.945313 40.210938 C 202.945313 39.871094 202.667969 39.710938 202.105469 39.710938 L 202.0625 39.527344 L 204.746094 39.527344 L 204.746094 39.710938 C 204.285156 39.710938 203.765625 39.976563 203.183594 40.523438 L 202.355469 41.304688 L 204.503906 44.605469 L 205.207031 44.605469 L 205.207031 44.785156 L 202.539063 44.785156 L 202.539063 44.605469 L 203.339844 44.605469 L 201.613281 41.964844 L 200.894531 42.628906 L 200.894531 44.605469 L 201.863281 44.605469 L 201.863281 44.785156 L 198.875 44.785156 L 198.875 44.605469 L 199.855469 44.605469 L 199.855469 37.019531 Z M 198.875 37.019531 "/>
</g>
</g>
</svg>
