<svg id="Layer_1" data-name="Layer 1" xmlns="http://www.w3.org/2000/svg" viewBox="0 0 757.24 757.24"><defs><style>.cls-1{fill:#dfebfd;}.cls-2{fill:#efa26f;}.cls-3{fill:#f99746;}.cls-4{fill:#ffb27d;}.cls-5{fill:#d38254;}.cls-6{fill:#ffc197;}.cls-7{fill:#2b478b;}.cls-8{fill:#c0d8fb;}.cls-9{fill:#cbe1fd;}.cls-10{fill:#ffd3b6;}.cls-11{fill:#ed7d2b;}.cls-12{fill:#f3f8ff;}.cls-13{fill:#e1eefb;}</style></defs><title>Artboard 1ldpi</title><path class="cls-1" d="M353.84,363.8S330.31,417,320.68,412s30.5-57.41,30.5-57.41-29.32-51.18-47.64-61.34c0,0-4.48,64.69-12.59,57.49S284.37,276,284.37,276s-39.18-39.19-64.69-17.53-23,43-17.5,49.2,48.58,35,43.66,39.82-39.85-6.17-52.49-22.22c0,0-12.38,56,12.43,69.79s41.93,4.33,57.1,13.13,23.05,19.93,13.17,18.85-32.47-20.45-50.92-18.56-32.07,1.51-13.49,20.81,59.28,43.21,78.48,31.92l2.4-1.41a10.83,10.83,0,0,1-2.4,1.41c2.38,5.07.74,20.28-1,31.64-.4,1.86-.84,4.51-1.32,8.19h0c-.29,1.61-.53,2.93-.7,3.85C281.64,529.22,255,559.37,255,559.37l3.77,4.42c33-26.15,33.84-65.76,33.84-65.76,3.23-29.63,16.74-48.09,16.74-48.09s57.59,5.3,59.91-39.64C369.22,410.3,367,380.22,353.84,363.8Z"/><path class="cls-2" d="M522.74,340.4s-28.1,56.22-56.65,95c-11.35,15.45-22.78,28.13-32.54,33.42C424,474,415.92,482.06,409.24,491c-17.32,23.08-25.32,52-25.32,52l-73-110.42s2.49-107.94,11.26-126C335,280.21,341.13,227.05,346,216.46c3.64-7.85,14-48.4,15-51.38.43-1.29,3.89-3.26,8.38-3.25,3.61,0,9.73,3.48,11.27,10.64,7.81,36.19-1.59,60.06-1.48,61.12,2.75,27.81-5.53,48.46.28,53.93.22.2.62.1,1.18-.26,10.07-6.46,72.52-97.51,80.21-99.47C469,185.71,522.74,340.4,522.74,340.4Z"/><path class="cls-3" d="M405.88,521.09s-1,49.07-3.84,115.16H217.93C260,546.5,296.6,471,296.6,471S401.43,474.17,405.88,521.09Z"/><path class="cls-4" d="M586.55,150.16,564,183.29l-22.18,32.52a5.09,5.09,0,0,1-4.61,2c-5.33-.51-11.91-8.19-17-12.44l-.52-.42a16,16,0,0,1-2.13-22.48l33.9-41h0l10.06-12.16a16,16,0,0,1,22.47-2.12l.52.43A16,16,0,0,1,586.55,150.16Z"/><path class="cls-2" d="M564,183.29l-22.18,32.52a5.09,5.09,0,0,1-4.61,2l14.21-76.32C551.4,142,553.82,176.2,564,183.29Z"/><path class="cls-5" d="M466.09,435.42c-11.35,15.45-22.78,28.13-32.54,33.42C424,474,415.92,482.06,409.24,491c-7.7-3.58-16.47-7.79-25-12-10.43-5.07-10.83-19.89-.61-25.38l.29-.16c9.58-5.49,19.4-24.84,19.4-24.84Z"/><path class="cls-6" d="M360.56,166.75l-5.91,23.88s5.17,2.12,8.49.47S369.17,168,360.56,166.75Z"/><rect class="cls-7" x="380.72" y="121.7" width="172.65" height="325.01" rx="23.09"/><path class="cls-8" d="M544.82,146.59v273a16.83,16.83,0,0,1-16.72,16.84H406a16.83,16.83,0,0,1-16.71-16.84v-273A16.83,16.83,0,0,1,406,129.75H528.1A16.83,16.83,0,0,1,544.82,146.59Z"/><path class="cls-9" d="M528.1,129.75,407.51,436.48H406a16.83,16.83,0,0,1-16.71-16.84v-273A16.83,16.83,0,0,1,406,129.75Z"/><rect class="cls-7" x="433.97" y="123.6" width="66.15" height="16.3" rx="8.15"/><path class="cls-4" d="M575.3,275.29l-3.37,1.28-22.67,8.61a14.11,14.11,0,0,1-1.6.51,15.48,15.48,0,0,1-18.31-9.46l-.33-.87A15.48,15.48,0,0,1,538,255.45l21.14-8,1.53-.58,3.37-1.29a15.48,15.48,0,0,1,19.91,8.95l.33.87A15.48,15.48,0,0,1,575.3,275.29Z"/><path class="cls-10" d="M556.89,275.81c-3.78,1.43-10.63,4-14.29,4.5-1,.15-3-.41-4.73-2.37A13.89,13.89,0,0,1,535,272.8a15.63,15.63,0,0,1-.77-3.28,13.42,13.42,0,0,1,.12-3.9,3.88,3.88,0,0,1,2.16-2.78h0a88.62,88.62,0,0,1,13.75-5.39c3.18-.88,6.4.52,7.4,3.31l.48,1.3,2.43,6.66C561.62,271.48,560,274.64,556.89,275.81Z"/><path class="cls-6" d="M556.89,275.81c-3.78,1.43-10.63,4-14.29,4.5-1,.15-3-.41-4.73-2.37-.19-.44-.36-.91-.53-1.41a15.63,15.63,0,0,1-.77-3.28,13.78,13.78,0,0,1,.12-3.9,3.9,3.9,0,0,1,2.16-2.79h0a88.62,88.62,0,0,1,13.75-5.39,6.5,6.5,0,0,1,5.56.88l2.43,6.66C561.62,271.48,560,274.64,556.89,275.81Z"/><rect class="cls-4" x="534.31" y="287.85" width="38.13" height="22.07" rx="10.01" transform="translate(-59.08 155.86) rotate(-15.23)"/><path class="cls-10" d="M555.56,306.3c-3.21.85-9,2.37-12,2.53-1.11.06-3.33-.87-4.77-3.78a13.17,13.17,0,0,1-1.29-5,10.11,10.11,0,0,1,.39-3,3.09,3.09,0,0,1,2-2h0a78.62,78.62,0,0,1,11.68-3.26c2.67-.47,5.21.82,5.83,3l.45,1.58,1.35,4.72C559.76,303.27,558.18,305.6,555.56,306.3Z"/><path class="cls-6" d="M555.56,306.3c-3.21.85-9,2.37-12,2.53-1.11.06-3.33-.87-4.77-3.78a11.06,11.06,0,0,1-.36-2.41,10.07,10.07,0,0,1,.39-3,3.12,3.12,0,0,1,2-2h0a77,77,0,0,1,11.67-3.25,5.27,5.27,0,0,1,5.35,2l1.35,4.72C559.76,303.27,558.18,305.6,555.56,306.3Z"/><path class="cls-11" d="M278.68,508.2s36,34.46,60.23,47.76l18.36-13v19.21s36.12,6.39,47.51,0V509.76L303.34,458.91Z"/><path class="cls-12" d="M310.93,428.63s-22.84,34.18-45.55,70.72c0,0,47.85,32.92,73.8,42.58l34-39-4.86,46.92s30.12,11,44.09,8.11c0,0-.88-42.56-.87-70.44C411.57,487.54,328.78,464.33,310.93,428.63Z"/><path class="cls-3" d="M316.55,515.37a5.67,5.67,0,1,1,5.62,5.71A5.66,5.66,0,0,1,316.55,515.37Z"/><path class="cls-4" d="M574.75,241.79l-.38.13-22.92,5.88c-10.07,2.59-20.49-2.86-23.15-12.11L526.94,231c-2.56-8.89,2.93-18.18,12.3-21.19l7.56-1.94,15.35-3.94c10.08-2.59,20.5,2.86,23.16,12.11l1.36,4.74C589.19,229.5,583.88,238.65,574.75,241.79Z"/><path class="cls-10" d="M564.25,235.39l-11.14,5-.07,0a10.6,10.6,0,0,1-1.34.27l-.57.07h-.23a1.77,1.77,0,0,1-1.54-2.5,11.09,11.09,0,0,0,.63-7.55l-.27-1v0l-.87-3.16a11.85,11.85,0,0,0-4-6.16c-.23-.18-.47-.36-.71-.52a3.2,3.2,0,0,1,.94-5.69l.07,0,12.22-1.85c3-.82,5.93,1.5,6.75,4.52l1,3.6,2.09,7.68C568,231.15,567.27,234.57,564.25,235.39Z"/><path class="cls-6" d="M564.25,235.39l-11.14,5-.07,0-2.14.35a1.77,1.77,0,0,1-1.54-2.5,11.09,11.09,0,0,0,.63-7.55l-.27-1v0l-.87-3.16a11.85,11.85,0,0,0-4-6.16,3.08,3.08,0,0,1,1.75-1.24l.07,0,12.22-1.85c2.54-.69,5,.85,6.21,3.15l2.09,7.68C568,231.15,567.27,234.57,564.25,235.39Z"/><path class="cls-5" d="M380.72,361s-5-43.64-9.61-52.14-8.52-25.56-1.42-38.22,9.55-37,9.55-37c2.75,27.81-5.53,48.46.28,53.93.22.2.62.1,1.18-.26Z"/><path class="cls-13" d="M244.76,523.16s-8.53-23.3-22.68-33.31c0,0-6.58,47.42-15.33,45.65s11.14-52.31,11.14-52.31-34.75-33.86-51.55-37.75c0,0,11.09,52.19,3,48.32s-22.09-57.64-22.09-57.64S118,419.83,100,429.65v54.71c13.77,5.45,35.05,13.43,33,17s-18.83,4.13-33,.28v38.1c3.22,4.11,7.18,7.17,12.06,8.3,22.74,5.31,34.14-6,48.14-2.51s22.73,10.55,14.67,11.93-30.31-8.84-44.47-3.17-25,8.44-6,19.51,56.66,20.78,69.29,7.51h0l1.58-1.67h0a8.54,8.54,0,0,1-1.59,1.67c3,3.47,5.17,15.88,6.4,25.26.09,1.55.34,3.74.79,6.74.15,1.39.26,2.52.33,3.29.33,6.06-.68,12.94-2.28,19.63H205A75.38,75.38,0,0,0,204,609.89h0c-4.15-24.16,2.36-41.82,2.36-41.82h0C206.43,568,253.07,559.19,244.76,523.16Z"/><path class="cls-1" d="M634.76,481.48c-8-29.55-57.85-20.31-57.85-20.31s-33.86,51.7-43.71,52.93,20.32-49.86,20.32-49.86c-19.08-1.84-67.71,21.55-67.71,21.55s3.08,60.32-6.77,59.09,0-53.55,0-53.55c-18.47,5.54-35.7,27.08-35.7,27.08C421.8,553.49,468,579.35,468,579.35s.62,20.92-12.31,44.93h0a70.68,70.68,0,0,0-5.88,12h5c.41-1.35.87-2.66,1.37-3.91a0,0,0,0,1,0,0l0,0c.34-.78.84-1.88,1.46-3.23h0c1.54-3,2.58-5.24,3.24-6.84v0c4.61-9.45,11.25-21.77,15.68-24.35a9.57,9.57,0,0,1-1.08-2.31q.51,1.11,1.08,2.31c8.61,18.47,51.7,21.54,75.71,16.62s13.54-11.69.61-22.68-40-8.09-48-12.4,3.69-8.62,19.7-7.39,24,17.23,49.85,19.7S620,545.49,620,545.49C602.14,551,570.14,541.18,568.9,535s46.17-5.54,53.55-7.39S642.77,511,634.76,481.48Z"/></svg>