<svg id="Layer_1" data-name="Layer 1" xmlns="http://www.w3.org/2000/svg" viewBox="0 0 537.32 514.55"><defs><style>.cls-1{fill:#a5a5a5;}.cls-2{fill:#efa26f;}.cls-3{fill:#c11200;}.cls-4{fill:#ffb27d;}.cls-5{fill:#d38254;}.cls-6{fill:#ffc197;}.cls-7{fill:#e70000;}.cls-8{fill:#c0d8fb;}.cls-9{fill:#cbe1fd;}.cls-10{fill:#ffd3b6;}.cls-11{fill:#820303;}.cls-12{fill:#f3f8ff;}.cls-13{fill:#f99746;}</style></defs><title>mobile</title><path class="cls-1" d="M293.29,445.57s-23.53,53.22-33.17,48.23,30.5-57.42,30.5-57.42S261.31,385.2,243,375.05c0,0-4.47,64.69-12.58,57.48s-6.58-74.74-6.58-74.74-39.19-39.19-64.69-17.53-23,43-17.5,49.2,48.57,35,43.65,39.81-39.84-6.17-52.49-22.21c0,0-12.37,56,12.44,69.79s41.92,4.33,57.1,13.13,23,19.93,13.16,18.85S183,488.38,164.57,490.27s-32.06,1.51-13.49,20.81,59.28,43.21,78.48,31.92l2.4-1.41a10.58,10.58,0,0,1-2.4,1.41c2.39,5.07.74,20.28-1,31.64-.41,1.86-.85,4.51-1.33,8.18h0c-.28,1.62-.52,2.94-.69,3.86-5.5,24.31-32.17,54.46-32.17,54.46l3.76,4.42C231.23,619.41,232,579.8,232,579.8c3.22-29.63,16.74-48.1,16.74-48.1s57.59,5.31,59.91-39.63C308.67,492.07,306.49,462,293.29,445.57Z" transform="translate(-39.41 -203.46)"/><path class="cls-2" d="M462.18,422.17s-28.1,56.22-56.64,95c-11.36,15.45-22.79,28.13-32.54,33.42-9.55,5.18-17.63,13.22-24.32,22.13-17.32,23.08-25.31,52-25.31,52l-73-110.42s2.49-107.94,11.25-126c12.77-26.31,18.94-79.47,23.85-90.06,3.64-7.85,14-48.41,15-51.39.44-1.28,3.9-3.25,8.39-3.25,3.6,0,9.72,3.49,11.27,10.65,7.8,36.19-1.59,60.06-1.49,61.12,2.76,27.81-5.52,48.46.28,53.92.22.21.62.11,1.19-.25,10.06-6.46,72.51-97.51,80.2-99.48C408.48,267.48,462.18,422.17,462.18,422.17Z" transform="translate(-39.41 -203.46)"/><path class="cls-3" d="M345.32,602.85s-1,49.07-3.84,115.16H157.38c42.08-89.74,78.67-165.27,78.67-165.27S340.88,555.94,345.32,602.85Z" transform="translate(-39.41 -203.46)"/><path class="cls-4" d="M526,231.93l-22.6,33.13-22.18,32.52a5.06,5.06,0,0,1-4.61,2c-5.32-.5-11.91-8.18-17-12.43l-.52-.43a16,16,0,0,1-2.12-22.47l33.9-41h0l10.05-12.15A16,16,0,0,1,523.35,209l.52.42A16,16,0,0,1,526,231.93Z" transform="translate(-39.41 -203.46)"/><path class="cls-2" d="M503.39,265.06l-22.18,32.52a5.06,5.06,0,0,1-4.61,2l14.22-76.31C490.85,223.72,493.26,258,503.39,265.06Z" transform="translate(-39.41 -203.46)"/><path class="cls-5" d="M405.54,517.19c-11.36,15.45-22.79,28.13-32.54,33.42-9.55,5.18-17.63,13.22-24.32,22.13-7.69-3.58-16.46-7.79-25-12-10.44-5.07-10.84-19.89-.62-25.38l.3-.17c9.58-5.48,19.39-24.83,19.39-24.83Z" transform="translate(-39.41 -203.46)"/><path class="cls-6" d="M300,248.52l-5.92,23.88s5.17,2.11,8.49.47S308.61,249.81,300,248.52Z" transform="translate(-39.41 -203.46)"/><rect class="cls-7" x="280.75" width="172.65" height="325.01" rx="23.09"/><path class="cls-8" d="M484.26,228.36v273a16.82,16.82,0,0,1-16.71,16.84H345.44a16.82,16.82,0,0,1-16.71-16.84v-273a16.83,16.83,0,0,1,16.71-16.84H467.55A16.83,16.83,0,0,1,484.26,228.36Z" transform="translate(-39.41 -203.46)"/><path class="cls-9" d="M467.55,211.52,347,518.24h-1.51a16.82,16.82,0,0,1-16.71-16.84v-273a16.83,16.83,0,0,1,16.71-16.84Z" transform="translate(-39.41 -203.46)"/><rect class="cls-7" x="334" y="1.9" width="66.15" height="16.3" rx="8.15"/><path class="cls-4" d="M514.74,357.06l-3.37,1.28L488.71,367a15.8,15.8,0,0,1-1.61.51A15.47,15.47,0,0,1,468.8,358l-.34-.87a15.48,15.48,0,0,1,9-19.91l21.13-8,1.54-.59,3.37-1.28a15.49,15.49,0,0,1,19.91,8.95l.33.87A15.48,15.48,0,0,1,514.74,357.06Z" transform="translate(-39.41 -203.46)"/><path class="cls-10" d="M496.34,357.58c-3.79,1.43-10.63,4-14.3,4.5-1,.15-2.94-.42-4.72-2.37a13.75,13.75,0,0,1-2.85-5.14,15.65,15.65,0,0,1-.78-3.28,14.16,14.16,0,0,1,.12-3.9A3.91,3.91,0,0,1,476,344.6h0a89.42,89.42,0,0,1,13.75-5.39c3.18-.88,6.4.52,7.41,3.31l.47,1.3,2.44,6.66A5.72,5.72,0,0,1,496.34,357.58Z" transform="translate(-39.41 -203.46)"/><path class="cls-6" d="M496.34,357.58c-3.79,1.43-10.63,4-14.3,4.5-1,.15-2.94-.42-4.72-2.37a12.92,12.92,0,0,1-.53-1.41A15.8,15.8,0,0,1,476,355a14.15,14.15,0,0,1,.12-3.9,3.91,3.91,0,0,1,2.17-2.79h0a90.45,90.45,0,0,1,13.75-5.39,6.49,6.49,0,0,1,5.56.89l2.44,6.66A5.72,5.72,0,0,1,496.34,357.58Z" transform="translate(-39.41 -203.46)"/><rect class="cls-4" x="473.75" y="369.62" width="38.13" height="22.07" rx="10.01" transform="translate(-122.1 -60.64) rotate(-15.23)"/><path class="cls-10" d="M495,388.06c-3.21.86-9,2.37-12.06,2.54-1.11.06-3.32-.87-4.77-3.78a11.83,11.83,0,0,1-.89-2.47,11.34,11.34,0,0,1-.39-2.57,10.11,10.11,0,0,1,.39-3,3.07,3.07,0,0,1,2-2h0A78.14,78.14,0,0,1,491,373.53c2.68-.47,5.21.82,5.84,3l.45,1.58,1.35,4.72C499.21,385,497.63,387.37,495,388.06Z" transform="translate(-39.41 -203.46)"/><path class="cls-6" d="M495,388.06c-3.21.86-9,2.37-12.06,2.54-1.11.06-3.32-.87-4.77-3.78a11.68,11.68,0,0,1-.35-2.41,10.14,10.14,0,0,1,.39-3,3.09,3.09,0,0,1,2-2h0a77.1,77.1,0,0,1,11.68-3.25,5.26,5.26,0,0,1,5.35,2l1.35,4.72C499.21,385,497.63,387.37,495,388.06Z" transform="translate(-39.41 -203.46)"/><path class="cls-11" d="M218.12,590s36,34.46,60.23,47.76l18.37-13v19.21s36.11,6.39,47.5,0v-52.4L242.79,540.67Z" transform="translate(-39.41 -203.46)"/><path class="cls-12" d="M250.38,510.4s-22.85,34.18-45.55,70.72c0,0,47.85,32.92,73.79,42.58l34-39-4.85,46.92s30.11,11,44.08,8.11c0,0-.88-42.56-.87-70.45C351,569.3,268.22,546.1,250.38,510.4Z" transform="translate(-39.41 -203.46)"/><path class="cls-13" d="M256,597.14a5.67,5.67,0,1,1,5.61,5.71A5.68,5.68,0,0,1,256,597.14Z" transform="translate(-39.41 -203.46)"/><path class="cls-4" d="M514.19,323.56l-.38.13-22.91,5.88c-10.08,2.59-20.5-2.86-23.16-12.12l-1.36-4.74c-2.56-8.88,2.94-18.17,12.3-21.18l7.57-1.94,15.35-3.94c10.07-2.59,20.49,2.86,23.15,12.11l1.36,4.74C528.63,311.26,523.32,320.42,514.19,323.56Z" transform="translate(-39.41 -203.46)"/><path class="cls-10" d="M503.69,317.16l-11.13,5h-.07a10.8,10.8,0,0,1-1.35.28l-.56.07h-.24A1.78,1.78,0,0,1,488.8,320a11,11,0,0,0,.63-7.54l-.26-1v0l-.86-3.16a11.86,11.86,0,0,0-4-6.16c-.22-.18-.46-.36-.7-.52a3.2,3.2,0,0,1,.94-5.7l.07,0,12.21-1.84c3-.82,5.93,1.5,6.76,4.52l1,3.6,2.09,7.68C507.43,312.92,506.71,316.34,503.69,317.16Z" transform="translate(-39.41 -203.46)"/><path class="cls-6" d="M503.69,317.16l-11.13,5h-.07l-2.15.36A1.78,1.78,0,0,1,488.8,320a11,11,0,0,0,.63-7.54l-.26-1v0l-.86-3.16a11.86,11.86,0,0,0-4-6.16,3.14,3.14,0,0,1,1.76-1.24l.07,0,12.21-1.85a5.56,5.56,0,0,1,6.22,3.15l2.09,7.68C507.43,312.92,506.71,316.34,503.69,317.16Z" transform="translate(-39.41 -203.46)"/><path class="cls-5" d="M320.17,442.75s-5-43.64-9.62-52.15-8.51-25.55-1.41-38.21,9.54-37,9.54-37c2.76,27.81-5.52,48.46.28,53.92.22.21.62.11,1.19-.25Z" transform="translate(-39.41 -203.46)"/><path class="cls-1" d="M184.2,604.93s-8.52-23.3-22.68-33.31c0,0-6.58,47.42-15.33,45.65S157.34,565,157.34,565s-34.76-33.86-51.55-37.75c0,0,11.08,52.19,3,48.32s-22.1-57.64-22.1-57.64-29.33-16.3-47.32-6.47v54.71c13.77,5.45,35.06,13.42,33,17s-18.82,4.13-33,.28v38.1c3.22,4.11,7.19,7.17,12.06,8.3,22.74,5.3,34.15-6.05,48.14-2.51s22.73,10.55,14.68,11.93S84,630.41,69.81,636.08s-25,8.44-6,19.51,56.66,20.78,69.3,7.51h0l1.58-1.66h0a8.81,8.81,0,0,1-1.59,1.68c3,3.47,5.17,15.88,6.39,25.26.1,1.55.35,3.74.8,6.73.14,1.4.25,2.53.32,3.3.34,6.06-.68,12.94-2.28,19.62h6.07a75.9,75.9,0,0,0-1-26.36h0c-4.15-24.16,2.37-41.83,2.37-41.83h0C145.87,649.8,192.51,641,184.2,604.93Z" transform="translate(-39.41 -203.46)"/><path class="cls-1" d="M574.21,563.25c-8-29.55-57.86-20.31-57.86-20.31s-33.85,51.7-43.7,52.93S493,546,493,546c-19.08-1.84-67.71,21.55-67.71,21.55s3.08,60.32-6.77,59.09,0-53.55,0-53.55c-18.46,5.54-35.7,27.08-35.7,27.08-21.54,35.08,24.62,60.93,24.62,60.93S408,682,395.09,706.05h0a71.73,71.73,0,0,0-5.88,12h5c.41-1.35.86-2.65,1.36-3.9a0,0,0,0,1,0,0,.08.08,0,0,0,0-.05c.35-.78.84-1.89,1.46-3.23h0c1.54-3,2.57-5.23,3.23-6.84h0c4.61-9.45,11.24-21.77,15.67-24.35a9.57,9.57,0,0,1-1.08-2.31l1.08,2.31c8.62,18.47,51.71,21.54,75.71,16.62s13.54-11.7.62-22.68-40-8.1-48-12.41S448,652.5,464,653.73s24,17.23,49.86,19.7,45.55-46.17,45.55-46.17c-17.85,5.54-49.86-4.31-51.09-10.46s46.16-5.54,53.55-7.39S582.21,592.79,574.21,563.25Z" transform="translate(-39.41 -203.46)"/></svg>