<?xml version="1.0" standalone="no"?>
<!DOCTYPE svg PUBLIC "-//W3C//DTD SVG 20010904//EN"
 "http://www.w3.org/TR/2001/REC-SVG-20010904/DTD/svg10.dtd">
<svg version="1.0" xmlns="http://www.w3.org/2000/svg"
 width="434.000000pt" height="485.000000pt" viewBox="0 0 434.000000 485.000000"
 preserveAspectRatio="xMidYMid meet">
<metadata>
Created by potrace 1.16, written by Peter Selinger 2001-2019
</metadata>
<g transform="translate(0.000000,485.000000) scale(0.100000,-0.100000)"
fill="#000000" stroke="none">
<path d="M2322 3669 c-23 -12 -52 -35 -65 -53 l-22 -31 -3 -1065 c-2 -782 1
-1072 9 -1093 6 -15 30 -42 52 -60 l41 -32 511 0 510 0 37 23 c20 13 47 40 60
60 23 37 23 38 26 471 l3 434 -23 -7 c-13 -3 -26 -6 -30 -6 -5 0 -8 -179 -8
-397 0 -359 -2 -401 -18 -432 -37 -74 -11 -71 -550 -71 -529 -1 -510 -3 -549
57 -17 25 -18 91 -21 1018 -2 544 0 1010 3 1034 5 32 16 54 40 78 l33 33 124
0 123 0 15 -33 15 -32 215 0 215 0 15 33 15 33 127 -3 c118 -3 128 -5 152 -27
14 -14 30 -41 36 -60 5 -20 10 -136 10 -258 l0 -221 28 7 27 7 3 230 c2 191 0
236 -13 271 -19 50 -61 88 -113 103 -23 6 -216 10 -512 10 -463 0 -476 -1
-518 -21z"/>
</g>
</svg>
