<svg id="Layer_1" data-name="Layer 1" xmlns="http://www.w3.org/2000/svg" xmlns:xlink="http://www.w3.org/1999/xlink" viewBox="0 0 986.71 1117.97"><defs><style>.cls-1{fill:#eeddd3;}.cls-2{fill:url(#linear-gradient);}.cls-3{fill:#a7032d;}.cls-4{fill:#ffc4a7;}.cls-5{fill:#005cbe;}.cls-6{fill:#fff;}.cls-7{fill:#1f3765;}.cls-8{fill:#0166c2;}.cls-10,.cls-11,.cls-9{fill:none;stroke-linecap:round;stroke-linejoin:round;}.cls-9{stroke:#000;}.cls-10,.cls-9{stroke-width:0.5px;}.cls-10,.cls-11{stroke:#fff;}.cls-11{stroke-width:2px;}</style><linearGradient id="linear-gradient" x1="167.94" y1="353.83" x2="834.81" y2="353.83" gradientUnits="userSpaceOnUse"><stop offset="0" stop-color="#CE2F38"/><stop offset="1" stop-color="#463033"/></linearGradient></defs><title>Artboard 10ldpi</title><rect class="cls-1" x="151.91" y="188.14" width="666.87" height="363.42" rx="20"/><rect class="cls-2" x="167.94" y="172.11" width="666.87" height="363.42" rx="20"/><polygon class="cls-3" points="654.83 282.6 677.11 320.16 719.72 329.75 690.88 362.54 694.93 406.03 654.83 388.74 614.73 406.03 618.78 362.54 589.94 329.75 632.55 320.16 654.83 282.6"/><path class="cls-4" d="M613.85,400.68l-11.22-5.21L604,380.23a10.82,10.82,0,0,1,2-5.4c1.23-1.71,3-3.77,5.23-4,5.74-.61,10.35-4,11.15-5.24s2.47,3.5.42,5.61c-2.86,2.95-5.29,5-5.29,5S622.07,390.06,613.85,400.68Z"/><path class="cls-5" d="M571.24,432.34a37.12,37.12,0,0,1,11-19.1c9.09-8.28,20.44-17.77,20.44-17.77L616.79,402l-1.74,8.28a35.22,35.22,0,0,1-1.2,19.1c-3.6,10-7.08,18.57-7.08,18.57Z"/><polygon class="cls-6" points="615.05 410.3 596.48 400.68 602.63 395.47 616.79 402.02 615.05 410.3"/><path class="cls-4" d="M534.3,347.18s15,27.65,12.63,37.07-9.42,12.63-14.43,11.82l4.21,20.84-36.27,2.21-1.61-33.07s-14.62-14.62-7.61-28.85S519.07,330.55,534.3,347.18Z"/><path class="cls-7" d="M519.07,373.23s4.26,19.87-21.24,17c-23.44-2.6-28.05-36.87-13-44.28l6.61-2.61s-3.81-10.22,10.22-18,31.26-4.21,35.47,5.21-3.61,19-10.22,19.64c0,0,2.16,14.82-8.64,16.63Z"/><path class="cls-4" d="M525.28,368a7.61,7.61,0,1,1-7.61-7.61A7.6,7.6,0,0,1,525.28,368Z"/><path d="M532.5,396.07l-11.82-5.53s7.73,10.6,13.18,12.27Z"/><path class="cls-8" d="M473,421.52s42.29-10.82,85.57-13c0,0,24.24-3.41,44.88,8.61A342.48,342.48,0,0,0,640.5,436s-2.4-41.88,19.44-47.49l28,9.22s15.63,15.63,9.22,38.27-19.64,32.86-25.65,53.9-39.87,16.83-59.91,5.41l11,53.7s10.22,22-3.81,30.06H485s-15.43-.8-18.44-23.84-16.63-91-16.63-91S442.53,429.34,473,421.52Z"/><path d="M640.5,436l21.31,9.75s-11.09-13.89-21.31-16.3Z"/><line class="cls-9" x1="611.65" y1="495.26" x2="589.94" y2="483.74"/><path class="cls-6" d="M493.17,417.06s1.26,7.47,15.88,7.87,30.21-15,35.85-15.47c0,0-4-5.57-28.63-5.37S492.72,411.8,493.17,417.06Z"/><polygon class="cls-6" points="659.94 388.46 663.95 379.17 690.4 386.92 687.99 397.68 659.94 388.46"/><path class="cls-4" d="M666,379.77s5.57-16.26,9.18-22.27,6.31-7.71,6.91-9.92,3.51.3,1.3,5.31a29.84,29.84,0,0,0-2.5,8.52A121.62,121.62,0,0,0,693,355.6c4.07-2.34,10.92-8.82,10.92-8.82s2.11,15.43-2.4,22.24-12.36,17.54-12.36,17.54Z"/><path class="cls-9" d="M704.41,350.05s-4.06,9.42-10.74,14"/><path class="cls-9" d="M704.41,355.6s-2.66,8.88-7.87,13.49"/><path class="cls-7" d="M485,579,440.86,913.79h62l51.3-238.32L587.8,907.91l70-.53S645,683,618.86,579Z"/><path class="cls-6" d="M622.64,595.32c-1.23-5.7-2.48-11.15-3.78-16.3H485l-2.15,16.3Z"/><path class="cls-9" d="M554.14,675.47s-24-10.69-35.27-52.36"/><rect class="cls-9" x="544.9" y="616.69" width="45.04" height="10.15"/><polygon points="481.37 606.6 622.64 595.32 482.86 595.32 481.37 606.6"/><rect class="cls-10" x="592.08" y="517.37" width="11.22" height="36.34" transform="translate(347.85 -227.1) rotate(30)"/><path class="cls-8" d="M611.32,907.73l4.27,38.12h81.75s-1.6-15.49-10.68-16.56-31.51-6.3-36.33-21.85Z"/><path class="cls-8" d="M445.67,913.79l-4.81,12.85s-13.9,4.25-16.57,19.21h66.8l5.34-32.06Z"/><polygon points="650.33 907.44 612.45 917.81 611.32 907.73 650.33 907.44"/><polygon points="496.43 913.79 442.9 921.19 445.67 913.79 496.43 913.79"/><polygon class="cls-3" points="284.62 215.93 299.43 240.9 327.75 247.27 308.58 269.07 311.27 297.97 284.62 286.48 257.96 297.97 260.66 269.07 241.49 247.27 269.81 240.9 284.62 215.93"/><polygon class="cls-3" points="388.82 215.93 403.63 240.9 431.95 247.27 412.78 269.07 415.47 297.97 388.82 286.48 362.16 297.97 364.86 269.07 345.69 247.27 374.01 240.9 388.82 215.93"/><polygon class="cls-3" points="493.01 215.93 507.82 240.9 536.15 247.27 516.98 269.07 519.67 297.97 493.01 286.48 466.36 297.97 469.05 269.07 449.88 247.27 478.21 240.9 493.01 215.93"/><polygon class="cls-3" points="597.21 215.93 612.02 240.9 640.34 247.27 621.17 269.07 623.87 297.97 597.21 286.48 570.56 297.97 573.25 269.07 554.08 247.27 582.4 240.9 597.21 215.93"/><polygon class="cls-11" points="701.41 215.93 716.22 240.9 744.54 247.27 725.37 269.07 728.07 297.97 701.41 286.48 674.75 297.97 677.45 269.07 658.28 247.27 686.6 240.9 701.41 215.93"/><rect class="cls-6" x="241.49" y="357.03" width="123.09" height="22.14"/><rect class="cls-6" x="372.06" y="411.3" width="40.61" height="6.41"/><rect class="cls-6" x="273.55" y="411.3" width="72.14" height="6.41"/><rect class="cls-6" x="273.55" y="442.56" width="139.12" height="6.41"/><rect class="cls-6" x="273.55" y="475.41" width="139.12" height="6.41"/><path class="cls-3" d="M241,414.51A8.48,8.48,0,1,1,249.5,423,8.48,8.48,0,0,1,241,414.51Z"/><circle class="cls-3" cx="249.5" cy="444.97" r="8.48"/><circle class="cls-3" cx="249.5" cy="475.43" r="8.48"/><rect class="cls-1" x="224.99" y="609.03" width="135.31" height="250.26" rx="10"/><rect class="cls-3" x="241.02" y="593" width="135.31" height="250.26" rx="10"/><rect class="cls-11" x="271.48" y="624.91" width="74.4" height="74.4" rx="6"/><path class="cls-6" d="M308.47,683.22a4,4,0,0,1-2.51-.89l-19.24-15.49a4,4,0,1,1,5-6.25l15.7,12.65,17.38-28.19a4,4,0,1,1,6.82,4.21l-19.77,32.06a4,4,0,0,1-2.73,1.84A3.91,3.91,0,0,1,308.47,683.22Z"/><rect class="cls-11" x="271.48" y="725.37" width="74.4" height="74.4" rx="6"/><path class="cls-6" d="M308.47,783.68a4,4,0,0,1-2.51-.89l-19.24-15.5a4,4,0,1,1,5-6.24l15.7,12.65,17.38-28.2a4,4,0,0,1,6.82,4.21l-19.77,32.06a4,4,0,0,1-2.73,1.85A3.91,3.91,0,0,1,308.47,783.68Z"/></svg>